<svg width="74" height="74" viewBox="0 0 74 74" fill="none" xmlns="http://www.w3.org/2000/svg">
<mask id="mask0_7_3345" style="mask-type:alpha" maskUnits="userSpaceOnUse" x="0" y="0" width="74" height="74">
<rect width="74" height="74" fill="#D9D9D9"/>
</mask>
<g mask="url(#mask0_7_3345)">
<path d="M15.2399 63.2087C14.058 63.2087 13.0214 62.7708 12.1304 61.8952C11.2388 61.0195 10.793 59.975 10.793 58.7617V15.2389C10.793 14.057 11.2388 13.0205 12.1304 12.1294C13.0214 11.2378 14.058 10.792 15.2399 10.792H58.7627C59.976 10.792 61.0205 11.2378 61.8961 12.1294C62.7718 13.0205 63.2096 14.057 63.2096 15.2389V20.4097H42.0356C39.4898 20.4097 37.3985 21.2229 35.7618 22.8494C34.1256 24.4763 33.3075 26.5568 33.3075 29.0908V44.9576C33.3075 47.4916 34.1256 49.5718 35.7618 51.1983C37.3985 52.8248 39.4898 53.638 42.0356 53.638H63.2096V58.7617C63.2096 59.975 62.7718 61.0195 61.8961 61.8952C61.0205 62.7708 59.976 63.2087 58.7627 63.2087H15.2399ZM42.0356 50.14C40.4662 50.14 39.2023 49.6656 38.2439 48.717C37.285 47.7684 36.8055 46.5152 36.8055 44.9576V29.0908C36.8055 27.5013 37.285 26.2403 38.2439 25.3076C39.2023 24.3748 40.4662 23.9085 42.0356 23.9085H61.1107C62.6996 23.9085 63.9684 24.3748 64.917 25.3076C65.8657 26.2403 66.34 27.5013 66.34 29.0908V44.9576C66.34 46.5152 65.8657 47.7684 64.917 48.717C63.9684 49.6656 62.6996 50.14 61.1107 50.14H42.0356ZM50.0222 41.845C51.3069 41.845 52.4357 41.3586 53.4085 40.3858C54.3808 39.4136 54.8669 38.2691 54.8669 36.9525C54.8669 35.6483 54.3808 34.5229 53.4085 33.5763C52.4357 32.6292 51.3069 32.1556 50.0222 32.1556C48.718 32.1556 47.5797 32.6292 46.6074 33.5763C45.6346 34.5229 45.1482 35.6483 45.1482 36.9525C45.1482 38.2691 45.6346 39.4136 46.6074 40.3858C47.5797 41.3586 48.718 41.845 50.0222 41.845Z" fill="#556FF9"/>
<path d="M42.0348 50.1397C40.4654 50.1397 39.2015 49.6653 38.2431 48.7167C37.2841 47.7681 36.8047 46.515 36.8047 44.9574V29.0905C36.8047 27.5011 37.2841 26.24 38.2431 25.3073C39.2015 24.3746 40.4654 23.9082 42.0348 23.9082H61.1098C62.6988 23.9082 63.9676 24.3746 64.9162 25.3073C65.8649 26.24 66.3392 27.5011 66.3392 29.0905V44.9574C66.3392 46.515 65.8649 47.7681 64.9162 48.7167C63.9676 49.6653 62.6988 50.1397 61.1098 50.1397H42.0348ZM50.0214 41.8447C51.3061 41.8447 52.4349 41.3583 53.4077 40.3855C54.3799 39.4133 54.8661 38.2688 54.8661 36.9522C54.8661 35.648 54.3799 34.5226 53.4077 33.576C52.4349 32.6289 51.3061 32.1554 50.0214 32.1554C48.7171 32.1554 47.5789 32.6289 46.6066 33.576C45.6338 34.5226 45.1474 35.648 45.1474 36.9522C45.1474 38.2688 45.6338 39.4133 46.6066 40.3855C47.5789 41.3583 48.7171 41.8447 50.0214 41.8447Z" fill="#B6C1FF"/>
</g>
</svg>
