<svg width="74" height="74" viewBox="0 0 74 74" fill="none" xmlns="http://www.w3.org/2000/svg">
<mask id="mask0_7_3329" style="mask-type:alpha" maskUnits="userSpaceOnUse" x="0" y="0" width="74" height="74">
<rect width="74" height="74" fill="#D9D9D9"/>
</mask>
<g mask="url(#mask0_7_3329)">
<path d="M60.4798 57.8125H52.9788C52.4829 57.8125 52.0675 57.6434 51.7324 57.3053C51.3974 56.9672 51.2298 56.5481 51.2298 56.0481C51.2298 55.548 51.3974 55.1341 51.7324 54.8063C52.0675 54.4784 52.4829 54.3145 52.9788 54.3145H60.4798V46.8135C60.4798 46.3176 60.6489 45.9021 60.987 45.567C61.3252 45.232 61.744 45.0645 62.2435 45.0645C62.7435 45.0645 63.1574 45.232 63.4853 45.567C63.8137 45.9021 63.9779 46.3176 63.9779 46.8135V54.3145H71.4788C71.9742 54.3145 72.3897 54.4835 72.7253 54.8217C73.0603 55.1598 73.2279 55.5786 73.2279 56.0781C73.2279 56.5781 73.0603 56.9921 72.7253 57.3199C72.3897 57.6483 71.9742 57.8125 71.4788 57.8125H63.9779V65.3135C63.9779 65.8089 63.8088 66.2243 63.4707 66.5599C63.1325 66.895 62.7134 67.0625 62.2134 67.0625C61.7134 67.0625 61.2995 66.895 60.9716 66.5599C60.6438 66.2243 60.4798 65.8089 60.4798 65.3135V57.8125ZM11.2058 34.5804H62.7916V25.9123H11.2058V34.5804ZM12.154 60.125C10.9448 60.125 9.90134 59.6861 9.02361 58.8084C8.14589 57.9307 7.70703 56.8872 7.70703 55.6781V18.3219C7.70703 17.1128 8.14589 16.0693 9.02361 15.1916C9.90134 14.3139 10.9448 13.875 12.154 13.875H61.8434C63.0526 13.875 64.0961 14.3139 64.9738 15.1916C65.8515 16.0693 66.2904 17.1128 66.2904 18.3219V37.8001C66.2904 38.4302 66.0774 38.9584 65.6514 39.385C65.2248 39.811 64.6965 40.024 64.0665 40.024H60.4798C56.526 40.024 53.1559 41.4174 50.3696 44.2042C47.5828 46.9905 46.1893 50.3606 46.1893 54.3145V57.9011C46.1893 58.5312 45.9763 59.0595 45.5503 59.486C45.1238 59.912 44.5955 60.125 43.9655 60.125H12.154Z" fill="#556FF9"/>
<path d="M60.4805 57.8125H52.9795C52.4836 57.8125 52.0681 57.6434 51.7331 57.3053C51.398 56.9671 51.2305 56.5481 51.2305 56.0481C51.2305 55.548 51.398 55.1341 51.7331 54.8062C52.0681 54.4784 52.4836 54.3145 52.9795 54.3145H60.4805V46.8135C60.4805 46.3176 60.6495 45.9021 60.9877 45.567C61.3258 45.232 61.7446 45.0645 62.2441 45.0645C62.7441 45.0645 63.1581 45.232 63.4859 45.567C63.8143 45.9021 63.9785 46.3176 63.9785 46.8135V54.3145H71.4795C71.9749 54.3145 72.3904 54.4835 72.7259 54.8217C73.061 55.1598 73.2285 55.5786 73.2285 56.0781C73.2285 56.5781 73.061 56.9921 72.7259 57.3199C72.3904 57.6483 71.9749 57.8125 71.4795 57.8125H63.9785V65.3135C63.9785 65.8089 63.8094 66.2243 63.4713 66.5599C63.1332 66.895 62.7141 67.0625 62.2141 67.0625C61.7141 67.0625 61.3001 66.895 60.9723 66.5599C60.6444 66.2243 60.4805 65.8089 60.4805 65.3135V57.8125Z" fill="#B6C1FF"/>
</g>
</svg>
