<svg width="74" height="74" viewBox="0 0 74 74" fill="none" xmlns="http://www.w3.org/2000/svg">
<mask id="mask0_1_10382" style="mask-type:alpha" maskUnits="userSpaceOnUse" x="0" y="0" width="74" height="74">
<rect width="74" height="74" fill="#D9D9D9"/>
</mask>
<g mask="url(#mask0_1_10382)">
<path d="M53.1659 66.292C49.5034 66.292 46.3875 64.9993 43.818 62.4139C41.2491 59.8285 39.9646 56.7413 39.9646 53.1523C39.9646 49.4935 41.2491 46.368 43.818 43.7759C46.3875 41.1839 49.5034 39.8878 53.1659 39.8878C56.7775 39.8878 59.876 41.1839 62.4614 43.7759C65.0462 46.368 66.3387 49.4935 66.3387 53.1523C66.3387 56.7413 65.0462 59.8285 62.4614 62.4139C59.876 64.9993 56.7775 66.292 53.1659 66.292ZM13.875 33.8692V19.5556C13.875 18.6177 14.1479 17.7631 14.6936 16.9918C15.2394 16.2199 15.929 15.6595 16.7625 15.3106L35.4406 8.36693C35.9858 8.16137 36.5056 8.05859 37 8.05859C37.4944 8.05859 38.0142 8.16137 38.5594 8.36693L57.2375 15.3106C58.071 15.6595 58.7606 16.2199 59.3064 16.9918C59.8521 17.7631 60.125 18.6177 60.125 19.5556V33.5793C60.125 34.2592 59.8621 34.7967 59.3364 35.1919C58.8107 35.5871 58.2236 35.676 57.5751 35.4586C56.8793 35.2808 56.1501 35.1346 55.3875 35.02C54.6243 34.9054 53.8746 34.8481 53.1382 34.8481C48.0841 34.8481 43.7849 36.6342 40.2406 40.2062C36.6968 43.7788 34.9249 48.0941 34.9249 53.1523C34.9249 54.8913 35.2027 56.6445 35.7582 58.4117C36.3132 60.1785 37.1344 61.8445 38.2218 63.4098C38.676 64.0779 38.7007 64.7313 38.2958 65.37C37.8903 66.0083 37.3279 66.2149 36.6084 65.9898C33.3396 64.9816 30.442 63.6729 27.9157 62.0639C25.39 60.455 22.9097 57.9685 20.4749 54.6046C18.4034 51.697 16.7857 48.4847 15.6217 44.9676C14.4572 41.4506 13.875 37.7511 13.875 33.8692ZM53.0272 52.9804C54.3551 52.9804 55.4787 52.5002 56.398 51.5398C57.3174 50.5798 57.777 49.4434 57.777 48.1304C57.777 46.8179 57.3145 45.6992 56.3895 44.7742C55.4645 43.8492 54.3455 43.3867 53.0326 43.3867C51.7196 43.3867 50.5831 43.845 49.6232 44.7618C48.6632 45.6786 48.1833 46.7991 48.1833 48.1234C48.1833 49.4482 48.6627 50.5888 49.6216 51.5452C50.5805 52.502 51.7157 52.9804 53.0272 52.9804ZM52.9801 62.4972C54.6559 62.4972 56.1827 62.1423 57.5604 61.4326C58.9382 60.723 60.0954 59.7101 61.0323 58.394C59.7357 57.6746 58.4258 57.135 57.1026 56.7753C55.7793 56.4155 54.4052 56.2357 52.9801 56.2357C51.5551 56.2357 50.1681 56.4155 48.8192 56.7753C47.4702 57.135 46.1732 57.6746 44.928 58.394C45.8648 59.7101 47.009 60.723 48.3605 61.4326C49.7126 62.1423 51.2524 62.4972 52.9801 62.4972Z" fill="#556FF9"/>
<path d="M53.1622 66.2918C49.4997 66.2918 46.3838 64.9991 43.8143 62.4138C41.2454 59.8284 39.9609 56.7412 39.9609 53.1522C39.9609 49.4933 41.2454 46.3678 43.8143 43.7758C46.3838 41.1837 49.4997 39.8877 53.1622 39.8877C56.7738 39.8877 59.8723 41.1837 62.4577 43.7758C65.0426 46.3678 66.335 49.4933 66.335 53.1522C66.335 56.7412 65.0426 59.8284 62.4577 62.4138C59.8723 64.9991 56.7738 66.2918 53.1622 66.2918ZM53.0235 52.9803C54.3514 52.9803 55.475 52.5001 56.3943 51.5396C57.3137 50.5797 57.7733 49.4432 57.7733 48.1302C57.7733 46.8177 57.3109 45.699 56.3859 44.774C55.4609 43.849 54.3419 43.3865 53.0289 43.3865C51.7159 43.3865 50.5794 43.8449 49.6195 44.7617C48.6595 45.6784 48.1796 46.799 48.1796 48.1233C48.1796 49.4481 48.659 50.5887 49.6179 51.545C50.5768 52.5019 51.712 52.9803 53.0235 52.9803ZM52.9765 62.497C54.6522 62.497 56.179 62.1422 57.5567 61.4325C58.9345 60.7228 60.0918 59.7099 61.0286 58.3939C59.732 57.6744 58.4221 57.1348 57.0989 56.7751C55.7756 56.4154 54.4015 56.2355 52.9765 56.2355C51.5514 56.2355 50.1645 56.4154 48.8155 56.7751C47.4665 57.1348 46.1695 57.6744 44.9243 58.3939C45.8611 59.7099 47.0053 60.7228 48.3569 61.4325C49.7089 62.1422 51.2488 62.497 52.9765 62.497Z" fill="#B6C1FF"/>
</g>
</svg>
