<svg width="62" height="59" viewBox="0 0 62 59" fill="none" xmlns="http://www.w3.org/2000/svg">
<path d="M37.2311 57.9656L14.2417 51.3125V28.3602H20.9665C21.243 28.3602 21.5076 28.3807 21.7605 28.4218C22.0138 28.4635 22.2689 28.5357 22.5259 28.6384L40.6998 35.404C42.0832 35.9102 43.1811 36.7265 43.9936 37.853C44.8055 38.9794 45.2115 40.0843 45.2115 41.1676C45.2115 41.5196 45.1129 41.7991 44.9155 42.0062C44.7177 42.2138 44.443 42.3176 44.0915 42.3176H39.976C38.4821 42.3176 37.1273 42.2259 35.9114 42.0425C34.6961 41.8585 33.4519 41.5509 32.179 41.1198L27.423 39.5966C27.1347 39.4938 26.859 39.5015 26.5959 39.6197C26.3333 39.7384 26.1506 39.9422 26.0478 40.231C25.925 40.5193 25.933 40.8048 26.0717 41.0874C26.21 41.37 26.4333 41.5627 26.7416 41.6655L31.5323 43.2843C32.5719 43.6204 33.8004 43.904 35.2177 44.1353C36.635 44.3665 38.4207 44.4822 40.575 44.4822H53.5311C56.0055 44.4822 57.9177 45.0693 59.2677 46.2435C60.6176 47.4172 61.2926 49.1742 61.2926 51.5145L39.7332 57.9956C39.3617 58.0984 38.9446 58.1447 38.4821 58.1344C38.0196 58.1246 37.6026 58.0683 37.2311 57.9656ZM0.21875 51.6748V31.9769C0.21875 30.9687 0.569736 30.1138 1.27171 29.4124C1.97317 28.7109 2.82802 28.3602 3.83627 28.3602H7.04987C8.05761 28.3602 8.91247 28.7109 9.61444 29.4124C10.3159 30.1138 10.6666 30.9687 10.6666 31.9769V51.6748C10.6666 52.6825 10.3159 53.5371 9.61444 54.2386C8.91247 54.9406 8.05761 55.2915 7.04987 55.2915H3.83627C2.82802 55.2915 1.97317 54.9406 1.27171 54.2386C0.569736 53.5371 0.21875 52.6825 0.21875 51.6748ZM35.5884 17.3843L52.3217 0.728875C52.6336 0.416431 53.0188 0.265094 53.4772 0.274858C53.9361 0.284622 54.3374 0.445723 54.6812 0.758167C55.025 1.07061 55.1969 1.46888 55.1969 1.95296C55.1969 2.43704 55.025 2.85098 54.6812 3.19477L37.1478 20.7759C36.7049 21.2189 36.1851 21.4404 35.5884 21.4404C34.9913 21.4404 34.4715 21.2189 34.029 20.7759L25.1583 11.9052C24.8145 11.5614 24.6377 11.1505 24.628 10.6726C24.6177 10.1942 24.7847 9.78308 25.129 9.43929C25.4728 9.09499 25.8967 8.92797 26.4009 8.93825C26.9045 8.94802 27.3184 9.12479 27.6427 9.46859L35.5884 17.3843Z" fill="#556FF9"/>
</svg>
