<svg width="64" height="60" viewBox="0 0 64 60" fill="none" xmlns="http://www.w3.org/2000/svg">
<rect width="64" height="60" rx="6" fill="#F1F3FF"/>
<mask id="mask0_7_4124" style="mask-type:alpha" maskUnits="userSpaceOnUse" x="5" y="3" width="54" height="54">
<rect x="5" y="3" width="54" height="54" fill="#D9D9D9"/>
</mask>
<g mask="url(#mask0_7_4124)">
<path d="M32.0013 35.0922L36.4625 37.8136C36.7479 38.0011 37.037 37.9824 37.3299 37.7574C37.6228 37.5324 37.7317 37.2397 37.6567 36.8793L36.4709 31.864L40.4084 28.4694C40.6968 28.2027 40.7754 27.908 40.6441 27.5851C40.5129 27.2619 40.2742 27.0815 39.9281 27.044L34.766 26.6159L32.7674 21.8605C32.6189 21.5373 32.3639 21.3757 32.0024 21.3757C31.6409 21.3757 31.3852 21.5373 31.2352 21.8605L29.2366 26.6159L24.0746 27.044C23.7284 27.0815 23.4898 27.2619 23.3585 27.5851C23.2273 27.908 23.3058 28.2027 23.5942 28.4694L27.5317 31.864L26.3459 36.8793C26.2709 37.2397 26.3799 37.5324 26.6728 37.7574C26.9656 37.9824 27.2548 38.0011 27.5401 37.8136L32.0013 35.0922ZM24.9318 46.8744H18.3714C17.4808 46.8744 16.7173 46.5562 16.0809 45.9198C15.4445 45.2834 15.1263 44.5199 15.1263 43.6293V37.0689L10.3411 32.2752C10.0036 31.9524 9.76344 31.5931 9.62056 31.1975C9.47769 30.8022 9.40625 30.4042 9.40625 30.0033C9.40625 29.6024 9.47769 29.203 9.62056 28.8052C9.76344 28.4069 10.0036 28.0464 10.3411 27.7235L15.1263 22.9299V16.3694C15.1263 15.4788 15.4445 14.7153 16.0809 14.0789C16.7173 13.4425 17.4808 13.1244 18.3714 13.1244H24.9318L29.7254 8.31723C30.0483 7.99436 30.4134 7.76148 30.8206 7.61861C31.2275 7.47573 31.6312 7.4043 32.0317 7.4043C32.4326 7.4043 32.8321 7.48155 33.2304 7.63605C33.6283 7.79017 33.9888 8.03598 34.3121 8.37348L39.0708 13.1244H45.6313C46.5219 13.1244 47.2854 13.4425 47.9218 14.0789C48.5581 14.7153 48.8763 15.4788 48.8763 16.3694V22.9299L53.6834 27.7235C54.0063 28.0464 54.2392 28.4056 54.3821 28.8012C54.5249 29.1965 54.5964 29.5945 54.5964 29.9954C54.5964 30.3963 54.5249 30.7957 54.3821 31.1935C54.2392 31.5918 54.0063 31.9524 53.6834 32.2752L48.8763 37.0689V43.6293C48.8763 44.5199 48.5581 45.2834 47.9218 45.9198C47.2854 46.5562 46.5219 46.8744 45.6313 46.8744H39.0708L34.3121 51.5904C33.9888 51.8904 33.6296 52.1176 33.2343 52.2721C32.8387 52.4262 32.4406 52.5033 32.0401 52.5033C31.6393 52.5033 31.2434 52.4262 30.8527 52.2721C30.4616 52.1176 30.1046 51.8904 29.7817 51.5904L24.9318 46.8744Z" fill="#007AFF"/>
</g>
</svg>
