<svg width="74" height="74" viewBox="0 0 74 74" fill="none" xmlns="http://www.w3.org/2000/svg">
<mask id="mask0_7_14499" style="mask-type:alpha" maskUnits="userSpaceOnUse" x="0" y="0" width="74" height="74">
<rect width="74" height="74" fill="#D9D9D9"/>
</mask>
<g mask="url(#mask0_7_14499)">
<path d="M9.45801 62.6452C8.96262 62.6452 8.54739 62.4761 8.21234 62.138C7.87677 61.7998 7.70898 61.3808 7.70898 60.8807C7.70898 60.3812 7.87677 59.9673 8.21234 59.6389C8.54739 59.3111 8.96262 59.1471 9.45801 59.1471H64.5433C65.0387 59.1471 65.4539 59.3162 65.789 59.6544C66.1245 59.9925 66.2923 60.4113 66.2923 60.9108C66.2923 61.4108 66.1245 61.825 65.789 62.1534C65.4539 62.4813 65.0387 62.6452 64.5433 62.6452H9.45801ZM14.0761 53.7513C13.1598 53.7513 12.3836 53.4314 11.7474 52.7916C11.1107 52.1513 10.7923 51.3741 10.7923 50.4598V38.7493C10.7923 37.8351 11.113 37.0581 11.7543 36.4183C12.3957 35.7786 13.1744 35.4587 14.0907 35.4587C15.007 35.4587 15.7832 35.7786 16.4194 36.4183C17.0561 37.0581 17.3745 37.8351 17.3745 38.7493V50.4598C17.3745 51.3741 17.0538 52.1513 16.4125 52.7916C15.7711 53.4314 14.9923 53.7513 14.0761 53.7513ZM29.3031 53.7513C28.3868 53.7513 27.6104 53.4314 26.9737 52.7916C26.3375 52.1513 26.0194 51.3741 26.0194 50.4598V23.3327C26.0194 22.419 26.34 21.642 26.9814 21.0017C27.6227 20.3619 28.4015 20.042 29.3178 20.042C30.2335 20.042 31.0097 20.3619 31.6464 21.0017C32.2826 21.642 32.6007 22.419 32.6007 23.3327V50.4598C32.6007 51.3741 32.2801 52.1513 31.6387 52.7916C30.9974 53.4314 30.2189 53.7513 29.3031 53.7513ZM44.6065 53.7513C43.6907 53.7513 42.9145 53.4314 42.2778 52.7916C41.6416 52.1513 41.3235 51.3741 41.3235 50.4598V32.5827C41.3235 31.669 41.6441 30.892 42.2855 30.2517C42.9268 29.6119 43.7054 29.292 44.6211 29.292C45.5374 29.292 46.3139 29.6119 46.9506 30.2517C47.5868 30.892 47.9049 31.669 47.9049 32.5827V50.4598C47.9049 51.3741 47.5842 52.1513 46.9429 52.7916C46.3015 53.4314 45.5227 53.7513 44.6065 53.7513ZM59.9106 53.7513C58.9943 53.7513 58.2181 53.4314 57.5819 52.7916C56.9452 52.1513 56.6268 51.3741 56.6268 50.4598V14.0827C56.6268 13.169 56.9475 12.392 57.5888 11.7517C58.2302 11.1119 59.009 10.792 59.9252 10.792C60.8415 10.792 61.6177 11.1119 62.2539 11.7517C62.8906 12.392 63.209 13.169 63.209 14.0827V50.4598C63.209 51.3741 62.8883 52.1513 62.247 52.7916C61.6057 53.4314 60.8269 53.7513 59.9106 53.7513Z" fill="#B6C1FF"/>
<path d="M14.0767 53.7513C13.1605 53.7513 12.3842 53.4314 11.748 52.7916C11.1113 52.1513 10.793 51.3741 10.793 50.4598V38.7493C10.793 37.8351 11.1136 37.0581 11.755 36.4183C12.3963 35.7786 13.1751 35.4587 14.0914 35.4587C15.0076 35.4587 15.7839 35.7786 16.4201 36.4183C17.0568 37.0581 17.3751 37.8351 17.3751 38.7493V50.4598C17.3751 51.3741 17.0544 52.1513 16.4131 52.7916C15.7718 53.4314 14.993 53.7513 14.0767 53.7513ZM29.3038 53.7513C28.3875 53.7513 27.611 53.4314 26.9743 52.7916C26.3381 52.1513 26.02 51.3741 26.02 50.4598V23.3327C26.02 22.419 26.3407 21.642 26.982 21.0017C27.6233 20.3619 28.4021 20.042 29.3184 20.042C30.2342 20.042 31.0104 20.3619 31.6471 21.0017C32.2833 21.642 32.6014 22.419 32.6014 23.3327V50.4598C32.6014 51.3741 32.2807 52.1513 31.6394 52.7916C30.9981 53.4314 30.2195 53.7513 29.3038 53.7513ZM44.6071 53.7513C43.6914 53.7513 42.9151 53.4314 42.2784 52.7916C41.6422 52.1513 41.3241 51.3741 41.3241 50.4598V32.5827C41.3241 31.669 41.6448 30.892 42.2861 30.2517C42.9275 29.6119 43.706 29.292 44.6218 29.292C45.538 29.292 46.3145 29.6119 46.9512 30.2517C47.5874 30.892 47.9055 31.669 47.9055 32.5827V50.4598C47.9055 51.3741 47.5848 52.1513 46.9435 52.7916C46.3022 53.4314 45.5234 53.7513 44.6071 53.7513ZM59.9112 53.7513C58.995 53.7513 58.2188 53.4314 57.5826 52.7916C56.9458 52.1513 56.6275 51.3741 56.6275 50.4598V14.0827C56.6275 13.169 56.9482 12.392 57.5895 11.7517C58.2308 11.1119 59.0096 10.792 59.9259 10.792C60.8422 10.792 61.6184 11.1119 62.2546 11.7517C62.8913 12.392 63.2096 13.169 63.2096 14.0827V50.4598C63.2096 51.3741 62.889 52.1513 62.2476 52.7916C61.6063 53.4314 60.8275 53.7513 59.9112 53.7513Z" fill="#556FF9"/>
</g>
</svg>
