<svg width="62" height="54" viewBox="0 0 62 54" fill="none" xmlns="http://www.w3.org/2000/svg">
<rect width="62" height="54" rx="6" fill="#F1F3FF"/>
<mask id="mask0_7_4793" style="mask-type:alpha" maskUnits="userSpaceOnUse" x="4" y="0" width="54" height="54">
<rect x="4" width="54" height="54" fill="#D9D9D9"/>
</mask>
<g mask="url(#mask0_7_4793)">
<path d="M20.1826 36.6924H22.7357V8.17819H20.1826V36.6924ZM17.7599 48.375C16.1252 48.375 14.7357 47.8029 13.5912 46.6588C12.4471 45.5143 11.875 44.1248 11.875 42.4901V11.5099C11.875 9.87525 12.4471 8.48569 13.5912 7.34119C14.7357 6.19706 16.1252 5.625 17.7599 5.625H40.9951V39.2451H17.7599C16.8179 39.2451 16.027 39.5565 15.3873 40.1794C14.7479 40.8019 14.4282 41.5854 14.4282 42.5301C14.4282 43.4743 14.7479 44.259 15.3873 44.8841C16.027 45.5093 16.8179 45.8218 17.7599 45.8218H47.5718V10.125H50.125V48.375H17.7599Z" fill="#007AFF"/>
</g>
</svg>
