<svg width="74" height="74" viewBox="0 0 74 74" fill="none" xmlns="http://www.w3.org/2000/svg">
<mask id="mask0_7_3341" style="mask-type:alpha" maskUnits="userSpaceOnUse" x="0" y="0" width="74" height="74">
<rect width="74" height="74" fill="#D9D9D9"/>
</mask>
<g mask="url(#mask0_7_3341)">
<path d="M34.5259 45.6395V40.599H39.5663V45.6395H34.5259ZM29.7058 20.0417H44.2915V13.6977C44.2915 13.4603 44.1929 13.2427 43.9956 13.0448C43.7977 12.8475 43.5803 12.7488 43.3434 12.7488H30.654C30.4171 12.7488 30.1997 12.8475 30.0018 13.0448C29.8045 13.2427 29.7058 13.4603 29.7058 13.6977V20.0417ZM12.154 63.2083C10.9448 63.2083 9.90134 62.7695 9.02361 61.8918C8.14589 61.014 7.70703 59.9706 7.70703 58.7614V44.8687H31.0278V46.9137C31.0278 47.5298 31.2449 48.0545 31.6792 48.4877C32.1129 48.9209 32.6381 49.1375 33.2548 49.1375H40.859C41.4947 49.1375 42.0212 48.9209 42.4385 48.4877C42.8557 48.0545 43.0644 47.5298 43.0644 46.9137V44.8687H66.2904V58.7614C66.2904 59.9706 65.8515 61.014 64.9738 61.8918C64.0961 62.7695 63.0526 63.2083 61.8434 63.2083H12.154ZM7.70703 41.3699V24.4886C7.70703 23.2794 8.14589 22.236 9.02361 21.3583C9.90134 20.4805 10.9448 20.0417 12.154 20.0417H26.207V13.6977C26.207 12.4885 26.6459 11.4448 27.5236 10.5666C28.4013 9.68886 29.4448 9.25 30.654 9.25H43.3434C44.5526 9.25 45.5961 9.68886 46.4738 10.5666C47.3515 11.4448 47.7904 12.4885 47.7904 13.6977V20.0417H61.8434C63.0526 20.0417 64.0961 20.4805 64.9738 21.3583C65.8515 22.236 66.2904 23.2794 66.2904 24.4886V41.3699H43.0644V39.3241C43.0644 38.6894 42.8521 38.1601 42.4277 37.7361C42.0032 37.3127 41.4731 37.101 40.8374 37.101H33.2332C32.6165 37.101 32.0949 37.3127 31.6684 37.7361C31.2413 38.1601 31.0278 38.6894 31.0278 39.3241V41.3699H7.70703Z" fill="#556FF9"/>
<path d="M29.7058 20.0417H44.2915V13.6977C44.2915 13.4603 44.1929 13.2427 43.9956 13.0448C43.7977 12.8475 43.5803 12.7488 43.3434 12.7488H30.654C30.4171 12.7488 30.1997 12.8475 30.0018 13.0448C29.8045 13.2427 29.7058 13.4603 29.7058 13.6977V20.0417ZM7.70703 41.3699V24.4886C7.70703 23.2794 8.14589 22.236 9.02361 21.3583C9.90134 20.4805 10.9448 20.0417 12.154 20.0417H26.207V13.6977C26.207 12.4885 26.6459 11.4448 27.5236 10.5666C28.4013 9.68886 29.4448 9.25 30.654 9.25H43.3434C44.5526 9.25 45.5961 9.68886 46.4738 10.5666C47.3515 11.4448 47.7904 12.4885 47.7904 13.6977V20.0417H61.8434C63.0526 20.0417 64.0961 20.4805 64.9738 21.3583C65.8515 22.236 66.2904 23.2794 66.2904 24.4886V41.3699H43.0644V39.3241C43.0644 38.6894 42.8521 38.1601 42.4277 37.7361C42.0032 37.3127 41.4731 37.101 40.8374 37.101H33.2332C32.6165 37.101 32.0949 37.3127 31.6684 37.7361C31.2413 38.1601 31.0278 38.6894 31.0278 39.3241V41.3699H7.70703Z" fill="#B6C1FF"/>
</g>
</svg>
