<svg width="62" height="54" viewBox="0 0 62 54" fill="none" xmlns="http://www.w3.org/2000/svg">
<rect width="62" height="54" rx="6" fill="#F1F3FF"/>
<mask id="mask0_7_7807" style="mask-type:alpha" maskUnits="userSpaceOnUse" x="4" y="0" width="54" height="54">
<rect x="4" width="54" height="54" fill="#D9D9D9"/>
</mask>
<g mask="url(#mask0_7_7807)">
<path d="M22.0951 40.6558H24.367V35.8138H29.2084V33.5424H24.367V28.7224H22.0951V33.5424H17.275V35.8138H22.0951V40.6558ZM33.9728 38.7518H44.5647V36.5147H33.9728V38.7518ZM33.9728 32.8416H44.5647V30.5696H33.9728V32.8416ZM35.8161 23.6728L39.1608 20.3063L42.5268 23.6728L44.1625 22.0151L40.7959 18.6924L44.1625 15.3259L42.5268 13.6907L39.1608 17.0353L35.8161 13.6907L34.1584 15.3259L37.525 18.6924L34.1584 22.0151L35.8161 23.6728ZM18.0321 19.8174H28.4299V17.5455H18.0321V19.8174ZM15.1201 46.125C14.2377 46.125 13.4763 45.8047 12.8358 45.1642C12.1953 44.5238 11.875 43.7623 11.875 42.8799V11.1201C11.875 10.2377 12.1953 9.47625 12.8358 8.83575C13.4763 8.19525 14.2377 7.875 15.1201 7.875H46.8799C47.7623 7.875 48.5238 8.19525 49.1642 8.83575C49.8047 9.47625 50.125 10.2377 50.125 11.1201V42.8799C50.125 43.7623 49.8047 44.5238 49.1642 45.1642C48.5238 45.8047 47.7623 46.125 46.8799 46.125H15.1201ZM15.1201 43.5718H46.8799C47.0528 43.5718 47.2114 43.4998 47.3558 43.3558C47.4998 43.2114 47.5718 43.0528 47.5718 42.8799V11.1201C47.5718 10.9472 47.4998 10.7886 47.3558 10.6442C47.2114 10.5002 47.0528 10.4282 46.8799 10.4282H15.1201C14.9472 10.4282 14.7886 10.5002 14.6442 10.6442C14.5002 10.7886 14.4282 10.9472 14.4282 11.1201V42.8799C14.4282 43.0528 14.5002 43.2114 14.6442 43.3558C14.7886 43.4998 14.9472 43.5718 15.1201 43.5718Z" fill="#007AFF"/>
<path d="M22.0935 40.6565H24.3654V35.8145H29.2069V33.5432H24.3654V28.7231H22.0935V33.5432H17.2734V35.8145H22.0935V40.6565ZM35.8146 23.6735L39.1592 20.307L42.5252 23.6735L44.1609 22.0158L40.7944 18.6932L44.1609 15.3266L42.5252 13.6914L39.1592 17.036L35.8146 13.6914L34.1569 15.3266L37.5234 18.6932L34.1569 22.0158L35.8146 23.6735Z" fill="#B6C1FF"/>
</g>
</svg>
