<svg width="21" height="21" viewBox="0 0 21 21" fill="none" xmlns="http://www.w3.org/2000/svg">
<path d="M13.4404 15.7701C15.6113 14.8636 13.5676 11.3885 11.8182 9.62322C9.98924 7.81014 6.72095 5.71875 5.67129 8.00896L0.955746 18.4579C0.430914 19.6268 1.52034 20.7481 2.69723 20.255L13.4404 15.7701ZM1.9577 18.8873L5.92575 10.0844C6.32335 11.0943 7.12651 12.2394 8.16028 13.2811C9.17814 14.291 10.2914 15.0783 11.2854 15.4838L2.27578 19.2292C2.00541 19.3406 1.83047 19.1736 1.9577 18.8873ZM6.79252 8.24748C7.31736 7.71473 9.13044 8.49401 11.0309 10.4104C12.9553 12.311 13.7187 14.132 13.1939 14.6489C12.6611 15.1896 10.848 14.4103 8.93956 12.4938C7.03108 10.5933 6.25973 8.77236 6.79252 8.24748ZM7.96146 2.56181C8.43857 2.56181 8.83621 2.17216 8.83621 1.68708C8.83621 1.20996 8.43857 0.820312 7.96146 0.820312C7.46844 0.820312 7.08674 1.20996 7.08674 1.68708C7.08674 2.17216 7.46844 2.56181 7.96146 2.56181ZM9.01114 4.04883C8.95543 3.7546 8.76462 3.50809 8.45451 3.50809C8.16028 3.51605 7.85812 3.76256 7.9217 4.08064C8.27958 5.94936 8.27958 7.87372 7.9217 9.77427C7.85011 10.0844 8.16028 10.323 8.44651 10.3309C8.74874 10.3309 8.94749 10.0924 9.00321 9.79815C9.37689 7.85784 9.37689 5.96526 9.01114 4.04883ZM12.8758 3.9375C13.7108 3.9375 14.3708 3.26953 14.3708 2.44252C14.3708 1.59961 13.7108 0.947545 12.8758 0.947545C12.0408 0.947545 11.3809 1.59961 11.3809 2.44252C11.3809 3.26953 12.0408 3.9375 12.8758 3.9375ZM11.3649 6.44239C11.7545 6.44239 12.0647 6.1243 12.0647 5.73466C12.0647 5.35296 11.7545 5.03488 11.3649 5.03488C10.9832 5.03488 10.6572 5.35296 10.6572 5.73466C10.6572 6.1243 10.9832 6.44239 11.3649 6.44239ZM19.3647 3.01507C19.7463 3.01507 20.0565 2.70494 20.0565 2.31529C20.0565 1.92564 19.7463 1.60756 19.3647 1.60756C18.975 1.60756 18.6648 1.92564 18.6648 2.31529C18.6648 2.70494 18.975 3.01507 19.3647 3.01507ZM17.0665 3.53194L15.5795 5.01897C15.3728 5.23368 15.3728 5.58356 15.5795 5.79827C15.8022 6.01297 16.152 6.01297 16.3667 5.79827L17.8537 4.3192C18.0605 4.10449 18.0605 3.74665 17.8537 3.53194C17.639 3.3252 17.2812 3.3252 17.0665 3.53194ZM14.1163 6.4901L10.0608 10.5377C9.85407 10.7524 9.85407 11.1102 10.0608 11.3249C10.2755 11.5317 10.6333 11.5317 10.848 11.3249L14.8956 7.26939C15.0944 7.06264 15.0944 6.71275 14.8956 6.4901C14.6729 6.29129 14.3231 6.29129 14.1163 6.4901ZM20.0883 10.148C20.5733 10.148 20.963 9.75839 20.963 9.26534C20.963 8.78823 20.5733 8.3986 20.0883 8.3986C19.5952 8.3986 19.2135 8.78823 19.2135 9.26534C19.2135 9.75839 19.5952 10.148 20.0883 10.148ZM16.6689 10.4741C17.3766 10.4741 17.9412 9.92538 17.9412 9.21763C17.9412 8.51789 17.3766 7.95325 16.6689 7.95325C15.9691 7.95325 15.4205 8.51789 15.4205 9.21763C15.4205 9.92538 15.9691 10.4741 16.6689 10.4741ZM19.7861 14.2195C20.2712 14.2195 20.6608 13.8378 20.6608 13.3447C20.6608 12.8597 20.2712 12.47 19.7861 12.47C19.301 12.47 18.9114 12.8597 18.9114 13.3447C18.9114 13.8378 19.301 14.2195 19.7861 14.2195ZM17.3608 12.3746C15.4363 12.0088 13.5517 12.0088 11.6035 12.3746C11.3172 12.4382 11.0707 12.637 11.0787 12.9313C11.0787 13.2254 11.3172 13.5356 11.6353 13.4719C13.5358 13.1141 15.4523 13.1062 17.3289 13.464C17.6311 13.5276 17.8856 13.2334 17.8935 12.9313C17.9014 12.6211 17.647 12.4303 17.3608 12.3746Z" fill="#312ECB"/>
</svg>
