<svg width="25" height="24" viewBox="0 0 25 24" fill="none" xmlns="http://www.w3.org/2000/svg">
<mask id="mask0_1_10466" style="mask-type:alpha" maskUnits="userSpaceOnUse" x="0" y="0" width="25" height="24">
<rect x="0.859375" y="0.825195" width="23.1619" height="23.1619" fill="#D9D9D9"/>
</mask>
<g mask="url(#mask0_1_10466)">
<g filter="url(#filter0_i_1_10466)">
<path d="M11.0888 14.1428L9.01384 12.0679C8.8369 11.891 8.61172 11.8025 8.33828 11.8025C8.06484 11.8025 7.83965 11.891 7.66272 12.0679C7.48579 12.2448 7.39732 12.47 7.39732 12.7435C7.39732 13.0169 7.48579 13.2421 7.66272 13.419L10.4132 16.1695C10.6062 16.3625 10.8314 16.459 11.0888 16.459C11.3461 16.459 11.5713 16.3625 11.7643 16.1695L17.217 10.7168C17.394 10.5399 17.4824 10.3147 17.4824 10.0412C17.4824 9.76781 17.394 9.54262 17.217 9.36569C17.0401 9.18876 16.8149 9.10029 16.5415 9.10029C16.268 9.10029 16.0428 9.18876 15.8659 9.36569L11.0888 14.1428ZM12.4399 22.0565C11.1048 22.0565 9.85024 21.8032 8.67606 21.2965C7.50187 20.7898 6.4805 20.1022 5.61192 19.2336C4.74335 18.3651 4.05573 17.3437 3.54906 16.1695C3.0424 14.9953 2.78906 13.7407 2.78906 12.4057C2.78906 11.0707 3.0424 9.81606 3.54906 8.64188C4.05573 7.4677 4.74335 6.44632 5.61192 5.57774C6.4805 4.70917 7.50187 4.02155 8.67606 3.51488C9.85024 3.00822 11.1048 2.75488 12.4399 2.75488C13.7749 2.75488 15.0295 3.00822 16.2037 3.51488C17.3779 4.02155 18.3992 4.70917 19.2678 5.57774C20.1364 6.44632 20.824 7.4677 21.3307 8.64188C21.8373 9.81606 22.0907 11.0707 22.0907 12.4057C22.0907 13.7407 21.8373 14.9953 21.3307 16.1695C20.824 17.3437 20.1364 18.3651 19.2678 19.2336C18.3992 20.1022 17.3779 20.7898 16.2037 21.2965C15.0295 21.8032 13.7749 22.0565 12.4399 22.0565Z" fill="#292929"/>
</g>
</g>
<defs>
<filter id="filter0_i_1_10466" x="2.78906" y="-5.86475" width="19.3047" height="27.9214" filterUnits="userSpaceOnUse" color-interpolation-filters="sRGB">
<feFlood flood-opacity="0" result="BackgroundImageFix"/>
<feBlend mode="normal" in="SourceGraphic" in2="BackgroundImageFix" result="shape"/>
<feColorMatrix in="SourceAlpha" type="matrix" values="0 0 0 0 0 0 0 0 0 0 0 0 0 0 0 0 0 0 127 0" result="hardAlpha"/>
<feOffset dy="-8.61963"/>
<feGaussianBlur stdDeviation="4.41756"/>
<feComposite in2="hardAlpha" operator="arithmetic" k2="-1" k3="1"/>
<feColorMatrix type="matrix" values="0 0 0 0 1 0 0 0 0 1 0 0 0 0 1 0 0 0 0.25 0"/>
<feBlend mode="normal" in2="shape" result="effect1_innerShadow_1_10466"/>
</filter>
</defs>
</svg>
