<svg width="60" height="66" viewBox="0 0 60 66" fill="none" xmlns="http://www.w3.org/2000/svg">
<path d="M45.5568 55.9179L40.7475 51.1094C40.5106 50.8915 40.2637 50.7777 40.0068 50.7679C39.7498 50.7582 39.5026 50.872 39.2652 51.1094C39.0283 51.3463 38.9099 51.6012 38.9099 51.8741C38.9099 52.1469 39.0283 52.4018 39.2652 52.6387L45.0642 58.4855C45.3016 58.7224 45.5452 58.8974 45.7949 59.0104C46.0447 59.123 46.3224 59.1793 46.6282 59.1793C46.9335 59.1793 47.2097 59.123 47.4569 59.0104C47.704 58.8974 47.9463 58.7224 48.1837 58.4855L54.0297 52.6387C54.2471 52.4214 54.3607 52.1714 54.3705 51.8887C54.3807 51.6061 54.2672 51.3463 54.0297 51.1094C53.7928 50.872 53.538 50.7533 53.2651 50.7533C52.9922 50.7533 52.7337 50.8753 52.4896 51.1194L47.7212 55.9179V44.545C47.7212 44.2644 47.6085 44.0165 47.3829 43.8011C47.1578 43.5858 46.9047 43.4782 46.6236 43.4782C46.343 43.4782 46.0951 43.5858 45.8797 43.8011C45.6644 44.0165 45.5568 44.2644 45.5568 44.545V55.9179ZM26.9912 31.3044C27.3869 31.3044 27.7734 31.2561 28.1506 31.1595C28.5278 31.0634 28.8847 30.9161 29.2213 30.7178L47.8985 19.8367C48.3276 19.6126 48.6039 19.2781 48.7272 18.8331C48.851 18.3875 48.7901 17.9507 48.5445 17.5227C48.3184 17.0946 47.9695 16.8189 47.4977 16.6956C47.026 16.5722 46.5766 16.6352 46.1495 16.8844L26.9974 28.0314L7.79748 16.8844C7.35091 16.6352 6.89663 16.5722 6.43465 16.6956C5.97317 16.8189 5.62938 17.0946 5.40327 17.5227C5.15763 17.9507 5.09263 18.3955 5.20825 18.857C5.32439 19.3179 5.5947 19.6702 6.01917 19.9138L24.7735 30.7178C25.1081 30.9161 25.4624 31.0634 25.8365 31.1595C26.2111 31.2561 26.596 31.3044 26.9912 31.3044ZM0.789062 42.3034V17.6969C0.789062 16.9137 0.98357 16.1745 1.37258 15.4792C1.7616 14.7839 2.30838 14.2363 3.01292 13.8365L24.7735 1.27194C25.1651 1.03453 25.5354 0.877279 25.8843 0.800195C26.2332 0.723112 26.6038 0.68457 26.9959 0.68457C27.3885 0.68457 27.7723 0.723112 28.1475 0.800195C28.5231 0.877279 28.8811 1.03453 29.2213 1.27194L50.9819 13.8365C51.6864 14.2363 52.2332 14.7839 52.6222 15.4792C53.0112 16.1745 53.2057 16.9137 53.2057 17.6969V31.595C53.2057 32.2749 52.9429 32.8075 52.4172 33.1929C51.8915 33.5783 51.3043 33.6724 50.6558 33.475C49.9086 33.2453 49.1578 33.0783 48.4034 32.974C47.6485 32.8692 46.8677 32.8168 46.0609 32.8168C40.8834 32.8168 36.4316 34.6719 32.7054 38.3822C28.9792 42.0925 27.1161 46.5679 27.1161 51.8086C27.1161 52.7505 27.1814 53.5948 27.3119 54.3415C27.4424 55.0887 27.6223 55.8074 27.8515 56.4975C28.1002 57.3485 27.8718 58.0626 27.1662 58.6397C26.4606 59.2168 25.7325 59.2838 24.9817 58.8409L3.01292 46.1637C2.30838 45.7639 1.7616 45.2164 1.37258 44.5211C0.98357 43.8258 0.789062 43.0866 0.789062 42.3034ZM46.0609 65.0731C42.4081 65.0731 39.2763 63.7804 36.6652 61.195C34.0546 58.6096 32.7494 55.4808 32.7494 51.8086C32.7494 48.1245 34.0546 44.9769 36.6652 42.3658C39.2763 39.7553 42.4081 38.45 46.0609 38.45C49.7131 38.45 52.8447 39.7553 55.4558 42.3658C58.0669 44.9769 59.3724 48.1245 59.3724 51.8086C59.3724 55.4808 58.0669 58.6096 55.4558 61.195C52.8447 63.7804 49.7131 65.0731 46.0609 65.0731Z" fill="#B6C1FF"/>
</svg>
