<svg width="54" height="54" viewBox="0 0 54 54" fill="none" xmlns="http://www.w3.org/2000/svg">
<path d="M14.8121 27.0003L20.5047 21.3077C20.8485 20.9639 21.0252 20.5371 21.035 20.0274C21.0453 19.5176 20.8685 19.0808 20.5047 18.7169C20.1609 18.3732 19.739 18.2013 19.239 18.2013C18.7389 18.2013 18.307 18.3732 17.9432 18.7169L11.2485 25.4409C10.9916 25.6778 10.8117 25.9199 10.7089 26.1671C10.6061 26.4142 10.5548 26.692 10.5548 27.0003C10.5548 27.3087 10.6061 27.5864 10.7089 27.8336C10.8117 28.0808 10.9916 28.3228 11.2485 28.5597L18.0496 35.3608C18.3738 35.7046 18.7908 35.8816 19.3006 35.8919C19.8109 35.9017 20.2477 35.7246 20.611 35.3608C20.9553 34.997 21.1275 34.565 21.1275 34.065C21.1275 33.565 20.9553 33.1431 20.611 32.7993L14.8121 27.0003ZM39.1827 27.0003L33.3838 32.7993C33.0394 33.1236 32.8673 33.5406 32.8673 34.0504C32.8673 34.5601 33.0394 34.997 33.3838 35.3608C33.7471 35.7246 34.1787 35.9065 34.6788 35.9065C35.1788 35.9065 35.6009 35.7246 35.9452 35.3608L42.7756 28.5597C43.013 28.3228 43.1831 28.0808 43.2859 27.8336C43.3887 27.5864 43.44 27.3087 43.44 27.0003C43.44 26.692 43.3887 26.4142 43.2859 26.1671C43.1831 25.9199 43.013 25.6778 42.7756 25.4409L35.9452 18.6399C35.7988 18.4621 35.6109 18.3315 35.3818 18.2483C35.1526 18.1656 34.9234 18.1242 34.6942 18.1242C34.4645 18.1242 34.2381 18.1607 34.0151 18.2336C33.7915 18.3066 33.5811 18.442 33.3838 18.6399C33.0394 19.0037 32.8673 19.4356 32.8673 19.9356C32.8673 20.4356 33.0394 20.8576 33.3838 21.2013L39.1827 27.0003ZM5.236 53.2087C4.02271 53.2087 2.97823 52.7708 2.10256 51.8952C1.2269 51.0195 0.789062 49.975 0.789062 48.7617V5.23893C0.789062 4.02564 1.2269 2.98116 2.10256 2.10549C2.97823 1.22982 4.02271 0.791992 5.236 0.791992H48.7588C49.9721 0.791992 51.0166 1.22982 51.8922 2.10549C52.7679 2.98116 53.2057 4.02564 53.2057 5.23893V48.7617C53.2057 49.975 52.7679 51.0195 51.8922 51.8952C51.0166 52.7708 49.9721 53.2087 48.7588 53.2087H5.236Z" fill="#556FF9"/>
</svg>
