<svg width="74" height="74" viewBox="0 0 74 74" fill="none" xmlns="http://www.w3.org/2000/svg">
<mask id="mask0_1_12088" style="mask-type:alpha" maskUnits="userSpaceOnUse" x="0" y="0" width="74" height="74">
<rect width="74" height="74" fill="#D9D9D9"/>
</mask>
<g mask="url(#mask0_1_12088)">
<path d="M40.0514 57.6048H35.7525C28.833 57.6048 22.9425 55.1746 18.0811 50.3143C13.2198 45.4539 10.7891 39.565 10.7891 32.6476C10.7891 25.7496 13.2275 19.8684 18.1043 15.0039C22.9806 10.14 28.8936 7.70801 35.8435 7.70801C39.2773 7.70801 42.4647 8.33367 45.4056 9.58499C48.3466 10.8358 50.9091 12.574 53.0932 14.7997C55.2772 17.0253 56.9946 19.6433 58.2454 22.6537C59.4967 25.6641 60.1224 28.946 60.1224 32.4995C60.1224 38.6184 58.5877 44.3403 55.5182 49.6652C52.4488 54.9896 48.481 59.4168 43.615 62.9467C43.2748 63.1939 42.9189 63.32 42.5474 63.3252C42.1759 63.3298 41.82 63.255 41.4798 63.1009C41.1401 62.9667 40.8644 62.7424 40.6527 62.4279C40.4415 62.1139 40.3199 61.7712 40.2881 61.3996L40.0514 57.6048ZM35.9113 49.6352C36.6312 49.6352 37.2394 49.3857 37.7359 48.8867C38.2318 48.3877 38.4797 47.7877 38.4797 47.0868C38.4797 46.3864 38.2302 45.7882 37.7312 45.2923C37.2317 44.7959 36.622 44.5477 35.902 44.5477C35.2011 44.5477 34.6027 44.7974 34.1068 45.2969C33.6109 45.7959 33.3629 46.3956 33.3629 47.0961C33.3629 47.7965 33.6124 48.3949 34.1114 48.8913C34.6104 49.3872 35.2103 49.6352 35.9113 49.6352ZM28.7926 25.0402C29.2223 25.2062 29.6388 25.2 30.0422 25.0217C30.4451 24.8439 30.793 24.5654 31.0859 24.1861C31.5484 23.498 32.1877 22.9466 33.0037 22.5319C33.8203 22.1167 34.8293 21.9091 36.0308 21.9091C37.4681 21.9091 38.6814 22.2886 39.6706 23.0476C40.6594 23.8066 41.1537 24.866 41.1537 26.2257C41.1537 27.2062 40.8988 28.1677 40.3891 29.1102C39.8793 30.0532 39.0157 31.1434 37.7983 32.3808C36.5567 33.6219 35.6662 34.6872 35.1266 35.5767C34.587 36.4663 34.3172 37.2708 34.3172 37.9902C34.3172 38.4686 34.456 38.8808 34.7335 39.2266C35.0115 39.5719 35.3822 39.7446 35.8458 39.7446C36.2893 39.7446 36.6693 39.5946 36.9858 39.2944C37.3019 38.9938 37.4817 38.6004 37.5254 38.1143C37.62 37.5691 37.9006 36.9475 38.3672 36.2497C38.8338 35.5518 39.5334 34.7365 40.4661 33.8038C41.8973 32.3726 42.8963 31.0704 43.4631 29.8972C44.0305 28.724 44.3141 27.512 44.3141 26.2612C44.3141 23.9908 43.5158 22.1691 41.9192 20.796C40.322 19.4234 38.379 18.7371 36.0901 18.7371C34.6065 18.7371 33.118 19.084 31.6247 19.7777C30.1308 20.4715 29.047 21.4463 28.3733 22.7023C28.1061 23.1735 28.0041 23.6393 28.0673 24.0998C28.131 24.5607 28.3728 24.8742 28.7926 25.0402Z" fill="#556FF9"/>
</g>
</svg>
