<svg width="64" height="60" viewBox="0 0 64 60" fill="none" xmlns="http://www.w3.org/2000/svg">
<rect width="64" height="60" rx="6" fill="#F1F3FF"/>
<mask id="mask0_1_10297" style="mask-type:alpha" maskUnits="userSpaceOnUse" x="5" y="3" width="54" height="54">
<rect x="5" y="3" width="54" height="54" fill="#D9D9D9"/>
</mask>
<g mask="url(#mask0_1_10297)">
<path d="M21.3333 17.8796C20.6647 17.8796 20.0981 18.1136 19.6334 18.5816C19.1692 19.0496 18.9371 19.6179 18.9371 20.2866C18.9371 20.9548 19.1711 21.5212 19.6391 21.9859C20.1071 22.4501 20.6754 22.6823 21.344 22.6823C22.0122 22.6823 22.5787 22.4483 23.0433 21.9803C23.5076 21.5123 23.7397 20.9441 23.7397 20.2759C23.7397 19.6073 23.5057 19.0406 23.0377 18.576C22.5697 18.1118 22.0016 17.8796 21.3333 17.8796ZM21.3333 39.5663C20.6647 39.5663 20.0981 39.8003 19.6334 40.2683C19.1692 40.7363 18.9371 41.3044 18.9371 41.9726C18.9371 42.6413 19.1711 43.2079 19.6391 43.6725C20.1071 44.1368 20.6754 44.3689 21.344 44.3689C22.0122 44.3689 22.5787 44.1349 23.0433 43.6669C23.5076 43.1989 23.7397 42.6306 23.7397 41.9619C23.7397 41.2937 23.5057 40.7273 23.0377 40.2626C22.5697 39.7984 22.0016 39.5663 21.3333 39.5663ZM14.6142 11.6016H49.3548C49.8787 11.6016 50.3047 11.7651 50.6328 12.0921C50.9609 12.4191 51.125 12.8582 51.125 13.4094V26.8189C51.125 27.4579 50.9609 27.9804 50.6328 28.3866C50.3047 28.7923 49.8787 28.9952 49.3548 28.9952H14.6142C14.111 28.9952 13.6953 28.7923 13.3672 28.3866C13.0391 27.9804 12.875 27.4579 12.875 26.8189V13.4094C12.875 12.8582 13.0391 12.4191 13.3672 12.0921C13.6953 11.7651 14.111 11.6016 14.6142 11.6016ZM15.4282 14.1542V26.4426H48.5718V14.1542H15.4282ZM14.6142 33.2533H49.1259C49.6595 33.2533 50.126 33.4689 50.5254 33.9002C50.9251 34.3318 51.125 34.8204 51.125 35.3661V48.4836C51.125 49.1904 50.9251 49.7334 50.5254 50.1126C50.126 50.4921 49.6595 50.6818 49.1259 50.6818H14.8741C14.303 50.6818 13.8271 50.4921 13.4465 50.1126C13.0655 49.7334 12.875 49.1904 12.875 48.4836V35.3661C12.875 34.8204 13.0316 34.3318 13.3447 33.9002C13.6574 33.4689 14.0806 33.2533 14.6142 33.2533ZM15.4282 35.8059V48.1292H48.5718V35.8059H15.4282Z" fill="#007AFF"/>
<path d="M21.3337 17.8809C20.6651 17.8809 20.0985 18.1149 19.6339 18.5829C19.1696 19.0509 18.9375 19.6192 18.9375 20.2878C18.9375 20.956 19.1715 21.5225 19.6395 21.9871C20.1075 22.4514 20.6758 22.6835 21.3444 22.6835C22.0127 22.6835 22.5791 22.4495 23.0437 21.9815C23.508 21.5135 23.7401 20.9454 23.7401 20.2771C23.7401 19.6085 23.5061 19.0419 23.0381 18.5772C22.5701 18.113 22.002 17.8809 21.3337 17.8809ZM21.3337 39.5675C20.6651 39.5675 20.0985 39.8015 19.6339 40.2695C19.1696 40.7375 18.9375 41.3056 18.9375 41.9739C18.9375 42.6425 19.1715 43.2091 19.6395 43.6737C20.1075 44.138 20.6758 44.3701 21.3444 44.3701C22.0127 44.3701 22.5791 44.1361 23.0437 43.6681C23.508 43.2001 23.7401 42.6318 23.7401 41.9632C23.7401 41.2949 23.5061 40.7285 23.0381 40.2639C22.5701 39.7996 22.002 39.5675 21.3337 39.5675Z" fill="#B6C1FF"/>
</g>
</svg>
