<svg width="74" height="74" viewBox="0 0 74 74" fill="none" xmlns="http://www.w3.org/2000/svg">
<mask id="mask0_7_14493" style="mask-type:alpha" maskUnits="userSpaceOnUse" x="0" y="0" width="74" height="74">
<rect width="74" height="74" fill="#D9D9D9"/>
</mask>
<g mask="url(#mask0_7_14493)">
<path d="M59.4259 52.6179L18.4538 11.4384C18.2164 11.201 18.0463 10.9587 17.9435 10.7115C17.8407 10.4648 17.7893 10.1873 17.7893 9.879V9.16135C17.7893 7.9162 18.2341 6.84885 19.1236 5.95931C20.0132 5.06977 21.0805 4.625 22.3257 4.625H45.6226C46.2192 4.625 46.8032 4.74859 47.3747 4.99577C47.9456 5.24295 48.4269 5.56207 48.8184 5.95314L61.881 19.0157C62.2721 19.4073 62.5912 19.8885 62.8384 20.4595C63.0855 21.0309 63.2091 21.6149 63.2091 22.2116V51.0585C63.2091 52.0667 62.7536 52.7535 61.8424 53.1189C60.9313 53.4848 60.1258 53.3178 59.4259 52.6179ZM65.5101 67.9752C65.1658 68.339 64.7516 68.5209 64.2675 68.5209C63.7834 68.5209 63.3594 68.339 62.9956 67.9752L54.2675 59.2948H22.2363C21.023 59.2948 19.9785 58.857 19.1028 57.9813C18.2271 57.1056 17.7893 56.0612 17.7893 54.8479V22.8167L6.02563 11.0522C5.68132 10.7084 5.50429 10.2945 5.49452 9.8104C5.48476 9.32631 5.66179 8.90236 6.02563 8.53852C6.38895 8.17469 6.80777 7.99277 7.28209 7.99277C7.75641 7.99277 8.17548 8.17469 8.53931 8.53852L65.5101 65.5093C65.8539 65.8531 66.0306 66.259 66.0404 66.7272C66.0502 67.1959 65.8734 67.6118 65.5101 67.9752ZM49.0613 21.8739H60.7186L45.7112 7.11556V18.5532C45.7112 19.49 46.0355 20.2778 46.684 20.9166C47.332 21.5548 48.1244 21.8739 49.0613 21.8739ZM12.1561 69.375C10.9428 69.375 9.89829 68.9372 9.02263 68.0615C8.14696 67.1858 7.70913 66.1414 7.70913 64.9281V25.752C7.70913 25.2422 7.87332 24.8231 8.20169 24.4948C8.52955 24.1669 8.94837 24.003 9.45815 24.003C9.96844 24.003 10.3875 24.1669 10.7154 24.4948C11.0438 24.8231 11.2079 25.2422 11.2079 25.752V64.9281C11.2079 65.165 11.3066 65.3823 11.5039 65.5802C11.7018 65.7775 11.9192 65.8762 12.1561 65.8762H48.1717C48.6815 65.8762 49.1006 66.0404 49.4289 66.3687C49.7568 66.6966 49.9207 67.1157 49.9207 67.626C49.9207 68.1358 49.7568 68.5546 49.4289 68.8824C49.1006 69.2108 48.6815 69.375 48.1717 69.375H12.1561Z" fill="#556FF9"/>
<path d="M12.1562 69.375C10.9429 69.375 9.8984 68.9371 9.02273 68.0615C8.14706 67.1858 7.70923 66.1413 7.70923 64.928V25.752C7.70923 25.2422 7.87342 24.8231 8.20179 24.4947C8.52965 24.1669 8.94847 24.0029 9.45825 24.0029C9.96854 24.0029 10.3876 24.1669 10.7155 24.4947C11.0439 24.8231 11.208 25.2422 11.208 25.752V64.928C11.208 65.1649 11.3067 65.3823 11.504 65.5801C11.7019 65.7775 11.9193 65.8761 12.1562 65.8761H48.1718C48.6816 65.8761 49.1007 66.0403 49.429 66.3687C49.7569 66.6966 49.9208 67.1156 49.9208 67.6259C49.9208 68.1357 49.7569 68.5545 49.429 68.8824C49.1007 69.2108 48.6816 69.375 48.1718 69.375H12.1562Z" fill="#B6C1FF"/>
</g>
</svg>
