<svg width="62" height="54" viewBox="0 0 62 54" fill="none" xmlns="http://www.w3.org/2000/svg">
<rect width="62" height="54" rx="6" fill="#F1F3FF"/>
<mask id="mask0_7_14406" style="mask-type:alpha" maskUnits="userSpaceOnUse" x="4" y="0" width="54" height="54">
<rect x="4" width="54" height="54" fill="#D9D9D9"/>
</mask>
<g mask="url(#mask0_7_14406)">
<path d="M41.1357 43.5071C42.8967 43.5071 44.3989 42.8949 45.6424 41.6706C46.8856 40.4458 47.5071 38.9271 47.5071 37.1143C47.5071 35.3533 46.8857 33.8511 45.643 32.6076C44.4002 31.3644 42.8943 30.7429 41.125 30.7429C39.3194 30.7429 37.8042 31.3642 36.5794 32.607C35.3551 33.8497 34.7429 35.3557 34.7429 37.125C34.7429 38.9306 35.3551 40.4458 36.5794 41.6706C37.8042 42.8949 39.3229 43.5071 41.1357 43.5071ZM52.6 50.4L46.4513 44.2862C45.6927 44.8404 44.8649 45.2747 43.9679 45.5889C43.0709 45.9032 42.1232 46.0603 41.125 46.0603C38.6369 46.0603 36.5256 45.1929 34.7913 43.4582C33.0569 41.7238 32.1897 39.6124 32.1897 37.1239C32.1897 34.6729 33.0571 32.5712 34.7918 30.8188C36.5262 29.0661 38.6376 28.1897 41.1261 28.1897C43.5771 28.1897 45.6788 29.0662 47.4312 30.8194C49.1839 32.5725 50.0603 34.6744 50.0603 37.125C50.0603 38.1566 49.8938 39.1228 49.5608 40.0236C49.2282 40.9239 48.7846 41.7519 48.2299 42.5076L54.3438 48.6L52.6 50.4ZM15.1201 48.375C14.2377 48.375 13.4763 48.0547 12.8358 47.4142C12.1953 46.7738 11.875 46.0123 11.875 45.1299V8.87006C11.875 7.98769 12.1953 7.22625 12.8358 6.58575C13.4763 5.94525 14.2377 5.625 15.1201 5.625H34.6692L45.625 16.5808V25.0054C44.8979 24.708 44.1593 24.4794 43.4093 24.3197C42.6593 24.1596 41.8979 24.0795 41.125 24.0795C39.3786 24.0795 37.7558 24.3881 36.2566 25.0054C34.7569 25.6226 33.4418 26.475 32.3112 27.5625H20.2782V30.1151H30.1C29.4655 31.1306 28.978 32.2211 28.6375 33.3866C28.297 34.5521 28.1134 35.7478 28.0868 36.9737H20.2782V39.5263H28.2741C28.6836 41.5022 29.515 43.2769 30.7683 44.8504C32.0219 46.4243 33.5644 47.5991 35.3959 48.375H15.1201ZM33.3929 17.7317H43.0718L33.3929 8.17819V17.7317Z" fill="#007AFF"/>
<path d="M41.1357 43.5069C42.8967 43.5069 44.3989 42.8947 45.6424 41.6703C46.8856 40.4456 47.5071 38.9268 47.5071 37.1141C47.5071 35.3531 46.8858 33.8508 45.643 32.6073C44.4003 31.3642 42.8943 30.7426 41.125 30.7426C39.3194 30.7426 37.8042 31.364 36.5794 32.6068C35.3551 33.8495 34.7429 35.3555 34.7429 37.1248C34.7429 38.9304 35.3551 40.4456 36.5794 41.6703C37.8042 42.8947 39.3229 43.5069 41.1357 43.5069ZM52.6 50.3998L46.4513 44.286C45.6927 44.8402 44.8649 45.2745 43.9679 45.5887C43.0709 45.903 42.1233 46.0601 41.125 46.0601C38.6369 46.0601 36.5256 45.1927 34.7913 43.4579C33.0569 41.7236 32.1897 39.6121 32.1897 37.1236C32.1897 34.6726 33.0571 32.571 34.7918 30.8186C36.5262 29.0658 38.6376 28.1895 41.1261 28.1895C43.5771 28.1895 45.6788 29.066 47.4312 30.8191C49.1839 32.5723 50.0603 34.6741 50.0603 37.1248C50.0603 38.1564 49.8938 39.1226 49.5608 40.0233C49.2282 40.9237 48.7846 41.7517 48.2299 42.5073L54.3438 48.5998L52.6 50.3998Z" fill="#B6C1FF"/>
</g>
</svg>
