<svg width="309" height="346" viewBox="0 0 309 346" fill="none" xmlns="http://www.w3.org/2000/svg">
<g clip-path="url(#clip0_132_839)">
<rect width="309" height="346" rx="10" fill="white"/>
<circle cx="155" cy="101.999" r="86.9325" fill="url(#paint0_linear_132_839)"/>
<circle cx="155" cy="101.999" r="86.2638" stroke="#B6C1FF" stroke-opacity="0.17" stroke-width="1.33742"/>
<g filter="url(#filter0_f_132_839)">
<path d="M167.042 -28.766V-51.273C167.042 -52.4921 166.008 -53.5002 163.94 -54.2974C161.872 -55.0945 159.257 -55.493 156.095 -55.493C152.932 -55.493 150.317 -55.0945 148.249 -54.2974C146.182 -53.5002 145.148 -52.4921 145.148 -51.273V-27.078C145.148 -26.5153 145.391 -25.9995 145.877 -25.5306C146.364 -25.0618 147.215 -24.5928 148.432 -24.124L191.49 -7.52506C193.68 -6.68105 196.234 -6.25906 199.153 -6.25906C202.072 -6.25906 204.627 -6.68105 206.816 -7.52506C209.006 -8.36907 210.1 -9.35376 210.1 -10.4791C210.1 -11.6045 209.006 -12.5891 206.816 -13.4331L167.042 -28.766ZM155 23C136.998 23 120.03 21.6871 104.096 19.0613C88.162 16.4355 74.2957 12.825 62.4972 8.22981C50.6987 3.63464 41.3329 -1.71077 34.3997 -7.8064C27.4666 -13.902 24 -20.4666 24 -27.5C24 -34.4397 27.4666 -40.9807 34.3997 -47.1233C41.3329 -53.2658 50.6987 -58.6346 62.4972 -63.2298C74.2957 -67.825 88.162 -71.4355 104.096 -74.0613C120.03 -76.6871 136.998 -78 155 -78C173.002 -78 189.97 -76.6871 205.904 -74.0613C221.838 -71.4355 235.765 -67.825 247.685 -63.2298C259.605 -58.6346 268.971 -53.2658 275.783 -47.1233C282.594 -40.9807 286 -34.4397 286 -27.5C286 -20.4666 282.594 -13.902 275.783 -7.8064C268.971 -1.71077 259.605 3.63464 247.685 8.22981C235.765 12.825 221.838 16.4355 205.904 19.0613C189.97 21.6871 173.002 23 155 23Z" fill="url(#paint1_linear_132_839)"/>
</g>
<g filter="url(#filter1_dd_132_839)">
<path d="M134.796 150.121C141.095 152.814 147.804 154.16 154.921 154.16C162.038 154.16 168.747 152.814 175.046 150.121C181.346 147.428 186.852 143.725 191.565 139.012C196.278 134.3 199.981 128.817 202.674 122.566C205.367 116.314 206.713 109.582 206.713 102.368C206.713 95.2511 205.367 88.5427 202.674 82.243C199.981 75.9433 196.278 70.437 191.565 65.7243C186.852 61.0115 181.346 57.3087 175.046 54.6157C168.747 51.9227 162.038 50.5762 154.921 50.5762C147.804 50.5762 141.095 51.9227 134.796 54.6157C128.496 57.3087 123.014 61.0115 118.349 65.7243C113.685 70.437 109.982 75.9433 107.241 82.243C104.499 88.5427 103.129 95.2511 103.129 102.368C103.129 109.582 104.499 116.314 107.241 122.566C109.982 128.817 113.685 134.3 118.349 139.012C123.014 143.725 128.496 147.428 134.796 150.121Z" fill="url(#paint2_linear_132_839)" shape-rendering="crispEdges"/>
<path d="M134.533 150.736C140.919 153.466 147.717 154.829 154.921 154.829C162.125 154.829 168.923 153.466 175.309 150.736C181.685 148.01 187.263 144.26 192.038 139.485C196.812 134.711 200.562 129.158 203.288 122.83C206.019 116.49 207.382 109.667 207.382 102.368C207.382 95.1643 206.018 88.3661 203.289 81.9801C200.563 75.6042 196.813 70.0262 192.038 65.2514C187.263 60.4767 181.685 56.7264 175.309 54.0008C168.923 51.2709 162.125 49.9075 154.921 49.9075C147.717 49.9075 140.919 51.2709 134.533 54.0008C128.156 56.7266 122.601 60.4776 117.874 65.2539C113.149 70.0275 109.4 75.6034 106.627 81.9762C103.848 88.3631 102.46 95.1627 102.46 102.368C102.46 109.669 103.848 116.493 106.628 122.834C109.401 129.159 113.15 134.71 117.874 139.483C122.601 144.259 128.156 148.01 134.533 150.736Z" stroke="white" stroke-opacity="0.02" stroke-width="1.33742" shape-rendering="crispEdges"/>
</g>
<circle cx="155" cy="102" r="217.331" stroke="#B6C1FF" stroke-opacity="0.17" stroke-width="1.33742"/>
<circle cx="155" cy="102" r="173.196" stroke="#B6C1FF" stroke-opacity="0.17" stroke-width="1.33742"/>
<circle cx="155" cy="102.001" r="130.399" stroke="#B6C1FF" stroke-opacity="0.17" stroke-width="1.33742"/>
<g filter="url(#filter2_d_132_839)">
<path d="M176.773 111.321L169.953 106.587C167.844 105.133 165.383 104.969 163.414 106.915L161.844 108.485C161.258 109.071 160.391 109.141 159.664 108.672C158.82 108.157 156.266 105.93 154.531 104.196C152.703 102.391 150.945 100.376 150.289 99.321C149.844 98.571 149.914 97.7272 150.5 97.1412L152.047 95.5709C154.016 93.6022 153.852 91.1178 152.398 89.0318L147.664 82.2115C146.211 80.1256 144.641 79.1647 142.953 79.1412C141.477 79.1178 139.93 79.7975 138.359 81.2037L137.773 81.7194C135.102 84.11 134 86.8053 134 90.86C134 94.024 134.961 97.5396 137.281 102.11C138.383 101.641 139.602 101.29 140.844 101.102C138.547 96.696 137.539 93.5787 137.586 90.86C137.633 88.2818 138.547 86.0553 140.375 84.4615C140.539 84.3209 140.656 84.2037 140.82 84.0865C141.523 83.4772 142.273 83.149 142.953 83.149C143.633 83.149 144.242 83.4068 144.688 84.11L149.234 90.9303C149.727 91.6568 149.773 92.4772 149.047 93.2037L146.984 95.2662C145.438 96.813 145.602 98.9224 147.148 100.727C148.672 102.508 150.734 104.524 152.844 106.633C154.766 108.602 156.477 110.29 158.258 111.79C160.086 113.36 162.195 113.524 163.719 112.001L165.781 109.938C166.508 109.212 167.305 109.258 168.055 109.727L174.875 114.274C175.578 114.743 175.836 115.329 175.836 116.032C175.836 116.712 175.508 117.462 174.898 118.165C174.758 118.329 174.664 118.446 174.523 118.61C172.93 120.438 170.703 121.329 168.102 121.376C165.289 121.422 162.125 120.555 157.883 118.212C157.719 119.454 157.344 120.649 156.852 121.751C161.539 124.118 164.984 124.985 168.078 124.985C172.18 124.985 174.875 123.883 177.242 121.212C177.43 121.024 177.594 120.813 177.781 120.626C179.188 119.055 179.844 117.508 179.844 116.032C179.844 114.344 178.859 112.774 176.773 111.321ZM142.906 128.008C149.375 128.008 154.836 122.618 154.836 116.102C154.836 109.587 149.445 104.196 142.906 104.196C136.391 104.196 131 109.587 131 116.102C131 122.665 136.391 128.008 142.906 128.008ZM141.5 122.524C141.102 122.524 140.633 122.36 140.328 122.032L136.344 117.672C136.086 117.368 135.969 116.946 135.969 116.618C135.969 115.774 136.602 115.141 137.422 115.141C137.914 115.141 138.289 115.376 138.547 115.657L141.43 118.751L147.148 110.829C147.406 110.454 147.852 110.172 148.391 110.172C149.164 110.172 149.867 110.805 149.867 111.626C149.867 111.907 149.75 112.212 149.539 112.516L142.719 121.985C142.484 122.313 142.016 122.524 141.5 122.524Z" fill="white"/>
</g>
</g>
<rect x="0.5" y="0.5" width="308" height="345" rx="9.5" stroke="#CCCCCC"/>
<defs>
<filter id="filter0_f_132_839" x="-92.7" y="-194.7" width="495.4" height="334.4" filterUnits="userSpaceOnUse" color-interpolation-filters="sRGB">
<feFlood flood-opacity="0" result="BackgroundImageFix"/>
<feBlend mode="normal" in="SourceGraphic" in2="BackgroundImageFix" result="shape"/>
<feGaussianBlur stdDeviation="58.35" result="effect1_foregroundBlur_132_839"/>
</filter>
<filter id="filter1_dd_132_839" x="62.4682" y="19.8076" width="184.906" height="184.906" filterUnits="userSpaceOnUse" color-interpolation-filters="sRGB">
<feFlood flood-opacity="0" result="BackgroundImageFix"/>
<feColorMatrix in="SourceAlpha" type="matrix" values="0 0 0 0 0 0 0 0 0 0 0 0 0 0 0 0 0 0 127 0" result="hardAlpha"/>
<feOffset dy="9.89265"/>
<feGaussianBlur stdDeviation="19.6616"/>
<feComposite in2="hardAlpha" operator="out"/>
<feColorMatrix type="matrix" values="0 0 0 0 0.713726 0 0 0 0 0.756863 0 0 0 0 1 0 0 0 1 0"/>
<feBlend mode="normal" in2="BackgroundImageFix" result="effect1_dropShadow_132_839"/>
<feColorMatrix in="SourceAlpha" type="matrix" values="0 0 0 0 0 0 0 0 0 0 0 0 0 0 0 0 0 0 127 0" result="hardAlpha"/>
<feOffset/>
<feGaussianBlur stdDeviation="3.74479"/>
<feComposite in2="hardAlpha" operator="out"/>
<feColorMatrix type="matrix" values="0 0 0 0 0.830683 0 0 0 0 0.853937 0 0 0 0 0.985 0 0 0 1 0"/>
<feBlend mode="normal" in2="effect1_dropShadow_132_839" result="effect2_dropShadow_132_839"/>
<feBlend mode="normal" in="SourceGraphic" in2="effect2_dropShadow_132_839" result="shape"/>
</filter>
<filter id="filter2_d_132_839" x="124.487" y="79.1406" width="61.8691" height="61.8925" filterUnits="userSpaceOnUse" color-interpolation-filters="sRGB">
<feFlood flood-opacity="0" result="BackgroundImageFix"/>
<feColorMatrix in="SourceAlpha" type="matrix" values="0 0 0 0 0 0 0 0 0 0 0 0 0 0 0 0 0 0 127 0" result="hardAlpha"/>
<feOffset dy="6.51267"/>
<feGaussianBlur stdDeviation="3.25634"/>
<feComposite in2="hardAlpha" operator="out"/>
<feColorMatrix type="matrix" values="0 0 0 0 0 0 0 0 0 0 0 0 0 0 0 0 0 0 0.14 0"/>
<feBlend mode="normal" in2="BackgroundImageFix" result="effect1_dropShadow_132_839"/>
<feBlend mode="normal" in="SourceGraphic" in2="effect1_dropShadow_132_839" result="shape"/>
</filter>
<linearGradient id="paint0_linear_132_839" x1="155" y1="62.5449" x2="155" y2="188.931" gradientUnits="userSpaceOnUse">
<stop stop-color="#EFF1FF"/>
<stop offset="1" stop-color="white"/>
</linearGradient>
<linearGradient id="paint1_linear_132_839" x1="155" y1="-78" x2="155" y2="23" gradientUnits="userSpaceOnUse">
<stop stop-color="#B6C1FF"/>
<stop offset="1" stop-color="#E0E5FF"/>
</linearGradient>
<linearGradient id="paint2_linear_132_839" x1="154.921" y1="50.5762" x2="154.921" y2="154.16" gradientUnits="userSpaceOnUse">
<stop stop-color="#3495FF"/>
<stop offset="1" stop-color="#CED5FF"/>
</linearGradient>
<clipPath id="clip0_132_839">
<rect width="309" height="346" rx="10" fill="white"/>
</clipPath>
</defs>
</svg>
