<svg width="64" height="64" viewBox="0 0 64 64" fill="none" xmlns="http://www.w3.org/2000/svg">
<g filter="url(#filter0_di_1224_4743)">
<g clip-path="url(#clip0_1224_4743)">
<rect x="2" width="60" height="60" rx="4.33333" fill="url(#paint0_linear_1224_4743)"/>
<g filter="url(#filter1_f_1224_4743)">
<ellipse cx="32.5" cy="59.5" rx="29.5" ry="11.5" fill="white" fill-opacity="0.49"/>
</g>
<mask id="mask0_1224_4743" style="mask-type:alpha" maskUnits="userSpaceOnUse" x="14" y="12" width="36" height="36">
<rect x="14" y="12" width="36" height="36" fill="#D9D9D9"/>
</mask>
<g mask="url(#mask0_1224_4743)">
<g filter="url(#filter2_d_1224_4743)">
<path d="M40.7979 31.0961C41.1171 31.0961 41.3845 30.9884 41.6 30.7729C41.8153 30.5576 41.9229 30.2904 41.9229 29.9711C41.9229 29.6519 41.8153 29.3846 41.6 29.1694C41.3845 28.9539 41.1171 28.8461 40.7979 28.8461H36.2405C35.9213 28.8461 35.6539 28.9539 35.4384 29.1694C35.2231 29.3846 35.1155 29.6519 35.1155 29.9711C35.1155 30.2904 35.2231 30.5576 35.4384 30.7729C35.6539 30.9884 35.9213 31.0961 36.2405 31.0961H40.7979ZM40.7979 26.7694C41.1171 26.7694 41.3845 26.6616 41.6 26.4461C41.8153 26.2309 41.9229 25.9636 41.9229 25.6444C41.9229 25.3251 41.8153 25.0578 41.6 24.8423C41.3845 24.627 41.1171 24.5194 40.7979 24.5194H36.2405C35.9213 24.5194 35.6539 24.627 35.4384 24.8423C35.2231 25.0578 35.1155 25.3251 35.1155 25.6444C35.1155 25.9636 35.2231 26.2309 35.4384 26.4461C35.6539 26.6616 35.9213 26.7694 36.2405 26.7694H40.7979ZM27.5578 31.7306C26.6962 31.7306 25.9414 31.7999 25.2931 31.9384C24.6451 32.0769 24.0701 32.2971 23.5681 32.5991C23.1106 32.8664 22.7636 33.1654 22.5271 33.4961C22.2904 33.8269 22.172 34.1816 22.172 34.5604C22.172 34.8221 22.2725 35.0409 22.4735 35.2166C22.6745 35.3926 22.9231 35.4806 23.2194 35.4806H31.8961C32.1924 35.4806 32.4409 35.3864 32.6416 35.1979C32.8426 35.0096 32.9431 34.777 32.9431 34.5C32.9431 34.1615 32.8273 33.8331 32.5955 33.5149C32.3638 33.1966 32.0143 32.8914 31.547 32.5991C31.0453 32.2971 30.4703 32.0769 29.822 31.9384C29.174 31.7999 28.4193 31.7306 27.5578 31.7306ZM27.5578 29.7694C28.2865 29.7694 28.9061 29.514 29.4166 29.0033C29.9274 28.4928 30.1828 27.8731 30.1828 27.1444C30.1828 26.4154 29.9274 25.7956 29.4166 25.2851C28.9061 24.7746 28.2865 24.5194 27.5578 24.5194C26.829 24.5194 26.2092 24.7746 25.6985 25.2851C25.188 25.7956 24.9328 26.4154 24.9328 27.1444C24.9328 27.8731 25.188 28.4928 25.6985 29.0033C26.2092 29.514 26.829 29.7694 27.5578 29.7694ZM20.4616 41.25C19.7039 41.25 19.0625 40.9875 18.5375 40.4625C18.0125 39.9375 17.75 39.2961 17.75 38.5384V21.4616C17.75 20.7039 18.0125 20.0625 18.5375 19.5375C19.0625 19.0125 19.7039 18.75 20.4616 18.75H43.5384C44.2961 18.75 44.9375 19.0125 45.4625 19.5375C45.9875 20.0625 46.25 20.7039 46.25 21.4616V38.5384C46.25 39.2961 45.9875 39.9375 45.4625 40.4625C44.9375 40.9875 44.2961 41.25 43.5384 41.25H20.4616ZM20.4616 39H43.5384C43.6539 39 43.7596 38.9519 43.8556 38.8556C43.9519 38.7596 44 38.6539 44 38.5384V21.4616C44 21.3461 43.9519 21.2404 43.8556 21.1444C43.7596 21.0481 43.6539 21 43.5384 21H20.4616C20.3461 21 20.2404 21.0481 20.1444 21.1444C20.0481 21.2404 20 21.3461 20 21.4616V38.5384C20 38.6539 20.0481 38.7596 20.1444 38.8556C20.2404 38.9519 20.3461 39 20.4616 39Z" fill="white"/>
<path d="M25.2513 31.7428L25.2513 31.7428C25.9167 31.6006 26.6861 31.5306 27.5578 31.5306C28.4294 31.5306 29.1987 31.6006 29.8638 31.7428C29.8638 31.7428 29.8638 31.7428 29.8638 31.7428L29.822 31.9384C30.4703 32.0769 31.0453 32.2971 31.547 32.5991L25.2513 31.7428ZM25.2513 31.7428C24.585 31.8852 23.9891 32.1126 23.4661 32.4271M25.2513 31.7428L25.2931 31.9384C24.6451 32.0769 24.0701 32.2971 23.5681 32.5991M23.5681 32.5991L23.4672 32.4264C23.4669 32.4266 23.4665 32.4269 23.4661 32.4271M23.5681 32.5991C23.1106 32.8664 22.7636 33.1654 22.5271 33.4961L23.5681 32.5991ZM23.4661 32.4271C22.9919 32.7043 22.6213 33.0206 22.3644 33.3798M23.4661 32.4271L22.3644 33.3798M22.3644 33.3798C22.1053 33.7418 21.972 34.1368 21.972 34.5604C21.972 34.8811 22.0984 35.1543 22.3419 35.3672M22.3644 33.3798L32.7783 35.3439C32.5376 35.5698 32.2389 35.6806 31.8961 35.6806H23.2194C22.8804 35.6806 22.5833 35.5786 22.3419 35.3672M22.3419 35.3672C22.3418 35.3672 22.3418 35.3671 22.3417 35.3671L22.4735 35.2166L22.3419 35.3672ZM25.5571 25.1437L25.5571 25.1437C26.1058 24.5953 26.7765 24.3194 27.5578 24.3194C28.339 24.3194 29.0096 24.5953 29.558 25.1437C30.1067 25.6921 30.3828 26.3629 30.3828 27.1444C30.3828 27.9256 30.1067 28.5963 29.5581 29.1446C29.5581 29.1447 29.558 29.1447 29.558 29.1447M25.5571 25.1437L25.6985 25.2851C25.188 25.7956 24.9328 26.4154 24.9328 27.1444C24.9328 27.8731 25.188 28.4928 25.6985 29.0033C26.2092 29.514 26.829 29.7694 27.5578 29.7694C28.2865 29.7694 28.9061 29.514 29.4166 29.0033L29.558 29.1447M25.5571 25.1437C25.0087 25.6921 24.7328 26.3629 24.7328 27.1444C24.7328 27.9256 25.0087 28.5963 25.5571 29.1447C26.1057 29.6933 26.7765 29.9694 27.5578 29.9694C28.339 29.9694 29.0096 29.6933 29.558 29.1447M25.5571 25.1437L29.558 29.1447M41.7415 24.7009L41.7413 24.7007C41.4864 24.4461 41.1673 24.3194 40.7979 24.3194H36.2405C35.8711 24.3194 35.552 24.4461 35.297 24.7007L35.2969 24.7009C35.0422 24.9559 34.9155 25.275 34.9155 25.6444C34.9155 26.0138 35.0422 26.3328 35.297 26.5875C35.5519 26.8425 35.871 26.9694 36.2405 26.9694H40.7979C41.1674 26.9694 41.4865 26.8425 41.7414 26.5875C41.9962 26.3328 42.1229 26.0138 42.1229 25.6444C42.1229 25.275 41.9962 24.9559 41.7415 24.7009ZM18.3961 40.6039L18.5375 40.4625L18.3961 40.6039C18.9594 41.1673 19.6521 41.45 20.4616 41.45H43.5384C44.3479 41.45 45.0406 41.1673 45.6039 40.6039C46.1673 40.0406 46.45 39.3479 46.45 38.5384V21.4616C46.45 20.6521 46.1673 19.9594 45.6039 19.3961L45.4625 19.5375L45.6039 19.3961C45.0406 18.8327 44.3479 18.55 43.5384 18.55H20.4616C19.6521 18.55 18.9594 18.8327 18.3961 19.3961C17.8327 19.9594 17.55 20.6521 17.55 21.4616V38.5384C17.55 39.3479 17.8327 40.0406 18.3961 40.6039ZM43.7144 38.714L43.714 38.7144C43.6484 38.7802 43.5914 38.8 43.5384 38.8H20.4616C20.4086 38.8 20.3516 38.7802 20.286 38.7144L20.2856 38.714C20.2198 38.6484 20.2 38.5914 20.2 38.5384V21.4616C20.2 21.4086 20.2198 21.3516 20.2856 21.286L20.286 21.2856C20.3516 21.2198 20.4086 21.2 20.4616 21.2H43.5384C43.5914 21.2 43.6484 21.2198 43.714 21.2856L43.7144 21.286C43.7802 21.3516 43.8 21.4086 43.8 21.4616V38.5384C43.8 38.5914 43.7802 38.6484 43.7144 38.714ZM40.7979 31.2961C41.1674 31.2961 41.4865 31.1692 41.7414 30.9143C41.9962 30.6596 42.1229 30.3405 42.1229 29.9711C42.1229 29.6017 41.9962 29.2827 41.7414 29.028C41.4865 28.773 41.1674 28.6461 40.7979 28.6461H36.2405C35.871 28.6461 35.5519 28.773 35.297 29.028C35.0422 29.2827 34.9155 29.6017 34.9155 29.9711C34.9155 30.3405 35.0422 30.6596 35.297 30.9143C35.5519 31.1692 35.871 31.2961 36.2405 31.2961H40.7979Z" stroke="url(#paint1_linear_1224_4743)" stroke-width="0.4"/>
</g>
</g>
</g>
<rect x="2.36111" y="0.361111" width="59.2778" height="59.2778" rx="3.97222" stroke="black" stroke-opacity="0.15" stroke-width="0.722222"/>
</g>
<defs>
<filter id="filter0_di_1224_4743" x="0.338889" y="0" width="63.3222" height="63.8278" filterUnits="userSpaceOnUse" color-interpolation-filters="sRGB">
<feFlood flood-opacity="0" result="BackgroundImageFix"/>
<feColorMatrix in="SourceAlpha" type="matrix" values="0 0 0 0 0 0 0 0 0 0 0 0 0 0 0 0 0 0 127 0" result="hardAlpha"/>
<feOffset dy="2.16667"/>
<feGaussianBlur stdDeviation="0.830555"/>
<feComposite in2="hardAlpha" operator="out"/>
<feColorMatrix type="matrix" values="0 0 0 0 0.598333 0 0 0 0 0.598333 0 0 0 0 0.598333 0 0 0 0.25 0"/>
<feBlend mode="normal" in2="BackgroundImageFix" result="effect1_dropShadow_1224_4743"/>
<feBlend mode="normal" in="SourceGraphic" in2="effect1_dropShadow_1224_4743" result="shape"/>
<feColorMatrix in="SourceAlpha" type="matrix" values="0 0 0 0 0 0 0 0 0 0 0 0 0 0 0 0 0 0 127 0" result="hardAlpha"/>
<feOffset dy="2.16667"/>
<feGaussianBlur stdDeviation="0.65"/>
<feComposite in2="hardAlpha" operator="arithmetic" k2="-1" k3="1"/>
<feColorMatrix type="matrix" values="0 0 0 0 1 0 0 0 0 1 0 0 0 0 1 0 0 0 0.35 0"/>
<feBlend mode="normal" in2="shape" result="effect2_innerShadow_1224_4743"/>
</filter>
<filter id="filter1_f_1224_4743" x="-11.2" y="33.8" width="87.4" height="51.4" filterUnits="userSpaceOnUse" color-interpolation-filters="sRGB">
<feFlood flood-opacity="0" result="BackgroundImageFix"/>
<feBlend mode="normal" in="SourceGraphic" in2="BackgroundImageFix" result="shape"/>
<feGaussianBlur stdDeviation="7.1" result="effect1_foregroundBlur_1224_4743"/>
</filter>
<filter id="filter2_d_1224_4743" x="13.3516" y="18.3496" width="37.2969" height="31.3008" filterUnits="userSpaceOnUse" color-interpolation-filters="sRGB">
<feFlood flood-opacity="0" result="BackgroundImageFix"/>
<feColorMatrix in="SourceAlpha" type="matrix" values="0 0 0 0 0 0 0 0 0 0 0 0 0 0 0 0 0 0 127 0" result="hardAlpha"/>
<feOffset dy="4"/>
<feGaussianBlur stdDeviation="2"/>
<feComposite in2="hardAlpha" operator="out"/>
<feColorMatrix type="matrix" values="0 0 0 0 0 0 0 0 0 0 0 0 0 0 0 0 0 0 0.25 0"/>
<feBlend mode="normal" in2="BackgroundImageFix" result="effect1_dropShadow_1224_4743"/>
<feBlend mode="normal" in="SourceGraphic" in2="effect1_dropShadow_1224_4743" result="shape"/>
</filter>
<linearGradient id="paint0_linear_1224_4743" x1="32" y1="0" x2="32" y2="60" gradientUnits="userSpaceOnUse">
<stop stop-color="#556FF9"/>
<stop offset="1" stop-color="#5770F2"/>
</linearGradient>
<linearGradient id="paint1_linear_1224_4743" x1="32" y1="18.75" x2="32" y2="41.25" gradientUnits="userSpaceOnUse">
<stop stop-color="white"/>
<stop offset="1" stop-color="#007AFF"/>
</linearGradient>
<clipPath id="clip0_1224_4743">
<rect x="2" width="60" height="60" rx="4.33333" fill="white"/>
</clipPath>
</defs>
</svg>
