<svg width="54" height="61" viewBox="0 0 54 61" fill="none" xmlns="http://www.w3.org/2000/svg">
<path d="M5.236 60.292C4.02682 60.292 2.98337 59.8531 2.10565 58.9754C1.22792 58.0977 0.789062 57.0542 0.789062 55.8451V17.9262C0.789062 16.717 1.22792 15.6736 2.10565 14.7959C2.98337 13.9176 4.02682 13.4785 5.236 13.4785H13.6859C13.6859 9.77492 14.9341 6.63043 17.4306 4.04505C19.9265 1.45968 23.0217 0.166992 26.716 0.166992C30.4099 0.166992 33.5988 1.4602 36.2829 4.0466C38.9669 6.63249 40.3089 9.77646 40.3089 13.4785H48.7588C49.968 13.4785 51.0114 13.9176 51.8891 14.7959C52.7669 15.6736 53.2057 16.717 53.2057 17.9262V55.8451C53.2057 57.0542 52.7669 58.0977 51.8891 58.9754C51.0114 59.8531 49.968 60.292 48.7588 60.292H5.236ZM17.1839 13.4785H36.8109C36.8109 10.7313 35.862 8.409 33.9642 6.51172C32.0669 4.61444 29.7446 3.66581 26.9974 3.66581C24.2501 3.66581 21.9279 4.61444 20.0306 6.51172C18.1328 8.409 17.1839 10.7313 17.1839 13.4785ZM27.0059 33.9357C30.4464 33.9357 33.5572 32.7062 36.3384 30.2472C39.12 27.7883 40.5109 25.0133 40.5109 21.9222C40.5109 21.4952 40.3387 21.1226 39.9944 20.8045C39.6506 20.4864 39.2249 20.3274 38.7171 20.3274C38.2829 20.3274 37.898 20.4854 37.5624 20.8014C37.2274 21.118 37.0283 21.5055 36.965 21.9638C36.5498 24.3987 35.3985 26.4195 33.5109 28.0264C31.6234 29.6334 29.4571 30.4368 27.012 30.4368C24.5675 30.4368 22.4012 29.6334 20.5131 28.0264C18.6256 26.4195 17.4745 24.3987 17.0598 21.9638C16.9966 21.525 16.7813 21.1427 16.4139 20.8168C16.0469 20.4905 15.6536 20.3274 15.2337 20.3274C14.7753 20.3274 14.3691 20.4864 14.015 20.8045C13.661 21.1226 13.4839 21.4952 13.4839 21.9222C13.4839 25.0133 14.8645 27.7883 17.6256 30.2472C20.3867 32.7062 23.5135 33.9357 27.0059 33.9357Z" fill="#556FF9"/>
</svg>
