<svg width="74" height="74" viewBox="0 0 74 74" fill="none" xmlns="http://www.w3.org/2000/svg">
<mask id="mask0_7_3356" style="mask-type:alpha" maskUnits="userSpaceOnUse" x="0" y="0" width="74" height="74">
<rect width="74" height="74" fill="#D9D9D9"/>
</mask>
<g mask="url(#mask0_7_3356)">
<path d="M37 39.7275L42.4791 43.9023C42.716 44.076 42.9452 44.0858 43.1667 43.9316C43.3882 43.7775 43.4573 43.5719 43.374 43.315L41.0916 36.4723L46.9969 32.2273C47.2344 32.0731 47.3017 31.8645 47.1989 31.6014C47.0961 31.3388 46.926 31.2075 46.6886 31.2075H39.6324L37.5103 24.4003C37.427 24.1433 37.2569 24.0148 37 24.0148C36.7431 24.0148 36.573 24.1433 36.4897 24.4003L34.3676 31.2075H27.3114C27.074 31.2075 26.9039 31.3388 26.8011 31.6014C26.6983 31.8645 26.7656 32.0731 27.0031 32.2273L32.7543 36.4723L30.424 43.3743C30.3212 43.6313 30.3806 43.8448 30.6021 44.0149C30.8236 44.185 31.0528 44.1829 31.2897 44.0087L37 39.7275ZM37 65.8942C36.7431 65.8942 36.4941 65.8685 36.2531 65.8171C36.012 65.7658 35.7631 65.6887 35.5061 65.5859C28.8374 63.2102 23.5649 59.0736 19.6886 53.1762C15.8129 47.2783 13.875 40.8308 13.875 33.8337V19.5556C13.875 18.6188 14.1479 17.7621 14.6936 16.9856C15.2389 16.2086 15.9285 15.6503 16.7625 15.3106L35.4406 8.36693C35.9858 8.16137 36.5056 8.05859 37 8.05859C37.4944 8.05859 38.0142 8.16137 38.5594 8.36693L57.2375 15.3106C58.0715 15.6503 58.7611 16.2086 59.3064 16.9856C59.8521 17.7621 60.125 18.6188 60.125 19.5556V33.8337C60.125 40.8308 58.1871 47.2783 54.3114 53.1762C50.4351 59.0736 45.1626 63.2102 38.4939 65.5859C38.2369 65.6887 37.988 65.7658 37.7469 65.8171C37.5059 65.8685 37.2569 65.8942 37 65.8942Z" fill="#556FF9"/>
</g>
</svg>
