<svg width="74" height="74" viewBox="0 0 74 74" fill="none" xmlns="http://www.w3.org/2000/svg">
<mask id="mask0_1_12831" style="mask-type:alpha" maskUnits="userSpaceOnUse" x="0" y="0" width="74" height="74">
<rect width="74" height="74" fill="#D9D9D9"/>
</mask>
<g mask="url(#mask0_1_12831)">
<path d="M56.7619 54.3911C58.1617 54.3911 59.3488 53.9029 60.3231 52.9265C61.298 51.9501 61.7854 50.7643 61.7854 49.3691C61.7854 47.9739 61.2977 46.7979 60.3223 45.841C59.347 44.8847 58.1625 44.4065 56.7688 44.4065C55.3751 44.4065 54.1986 44.8913 53.2391 45.8611C52.2797 46.8313 51.8 48.0094 51.8 49.3953C51.8 50.7813 52.2823 51.9604 53.2469 52.9327C54.2119 53.905 55.3836 54.3911 56.7619 54.3911ZM56.7549 64.3765C58.4204 64.3765 59.9737 63.9882 61.4146 63.2117C62.8555 62.4347 64.0385 61.3723 64.9635 60.0243C63.667 59.3049 62.3419 58.7368 60.9883 58.32C59.6348 57.9028 58.2303 57.6941 56.775 57.6941C55.3201 57.6941 53.9087 57.9028 52.5408 58.32C51.1733 58.7368 49.8511 59.3049 48.5741 60.0243C49.4759 61.3748 50.6484 62.4378 52.0914 63.2133C53.5349 63.9887 55.0894 64.3765 56.7549 64.3765ZM27.1865 26.5525H46.8135V19.6504C46.8135 16.8769 45.8605 14.5195 43.9545 12.578C42.0484 10.6365 39.7339 9.66581 37.0108 9.66581C34.2877 9.66581 31.9695 10.6365 30.0563 12.578C28.1431 14.5195 27.1865 16.8769 27.1865 19.6504V26.5525ZM18.3219 66.292C17.1143 66.292 16.0714 65.8526 15.1931 64.9739C14.3144 64.0956 13.875 63.0527 13.875 61.8451V31.0002C13.875 29.7771 14.3144 28.7301 15.1931 27.859C16.0714 26.988 17.1143 26.5525 18.3219 26.5525H23.6885V19.6504C23.6885 15.9088 24.9845 12.7263 27.5766 10.1029C30.1686 7.47895 33.3131 6.16699 37.01 6.16699C40.7075 6.16699 43.8486 7.47895 46.4335 10.1029C49.0188 12.7263 50.3115 15.9088 50.3115 19.6504V26.5525H55.6781C56.8857 26.5525 57.9286 26.988 58.8069 27.859C59.6856 28.7301 60.125 29.7771 60.125 31.0002V34.3618C60.125 34.9995 59.8858 35.5244 59.4074 35.9366C58.9289 36.3492 58.3755 36.5239 57.747 36.4607C57.4731 36.4294 57.1848 36.4214 56.8821 36.4368C56.5794 36.4528 56.2868 36.4607 56.0041 36.4607C50.9994 36.6267 46.7883 38.5045 43.3709 42.094C39.9536 45.683 38.2449 49.9699 38.2449 54.9546C38.2449 56.5106 38.4338 58.0163 38.8115 59.4717C39.1892 60.927 39.7395 62.3248 40.4626 63.665C40.7827 64.2421 40.7858 64.8243 40.4718 65.4117C40.1573 65.9986 39.6761 66.292 39.0281 66.292H18.3219ZM56.7688 68.438C53.0647 68.438 49.8914 67.1168 47.249 64.4744C44.6066 61.8319 43.2854 58.6636 43.2854 54.9692C43.2854 51.2754 44.6066 48.1024 47.249 45.4502C49.8914 42.7975 53.0647 41.4712 56.7688 41.4712C60.4729 41.4712 63.6462 42.797 66.2886 45.4487C68.931 48.1003 70.2522 51.269 70.2522 54.9546C70.2522 58.6587 68.931 61.8319 66.2886 64.4744C63.6462 67.1168 60.4729 68.438 56.7688 68.438Z" fill="#556FF9"/>
<path d="M56.7655 54.3906C58.1654 54.3906 59.3525 53.9024 60.3268 52.9261C61.3016 51.9497 61.7891 50.7639 61.7891 49.3687C61.7891 47.9735 61.3014 46.7974 60.326 45.8406C59.3507 44.8842 58.1662 44.406 56.7725 44.406C55.3788 44.406 54.2023 44.8909 53.2428 45.8606C52.2834 46.8308 51.8037 48.0089 51.8037 49.3949C51.8037 50.7808 52.286 51.96 53.2505 52.9322C54.2156 53.9045 55.3873 54.3906 56.7655 54.3906ZM56.7586 64.376C58.4241 64.376 59.9773 63.9878 61.4183 63.2113C62.8592 62.4343 64.0422 61.3718 64.9672 60.0239C63.6707 59.3045 62.3456 58.7363 60.992 58.3196C59.6384 57.9023 58.234 57.6937 56.7786 57.6937C55.3238 57.6937 53.9124 57.9023 52.5445 58.3196C51.177 58.7363 49.8548 59.3045 48.5778 60.0239C49.4796 61.3744 50.6521 62.4374 52.0951 63.2128C53.5386 63.9883 55.0931 64.376 56.7586 64.376ZM56.7725 68.4375C53.0684 68.4375 49.8951 67.1163 47.2527 64.4739C44.6103 61.8315 43.2891 58.6631 43.2891 54.9688C43.2891 51.2749 44.6103 48.1019 47.2527 45.4497C49.8951 42.7971 53.0684 41.4707 56.7725 41.4707C60.4766 41.4707 63.6499 42.7965 66.2923 45.4482C68.9347 48.0999 70.2559 51.2685 70.2559 54.9541C70.2559 58.6582 68.9347 61.8315 66.2923 64.4739C63.6499 67.1163 60.4766 68.4375 56.7725 68.4375Z" fill="#B6C1FF"/>
</g>
</svg>
