<svg width="64" height="64" viewBox="0 0 64 64" fill="none" xmlns="http://www.w3.org/2000/svg">
<g filter="url(#filter0_di_1224_5063)">
<g clip-path="url(#clip0_1224_5063)">
<rect x="2" width="60" height="60" rx="4.33333" fill="url(#paint0_linear_1224_5063)"/>
<g filter="url(#filter1_f_1224_5063)">
<ellipse cx="32.5" cy="59.5" rx="29.5" ry="11.5" fill="white" fill-opacity="0.49"/>
</g>
<g filter="url(#filter2_d_1224_5063)">
<path d="M40.2814 27.8856L45.5396 22.59C45.838 22.2917 46.1922 22.1425 46.6025 22.1425C47.0127 22.1425 47.3669 22.2917 47.6653 22.59C47.9636 22.8884 48.1128 23.2426 48.1128 23.6529C48.1128 24.0631 47.9636 24.4174 47.6653 24.7157L41.3256 31.0554C41.0272 31.3538 40.6792 31.5029 40.2814 31.5029C39.8836 31.5029 39.5355 31.3538 39.2372 31.0554L36.0673 27.8856C35.769 27.5872 35.6198 27.2329 35.6198 26.8227C35.6198 26.4125 35.769 26.0582 36.0673 25.7599C36.3657 25.4615 36.7137 25.3124 37.1115 25.3124C37.5093 25.3124 37.8574 25.4615 38.1557 25.7599L40.2814 27.8856ZM27.5273 32.0996C25.8865 32.0996 24.4818 31.5154 23.3133 30.3469C22.1448 29.1784 21.5605 27.7737 21.5605 26.1328C21.5605 24.4919 22.1448 23.0873 23.3133 21.9188C24.4818 20.7503 25.8865 20.166 27.5273 20.166C29.1682 20.166 30.5729 20.7503 31.7414 21.9188C32.9099 23.0873 33.4941 24.4919 33.4941 26.1328C33.4941 27.7737 32.9099 29.1784 31.7414 30.3469C30.5729 31.5154 29.1682 32.0996 27.5273 32.0996ZM15.5938 41.0498V39.8564C15.5938 39.0111 15.8113 38.2342 16.2464 37.5257C16.6814 36.8171 17.2595 36.2764 17.9805 35.9034C19.5219 35.1327 21.0882 34.5547 22.6793 34.1693C24.2705 33.784 25.8865 33.5913 27.5273 33.5913C29.1682 33.5913 30.7842 33.784 32.3754 34.1693C33.9665 34.5547 35.5328 35.1327 37.0742 35.9034C37.7952 36.2764 38.3732 36.8171 38.8083 37.5257C39.2434 38.2342 39.4609 39.0111 39.4609 39.8564V41.0498C39.4609 41.8702 39.1688 42.5726 38.5846 43.1568C38.0003 43.7411 37.298 44.0332 36.4775 44.0332H18.5771C17.7567 44.0332 17.0544 43.7411 16.4701 43.1568C15.8859 42.5726 15.5938 41.8702 15.5938 41.0498Z" fill="white"/>
<path d="M45.1848 22.2377L40.2801 27.1772L38.5093 25.4063C38.1235 25.0205 37.6506 24.8124 37.1115 24.8124C36.5725 24.8124 36.0996 25.0205 35.7138 25.4063C35.3247 25.7955 35.1198 26.2757 35.1198 26.8227C35.1198 27.3697 35.3247 27.85 35.7138 28.2391L38.8836 31.409C39.2694 31.7948 39.7423 32.0029 40.2814 32.0029C40.8204 32.0029 41.2933 31.7948 41.6791 31.409L48.0188 25.0693C48.408 24.6801 48.6128 24.1999 48.6128 23.6529C48.6128 23.1059 48.408 22.6256 48.0188 22.2365C47.6297 21.8474 47.1495 21.6425 46.6025 21.6425C46.0555 21.6425 45.5752 21.8474 45.1861 22.2365L45.1848 22.2377ZM17.7569 35.4562L17.7568 35.4562L17.7508 35.4593C16.9469 35.8751 16.3018 36.4799 15.8203 37.264C15.336 38.0527 15.0938 38.9204 15.0938 39.8564V41.0498C15.0938 42.0039 15.4393 42.8331 16.1166 43.5104C16.7938 44.1877 17.6231 44.5332 18.5771 44.5332H36.4775C37.4316 44.5332 38.2609 44.1877 38.9381 43.5104C39.6154 42.8331 39.9609 42.0039 39.9609 41.0498V39.8564C39.9609 38.9204 39.7187 38.0527 39.2344 37.264C38.7529 36.4799 38.1078 35.8751 37.3039 35.4593L37.304 35.4593L37.2978 35.4562C35.7244 34.6695 34.1227 34.0781 32.4931 33.6834C30.8633 33.2887 29.2078 33.0913 27.5273 33.0913C25.8469 33.0913 24.1914 33.2887 22.5616 33.6834C20.932 34.0781 19.3302 34.6695 17.7569 35.4562ZM22.9597 30.7004C24.2213 31.9619 25.7528 32.5996 27.5273 32.5996C29.3019 32.5996 30.8334 31.9619 32.0949 30.7004C33.3565 29.4389 33.9941 27.9073 33.9941 26.1328C33.9941 24.3583 33.3565 22.8267 32.0949 21.5652C30.8334 20.3037 29.3019 19.666 27.5273 19.666C25.7528 19.666 24.2213 20.3037 22.9597 21.5652C21.6982 22.8267 21.0605 24.3583 21.0605 26.1328C21.0605 27.9073 21.6982 29.4389 22.9597 30.7004Z" stroke="url(#paint1_linear_1224_5063)"/>
</g>
</g>
<rect x="2.36111" y="0.361111" width="59.2778" height="59.2778" rx="3.97222" stroke="black" stroke-opacity="0.15" stroke-width="0.722222"/>
</g>
<defs>
<filter id="filter0_di_1224_5063" x="0.338889" y="0" width="63.3222" height="63.8278" filterUnits="userSpaceOnUse" color-interpolation-filters="sRGB">
<feFlood flood-opacity="0" result="BackgroundImageFix"/>
<feColorMatrix in="SourceAlpha" type="matrix" values="0 0 0 0 0 0 0 0 0 0 0 0 0 0 0 0 0 0 127 0" result="hardAlpha"/>
<feOffset dy="2.16667"/>
<feGaussianBlur stdDeviation="0.830555"/>
<feComposite in2="hardAlpha" operator="out"/>
<feColorMatrix type="matrix" values="0 0 0 0 0.598333 0 0 0 0 0.598333 0 0 0 0 0.598333 0 0 0 0.25 0"/>
<feBlend mode="normal" in2="BackgroundImageFix" result="effect1_dropShadow_1224_5063"/>
<feBlend mode="normal" in="SourceGraphic" in2="effect1_dropShadow_1224_5063" result="shape"/>
<feColorMatrix in="SourceAlpha" type="matrix" values="0 0 0 0 0 0 0 0 0 0 0 0 0 0 0 0 0 0 127 0" result="hardAlpha"/>
<feOffset dy="2.16667"/>
<feGaussianBlur stdDeviation="0.65"/>
<feComposite in2="hardAlpha" operator="arithmetic" k2="-1" k3="1"/>
<feColorMatrix type="matrix" values="0 0 0 0 1 0 0 0 0 1 0 0 0 0 1 0 0 0 0.35 0"/>
<feBlend mode="normal" in2="shape" result="effect2_innerShadow_1224_5063"/>
</filter>
<filter id="filter1_f_1224_5063" x="-11.2" y="33.8" width="87.4" height="51.4" filterUnits="userSpaceOnUse" color-interpolation-filters="sRGB">
<feFlood flood-opacity="0" result="BackgroundImageFix"/>
<feBlend mode="normal" in="SourceGraphic" in2="BackgroundImageFix" result="shape"/>
<feGaussianBlur stdDeviation="7.1" result="effect1_foregroundBlur_1224_5063"/>
</filter>
<filter id="filter2_d_1224_5063" x="10.5938" y="19.166" width="42.5156" height="33.8672" filterUnits="userSpaceOnUse" color-interpolation-filters="sRGB">
<feFlood flood-opacity="0" result="BackgroundImageFix"/>
<feColorMatrix in="SourceAlpha" type="matrix" values="0 0 0 0 0 0 0 0 0 0 0 0 0 0 0 0 0 0 127 0" result="hardAlpha"/>
<feOffset dy="4"/>
<feGaussianBlur stdDeviation="2"/>
<feComposite in2="hardAlpha" operator="out"/>
<feColorMatrix type="matrix" values="0 0 0 0 0 0 0 0 0 0 0 0 0 0 0 0 0 0 0.25 0"/>
<feBlend mode="normal" in2="BackgroundImageFix" result="effect1_dropShadow_1224_5063"/>
<feBlend mode="normal" in="SourceGraphic" in2="effect1_dropShadow_1224_5063" result="shape"/>
</filter>
<linearGradient id="paint0_linear_1224_5063" x1="32" y1="0" x2="32" y2="60" gradientUnits="userSpaceOnUse">
<stop stop-color="#556FF9"/>
<stop offset="1" stop-color="#5770F2"/>
</linearGradient>
<linearGradient id="paint1_linear_1224_5063" x1="31.8533" y1="20.166" x2="31.8533" y2="44.0332" gradientUnits="userSpaceOnUse">
<stop stop-color="white"/>
<stop offset="1" stop-color="#007AFF"/>
</linearGradient>
<clipPath id="clip0_1224_5063">
<rect x="2" width="60" height="60" rx="4.33333" fill="white"/>
</clipPath>
</defs>
</svg>
