<svg width="54" height="60" viewBox="0 0 54 60" fill="none" xmlns="http://www.w3.org/2000/svg">
<path d="M39.9381 53.6882C40.3117 53.6882 40.635 53.5517 40.9079 53.2788C41.1807 53.006 41.3172 52.6876 41.3172 52.3238V44.8367C41.3172 44.4641 41.1807 44.1414 40.9079 43.8685C40.635 43.5956 40.3169 43.4592 39.9536 43.4592C39.5697 43.4592 39.2465 43.5956 38.9839 43.8685C38.7207 44.1414 38.5892 44.4597 38.5892 44.8236V52.3114C38.5892 52.6835 38.7207 53.006 38.9839 53.2788C39.2465 53.5517 39.5646 53.6882 39.9381 53.6882ZM39.9536 40.6904C40.3251 40.7104 40.6453 40.5794 40.914 40.2972C41.1828 40.0151 41.3172 39.6857 41.3172 39.309C41.3172 38.9329 41.18 38.6065 40.9055 38.3301C40.6311 38.0536 40.311 37.9154 39.9451 37.9154C39.5278 37.9154 39.1974 38.0505 38.9538 38.3208C38.7107 38.5911 38.5892 38.9138 38.5892 39.289C38.5892 39.6636 38.7128 39.991 38.96 40.271C39.2071 40.5506 39.5383 40.6904 39.9536 40.6904ZM4.28788 4.20682V26.3529V26.0445V55.7925V4.20682ZM14.0536 34.2686H24.3827C24.8781 34.2686 25.2936 34.0995 25.6292 33.7613C25.9642 33.4232 26.1318 33.0044 26.1318 32.5049C26.1318 32.0049 25.9642 31.5909 25.6292 31.2631C25.2936 30.9347 24.8781 30.7705 24.3827 30.7705H14.0536C13.5577 30.7705 13.1422 30.9396 12.8071 31.2777C12.4721 31.6159 12.3045 32.0349 12.3045 32.5349C12.3045 33.035 12.4721 33.4489 12.8071 33.7768C13.1422 34.1046 13.5577 34.2686 14.0536 34.2686ZM14.0536 47.1654H19.7577C20.2531 47.1654 20.6686 46.9963 21.0042 46.6582C21.3392 46.32 21.5068 45.9009 21.5068 45.4009C21.5068 44.9014 21.3392 44.4875 21.0042 44.1591C20.6686 43.8312 20.2531 43.6673 19.7577 43.6673H14.0536C13.5577 43.6673 13.1422 43.8364 12.8071 44.1745C12.4721 44.5127 12.3045 44.9317 12.3045 45.4318C12.3045 45.9313 12.4721 46.3452 12.8071 46.6736C13.1422 47.0014 13.5577 47.1654 14.0536 47.1654ZM5.236 59.2913C4.02682 59.2913 2.98337 58.8525 2.10565 57.9748C1.22792 57.097 0.789062 56.0536 0.789062 54.8444V5.15495C0.789062 3.94577 1.22792 2.90231 2.10565 2.02459C2.98337 1.14687 4.02682 0.708008 5.236 0.708008H30.1879C30.8164 0.708008 31.4032 0.831598 31.9485 1.07878C32.4942 1.32596 32.9726 1.64508 33.3838 2.03615L45.7109 14.3633C46.102 14.7744 46.4211 15.2529 46.6683 15.7986C46.9155 16.3438 47.0391 16.9307 47.0391 17.5592V25.2267C47.0391 25.7267 46.87 26.1255 46.5319 26.423C46.1937 26.72 45.7746 26.8685 45.2746 26.8685C44.7746 26.8685 44.3607 26.701 44.0328 26.366C43.7044 26.0309 43.5403 25.6154 43.5403 25.1195V17.2987H32.4873C31.8799 17.2987 31.3595 17.0818 30.9263 16.6481C30.4931 16.2149 30.2765 15.6945 30.2765 15.0871V4.20682H5.236C4.9991 4.20682 4.78172 4.30549 4.58388 4.50282C4.38654 4.70067 4.28788 4.91804 4.28788 5.15495V54.8444C4.28788 55.0813 4.38654 55.2987 4.58388 55.4965C4.78172 55.6939 4.9991 55.7925 5.236 55.7925H24.4598C24.9552 55.7925 25.3707 55.9619 25.7063 56.3005C26.0413 56.6386 26.2088 57.0575 26.2088 57.557C26.2088 58.057 26.0413 58.4709 25.7063 58.7988C25.3707 59.1272 24.9552 59.2913 24.4598 59.2913H5.236ZM39.9536 31.6778C43.6952 31.6778 46.8857 32.9974 49.525 35.6368C52.1643 38.2761 53.484 41.4717 53.484 45.2236C53.484 48.9755 52.1643 52.1712 49.525 54.8105C46.8857 57.4498 43.6901 58.7695 39.9381 58.7695C36.1862 58.7695 32.9906 57.4501 30.3513 54.8113C27.712 52.173 26.3923 48.9722 26.3923 45.209C26.3923 41.4668 27.7117 38.2761 30.3505 35.6368C32.9893 32.9974 36.1904 31.6778 39.9536 31.6778Z" fill="#B6C1FF"/>
</svg>
