<svg width="64" height="64" viewBox="0 0 64 64" fill="none" xmlns="http://www.w3.org/2000/svg">
<g filter="url(#filter0_di_1224_4719)">
<g clip-path="url(#clip0_1224_4719)">
<rect x="2" width="60" height="60" rx="4.33333" fill="url(#paint0_linear_1224_4719)"/>
<g filter="url(#filter1_f_1224_4719)">
<ellipse cx="32.5" cy="59.5" rx="29.5" ry="11.5" fill="white" fill-opacity="0.49"/>
</g>
<mask id="mask0_1224_4719" style="mask-type:alpha" maskUnits="userSpaceOnUse" x="13" y="11" width="38" height="38">
<rect x="13" y="11" width="38" height="38" fill="#D9D9D9"/>
</mask>
<g mask="url(#mask0_1224_4719)">
<g filter="url(#filter2_d_1224_4719)">
<path d="M18.514 40.2913C17.5621 40.2913 16.771 39.9761 16.1406 39.3457C15.5104 38.7155 15.1953 37.9244 15.1953 36.9723V23.0271C15.1953 22.075 15.5104 21.2838 16.1406 20.6537C16.771 20.0232 17.5621 19.708 18.514 19.708H32.4596C33.4114 19.708 34.2026 20.0232 34.833 20.6537C35.4632 21.2838 35.7782 22.075 35.7782 23.0271V36.9723C35.7782 37.9244 35.4632 38.7155 34.833 39.3457C34.2026 39.9761 33.4114 40.2913 32.4596 40.2913H18.514ZM17.5699 35.3648C18.731 34.6481 19.9713 34.0923 21.2908 33.6976C22.6102 33.3028 24.0088 33.1054 25.4866 33.1054C26.9644 33.1054 28.363 33.3028 29.6824 33.6976C31.0019 34.0923 32.2421 34.6481 33.4032 35.3648V23.0271C33.4032 22.7632 33.3119 22.5398 33.1293 22.3569C32.9467 22.1743 32.7235 22.083 32.4596 22.083H18.514C18.2501 22.083 18.0268 22.1743 17.8442 22.3569C17.6614 22.5398 17.5699 22.7632 17.5699 23.0271V35.3648ZM25.4866 35.4804C24.3337 35.4804 23.1919 35.6403 22.0614 35.9601C20.9307 36.2797 19.8527 36.7643 18.8275 37.414C18.8581 37.5763 18.957 37.7006 19.1244 37.7869C19.2919 37.8732 19.462 37.9163 19.6346 37.9163H31.339C31.5216 37.9163 31.6917 37.8732 31.8492 37.7869C32.0065 37.7006 32.1308 37.5763 32.2221 37.414C31.2072 36.7947 30.1267 36.3176 28.9806 35.9827C27.8348 35.6478 26.6701 35.4804 25.4866 35.4804ZM25.4866 31.7354C24.36 31.7354 23.3934 31.3319 22.5867 30.5249C21.7797 29.718 21.3762 28.7512 21.3762 27.6247C21.3762 26.4981 21.7797 25.5314 22.5867 24.7244C23.3934 23.9174 24.36 23.5139 25.4866 23.5139C26.6134 23.5139 27.5801 23.9174 28.3869 24.7244C29.1938 25.5314 29.5973 26.4981 29.5973 27.6247C29.5973 28.7512 29.1938 29.718 28.3869 30.5249C27.5801 31.3319 26.6134 31.7354 25.4866 31.7354ZM25.4866 29.5065C26.0093 29.5065 26.4537 29.3235 26.8197 28.9574C27.1855 28.5917 27.3684 28.1474 27.3684 27.6247C27.3684 27.1019 27.1855 26.6577 26.8197 26.2919C26.4537 25.9259 26.0093 25.7429 25.4866 25.7429C24.9641 25.7429 24.5198 25.9259 24.1538 26.2919C23.7878 26.6577 23.6048 27.1019 23.6048 27.6247C23.6048 28.1474 23.7878 28.5917 24.1538 28.9574C24.5198 29.3235 24.9641 29.5065 25.4866 29.5065ZM41.1066 40.2913C40.7698 40.2913 40.4879 40.1775 40.2607 39.9497C40.0332 39.7223 39.9195 39.4403 39.9195 39.1038V20.8955C39.9195 20.559 40.0333 20.2771 40.2611 20.0496C40.4888 19.8219 40.7709 19.708 41.1074 19.708C41.4441 19.708 41.726 19.8219 41.9532 20.0496C42.1807 20.2771 42.2945 20.559 42.2945 20.8955V39.1038C42.2945 39.4403 42.1806 39.7223 41.9529 39.9497C41.7251 40.1775 41.443 40.2913 41.1066 40.2913ZM47.6224 40.2913C47.2859 40.2913 47.0039 40.1775 46.7765 39.9497C46.5493 39.7223 46.4357 39.4403 46.4357 39.1038V20.8955C46.4357 20.559 46.5494 20.2771 46.7769 20.0496C47.0046 19.8219 47.2868 19.708 47.6236 19.708C47.96 19.708 48.242 19.8219 48.4695 20.0496C48.6967 20.2771 48.8103 20.559 48.8103 20.8955V39.1038C48.8103 39.4403 48.6965 39.7223 48.4691 39.9497C48.2413 40.1775 47.9591 40.2913 47.6224 40.2913Z" fill="white"/>
<path d="M22.4453 30.6663C21.6013 29.8224 21.1762 28.805 21.1762 27.6247C21.1762 26.4443 21.6013 25.4269 22.4453 24.583C23.2889 23.7391 24.3062 23.3139 25.4866 23.3139C26.6672 23.3139 27.6846 23.739 28.5283 24.583L22.4453 30.6663ZM22.4453 30.6663C23.2889 31.5103 24.3062 31.9354 25.4866 31.9354M22.4453 30.6663L25.4866 31.9354M25.4866 31.9354C26.6672 31.9354 27.6846 31.5103 28.5283 30.6664L25.4866 31.9354ZM40.1192 40.0912C39.8524 39.8243 39.7195 39.4906 39.7195 39.1038V20.8955C39.7195 20.5087 39.8525 20.175 40.1196 19.9082C40.3867 19.6411 40.7205 19.508 41.1074 19.508C41.4944 19.508 41.8281 19.641 42.0947 19.9082C42.0947 19.9082 42.0948 19.9083 42.0948 19.9084L41.9532 20.0496L40.1192 40.0912ZM40.1192 40.0912C40.3859 40.3583 40.7196 40.4913 41.1066 40.4913M40.1192 40.0912L41.1066 40.4913M41.1066 40.4913C41.4934 40.4913 41.8271 40.3583 42.0942 40.0912L41.1066 40.4913ZM22.1158 36.1526L22.1159 36.1526C23.229 35.8377 24.3524 35.6804 25.4866 35.6804C26.651 35.6804 27.7968 35.8451 28.9245 36.1747L28.9806 35.9827L28.9245 36.1747C29.9842 36.4843 30.9868 36.9173 31.9325 37.4736C31.8801 37.5289 31.8204 37.5746 31.753 37.6116C31.6255 37.6814 31.4885 37.7163 31.339 37.7163H19.6346C19.4967 37.7163 19.3578 37.6822 19.2159 37.6091C19.1508 37.5755 19.1053 37.5377 19.0744 37.4956C20.0418 36.8997 21.0555 36.4523 22.1158 36.1526ZM24.2952 26.4334L24.2952 26.4333C24.6233 26.1052 25.0166 25.9429 25.4866 25.9429C25.9569 25.9429 26.3502 26.1052 26.6783 26.4333C27.0061 26.7611 27.1684 27.1543 27.1684 27.6247C27.1684 28.095 27.0061 28.4882 26.6783 28.816C26.3502 29.1441 25.9569 29.3065 25.4866 29.3065C25.0166 29.3065 24.6233 29.1441 24.2952 28.816L24.2952 28.816C23.9671 28.4882 23.8048 28.095 23.8048 27.6247C23.8048 27.1544 23.9671 26.7612 24.2952 26.4334ZM15.9991 39.4871C16.6698 40.1578 17.5131 40.4913 18.514 40.4913H32.4596C33.4605 40.4913 34.3038 40.1578 34.9744 39.4871C35.6448 38.8167 35.9783 37.9734 35.9783 36.9723V23.0271C35.9783 22.0259 35.6448 21.1827 34.9744 20.5122C34.3038 19.8416 33.4605 19.508 32.4596 19.508H18.514C17.5131 19.508 16.6698 19.8416 15.9991 20.5122C15.3287 21.1827 14.9953 22.0259 14.9953 23.0271V36.9723C14.9953 37.9734 15.3287 38.8167 15.9991 39.4871ZM21.2334 33.5059C20.0122 33.8713 18.8576 34.373 17.7699 35.011V23.0271C17.7699 22.815 17.8411 22.6429 17.9857 22.4983C18.1298 22.3541 18.3018 22.283 18.514 22.283H32.4596C32.6717 22.283 32.8436 22.3541 32.9878 22.4982C33.1321 22.6427 33.2032 22.8149 33.2032 23.0271V35.011C32.1156 34.373 30.961 33.8713 29.7397 33.5059C28.4004 33.1052 26.9824 32.9054 25.4866 32.9054C23.9908 32.9054 22.5728 33.1052 21.2334 33.5059ZM29.7973 27.6247C29.7973 26.4443 29.3722 25.4269 28.5283 24.583V30.6663C29.3722 29.8224 29.7973 28.805 29.7973 27.6247ZM46.635 40.0911C46.9018 40.3582 47.2355 40.4913 47.6224 40.4913C48.0094 40.4913 48.3434 40.3583 48.6105 40.0912C48.8773 39.8243 49.0103 39.4906 49.0103 39.1038V20.8955C49.0103 20.5088 48.8775 20.1751 48.611 19.9083C48.3441 19.6411 48.0104 19.508 47.6236 19.508C47.2365 19.508 46.9026 19.6411 46.6355 19.9082C46.3686 20.175 46.2357 20.5087 46.2357 20.8955V39.1038C46.2357 39.4906 46.3684 39.8242 46.635 40.0911Z" stroke="url(#paint1_linear_1224_4719)" stroke-width="0.4"/>
</g>
</g>
</g>
<rect x="2.36111" y="0.361111" width="59.2778" height="59.2778" rx="3.97222" stroke="black" stroke-opacity="0.15" stroke-width="0.722222"/>
</g>
<defs>
<filter id="filter0_di_1224_4719" x="0.338889" y="0" width="63.3222" height="63.8278" filterUnits="userSpaceOnUse" color-interpolation-filters="sRGB">
<feFlood flood-opacity="0" result="BackgroundImageFix"/>
<feColorMatrix in="SourceAlpha" type="matrix" values="0 0 0 0 0 0 0 0 0 0 0 0 0 0 0 0 0 0 127 0" result="hardAlpha"/>
<feOffset dy="2.16667"/>
<feGaussianBlur stdDeviation="0.830555"/>
<feComposite in2="hardAlpha" operator="out"/>
<feColorMatrix type="matrix" values="0 0 0 0 0.598333 0 0 0 0 0.598333 0 0 0 0 0.598333 0 0 0 0.25 0"/>
<feBlend mode="normal" in2="BackgroundImageFix" result="effect1_dropShadow_1224_4719"/>
<feBlend mode="normal" in="SourceGraphic" in2="effect1_dropShadow_1224_4719" result="shape"/>
<feColorMatrix in="SourceAlpha" type="matrix" values="0 0 0 0 0 0 0 0 0 0 0 0 0 0 0 0 0 0 127 0" result="hardAlpha"/>
<feOffset dy="2.16667"/>
<feGaussianBlur stdDeviation="0.65"/>
<feComposite in2="hardAlpha" operator="arithmetic" k2="-1" k3="1"/>
<feColorMatrix type="matrix" values="0 0 0 0 1 0 0 0 0 1 0 0 0 0 1 0 0 0 0.35 0"/>
<feBlend mode="normal" in2="shape" result="effect2_innerShadow_1224_4719"/>
</filter>
<filter id="filter1_f_1224_4719" x="-11.2" y="33.8" width="87.4" height="51.4" filterUnits="userSpaceOnUse" color-interpolation-filters="sRGB">
<feFlood flood-opacity="0" result="BackgroundImageFix"/>
<feBlend mode="normal" in="SourceGraphic" in2="BackgroundImageFix" result="shape"/>
<feGaussianBlur stdDeviation="7.1" result="effect1_foregroundBlur_1224_4719"/>
</filter>
<filter id="filter2_d_1224_4719" x="10.7969" y="19.3076" width="42.4141" height="29.3838" filterUnits="userSpaceOnUse" color-interpolation-filters="sRGB">
<feFlood flood-opacity="0" result="BackgroundImageFix"/>
<feColorMatrix in="SourceAlpha" type="matrix" values="0 0 0 0 0 0 0 0 0 0 0 0 0 0 0 0 0 0 127 0" result="hardAlpha"/>
<feOffset dy="4"/>
<feGaussianBlur stdDeviation="2"/>
<feComposite in2="hardAlpha" operator="out"/>
<feColorMatrix type="matrix" values="0 0 0 0 0 0 0 0 0 0 0 0 0 0 0 0 0 0 0.25 0"/>
<feBlend mode="normal" in2="BackgroundImageFix" result="effect1_dropShadow_1224_4719"/>
<feBlend mode="normal" in="SourceGraphic" in2="effect1_dropShadow_1224_4719" result="shape"/>
</filter>
<linearGradient id="paint0_linear_1224_4719" x1="32" y1="0" x2="32" y2="60" gradientUnits="userSpaceOnUse">
<stop stop-color="#556FF9"/>
<stop offset="1" stop-color="#5770F2"/>
</linearGradient>
<linearGradient id="paint1_linear_1224_4719" x1="32.0028" y1="19.708" x2="32.0028" y2="40.2913" gradientUnits="userSpaceOnUse">
<stop stop-color="white"/>
<stop offset="1" stop-color="#007AFF"/>
</linearGradient>
<clipPath id="clip0_1224_4719">
<rect x="2" width="60" height="60" rx="4.33333" fill="white"/>
</clipPath>
</defs>
</svg>
