<svg width="64" height="64" viewBox="0 0 64 64" fill="none" xmlns="http://www.w3.org/2000/svg">
<g filter="url(#filter0_di_1224_4970)">
<g clip-path="url(#clip0_1224_4970)">
<rect x="2" width="60" height="60" rx="4.33333" fill="url(#paint0_linear_1224_4970)"/>
<g filter="url(#filter1_f_1224_4970)">
<ellipse cx="32.5" cy="59.5" rx="29.5" ry="11.5" fill="white" fill-opacity="0.49"/>
</g>
<g filter="url(#filter2_d_1224_4970)">
<path d="M22.4974 45.0416C21.3912 45.0416 20.4549 44.6584 19.6886 43.8921C18.9222 43.1258 18.5391 42.1895 18.5391 41.0833V38.5563C18.5391 38.148 18.6756 37.8075 18.9488 37.5346C19.2216 37.2615 19.5622 37.1249 19.9704 37.1249H23.2891V16.0452C23.2891 15.8808 23.3556 15.7708 23.4886 15.7151C23.6216 15.6591 23.7489 15.682 23.8705 15.7836L25.0339 16.7486C25.1719 16.8663 25.3211 16.9252 25.4816 16.9252C25.6418 16.9252 25.7909 16.8663 25.9289 16.7486L27.2565 15.6648C27.3945 15.5471 27.5437 15.4883 27.7042 15.4883C27.8646 15.4883 28.0139 15.5471 28.1519 15.6648L29.4795 16.7486C29.6175 16.8663 29.7666 16.9252 29.9268 16.9252C30.0872 16.9252 30.2365 16.8663 30.3745 16.7486L31.7021 15.6648C31.8401 15.5471 31.9893 15.4883 32.1498 15.4883C32.31 15.4883 32.4591 15.5471 32.5971 15.6648L33.9247 16.7486C34.0627 16.8663 34.212 16.9252 34.3724 16.9252C34.5328 16.9252 34.6821 16.8663 34.8201 16.7486L36.1477 15.6648C36.2857 15.5471 36.4348 15.4883 36.595 15.4883C36.7554 15.4883 36.9047 15.5471 37.0427 15.6648L38.3703 16.7486C38.5083 16.8663 38.6576 16.9252 38.818 16.9252C38.9782 16.9252 39.1273 16.8663 39.2653 16.7486L40.5929 15.6648C40.7309 15.5471 40.8802 15.4883 41.0406 15.4883C41.201 15.4883 41.3503 15.5471 41.4883 15.6648L42.8159 16.7486C42.9539 16.8663 43.103 16.9252 43.2632 16.9252C43.4237 16.9252 43.5729 16.8663 43.7109 16.7486L44.8742 15.7836C44.9959 15.682 45.1232 15.6591 45.2562 15.7151C45.3892 15.7708 45.4557 15.8808 45.4557 16.0452V41.0833C45.4557 42.1895 45.0726 43.1258 44.3062 43.8921C43.5399 44.6584 42.6036 45.0416 41.4974 45.0416H22.4974ZM41.4974 42.6666C41.946 42.6666 42.322 42.5149 42.6255 42.2114C42.929 41.9079 43.0807 41.5319 43.0807 41.0833V18.9166H25.6641V37.1249H38.4831C38.8911 37.1249 39.2315 37.2615 39.5044 37.5346C39.7775 37.8075 39.9141 38.148 39.9141 38.5563V41.0833C39.9141 41.5319 40.0658 41.9079 40.3693 42.2114C40.6727 42.5149 41.0488 42.6666 41.4974 42.6666ZM28.7393 22.4791H35.3469C35.6837 22.4791 35.9658 22.5928 36.1932 22.8203C36.4204 23.0475 36.534 23.3296 36.534 23.6666C36.534 24.0036 36.4204 24.2857 36.1932 24.5129C35.9658 24.7404 35.6837 24.8541 35.3469 24.8541H28.7393C28.4023 24.8541 28.1202 24.7404 27.893 24.5129C27.6655 24.2857 27.5518 24.0036 27.5518 23.6666C27.5518 23.3296 27.6655 23.0475 27.893 22.8203C28.1202 22.5928 28.4023 22.4791 28.7393 22.4791ZM28.7393 27.2291H35.3469C35.6837 27.2291 35.9658 27.3428 36.1932 27.5703C36.4204 27.7975 36.534 28.0796 36.534 28.4166C36.534 28.7536 36.4204 29.0357 36.1932 29.2629C35.9658 29.4904 35.6837 29.6041 35.3469 29.6041H28.7393C28.4023 29.6041 28.1202 29.4904 27.893 29.2629C27.6655 29.0357 27.5518 28.7536 27.5518 28.4166C27.5518 28.0796 27.6655 27.7975 27.893 27.5703C28.1202 27.3428 28.4023 27.2291 28.7393 27.2291ZM39.8226 25.0671C39.435 25.0671 39.1046 24.9306 38.8315 24.6578C38.5586 24.3846 38.4222 24.0542 38.4222 23.6666C38.4222 23.2789 38.5586 22.9486 38.8315 22.6754C39.1046 22.4026 39.435 22.2661 39.8226 22.2661C40.2103 22.2661 40.5407 22.4026 40.8138 22.6754C41.0869 22.9486 41.2235 23.2789 41.2235 23.6666C41.2235 24.0542 41.0869 24.3846 40.8138 24.6578C40.5407 24.9306 40.2103 25.0671 39.8226 25.0671ZM39.8226 29.8171C39.435 29.8171 39.1046 29.6806 38.8315 29.4078C38.5586 29.1346 38.4222 28.8042 38.4222 28.4166C38.4222 28.0289 38.5586 27.6986 38.8315 27.4254C39.1046 27.1526 39.435 27.0161 39.8226 27.0161C40.2103 27.0161 40.5407 27.1526 40.8138 27.4254C41.0869 27.6986 41.2235 28.0289 41.2235 28.4166C41.2235 28.8042 41.0869 29.1346 40.8138 29.4078C40.5407 29.6806 40.2103 29.8171 39.8226 29.8171ZM22.4974 42.6666H37.5391V39.4999H20.9141V41.0833C20.9141 41.5319 21.0658 41.9079 21.3693 42.2114C21.6727 42.5149 22.0488 42.6666 22.4974 42.6666Z" fill="white"/>
<path d="M44.746 15.6301C44.7461 15.63 44.7462 15.6299 44.7463 15.6298L44.746 15.6301ZM44.746 15.6301L43.5832 16.5947L43.5832 16.5947L43.5811 16.5964C43.4743 16.6876 43.3699 16.7252 43.2632 16.7252C43.1569 16.7252 43.0526 16.6876 42.9457 16.5964L42.9457 16.5964L42.9424 16.5937L41.6163 15.5112C41.4476 15.3678 41.2541 15.2883 41.0406 15.2883C40.8271 15.2883 40.6336 15.3678 40.4649 15.5112L39.1388 16.5937L39.1388 16.5936L39.1355 16.5964C39.0286 16.6876 38.9243 16.7252 38.818 16.7252C38.7113 16.7252 38.6069 16.6876 38.5001 16.5964L38.5001 16.5964L38.4968 16.5937L37.1708 15.5112C37.002 15.3678 36.8085 15.2883 36.595 15.2883C36.3817 15.2883 36.1884 15.3679 36.0197 15.5112L34.6936 16.5937L34.6936 16.5936L34.6903 16.5964C34.5835 16.6876 34.4791 16.7252 34.3724 16.7252C34.2657 16.7252 34.1613 16.6876 34.0545 16.5964L34.0545 16.5964L34.0512 16.5937L32.7251 15.5112C32.5564 15.3679 32.3631 15.2883 32.1498 15.2883C31.9363 15.2883 31.7428 15.3678 31.5741 15.5112L30.248 16.5937L30.248 16.5936L30.2447 16.5964C30.1379 16.6876 30.0335 16.7252 29.9268 16.7252C29.8205 16.7252 29.7162 16.6876 29.6093 16.5964L29.6093 16.5964L29.606 16.5937L28.2799 15.5112C28.1112 15.3678 27.9177 15.2883 27.7042 15.2883C27.4907 15.2883 27.2972 15.3678 27.1284 15.5112L25.8024 16.5937L25.8024 16.5936L25.7991 16.5964C25.6922 16.6876 25.5879 16.7252 25.4816 16.7252C25.3749 16.7252 25.2705 16.6876 25.1637 16.5964L25.1637 16.5964L25.1616 16.5947L23.9987 15.6301C23.9987 15.63 23.9986 15.6299 23.9985 15.6298C23.917 15.5619 23.8238 15.5122 23.7191 15.4934C23.6132 15.4744 23.5091 15.4895 23.4113 15.5306C23.4112 15.5307 23.4111 15.5307 23.411 15.5307L44.746 15.6301ZM39.6458 37.3932C39.3331 37.0803 38.9408 36.9249 38.4831 36.9249H25.8641V19.1166H42.8807V41.0833C42.8807 41.4815 42.7482 41.8059 42.4841 42.07C42.22 42.3341 41.8956 42.4666 41.4974 42.4666C41.0992 42.4666 40.7748 42.3341 40.5107 42.07C40.2466 41.8059 40.1141 41.4815 40.1141 41.0833V38.5563C40.1141 38.0984 39.9588 37.7059 39.6458 37.3932ZM39.6458 37.3932C39.6458 37.3932 39.6458 37.3932 39.6457 37.3931L39.5044 37.5346L39.6459 37.3933C39.6458 37.3932 39.6458 37.3932 39.6458 37.3932ZM27.7516 24.6543C28.0183 24.9212 28.3521 25.0541 28.7393 25.0541H35.3469C35.7339 25.0541 36.0678 24.9212 36.3347 24.6543C36.6014 24.3876 36.734 24.0537 36.734 23.6666C36.734 23.2794 36.6014 22.9456 36.3347 22.6789C36.0678 22.412 35.7339 22.2791 35.3469 22.2791H28.7393C28.3521 22.2791 28.0182 22.4119 27.7516 22.6789M27.7516 24.6543C27.4846 24.3876 27.3518 24.0538 27.3518 23.6666C27.3518 23.2794 27.4846 22.9456 27.7516 22.6789M27.7516 24.6543C27.7516 24.6543 27.7516 24.6544 27.7517 24.6544L27.893 24.5129L27.7515 24.6542C27.7515 24.6543 27.7516 24.6543 27.7516 24.6543ZM27.7516 22.6789C27.7515 22.6789 27.7515 22.6789 27.7515 22.679L27.893 22.8203L27.7517 22.6788C27.7516 22.6788 27.7516 22.6789 27.7516 22.6789ZM27.7516 29.4043C28.0183 29.6713 28.3521 29.8041 28.7393 29.8041H35.3469C35.7339 29.8041 36.0678 29.6712 36.3347 29.4043C36.6014 29.1376 36.734 28.8037 36.734 28.4166C36.734 28.0294 36.6014 27.6956 36.3347 27.4289C36.0678 27.162 35.7339 27.0291 35.3469 27.0291H28.7393C28.3521 27.0291 28.0182 27.1619 27.7516 27.4289M27.7516 29.4043C27.4846 29.1376 27.3518 28.8038 27.3518 28.4166C27.3518 28.0294 27.4846 27.6956 27.7516 27.4289M27.7516 29.4043C27.7516 29.4043 27.7516 29.4044 27.7517 29.4044L27.893 29.2629L27.7515 29.4042C27.7515 29.4043 27.7516 29.4043 27.7516 29.4043ZM27.7516 27.4289C27.7515 27.4289 27.7515 27.4289 27.7515 27.429L27.893 27.5703L27.7517 27.4288C27.7516 27.4288 27.7516 27.4289 27.7516 27.4289ZM23.0891 36.9249H19.9704C19.5125 36.9249 19.12 37.0803 18.8073 37.3933C18.4943 37.7059 18.3391 38.0984 18.3391 38.5563V41.0833C18.3391 42.2413 18.7424 43.2288 19.5471 44.0335C20.3518 44.8382 21.3394 45.2416 22.4974 45.2416H41.4974C42.6554 45.2416 43.6429 44.8382 44.4477 44.0335C45.2524 43.2288 45.6557 42.2413 45.6557 41.0833V16.0452C45.6557 15.9366 45.6337 15.8297 45.577 15.7359C45.5193 15.6404 45.4343 15.5729 45.3338 15.5307C45.3337 15.5307 45.3336 15.5307 45.3335 15.5306L45.2562 15.7151L23.0891 36.9249ZM38.69 24.7991L38.6901 24.7993C39.0009 25.1097 39.3822 25.2671 39.8226 25.2671C40.263 25.2671 40.6443 25.1097 40.9551 24.7993L40.9552 24.7992C41.266 24.4884 41.4235 24.1071 41.4235 23.6666C41.4235 23.2261 41.266 22.8448 40.9552 22.534L40.9551 22.5339C40.6443 22.2234 40.263 22.0661 39.8226 22.0661C39.3822 22.0661 39.0009 22.2234 38.6901 22.5339L38.69 22.5341C38.3795 22.8449 38.2222 23.2262 38.2222 23.6666C38.2222 24.107 38.3795 24.4883 38.69 24.7991ZM38.69 29.5491L38.6901 29.5493C39.0009 29.8597 39.3822 30.0171 39.8226 30.0171C40.263 30.0171 40.6443 29.8597 40.9551 29.5493L40.9552 29.5492C41.266 29.2384 41.4235 28.8571 41.4235 28.4166C41.4235 27.9761 41.266 27.5948 40.9552 27.284L40.9551 27.2839C40.6443 26.9734 40.263 26.8161 39.8226 26.8161C39.3822 26.8161 39.0009 26.9734 38.6901 27.2839L38.69 27.2841C38.3795 27.5949 38.2222 27.9762 38.2222 28.4166C38.2222 28.857 38.3795 29.2383 38.69 29.5491ZM37.3391 39.6999V42.4666H22.4974C22.0992 42.4666 21.7748 42.3341 21.5107 42.07C21.2466 41.8059 21.1141 41.4815 21.1141 41.0833V39.6999H37.3391Z" stroke="url(#paint1_linear_1224_4970)" stroke-width="0.4"/>
</g>
</g>
<rect x="2.36111" y="0.361111" width="59.2778" height="59.2778" rx="3.97222" stroke="black" stroke-opacity="0.15" stroke-width="0.722222"/>
</g>
<defs>
<filter id="filter0_di_1224_4970" x="0.338889" y="0" width="63.3222" height="63.8278" filterUnits="userSpaceOnUse" color-interpolation-filters="sRGB">
<feFlood flood-opacity="0" result="BackgroundImageFix"/>
<feColorMatrix in="SourceAlpha" type="matrix" values="0 0 0 0 0 0 0 0 0 0 0 0 0 0 0 0 0 0 127 0" result="hardAlpha"/>
<feOffset dy="2.16667"/>
<feGaussianBlur stdDeviation="0.830555"/>
<feComposite in2="hardAlpha" operator="out"/>
<feColorMatrix type="matrix" values="0 0 0 0 0.598333 0 0 0 0 0.598333 0 0 0 0 0.598333 0 0 0 0.25 0"/>
<feBlend mode="normal" in2="BackgroundImageFix" result="effect1_dropShadow_1224_4970"/>
<feBlend mode="normal" in="SourceGraphic" in2="effect1_dropShadow_1224_4970" result="shape"/>
<feColorMatrix in="SourceAlpha" type="matrix" values="0 0 0 0 0 0 0 0 0 0 0 0 0 0 0 0 0 0 127 0" result="hardAlpha"/>
<feOffset dy="2.16667"/>
<feGaussianBlur stdDeviation="0.65"/>
<feComposite in2="hardAlpha" operator="arithmetic" k2="-1" k3="1"/>
<feColorMatrix type="matrix" values="0 0 0 0 1 0 0 0 0 1 0 0 0 0 1 0 0 0 0.35 0"/>
<feBlend mode="normal" in2="shape" result="effect2_innerShadow_1224_4970"/>
</filter>
<filter id="filter1_f_1224_4970" x="-11.2" y="33.8" width="87.4" height="51.4" filterUnits="userSpaceOnUse" color-interpolation-filters="sRGB">
<feFlood flood-opacity="0" result="BackgroundImageFix"/>
<feBlend mode="normal" in="SourceGraphic" in2="BackgroundImageFix" result="shape"/>
<feGaussianBlur stdDeviation="7.1" result="effect1_foregroundBlur_1224_4970"/>
</filter>
<filter id="filter2_d_1224_4970" x="14.1406" y="15.0879" width="35.7188" height="38.3535" filterUnits="userSpaceOnUse" color-interpolation-filters="sRGB">
<feFlood flood-opacity="0" result="BackgroundImageFix"/>
<feColorMatrix in="SourceAlpha" type="matrix" values="0 0 0 0 0 0 0 0 0 0 0 0 0 0 0 0 0 0 127 0" result="hardAlpha"/>
<feOffset dy="4"/>
<feGaussianBlur stdDeviation="2"/>
<feComposite in2="hardAlpha" operator="out"/>
<feColorMatrix type="matrix" values="0 0 0 0 0 0 0 0 0 0 0 0 0 0 0 0 0 0 0.25 0"/>
<feBlend mode="normal" in2="BackgroundImageFix" result="effect1_dropShadow_1224_4970"/>
<feBlend mode="normal" in="SourceGraphic" in2="effect1_dropShadow_1224_4970" result="shape"/>
</filter>
<linearGradient id="paint0_linear_1224_4970" x1="32" y1="0" x2="32" y2="60" gradientUnits="userSpaceOnUse">
<stop stop-color="#556FF9"/>
<stop offset="1" stop-color="#5770F2"/>
</linearGradient>
<linearGradient id="paint1_linear_1224_4970" x1="31.9974" y1="15.4883" x2="31.9974" y2="45.0416" gradientUnits="userSpaceOnUse">
<stop stop-color="white"/>
<stop offset="1" stop-color="#007AFF"/>
</linearGradient>
<clipPath id="clip0_1224_4970">
<rect x="2" width="60" height="60" rx="4.33333" fill="white"/>
</clipPath>
</defs>
</svg>
