<svg width="74" height="74" viewBox="0 0 74 74" fill="none" xmlns="http://www.w3.org/2000/svg">
<mask id="mask0_1_12849" style="mask-type:alpha" maskUnits="userSpaceOnUse" x="0" y="0" width="74" height="74">
<rect width="74" height="74" fill="#D9D9D9"/>
</mask>
<g mask="url(#mask0_1_12849)">
<path d="M20.3984 51.6161V22.3846C20.3984 21.8758 20.5629 21.457 20.8918 21.1281C21.2212 20.7992 21.6402 20.6348 22.149 20.6348C22.6577 20.6348 23.0763 20.7992 23.4047 21.1281C23.7325 21.457 23.8965 21.8758 23.8965 22.3846V51.6161C23.8965 52.1248 23.732 52.5437 23.4031 52.8726C23.0737 53.2014 22.6547 53.3659 22.1459 53.3659C21.6372 53.3659 21.2186 53.2014 20.8902 52.8726C20.5624 52.5437 20.3984 52.1248 20.3984 51.6161ZM35.9631 51.2484C35.2118 51.6914 34.4577 51.7148 33.7007 51.3186C32.9438 50.9229 32.5653 50.2769 32.5653 49.3807V24.62C32.5653 23.7238 32.9438 23.0778 33.7007 22.6821C34.4577 22.2859 35.2118 22.3093 35.9631 22.7522L55.9685 35.1326C56.6489 35.5823 56.9891 36.2066 56.9891 37.0057C56.9891 37.8048 56.6489 38.4256 55.9685 38.8681L35.9631 51.2484Z" fill="#B6C1FF"/>
<path d="M35.9603 51.2483C35.209 51.6913 34.4549 51.7146 33.6979 51.3184C32.941 50.9227 32.5625 50.2768 32.5625 49.3805V24.6198C32.5625 23.7236 32.941 23.0777 33.6979 22.682C34.4549 22.2858 35.209 22.3091 35.9603 22.7521L55.9658 35.1325C56.6462 35.5821 56.9864 36.2065 56.9864 37.0056C56.9864 37.8047 56.6462 38.4255 55.9658 38.8679L35.9603 51.2483Z" fill="#556FF9"/>
</g>
</svg>
