<svg width="309" height="346" viewBox="0 0 309 346" fill="none" xmlns="http://www.w3.org/2000/svg">
<g clip-path="url(#clip0_154_48)">
<rect width="309" height="346" rx="10" fill="white"/>
<circle cx="154.999" cy="101.999" r="86.9325" fill="url(#paint0_linear_154_48)"/>
<circle cx="154.999" cy="101.999" r="86.2638" stroke="#B6C1FF" stroke-opacity="0.17" stroke-width="1.33742"/>
<g filter="url(#filter0_f_154_48)">
<path d="M167.042 -28.766V-51.273C167.042 -52.4921 166.008 -53.5002 163.94 -54.2974C161.872 -55.0945 159.257 -55.493 156.095 -55.493C152.932 -55.493 150.317 -55.0945 148.249 -54.2974C146.182 -53.5002 145.148 -52.4921 145.148 -51.273V-27.078C145.148 -26.5153 145.391 -25.9995 145.877 -25.5306C146.364 -25.0618 147.215 -24.5928 148.432 -24.124L191.49 -7.52506C193.68 -6.68105 196.234 -6.25905 199.153 -6.25905C202.072 -6.25905 204.627 -6.68105 206.816 -7.52506C209.006 -8.36908 210.1 -9.35376 210.1 -10.4791C210.1 -11.6045 209.006 -12.5891 206.816 -13.4331L167.042 -28.766ZM155 23C136.998 23 120.03 21.6871 104.096 19.0613C88.162 16.4355 74.2957 12.825 62.4972 8.22981C50.6987 3.63464 41.3329 -1.71077 34.3997 -7.80641C27.4666 -13.902 24 -20.4666 24 -27.5C24 -34.4396 27.4666 -40.9807 34.3997 -47.1233C41.3329 -53.2658 50.6987 -58.6346 62.4972 -63.2298C74.2957 -67.825 88.162 -71.4355 104.096 -74.0613C120.03 -76.6871 136.998 -78 155 -78C173.002 -78 189.97 -76.6871 205.904 -74.0613C221.838 -71.4355 235.765 -67.825 247.685 -63.2298C259.605 -58.6346 268.971 -53.2658 275.783 -47.1233C282.594 -40.9807 286 -34.4396 286 -27.5C286 -20.4666 282.594 -13.902 275.783 -7.80641C268.971 -1.71077 259.605 3.63464 247.685 8.22981C235.765 12.825 221.838 16.4355 205.904 19.0613C189.97 21.6871 173.002 23 155 23Z" fill="url(#paint1_linear_154_48)"/>
</g>
<g filter="url(#filter1_dd_154_48)">
<path d="M134.796 150.121C141.095 152.814 147.804 154.16 154.921 154.16C162.038 154.16 168.747 152.814 175.046 150.121C181.346 147.428 186.852 143.725 191.565 139.012C196.278 134.3 199.981 128.817 202.674 122.566C205.367 116.314 206.713 109.582 206.713 102.368C206.713 95.2511 205.367 88.5427 202.674 82.243C199.981 75.9433 196.278 70.437 191.565 65.7243C186.852 61.0115 181.346 57.3087 175.046 54.6157C168.747 51.9227 162.038 50.5762 154.921 50.5762C147.804 50.5762 141.095 51.9227 134.796 54.6157C128.496 57.3087 123.014 61.0115 118.349 65.7243C113.685 70.437 109.982 75.9433 107.241 82.243C104.499 88.5427 103.129 95.2511 103.129 102.368C103.129 109.582 104.499 116.314 107.241 122.566C109.982 128.817 113.685 134.3 118.349 139.012C123.014 143.725 128.496 147.428 134.796 150.121Z" fill="url(#paint2_linear_154_48)" shape-rendering="crispEdges"/>
<path d="M134.533 150.736C140.919 153.466 147.717 154.829 154.921 154.829C162.125 154.829 168.923 153.466 175.309 150.736C181.685 148.01 187.263 144.26 192.038 139.485C196.812 134.711 200.562 129.158 203.288 122.83C206.019 116.49 207.382 109.667 207.382 102.368C207.382 95.1643 206.018 88.3661 203.289 81.9801C200.563 75.6042 196.813 70.0262 192.038 65.2514C187.263 60.4767 181.685 56.7264 175.309 54.0008C168.923 51.2709 162.125 49.9075 154.921 49.9075C147.717 49.9075 140.919 51.2709 134.533 54.0008C128.156 56.7266 122.601 60.4776 117.874 65.2539C113.149 70.0275 109.4 75.6034 106.627 81.9762C103.848 88.3631 102.46 95.1627 102.46 102.368C102.46 109.669 103.848 116.493 106.628 122.834C109.401 129.159 113.15 134.71 117.874 139.483C122.601 144.259 128.156 148.01 134.533 150.736Z" stroke="white" stroke-opacity="0.02" stroke-width="1.33742" shape-rendering="crispEdges"/>
</g>
<g filter="url(#filter2_d_154_48)">
<path d="M152.369 105.651L147.456 100.593C147.168 100.279 146.81 100.117 146.383 100.109C145.955 100.101 145.585 100.241 145.27 100.529C144.922 100.86 144.749 101.235 144.749 101.654C144.749 102.073 144.922 102.448 145.27 102.779L151.062 108.532C151.433 108.92 151.865 109.113 152.357 109.113C152.849 109.113 153.288 108.92 153.676 108.532L164.997 97.2746C165.269 96.9865 165.409 96.6289 165.417 96.2018C165.425 95.7747 165.264 95.4087 164.933 95.1039C164.645 94.8421 164.298 94.722 163.892 94.7435C163.486 94.7651 163.153 94.9067 162.891 95.1685L152.369 105.651ZM146.135 126.004L142.378 119.606L134.942 118.115C134.484 118.029 134.111 117.779 133.821 117.365C133.531 116.951 133.421 116.515 133.491 116.059L134.271 108.781L129.492 103.236C129.164 102.909 129 102.495 129 101.994C129 101.494 129.164 101.08 129.492 100.752L134.271 95.2479L133.491 87.97C133.421 87.5128 133.531 87.0773 133.821 86.6635C134.111 86.2493 134.484 85.9992 134.942 85.9131L142.378 84.4225L146.135 77.9842C146.376 77.5704 146.721 77.2815 147.171 77.1175C147.619 76.9534 148.072 76.9708 148.529 77.1698L155.121 80.1903L161.739 77.1698C162.179 76.9708 162.624 76.9467 163.072 77.0974C163.521 77.2481 163.867 77.5306 164.108 77.9448L167.929 84.4225L175.301 85.9131C175.758 85.9992 176.132 86.2493 176.422 86.6635C176.711 87.0773 176.83 87.5128 176.777 87.97L175.971 95.2479L180.751 100.752C181.079 101.08 181.243 101.494 181.243 101.994C181.243 102.495 181.079 102.909 180.751 103.236L175.971 108.781L176.777 116.059C176.83 116.515 176.711 116.951 176.422 117.365C176.132 117.779 175.758 118.029 175.301 118.115L167.929 119.606L164.108 126.044C163.867 126.458 163.521 126.74 163.072 126.891C162.624 127.042 162.179 127.018 161.739 126.819L155.121 123.798L148.529 126.819C148.072 127.018 147.619 127.035 147.171 126.871C146.721 126.707 146.376 126.418 146.135 126.004ZM148.31 123.62L155.121 120.788L162.076 123.62L166.254 117.236L173.687 115.398L172.961 107.787L178.068 101.994L172.961 96.1224L173.687 88.4867L166.254 86.7526L161.997 80.3686L155.121 83.2006L148.166 80.3686L143.988 86.7526L136.556 88.4867L137.282 96.1224L132.174 101.994L137.282 107.787L136.556 115.477L143.988 117.236L148.31 123.62Z" fill="white"/>
</g>
<circle cx="155" cy="102" r="217.331" stroke="#B6C1FF" stroke-opacity="0.17" stroke-width="1.33742"/>
<circle cx="154.998" cy="102" r="173.196" stroke="#B6C1FF" stroke-opacity="0.17" stroke-width="1.33742"/>
<circle cx="155.001" cy="102.001" r="130.399" stroke="#B6C1FF" stroke-opacity="0.17" stroke-width="1.33742"/>
</g>
<rect x="0.5" y="0.5" width="308" height="345" rx="9.5" stroke="#CCCCCC"/>
<defs>
<filter id="filter0_f_154_48" x="-92.7" y="-194.7" width="495.4" height="334.4" filterUnits="userSpaceOnUse" color-interpolation-filters="sRGB">
<feFlood flood-opacity="0" result="BackgroundImageFix"/>
<feBlend mode="normal" in="SourceGraphic" in2="BackgroundImageFix" result="shape"/>
<feGaussianBlur stdDeviation="58.35" result="effect1_foregroundBlur_154_48"/>
</filter>
<filter id="filter1_dd_154_48" x="62.4677" y="19.8076" width="184.906" height="184.906" filterUnits="userSpaceOnUse" color-interpolation-filters="sRGB">
<feFlood flood-opacity="0" result="BackgroundImageFix"/>
<feColorMatrix in="SourceAlpha" type="matrix" values="0 0 0 0 0 0 0 0 0 0 0 0 0 0 0 0 0 0 127 0" result="hardAlpha"/>
<feOffset dy="9.89265"/>
<feGaussianBlur stdDeviation="19.6616"/>
<feComposite in2="hardAlpha" operator="out"/>
<feColorMatrix type="matrix" values="0 0 0 0 0.713726 0 0 0 0 0.756863 0 0 0 0 1 0 0 0 1 0"/>
<feBlend mode="normal" in2="BackgroundImageFix" result="effect1_dropShadow_154_48"/>
<feColorMatrix in="SourceAlpha" type="matrix" values="0 0 0 0 0 0 0 0 0 0 0 0 0 0 0 0 0 0 127 0" result="hardAlpha"/>
<feOffset/>
<feGaussianBlur stdDeviation="3.74479"/>
<feComposite in2="hardAlpha" operator="out"/>
<feColorMatrix type="matrix" values="0 0 0 0 0.830683 0 0 0 0 0.853937 0 0 0 0 0.985 0 0 0 1 0"/>
<feBlend mode="normal" in2="effect1_dropShadow_154_48" result="effect2_dropShadow_154_48"/>
<feBlend mode="normal" in="SourceGraphic" in2="effect2_dropShadow_154_48" result="shape"/>
</filter>
<filter id="filter2_d_154_48" x="122.487" y="77" width="65.2675" height="63.0136" filterUnits="userSpaceOnUse" color-interpolation-filters="sRGB">
<feFlood flood-opacity="0" result="BackgroundImageFix"/>
<feColorMatrix in="SourceAlpha" type="matrix" values="0 0 0 0 0 0 0 0 0 0 0 0 0 0 0 0 0 0 127 0" result="hardAlpha"/>
<feOffset dy="6.51267"/>
<feGaussianBlur stdDeviation="3.25634"/>
<feComposite in2="hardAlpha" operator="out"/>
<feColorMatrix type="matrix" values="0 0 0 0 0 0 0 0 0 0 0 0 0 0 0 0 0 0 0.14 0"/>
<feBlend mode="normal" in2="BackgroundImageFix" result="effect1_dropShadow_154_48"/>
<feBlend mode="normal" in="SourceGraphic" in2="effect1_dropShadow_154_48" result="shape"/>
</filter>
<linearGradient id="paint0_linear_154_48" x1="154.999" y1="62.5449" x2="154.999" y2="188.931" gradientUnits="userSpaceOnUse">
<stop stop-color="#EFF1FF"/>
<stop offset="1" stop-color="white"/>
</linearGradient>
<linearGradient id="paint1_linear_154_48" x1="155" y1="-78" x2="155" y2="23" gradientUnits="userSpaceOnUse">
<stop stop-color="#B6C1FF"/>
<stop offset="1" stop-color="#E0E5FF"/>
</linearGradient>
<linearGradient id="paint2_linear_154_48" x1="154.921" y1="50.5762" x2="154.921" y2="154.16" gradientUnits="userSpaceOnUse">
<stop stop-color="#3495FF"/>
<stop offset="1" stop-color="#CED5FF"/>
</linearGradient>
<clipPath id="clip0_154_48">
<rect width="309" height="346" rx="10" fill="white"/>
</clipPath>
</defs>
</svg>
