<svg width="309" height="346" viewBox="0 0 309 346" fill="none" xmlns="http://www.w3.org/2000/svg">
<g clip-path="url(#clip0_163_22)">
<rect width="309" height="346" rx="10" fill="white"/>
<circle cx="154.999" cy="101.999" r="86.9325" fill="url(#paint0_linear_163_22)"/>
<circle cx="154.999" cy="101.999" r="86.2638" stroke="#B6C1FF" stroke-opacity="0.17" stroke-width="1.33742"/>
<g filter="url(#filter0_f_163_22)">
<path d="M167.042 -28.766V-51.273C167.042 -52.4921 166.008 -53.5002 163.94 -54.2974C161.872 -55.0945 159.257 -55.493 156.095 -55.493C152.932 -55.493 150.317 -55.0945 148.249 -54.2974C146.182 -53.5002 145.148 -52.4921 145.148 -51.273V-27.078C145.148 -26.5153 145.391 -25.9995 145.877 -25.5306C146.364 -25.0618 147.215 -24.5928 148.432 -24.124L191.49 -7.52506C193.68 -6.68105 196.234 -6.25905 199.153 -6.25905C202.072 -6.25905 204.627 -6.68105 206.816 -7.52506C209.006 -8.36908 210.1 -9.35376 210.1 -10.4791C210.1 -11.6045 209.006 -12.5891 206.816 -13.4331L167.042 -28.766ZM155 23C136.998 23 120.03 21.6871 104.096 19.0613C88.162 16.4355 74.2957 12.825 62.4972 8.22981C50.6987 3.63464 41.3329 -1.71077 34.3997 -7.80641C27.4666 -13.902 24 -20.4666 24 -27.5C24 -34.4396 27.4666 -40.9807 34.3997 -47.1233C41.3329 -53.2658 50.6987 -58.6346 62.4972 -63.2298C74.2957 -67.825 88.162 -71.4355 104.096 -74.0613C120.03 -76.6871 136.998 -78 155 -78C173.002 -78 189.97 -76.6871 205.904 -74.0613C221.838 -71.4355 235.765 -67.825 247.685 -63.2298C259.605 -58.6346 268.971 -53.2658 275.783 -47.1233C282.594 -40.9807 286 -34.4396 286 -27.5C286 -20.4666 282.594 -13.902 275.783 -7.80641C268.971 -1.71077 259.605 3.63464 247.685 8.22981C235.765 12.825 221.838 16.4355 205.904 19.0613C189.97 21.6871 173.002 23 155 23Z" fill="url(#paint1_linear_163_22)"/>
</g>
<g filter="url(#filter1_dd_163_22)">
<path d="M134.796 150.121C141.095 152.814 147.804 154.16 154.921 154.16C162.038 154.16 168.747 152.814 175.046 150.121C181.346 147.428 186.852 143.725 191.565 139.012C196.278 134.3 199.981 128.817 202.674 122.566C205.367 116.314 206.713 109.582 206.713 102.368C206.713 95.2511 205.367 88.5427 202.674 82.243C199.981 75.9433 196.278 70.437 191.565 65.7243C186.852 61.0115 181.346 57.3087 175.046 54.6157C168.747 51.9227 162.038 50.5762 154.921 50.5762C147.804 50.5762 141.095 51.9227 134.796 54.6157C128.496 57.3087 123.014 61.0115 118.349 65.7243C113.685 70.437 109.982 75.9433 107.241 82.243C104.499 88.5427 103.129 95.2511 103.129 102.368C103.129 109.582 104.499 116.314 107.241 122.566C109.982 128.817 113.685 134.3 118.349 139.012C123.014 143.725 128.496 147.428 134.796 150.121Z" fill="url(#paint2_linear_163_22)" shape-rendering="crispEdges"/>
<path d="M134.533 150.736C140.919 153.466 147.717 154.829 154.921 154.829C162.125 154.829 168.923 153.466 175.309 150.736C181.685 148.01 187.263 144.26 192.038 139.485C196.812 134.711 200.562 129.158 203.288 122.83C206.019 116.49 207.382 109.667 207.382 102.368C207.382 95.1643 206.018 88.3661 203.289 81.9801C200.563 75.6042 196.813 70.0262 192.038 65.2514C187.263 60.4767 181.685 56.7264 175.309 54.0008C168.923 51.2709 162.125 49.9075 154.921 49.9075C147.717 49.9075 140.919 51.2709 134.533 54.0008C128.156 56.7266 122.601 60.4776 117.874 65.2539C113.149 70.0275 109.4 75.6034 106.627 81.9762C103.848 88.3631 102.46 95.1627 102.46 102.368C102.46 109.669 103.848 116.493 106.628 122.834C109.401 129.159 113.15 134.71 117.874 139.483C122.601 144.259 128.156 148.01 134.533 150.736Z" stroke="white" stroke-opacity="0.02" stroke-width="1.33742" shape-rendering="crispEdges"/>
</g>
<g clip-path="url(#clip1_163_22)">
<g filter="url(#filter2_d_163_22)">
<path d="M155 77.7812C150.21 77.7812 145.528 79.2017 141.545 81.8628C137.562 84.524 134.458 88.3065 132.625 92.7319C130.792 97.1573 130.312 102.027 131.247 106.725C132.181 111.423 134.488 115.738 137.875 119.125C141.262 122.512 145.577 124.819 150.275 125.753C154.973 126.688 159.843 126.208 164.268 124.375C168.694 122.542 172.476 119.438 175.137 115.455C177.798 111.472 179.219 106.79 179.219 102C179.212 95.579 176.658 89.4229 172.117 84.8825C167.577 80.3422 161.421 77.7883 155 77.7812ZM155 124.281C150.593 124.281 146.285 122.974 142.621 120.526C138.957 118.078 136.101 114.598 134.415 110.527C132.728 106.455 132.287 101.975 133.147 97.6531C134.007 93.331 136.129 89.3609 139.245 86.2448C142.361 83.1287 146.331 81.0066 150.653 80.1469C154.975 79.2872 159.455 79.7284 163.527 81.4148C167.598 83.1012 171.078 85.9571 173.526 89.6212C175.974 93.2853 177.281 97.5932 177.281 102C177.275 107.907 174.925 113.571 170.748 117.748C166.571 121.925 160.907 124.275 155 124.281ZM150.156 96.1875C150.156 96.4444 150.054 96.6908 149.873 96.8725C149.691 97.0542 149.444 97.1562 149.188 97.1562H146.281V107.812C146.281 108.069 146.179 108.316 145.998 108.498C145.816 108.679 145.569 108.781 145.313 108.781C145.056 108.781 144.809 108.679 144.628 108.498C144.446 108.316 144.344 108.069 144.344 107.812V97.1562H141.438C141.181 97.1562 140.934 97.0542 140.753 96.8725C140.571 96.6908 140.469 96.4444 140.469 96.1875C140.469 95.9306 140.571 95.6842 140.753 95.5025C140.934 95.3208 141.181 95.2188 141.438 95.2188H149.188C149.444 95.2188 149.691 95.3208 149.873 95.5025C150.054 95.6842 150.156 95.9306 150.156 96.1875ZM169.531 96.1875V107.812C169.531 108.069 169.429 108.316 169.248 108.498C169.066 108.679 168.819 108.781 168.563 108.781C168.306 108.781 168.059 108.679 167.878 108.498C167.696 108.316 167.594 108.069 167.594 107.812V98.7668L162.508 104.579C162.417 104.682 162.305 104.765 162.18 104.821C162.055 104.878 161.919 104.907 161.781 104.907C161.644 104.907 161.508 104.878 161.383 104.821C161.257 104.765 161.146 104.682 161.055 104.579L155.969 98.7668V107.812C155.969 108.069 155.867 108.316 155.685 108.498C155.503 108.679 155.257 108.781 155 108.781C154.743 108.781 154.497 108.679 154.315 108.498C154.133 108.316 154.031 108.069 154.031 107.812V96.1875C154.032 95.9911 154.093 95.7995 154.205 95.6382C154.317 95.4769 154.475 95.3535 154.659 95.2845C154.843 95.2154 155.044 95.2038 155.234 95.2513C155.425 95.2989 155.597 95.4032 155.727 95.5505L161.781 102.467L167.836 95.5505C167.966 95.4032 168.138 95.2989 168.328 95.2513C168.519 95.2038 168.719 95.2154 168.903 95.2845C169.087 95.3535 169.246 95.4769 169.358 95.6382C169.47 95.7995 169.53 95.9911 169.531 96.1875Z" fill="white"/>
</g>
</g>
<circle cx="155" cy="102" r="217.331" stroke="#B6C1FF" stroke-opacity="0.17" stroke-width="1.33742"/>
<circle cx="155" cy="102" r="173.196" stroke="#B6C1FF" stroke-opacity="0.17" stroke-width="1.33742"/>
<circle cx="155.001" cy="102.001" r="130.399" stroke="#B6C1FF" stroke-opacity="0.17" stroke-width="1.33742"/>
</g>
<rect x="0.5" y="0.5" width="308" height="345" rx="9.5" stroke="#CCCCCC"/>
<defs>
<filter id="filter0_f_163_22" x="-92.7" y="-194.7" width="495.4" height="334.4" filterUnits="userSpaceOnUse" color-interpolation-filters="sRGB">
<feFlood flood-opacity="0" result="BackgroundImageFix"/>
<feBlend mode="normal" in="SourceGraphic" in2="BackgroundImageFix" result="shape"/>
<feGaussianBlur stdDeviation="58.35" result="effect1_foregroundBlur_163_22"/>
</filter>
<filter id="filter1_dd_163_22" x="62.4682" y="19.8076" width="184.906" height="184.906" filterUnits="userSpaceOnUse" color-interpolation-filters="sRGB">
<feFlood flood-opacity="0" result="BackgroundImageFix"/>
<feColorMatrix in="SourceAlpha" type="matrix" values="0 0 0 0 0 0 0 0 0 0 0 0 0 0 0 0 0 0 127 0" result="hardAlpha"/>
<feOffset dy="9.89265"/>
<feGaussianBlur stdDeviation="19.6616"/>
<feComposite in2="hardAlpha" operator="out"/>
<feColorMatrix type="matrix" values="0 0 0 0 0.713726 0 0 0 0 0.756863 0 0 0 0 1 0 0 0 1 0"/>
<feBlend mode="normal" in2="BackgroundImageFix" result="effect1_dropShadow_163_22"/>
<feColorMatrix in="SourceAlpha" type="matrix" values="0 0 0 0 0 0 0 0 0 0 0 0 0 0 0 0 0 0 127 0" result="hardAlpha"/>
<feOffset/>
<feGaussianBlur stdDeviation="3.74479"/>
<feComposite in2="hardAlpha" operator="out"/>
<feColorMatrix type="matrix" values="0 0 0 0 0.830683 0 0 0 0 0.853937 0 0 0 0 0.985 0 0 0 1 0"/>
<feBlend mode="normal" in2="effect1_dropShadow_163_22" result="effect2_dropShadow_163_22"/>
<feBlend mode="normal" in="SourceGraphic" in2="effect2_dropShadow_163_22" result="shape"/>
</filter>
<filter id="filter2_d_163_22" x="124.269" y="77.7812" width="61.4628" height="61.4628" filterUnits="userSpaceOnUse" color-interpolation-filters="sRGB">
<feFlood flood-opacity="0" result="BackgroundImageFix"/>
<feColorMatrix in="SourceAlpha" type="matrix" values="0 0 0 0 0 0 0 0 0 0 0 0 0 0 0 0 0 0 127 0" result="hardAlpha"/>
<feOffset dy="6.51267"/>
<feGaussianBlur stdDeviation="3.25634"/>
<feComposite in2="hardAlpha" operator="out"/>
<feColorMatrix type="matrix" values="0 0 0 0 0 0 0 0 0 0 0 0 0 0 0 0 0 0 0.14 0"/>
<feBlend mode="normal" in2="BackgroundImageFix" result="effect1_dropShadow_163_22"/>
<feBlend mode="normal" in="SourceGraphic" in2="effect1_dropShadow_163_22" result="shape"/>
</filter>
<linearGradient id="paint0_linear_163_22" x1="154.999" y1="62.5449" x2="154.999" y2="188.931" gradientUnits="userSpaceOnUse">
<stop stop-color="#EFF1FF"/>
<stop offset="1" stop-color="white"/>
</linearGradient>
<linearGradient id="paint1_linear_163_22" x1="155" y1="-78" x2="155" y2="23" gradientUnits="userSpaceOnUse">
<stop stop-color="#B6C1FF"/>
<stop offset="1" stop-color="#E0E5FF"/>
</linearGradient>
<linearGradient id="paint2_linear_163_22" x1="154.921" y1="50.5762" x2="154.921" y2="154.16" gradientUnits="userSpaceOnUse">
<stop stop-color="#3495FF"/>
<stop offset="1" stop-color="#CED5FF"/>
</linearGradient>
<clipPath id="clip0_163_22">
<rect width="309" height="346" rx="10" fill="white"/>
</clipPath>
<clipPath id="clip1_163_22">
<rect width="62" height="62" fill="white" transform="translate(124 71)"/>
</clipPath>
</defs>
</svg>
