<svg width="309" height="346" viewBox="0 0 309 346" fill="none" xmlns="http://www.w3.org/2000/svg">
<g clip-path="url(#clip0_154_35)">
<rect width="309" height="346" rx="10" fill="white"/>
<circle cx="154.999" cy="101.999" r="86.9325" fill="url(#paint0_linear_154_35)"/>
<circle cx="154.999" cy="101.999" r="86.2638" stroke="#B6C1FF" stroke-opacity="0.17" stroke-width="1.33742"/>
<g filter="url(#filter0_f_154_35)">
<path d="M167.042 -28.766V-51.273C167.042 -52.4921 166.008 -53.5002 163.94 -54.2974C161.872 -55.0945 159.257 -55.493 156.095 -55.493C152.932 -55.493 150.317 -55.0945 148.249 -54.2974C146.182 -53.5002 145.148 -52.4921 145.148 -51.273V-27.078C145.148 -26.5153 145.391 -25.9995 145.877 -25.5306C146.364 -25.0618 147.215 -24.5928 148.432 -24.124L191.49 -7.52506C193.68 -6.68105 196.234 -6.25905 199.153 -6.25905C202.072 -6.25905 204.627 -6.68105 206.816 -7.52506C209.006 -8.36908 210.1 -9.35376 210.1 -10.4791C210.1 -11.6045 209.006 -12.5891 206.816 -13.4331L167.042 -28.766ZM155 23C136.998 23 120.03 21.6871 104.096 19.0613C88.162 16.4355 74.2957 12.825 62.4972 8.22981C50.6987 3.63464 41.3329 -1.71077 34.3997 -7.80641C27.4666 -13.902 24 -20.4666 24 -27.5C24 -34.4396 27.4666 -40.9807 34.3997 -47.1233C41.3329 -53.2658 50.6987 -58.6346 62.4972 -63.2298C74.2957 -67.825 88.162 -71.4355 104.096 -74.0613C120.03 -76.6871 136.998 -78 155 -78C173.002 -78 189.97 -76.6871 205.904 -74.0613C221.838 -71.4355 235.765 -67.825 247.685 -63.2298C259.605 -58.6346 268.971 -53.2658 275.783 -47.1233C282.594 -40.9807 286 -34.4396 286 -27.5C286 -20.4666 282.594 -13.902 275.783 -7.80641C268.971 -1.71077 259.605 3.63464 247.685 8.22981C235.765 12.825 221.838 16.4355 205.904 19.0613C189.97 21.6871 173.002 23 155 23Z" fill="url(#paint1_linear_154_35)"/>
</g>
<g filter="url(#filter1_dd_154_35)">
<path d="M134.796 150.121C141.095 152.814 147.804 154.16 154.921 154.16C162.038 154.16 168.747 152.814 175.046 150.121C181.346 147.428 186.852 143.725 191.565 139.012C196.278 134.3 199.981 128.817 202.674 122.566C205.367 116.314 206.713 109.582 206.713 102.368C206.713 95.2511 205.367 88.5427 202.674 82.243C199.981 75.9433 196.278 70.437 191.565 65.7243C186.852 61.0115 181.346 57.3087 175.046 54.6157C168.747 51.9227 162.038 50.5762 154.921 50.5762C147.804 50.5762 141.095 51.9227 134.796 54.6157C128.496 57.3087 123.014 61.0115 118.349 65.7243C113.685 70.437 109.982 75.9433 107.241 82.243C104.499 88.5427 103.129 95.2511 103.129 102.368C103.129 109.582 104.499 116.314 107.241 122.566C109.982 128.817 113.685 134.3 118.349 139.012C123.014 143.725 128.496 147.428 134.796 150.121Z" fill="url(#paint2_linear_154_35)" shape-rendering="crispEdges"/>
<path d="M134.533 150.736C140.919 153.466 147.717 154.829 154.921 154.829C162.125 154.829 168.923 153.466 175.309 150.736C181.685 148.01 187.263 144.26 192.038 139.485C196.812 134.711 200.562 129.158 203.288 122.83C206.019 116.49 207.382 109.667 207.382 102.368C207.382 95.1643 206.018 88.3661 203.289 81.9801C200.563 75.6042 196.813 70.0262 192.038 65.2514C187.263 60.4767 181.685 56.7264 175.309 54.0008C168.923 51.2709 162.125 49.9075 154.921 49.9075C147.717 49.9075 140.919 51.2709 134.533 54.0008C128.156 56.7266 122.601 60.4776 117.874 65.2539C113.149 70.0275 109.4 75.6034 106.627 81.9762C103.848 88.3631 102.46 95.1627 102.46 102.368C102.46 109.669 103.848 116.493 106.628 122.834C109.401 129.159 113.15 134.71 117.874 139.483C122.601 144.259 128.156 148.01 134.533 150.736Z" stroke="white" stroke-opacity="0.02" stroke-width="1.33742" shape-rendering="crispEdges"/>
</g>
<g filter="url(#filter2_d_154_35)">
<path d="M146.778 100.881C146.362 100.881 146.014 100.74 145.734 100.457C145.453 100.174 145.312 99.8231 145.312 99.4037C145.312 98.9844 145.453 98.6371 145.734 98.362C146.014 98.0873 146.362 97.95 146.778 97.95H163.222C163.638 97.95 163.986 98.0912 164.266 98.3736C164.547 98.6565 164.687 99.0076 164.687 99.427C164.687 99.8464 164.547 100.194 164.266 100.469C163.986 100.743 163.638 100.881 163.222 100.881H146.778ZM146.778 90.5474C146.362 90.5474 146.014 90.4062 145.734 90.1238C145.453 89.8409 145.312 89.4898 145.312 89.0704C145.312 88.651 145.453 88.3038 145.734 88.0287C146.014 87.754 146.362 87.6166 146.778 87.6166H163.222C163.638 87.6166 163.986 87.7579 164.266 88.0403C164.547 88.3232 164.687 88.6743 164.687 89.0937C164.687 89.513 164.547 89.8603 164.266 90.1354C163.986 90.4101 163.638 90.5474 163.222 90.5474H146.778ZM138.556 108.283H158.875C159.944 108.283 160.932 108.521 161.84 108.996C162.748 109.472 163.53 110.123 164.186 110.951L171.444 120.405V81.1828C171.444 80.9512 171.369 80.7609 171.22 80.6119C171.071 80.463 170.881 80.3885 170.649 80.3885H139.351C139.119 80.3885 138.929 80.463 138.78 80.6119C138.631 80.7609 138.556 80.9512 138.556 81.1828V108.283ZM139.351 123.609H170.177L161.871 112.744C161.512 112.269 161.071 111.895 160.547 111.623C160.024 111.35 159.467 111.214 158.875 111.214H138.556V122.815C138.556 123.046 138.631 123.236 138.78 123.385C138.929 123.534 139.119 123.609 139.351 123.609ZM170.649 126.54H139.351C138.338 126.54 137.463 126.173 136.728 125.437C135.993 124.702 135.625 123.828 135.625 122.815V81.1828C135.625 80.1697 135.993 79.2955 136.728 78.5601C137.463 77.8247 138.338 77.457 139.351 77.457H170.649C171.662 77.457 172.537 77.8247 173.272 78.5601C174.007 79.2955 174.375 80.1697 174.375 81.1828V122.815C174.375 123.828 174.007 124.702 173.272 125.437C172.537 126.173 171.662 126.54 170.649 126.54Z" fill="white"/>
</g>
<circle cx="155" cy="102" r="217.331" stroke="#B6C1FF" stroke-opacity="0.17" stroke-width="1.33742"/>
<circle cx="154.998" cy="102" r="173.196" stroke="#B6C1FF" stroke-opacity="0.17" stroke-width="1.33742"/>
<circle cx="155.001" cy="102.001" r="130.399" stroke="#B6C1FF" stroke-opacity="0.17" stroke-width="1.33742"/>
</g>
<rect x="0.5" y="0.5" width="308" height="345" rx="9.5" stroke="#CCCCCC"/>
<defs>
<filter id="filter0_f_154_35" x="-92.7" y="-194.7" width="495.4" height="334.4" filterUnits="userSpaceOnUse" color-interpolation-filters="sRGB">
<feFlood flood-opacity="0" result="BackgroundImageFix"/>
<feBlend mode="normal" in="SourceGraphic" in2="BackgroundImageFix" result="shape"/>
<feGaussianBlur stdDeviation="58.35" result="effect1_foregroundBlur_154_35"/>
</filter>
<filter id="filter1_dd_154_35" x="62.4677" y="19.8076" width="184.906" height="184.906" filterUnits="userSpaceOnUse" color-interpolation-filters="sRGB">
<feFlood flood-opacity="0" result="BackgroundImageFix"/>
<feColorMatrix in="SourceAlpha" type="matrix" values="0 0 0 0 0 0 0 0 0 0 0 0 0 0 0 0 0 0 127 0" result="hardAlpha"/>
<feOffset dy="9.89265"/>
<feGaussianBlur stdDeviation="19.6616"/>
<feComposite in2="hardAlpha" operator="out"/>
<feColorMatrix type="matrix" values="0 0 0 0 0.713726 0 0 0 0 0.756863 0 0 0 0 1 0 0 0 1 0"/>
<feBlend mode="normal" in2="BackgroundImageFix" result="effect1_dropShadow_154_35"/>
<feColorMatrix in="SourceAlpha" type="matrix" values="0 0 0 0 0 0 0 0 0 0 0 0 0 0 0 0 0 0 127 0" result="hardAlpha"/>
<feOffset/>
<feGaussianBlur stdDeviation="3.74479"/>
<feComposite in2="hardAlpha" operator="out"/>
<feColorMatrix type="matrix" values="0 0 0 0 0.830683 0 0 0 0 0.853937 0 0 0 0 0.985 0 0 0 1 0"/>
<feBlend mode="normal" in2="effect1_dropShadow_154_35" result="effect2_dropShadow_154_35"/>
<feBlend mode="normal" in="SourceGraphic" in2="effect2_dropShadow_154_35" result="shape"/>
</filter>
<filter id="filter2_d_154_35" x="129.112" y="77.457" width="51.7753" height="62.1093" filterUnits="userSpaceOnUse" color-interpolation-filters="sRGB">
<feFlood flood-opacity="0" result="BackgroundImageFix"/>
<feColorMatrix in="SourceAlpha" type="matrix" values="0 0 0 0 0 0 0 0 0 0 0 0 0 0 0 0 0 0 127 0" result="hardAlpha"/>
<feOffset dy="6.51267"/>
<feGaussianBlur stdDeviation="3.25634"/>
<feComposite in2="hardAlpha" operator="out"/>
<feColorMatrix type="matrix" values="0 0 0 0 0 0 0 0 0 0 0 0 0 0 0 0 0 0 0.14 0"/>
<feBlend mode="normal" in2="BackgroundImageFix" result="effect1_dropShadow_154_35"/>
<feBlend mode="normal" in="SourceGraphic" in2="effect1_dropShadow_154_35" result="shape"/>
</filter>
<linearGradient id="paint0_linear_154_35" x1="154.999" y1="62.5449" x2="154.999" y2="188.931" gradientUnits="userSpaceOnUse">
<stop stop-color="#EFF1FF"/>
<stop offset="1" stop-color="white"/>
</linearGradient>
<linearGradient id="paint1_linear_154_35" x1="155" y1="-78" x2="155" y2="23" gradientUnits="userSpaceOnUse">
<stop stop-color="#B6C1FF"/>
<stop offset="1" stop-color="#E0E5FF"/>
</linearGradient>
<linearGradient id="paint2_linear_154_35" x1="154.921" y1="50.5762" x2="154.921" y2="154.16" gradientUnits="userSpaceOnUse">
<stop stop-color="#3495FF"/>
<stop offset="1" stop-color="#CED5FF"/>
</linearGradient>
<clipPath id="clip0_154_35">
<rect width="309" height="346" rx="10" fill="white"/>
</clipPath>
</defs>
</svg>
