<svg width="64" height="64" viewBox="0 0 64 64" fill="none" xmlns="http://www.w3.org/2000/svg">
<g filter="url(#filter0_di_1224_4571)">
<g clip-path="url(#clip0_1224_4571)">
<rect x="2" width="60" height="60" rx="4.33333" fill="url(#paint0_linear_1224_4571)"/>
<g filter="url(#filter1_f_1224_4571)">
<ellipse cx="32.5" cy="59.5" rx="29.5" ry="11.5" fill="white" fill-opacity="0.49"/>
</g>
<g filter="url(#filter2_d_1224_4571)">
<path d="M32 12.8125C28.6006 12.8125 25.2776 13.8205 22.4511 15.7091C19.6247 17.5977 17.4217 20.282 16.1208 23.4226C14.8199 26.5632 14.4796 30.0191 15.1428 33.3531C15.8059 36.6872 17.4429 39.7497 19.8466 42.1534C22.2503 44.5571 25.3128 46.1941 28.6469 46.8572C31.9809 47.5204 35.4368 47.1801 38.5774 45.8792C41.718 44.5783 44.4023 42.3753 46.2909 39.5489C48.1795 36.7224 49.1875 33.3994 49.1875 30C49.1825 25.4431 47.3701 21.0743 44.1479 17.8521C40.9257 14.6299 36.5569 12.8175 32 12.8125ZM32 45.8125C28.8726 45.8125 25.8154 44.8851 23.2151 43.1476C20.6147 41.4101 18.588 38.9405 17.3912 36.0512C16.1944 33.1618 15.8812 29.9825 16.4913 26.9151C17.1015 23.8478 18.6075 21.0303 20.8189 18.8189C23.0303 16.6075 25.8478 15.1015 28.9151 14.4913C31.9825 13.8812 35.1618 14.1943 38.0512 15.3912C40.9405 16.588 43.4101 18.6147 45.1476 21.215C46.8851 23.8154 47.8125 26.8726 47.8125 30C47.808 34.1923 46.1405 38.2117 43.1761 41.1761C40.2117 44.1405 36.1923 45.8079 32 45.8125ZM28.5625 25.875C28.5625 26.0573 28.4901 26.2322 28.3611 26.3611C28.2322 26.4901 28.0573 26.5625 27.875 26.5625H25.8125V34.125C25.8125 34.3073 25.7401 34.4822 25.6111 34.6111C25.4822 34.7401 25.3073 34.8125 25.125 34.8125C24.9427 34.8125 24.7678 34.7401 24.6389 34.6111C24.5099 34.4822 24.4375 34.3073 24.4375 34.125V26.5625H22.375C22.1927 26.5625 22.0178 26.4901 21.8889 26.3611C21.7599 26.2322 21.6875 26.0573 21.6875 25.875C21.6875 25.6927 21.7599 25.5178 21.8889 25.3889C22.0178 25.2599 22.1927 25.1875 22.375 25.1875H27.875C28.0573 25.1875 28.2322 25.2599 28.3611 25.3889C28.4901 25.5178 28.5625 25.6927 28.5625 25.875ZM42.3125 25.875V34.125C42.3125 34.3073 42.2401 34.4822 42.1111 34.6111C41.9822 34.7401 41.8073 34.8125 41.625 34.8125C41.4427 34.8125 41.2678 34.7401 41.1389 34.6111C41.0099 34.4822 40.9375 34.3073 40.9375 34.125V27.7055L37.3281 31.8305C37.2636 31.9036 37.1843 31.9622 37.0954 32.0023C37.0065 32.0425 36.91 32.0632 36.8125 32.0632C36.715 32.0632 36.6185 32.0425 36.5296 32.0023C36.4407 31.9622 36.3614 31.9036 36.2969 31.8305L32.6875 27.7055V34.125C32.6875 34.3073 32.6151 34.4822 32.4861 34.6111C32.3572 34.7401 32.1823 34.8125 32 34.8125C31.8177 34.8125 31.6428 34.7401 31.5139 34.6111C31.3849 34.4822 31.3125 34.3073 31.3125 34.125V25.875C31.3131 25.7356 31.356 25.5996 31.4356 25.4852C31.5152 25.3707 31.6277 25.2832 31.7582 25.2341C31.8887 25.1851 32.031 25.1769 32.1663 25.2106C32.3016 25.2443 32.4234 25.3184 32.5156 25.423L36.8125 30.3317L41.1094 25.423C41.2016 25.3184 41.3234 25.2443 41.4587 25.2106C41.594 25.1769 41.7363 25.1851 41.8668 25.2341C41.9973 25.2832 42.1098 25.3707 42.1894 25.4852C42.269 25.5996 42.312 25.7356 42.3125 25.875Z" fill="white"/>
<path d="M32.0006 12.3125H32C28.5018 12.3125 25.0821 13.3499 22.1734 15.2934C19.2647 17.2369 16.9976 19.9993 15.6589 23.2313C14.3202 26.4633 13.9699 30.0196 14.6524 33.4507C15.3348 36.8817 17.0194 40.0333 19.4931 42.507C21.9667 44.9806 25.1183 46.6652 28.5493 47.3476C31.9804 48.0301 35.5368 47.6798 38.7687 46.3411C42.0007 45.0024 44.7631 42.7353 46.7066 39.8266C48.6502 36.918 49.6875 33.4983 49.6875 30V29.9995C49.6824 25.3102 47.8173 20.8144 44.5014 17.4986C41.1856 14.1827 36.6898 12.3177 32.0006 12.3125ZM42.8125 25.875L42.8125 25.873C42.8116 25.6322 42.7374 25.3974 42.5999 25.1997C42.4624 25.002 42.2681 24.8508 42.0427 24.7661C41.8172 24.6814 41.5714 24.6672 41.3377 24.7255C41.1041 24.7837 40.8937 24.9116 40.7344 25.0922L40.7332 25.0936L36.8125 29.5726L32.8919 25.0936L32.8906 25.0923C32.7314 24.9116 32.5209 24.7837 32.2873 24.7255C32.0536 24.6672 31.8078 24.6814 31.5823 24.7661C31.3569 24.8508 31.1626 25.002 31.0251 25.1997C30.8876 25.3974 30.8135 25.6322 30.8125 25.873V25.875V34.125C30.8125 34.4399 30.9376 34.742 31.1603 34.9647C31.383 35.1874 31.6851 35.3125 32 35.3125C32.3149 35.3125 32.617 35.1874 32.8397 34.9647C33.0624 34.742 33.1875 34.4399 33.1875 34.125V29.0362L35.9206 32.1597L35.9219 32.1612C36.0333 32.2875 36.1704 32.3887 36.3239 32.4581C36.4775 32.5274 36.644 32.5632 36.8125 32.5632C36.981 32.5632 37.1475 32.5274 37.3011 32.4581C37.4546 32.3887 37.5917 32.2875 37.7031 32.1612L37.7044 32.1597L40.4375 29.0362V34.125C40.4375 34.4399 40.5626 34.742 40.7853 34.9647C41.008 35.1874 41.3101 35.3125 41.625 35.3125C41.9399 35.3125 42.242 35.1874 42.4647 34.9647C42.6874 34.742 42.8125 34.4399 42.8125 34.125L42.8125 25.875ZM24.2853 34.9647L24.6389 34.6111L24.2853 34.9647C24.508 35.1874 24.8101 35.3125 25.125 35.3125C25.4399 35.3125 25.742 35.1874 25.9647 34.9647L25.6111 34.6111L25.9647 34.9647C26.1874 34.742 26.3125 34.4399 26.3125 34.125V27.0625H27.875C28.19 27.0625 28.492 26.9374 28.7147 26.7147C28.9374 26.492 29.0625 26.1899 29.0625 25.875C29.0625 25.5601 28.9374 25.258 28.7147 25.0353C28.492 24.8126 28.19 24.6875 27.875 24.6875H22.375C22.0601 24.6875 21.758 24.8126 21.5353 25.0353C21.3126 25.258 21.1875 25.5601 21.1875 25.875C21.1875 26.1899 21.3126 26.492 21.5353 26.7147C21.758 26.9374 22.0601 27.0625 22.375 27.0625H23.9375V34.125C23.9375 34.4399 24.0626 34.742 24.2853 34.9647ZM31.9995 45.3125C28.9711 45.3124 26.0108 44.4143 23.4928 42.7319C20.9747 41.0493 19.0121 38.6578 17.8531 35.8598C16.6941 33.0618 16.3909 29.983 16.9817 27.0127C17.5726 24.0423 19.0309 21.3139 21.1724 19.1724C23.3139 17.0309 26.0424 15.5726 29.0127 14.9817C31.983 14.3909 35.0619 14.6941 37.8598 15.8531C40.6578 17.0121 43.0493 18.9747 44.7319 21.4928C46.4143 24.0108 47.3124 26.9711 47.3125 29.9995C47.3081 34.0594 45.6934 37.9517 42.8226 40.8225C39.9518 43.6933 36.0594 45.3081 31.9995 45.3125Z" stroke="url(#paint1_linear_1224_4571)"/>
</g>
</g>
<rect x="2.36111" y="0.361111" width="59.2778" height="59.2778" rx="3.97222" stroke="black" stroke-opacity="0.15" stroke-width="0.722222"/>
</g>
<defs>
<filter id="filter0_di_1224_4571" x="0.338889" y="0" width="63.3222" height="63.8278" filterUnits="userSpaceOnUse" color-interpolation-filters="sRGB">
<feFlood flood-opacity="0" result="BackgroundImageFix"/>
<feColorMatrix in="SourceAlpha" type="matrix" values="0 0 0 0 0 0 0 0 0 0 0 0 0 0 0 0 0 0 127 0" result="hardAlpha"/>
<feOffset dy="2.16667"/>
<feGaussianBlur stdDeviation="0.830555"/>
<feComposite in2="hardAlpha" operator="out"/>
<feColorMatrix type="matrix" values="0 0 0 0 0.598333 0 0 0 0 0.598333 0 0 0 0 0.598333 0 0 0 0.25 0"/>
<feBlend mode="normal" in2="BackgroundImageFix" result="effect1_dropShadow_1224_4571"/>
<feBlend mode="normal" in="SourceGraphic" in2="effect1_dropShadow_1224_4571" result="shape"/>
<feColorMatrix in="SourceAlpha" type="matrix" values="0 0 0 0 0 0 0 0 0 0 0 0 0 0 0 0 0 0 127 0" result="hardAlpha"/>
<feOffset dy="2.16667"/>
<feGaussianBlur stdDeviation="0.65"/>
<feComposite in2="hardAlpha" operator="arithmetic" k2="-1" k3="1"/>
<feColorMatrix type="matrix" values="0 0 0 0 1 0 0 0 0 1 0 0 0 0 1 0 0 0 0.35 0"/>
<feBlend mode="normal" in2="shape" result="effect2_innerShadow_1224_4571"/>
</filter>
<filter id="filter1_f_1224_4571" x="-11.2" y="33.8" width="87.4" height="51.4" filterUnits="userSpaceOnUse" color-interpolation-filters="sRGB">
<feFlood flood-opacity="0" result="BackgroundImageFix"/>
<feBlend mode="normal" in="SourceGraphic" in2="BackgroundImageFix" result="shape"/>
<feGaussianBlur stdDeviation="7.1" result="effect1_foregroundBlur_1224_4571"/>
</filter>
<filter id="filter2_d_1224_4571" x="9.8125" y="11.8125" width="44.375" height="44.375" filterUnits="userSpaceOnUse" color-interpolation-filters="sRGB">
<feFlood flood-opacity="0" result="BackgroundImageFix"/>
<feColorMatrix in="SourceAlpha" type="matrix" values="0 0 0 0 0 0 0 0 0 0 0 0 0 0 0 0 0 0 127 0" result="hardAlpha"/>
<feOffset dy="4"/>
<feGaussianBlur stdDeviation="2"/>
<feComposite in2="hardAlpha" operator="out"/>
<feColorMatrix type="matrix" values="0 0 0 0 0 0 0 0 0 0 0 0 0 0 0 0 0 0 0.25 0"/>
<feBlend mode="normal" in2="BackgroundImageFix" result="effect1_dropShadow_1224_4571"/>
<feBlend mode="normal" in="SourceGraphic" in2="effect1_dropShadow_1224_4571" result="shape"/>
</filter>
<linearGradient id="paint0_linear_1224_4571" x1="32" y1="0" x2="32" y2="60" gradientUnits="userSpaceOnUse">
<stop stop-color="#556FF9"/>
<stop offset="1" stop-color="#5770F2"/>
</linearGradient>
<linearGradient id="paint1_linear_1224_4571" x1="32" y1="12.8125" x2="32" y2="47.1875" gradientUnits="userSpaceOnUse">
<stop stop-color="white"/>
<stop offset="1" stop-color="#007AFF"/>
</linearGradient>
<clipPath id="clip0_1224_4571">
<rect x="2" width="60" height="60" rx="4.33333" fill="white"/>
</clipPath>
</defs>
</svg>
