<svg width="81" height="20" viewBox="0 0 81 20" fill="none" xmlns="http://www.w3.org/2000/svg">
<g clip-path="url(#clip0_1_14772)">
<path d="M9.40545 0.550781C4.26465 0.550781 0.0801462 4.75188 0.0779653 9.91538C0.0774201 11.5659 0.507047 13.1771 1.32323 14.5971L0 19.4508L4.94453 18.1484C6.30701 18.8946 7.8407 19.2876 9.40164 19.2882H9.40545C14.5457 19.2882 18.7302 15.0865 18.7324 9.92305C18.7335 7.42067 17.7641 5.06775 16.0031 3.29786C14.242 1.52742 11.9003 0.551876 9.40545 0.550781ZM9.40545 17.7066H9.40218C8.01135 17.7066 6.64668 17.3305 5.45648 16.6216L5.17352 16.453L2.23973 17.226L3.02266 14.3535L2.83837 14.059C2.06254 12.8196 1.65254 11.3869 1.65308 9.91648C1.65472 5.6245 5.13263 2.1329 9.40873 2.1329C11.4794 2.13345 13.4258 2.94421 14.8892 4.41575C16.3531 5.88673 17.1584 7.84275 17.1578 9.9225C17.1562 14.2145 13.6783 17.7066 9.40545 17.7066ZM13.6576 11.8769C13.4248 11.7597 12.2787 11.1937 12.065 11.1154C11.8513 11.0371 11.6959 10.9982 11.5405 11.2325C11.3851 11.4668 10.9386 11.994 10.8028 12.1501C10.6671 12.3066 10.5308 12.3258 10.298 12.2086C10.0652 12.0915 9.31386 11.844 8.42407 11.0469C7.73111 10.4267 7.26332 9.66027 7.12756 9.42596C6.9918 9.19166 7.11284 9.0652 7.23006 8.94859C7.33474 8.84403 7.46286 8.67542 7.57954 8.53856C7.69622 8.40169 7.73492 8.30425 7.81235 8.14768C7.88977 7.99166 7.85106 7.8548 7.79272 7.73764C7.73438 7.62049 7.26822 6.46867 7.07413 6.00005C6.88494 5.54403 6.69302 5.60534 6.54963 5.59823C6.41388 5.59111 6.25849 5.59002 6.10311 5.59002C5.94772 5.59002 5.69529 5.64859 5.48156 5.8829C5.26784 6.11721 4.66593 6.68326 4.66593 7.83509C4.66593 8.98691 5.50119 10.0999 5.61732 10.2559C5.734 10.4119 7.26059 12.7758 9.59846 13.7891C10.1546 14.03 10.5886 14.174 10.9271 14.2818C11.4854 14.4597 11.9936 14.4345 12.3949 14.3743C12.8425 14.307 13.7737 13.8083 13.9678 13.2614C14.1619 12.715 14.1619 12.2464 14.1035 12.1484C14.0452 12.051 13.8898 11.9924 13.657 11.8752L13.6576 11.8769ZM30.1579 11.734H30.1328L28.5866 5.47012H26.723L25.1512 11.6574H25.1261L23.6938 5.47012H21.7038L24.0995 14.5605H26.1151L27.6232 8.37268H27.6488L29.1825 14.5605H31.16L33.5938 5.47012H31.6419L30.1584 11.734H30.1579ZM39.6647 8.54458C39.4875 8.31137 39.2444 8.12907 38.9363 7.99713C38.6277 7.86629 38.2325 7.8006 37.751 7.8006C37.413 7.8006 37.0668 7.8871 36.7113 8.06173C36.3564 8.23527 36.0652 8.51337 35.8368 8.89549H35.7986V5.47012H33.9989V14.5599H35.7986V11.1099C35.7986 10.4393 35.9082 9.95808 36.1285 9.66465C36.3482 9.37231 36.7031 9.2256 37.1933 9.2256C37.624 9.2256 37.9239 9.35918 38.0934 9.62688C38.2624 9.89403 38.347 10.2991 38.347 10.8422V14.5599H40.1472V10.5115C40.1472 10.1042 40.1107 9.73308 40.0393 9.3975C39.9673 9.06301 39.843 8.77834 39.6653 8.54458H39.6647ZM47.0802 13.096V9.67177C47.0802 9.27213 46.9918 8.95188 46.8136 8.71045C46.6364 8.46848 46.4085 8.27961 46.1299 8.14385C45.8507 8.00808 45.5421 7.91666 45.2041 7.87012C44.8661 7.82359 44.5324 7.80005 44.2031 7.80005C43.84 7.80005 43.4785 7.83564 43.1197 7.90845C42.7599 7.98071 42.4371 8.10169 42.1498 8.2714C41.8625 8.44111 41.6253 8.66611 41.4405 8.94586C41.254 9.22615 41.1483 9.57815 41.1232 10.003H42.9229C42.9567 9.64659 43.0756 9.39148 43.2784 9.23874C43.4812 9.086 43.7598 9.00991 44.1148 9.00991C44.275 9.00991 44.425 9.02031 44.5646 9.04166C44.7036 9.06301 44.8263 9.10461 44.932 9.16866C45.0378 9.23217 45.1223 9.3214 45.1856 9.43637C45.2488 9.55078 45.2804 9.70626 45.2804 9.9006C45.2886 10.0878 45.2335 10.2291 45.1158 10.3271C44.9969 10.4251 44.8366 10.4995 44.6338 10.5499C44.431 10.6013 44.1987 10.6397 43.9365 10.6643C43.6742 10.6906 43.4082 10.7251 43.1383 10.7667C42.8673 10.8094 42.5991 10.8663 42.3335 10.9386C42.0675 11.0103 41.8298 11.1192 41.6231 11.2626C41.416 11.4077 41.2469 11.6004 41.1155 11.8424C40.9847 12.0844 40.9193 12.3926 40.9193 12.7654C40.9193 13.1048 40.9765 13.3977 41.0905 13.6435C41.2044 13.8904 41.3631 14.0935 41.5659 14.255C41.7687 14.4165 42.0053 14.5353 42.2758 14.6119C42.5456 14.688 42.8379 14.7263 43.1503 14.7263C43.5559 14.7263 43.9534 14.6667 44.3416 14.5484C44.7303 14.4285 45.0689 14.2216 45.3562 13.9238C45.3644 14.0344 45.3791 14.1428 45.4004 14.2484C45.4216 14.3541 45.4489 14.4586 45.4827 14.5599H47.3081C47.2236 14.4247 47.1641 14.221 47.1303 13.949C47.096 13.6774 47.0791 13.3938 47.0791 13.096H47.0802ZM45.2804 12.0137C45.2804 12.1167 45.2701 12.2524 45.2488 12.4216C45.2281 12.5918 45.1708 12.7588 45.0776 12.9247C44.9844 13.09 44.8404 13.2329 44.6463 13.3511C44.4522 13.4705 44.1775 13.5296 43.822 13.5296C43.6786 13.5296 43.539 13.517 43.4038 13.4907C43.2686 13.4656 43.1503 13.4207 43.0489 13.3572C42.9475 13.2937 42.8673 13.2066 42.8079 13.096C42.749 12.9855 42.719 12.8502 42.719 12.6893C42.719 12.5196 42.749 12.3789 42.8079 12.2688C42.8673 12.1588 42.9453 12.0674 43.0429 11.9951C43.1394 11.9229 43.2539 11.8659 43.3847 11.8232C43.5156 11.7811 43.6486 11.7471 43.7844 11.7214C43.9277 11.6962 44.0717 11.6743 44.2151 11.6579C44.3596 11.6415 44.4964 11.6196 44.6273 11.5944C44.7587 11.5687 44.8808 11.5369 44.9953 11.4986C45.1092 11.4603 45.2041 11.4083 45.2804 11.3398V12.0143V12.0137ZM50.4398 6.00498H48.6395V7.97797H47.5496V9.18728H48.6395V13.0709C48.6395 13.4021 48.6951 13.6692 48.8047 13.8729C48.9148 14.0765 49.0647 14.2342 49.2545 14.3442C49.4447 14.4548 49.6645 14.5287 49.9142 14.5665C50.1628 14.6042 50.4278 14.624 50.7064 14.624C50.8847 14.624 51.0657 14.6196 51.2521 14.6119C51.4375 14.6032 51.6065 14.5867 51.7592 14.5605V13.1601C51.6741 13.1771 51.5858 13.1907 51.4926 13.1984C51.3999 13.2072 51.3028 13.2115 51.2014 13.2115C50.8977 13.2115 50.6944 13.1601 50.593 13.0583C50.4921 12.9564 50.4414 12.7528 50.4414 12.4468V9.18728H51.7597V7.97797H50.4414V6.00498H50.4398ZM57.8797 11.6771C57.7614 11.469 57.6049 11.2949 57.4108 11.1548C57.2167 11.0152 56.9943 10.9024 56.7457 10.817C56.496 10.7327 56.2403 10.661 55.9786 10.6013C55.725 10.5417 55.4764 10.4864 55.2311 10.4355C54.9857 10.3845 54.7682 10.3271 54.5779 10.2641C54.3882 10.2001 54.2344 10.1179 54.1161 10.0156C53.9973 9.91374 53.9389 9.7829 53.9389 9.62085C53.9389 9.48509 53.9716 9.37669 54.0398 9.29622C54.1074 9.21575 54.1903 9.15443 54.2873 9.11118C54.3849 9.06903 54.4918 9.04166 54.6101 9.02852C54.7284 9.01593 54.8385 9.00991 54.9394 9.00991C55.2605 9.00991 55.5397 9.07122 55.7768 9.1944C56.0129 9.31757 56.1443 9.55297 56.1688 9.9006H57.8803C57.8465 9.4933 57.7429 9.15607 57.5695 8.88837C57.3967 8.62122 57.1786 8.40717 56.9169 8.24567C56.6552 8.08418 56.3575 7.96976 56.0227 7.90188C55.6891 7.83399 55.345 7.80005 54.9906 7.80005C54.6363 7.80005 54.2884 7.8318 53.9515 7.89476C53.6129 7.95881 53.3087 8.0694 53.0388 8.22651C52.7678 8.38363 52.5508 8.59768 52.3856 8.86921C52.2204 9.14075 52.1381 9.48892 52.1381 9.91319C52.1381 10.2017 52.1975 10.4464 52.3164 10.6457C52.4336 10.8455 52.5906 11.0103 52.7842 11.1422C52.9794 11.2736 53.2013 11.3803 53.4504 11.4603C53.6996 11.5418 53.9553 11.6114 54.217 11.671C54.8598 11.8068 55.3608 11.9426 55.7196 12.0789C56.0789 12.2147 56.2583 12.4183 56.2583 12.6898C56.2583 12.8513 56.2206 12.9838 56.1443 13.09C56.068 13.1968 55.9731 13.2811 55.8592 13.3446C55.7447 13.4086 55.6176 13.4557 55.4786 13.4847C55.339 13.5148 55.2055 13.5296 55.079 13.5296C54.9012 13.5296 54.7306 13.5083 54.5659 13.4661C54.4007 13.4234 54.2552 13.3577 54.1281 13.2685C54.0016 13.1792 53.8975 13.0648 53.8174 12.9247C53.7378 12.7845 53.6969 12.6176 53.6969 12.4216H51.986C52.0034 12.8628 52.1021 13.2302 52.2842 13.523C52.4652 13.8159 52.6975 14.0513 52.981 14.2298C53.264 14.4077 53.5878 14.5353 53.9515 14.6119C54.314 14.688 54.6859 14.7263 55.0659 14.7263C55.4459 14.7263 55.8036 14.6902 56.1628 14.6185C56.5221 14.5462 56.8411 14.4209 57.1197 14.2424C57.3994 14.0645 57.624 13.8291 57.7979 13.5362C57.9708 13.2428 58.0575 12.8803 58.0575 12.4473C58.0575 12.1413 57.9986 11.8851 57.8803 11.6776L57.8797 11.6771ZM61.4541 5.47012L58.0318 14.5605H60.0344L60.7437 12.536H64.1284L64.8121 14.5605H66.879L63.4949 5.47012H61.4536H61.4541ZM61.2644 11.0469L62.4432 7.71137H62.4682L63.6094 11.0469H61.2644ZM73.1031 8.86976C72.8583 8.54732 72.5498 8.28837 72.1779 8.09348C71.8061 7.89804 71.3628 7.8006 70.8476 7.8006C70.4414 7.8006 70.0701 7.88107 69.7321 8.04202C69.393 8.20352 69.1149 8.46246 68.8957 8.81885H68.8701V7.97797H67.1581V16.8652H68.9595V13.7459H68.9841C69.2038 14.0688 69.4851 14.3125 69.828 14.4772C70.1693 14.6426 70.5439 14.7258 70.9495 14.7258C71.4315 14.7258 71.8519 14.6316 72.2106 14.4455C72.5699 14.2588 72.8698 14.0081 73.1108 13.6938C73.3518 13.3796 73.5306 13.0194 73.65 12.6121C73.7672 12.2043 73.8272 11.78 73.8272 11.3387C73.8272 10.8718 73.7672 10.4245 73.65 9.99531C73.5306 9.56721 73.3496 9.19111 73.1042 8.86867L73.1031 8.86976ZM71.95 12.0652C71.8988 12.3203 71.8121 12.5426 71.6899 12.7336C71.5673 12.9247 71.407 13.0802 71.2074 13.1984C71.0095 13.3172 70.762 13.3774 70.4665 13.3774C70.171 13.3774 69.9349 13.3178 69.7321 13.1984C69.5293 13.0802 69.3663 12.9247 69.2436 12.7336C69.1209 12.5426 69.0326 12.3203 68.9775 12.0652C68.9225 11.8106 68.8957 11.5517 68.8957 11.2895C68.8957 11.0272 68.9203 10.7541 68.971 10.5001C69.0222 10.2455 69.1084 10.0205 69.2316 9.8245C69.3532 9.62961 69.5146 9.47085 69.7136 9.34768C69.912 9.2245 70.1584 9.1621 70.4545 9.1621C70.7505 9.1621 70.9855 9.2245 71.1834 9.34768C71.3819 9.47031 71.5449 9.63126 71.6714 9.83107C71.7979 10.0309 71.8884 10.2581 71.944 10.5121C71.9996 10.7667 72.0258 11.0261 72.0258 11.2895C72.0258 11.5528 72.0013 11.8112 71.9506 12.0652H71.95ZM80.8223 9.9964C80.7039 9.5683 80.5224 9.19221 80.277 8.86976C80.0317 8.54732 79.7242 8.28837 79.3524 8.09348C78.98 7.89804 78.5362 7.8006 78.021 7.8006C77.6159 7.8006 77.2435 7.88107 76.906 8.04202C76.568 8.20352 76.2888 8.46246 76.0691 8.81885H76.0446V7.97797H74.3331V16.8652H76.1329V13.7459H76.1585C76.3782 14.0688 76.6596 14.3125 77.0014 14.4772C77.3433 14.6426 77.7178 14.7258 78.1235 14.7258C78.6049 14.7258 79.0247 14.6316 79.3845 14.4455C79.7433 14.2588 80.0437 14.0081 80.2841 13.6938C80.5257 13.3796 80.7045 13.0194 80.8228 12.6121C80.9417 12.2043 81.0005 11.78 81.0005 11.3387C81.0005 10.8718 80.9417 10.4245 80.8228 9.99531L80.8223 9.9964ZM79.1234 12.0652C79.0732 12.3203 78.9865 12.5426 78.8639 12.7336C78.7406 12.9247 78.5803 13.0802 78.3819 13.1984C78.1834 13.3172 77.9364 13.3774 77.6404 13.3774C77.3443 13.3774 77.1077 13.3178 76.9049 13.1984C76.7015 13.0802 76.5396 12.9247 76.4164 12.7336C76.2943 12.5426 76.2054 12.3203 76.1503 12.0652C76.0953 11.8106 76.068 11.5517 76.068 11.2895C76.068 11.0272 76.0936 10.7541 76.1443 10.5001C76.195 10.2455 76.2817 10.0205 76.4044 9.8245C76.5265 9.62961 76.6874 9.47085 76.8864 9.34768C77.0843 9.2245 77.3318 9.1621 77.6279 9.1621C77.9239 9.1621 78.1578 9.2245 78.3563 9.34768C78.5553 9.47031 78.7177 9.63126 78.8448 9.83107C78.9718 10.0309 79.0629 10.2581 79.1174 10.5121C79.173 10.7667 79.1997 11.0261 79.1997 11.2895C79.1997 11.5528 79.1741 11.8112 79.1234 12.0652Z" fill="#333333"/>
</g>
<defs>
<clipPath id="clip0_1_14772">
<rect width="81" height="18.9" fill="white" transform="translate(0 0.550781)"/>
</clipPath>
</defs>
</svg>
