<svg width="7" height="4" viewBox="0 0 7 4" fill="none" xmlns="http://www.w3.org/2000/svg">
<path d="M3.12552 3.46727L0.559479 0.899765C0.524202 0.864348 0.496354 0.824766 0.475938 0.781016C0.455521 0.737405 0.445312 0.693516 0.445312 0.649349C0.445312 0.561155 0.476007 0.484557 0.537395 0.419557C0.598784 0.354696 0.679688 0.322266 0.780104 0.322266H6.18719C6.2876 0.322266 6.36851 0.356155 6.4299 0.423932C6.49128 0.491571 6.52198 0.57053 6.52198 0.660807C6.52198 0.672335 6.48385 0.75178 6.4076 0.899141L3.84177 3.46727C3.79538 3.51379 3.73997 3.55095 3.67552 3.57872C3.61108 3.6065 3.54712 3.62039 3.48365 3.62039C3.42017 3.62039 3.35622 3.6065 3.29177 3.57872C3.22733 3.55095 3.17191 3.51379 3.12552 3.46727Z" fill="#808080"/>
</svg>
