<svg width="74" height="74" viewBox="0 0 74 74" fill="none" xmlns="http://www.w3.org/2000/svg">
<mask id="mask0_1_10386" style="mask-type:alpha" maskUnits="userSpaceOnUse" x="0" y="0" width="74" height="74">
<rect width="74" height="74" fill="#D9D9D9"/>
</mask>
<g mask="url(#mask0_1_10386)">
<path d="M49.8091 30.5962C48.5722 30.5962 47.5514 30.1941 46.7466 29.3899C45.9424 28.5856 45.5403 27.5648 45.5403 26.3274C45.5403 25.0899 45.9424 24.0691 46.7466 23.2648C47.5514 22.4606 48.5722 22.0585 49.8091 22.0585C51.0466 22.0585 52.0674 22.4606 52.8716 23.2648C53.6764 24.0691 54.0788 25.0899 54.0788 26.3274C54.0788 27.5648 53.6764 28.5856 52.8716 29.3899C52.0674 30.1941 51.0466 30.5962 49.8091 30.5962ZM24.1943 30.5962C22.9569 30.5962 21.936 30.1941 21.1318 29.3899C20.3271 28.5856 19.9247 27.5648 19.9247 26.3274C19.9247 25.0899 20.3271 24.0691 21.1318 23.2648C21.936 22.4606 22.9569 22.0585 24.1943 22.0585C25.4313 22.0585 26.4521 22.4606 27.2569 23.2648C28.0611 24.0691 28.4632 25.0899 28.4632 26.3274C28.4632 27.5648 28.0611 28.5856 27.2569 29.3899C26.4521 30.1941 25.4313 30.5962 24.1943 30.5962ZM37.0017 38.4233C35.7643 38.4233 34.7434 38.0212 33.9392 37.2169C33.135 36.4122 32.7329 35.3913 32.7329 34.1544C32.7329 32.917 33.135 31.8961 33.9392 31.0919C34.7434 30.2871 35.7643 29.8848 37.0017 29.8848C38.2392 29.8848 39.26 30.2871 40.0643 31.0919C40.8685 31.8961 41.2706 32.917 41.2706 34.1544C41.2706 35.3913 40.8685 36.4122 40.0643 37.2169C39.26 38.0212 38.2392 38.4233 37.0017 38.4233ZM37.0017 22.77C35.7643 22.77 34.7434 22.3676 33.9392 21.5628C33.135 20.7586 32.7329 19.7378 32.7329 18.5003C32.7329 17.2629 33.135 16.242 33.9392 15.4378C34.7434 14.6336 35.7643 14.2314 37.0017 14.2314C38.2392 14.2314 39.26 14.6336 40.0643 15.4378C40.8685 16.242 41.2706 17.2629 41.2706 18.5003C41.2706 19.7378 40.8685 20.7586 40.0643 21.5628C39.26 22.3676 38.2392 22.77 37.0017 22.77ZM37.0033 59.7692C36.085 59.7692 35.1515 59.6973 34.2028 59.5534C33.2542 59.409 32.3313 59.2181 31.434 58.9806V48.7702C31.434 47.0903 31.9577 45.6573 33.005 44.4712C34.0528 43.2857 35.385 42.6929 37.0017 42.6929C38.6184 42.6929 39.9507 43.2857 40.9985 44.4712C42.0458 45.6573 42.5695 47.0903 42.5695 48.7702V58.9806C41.6722 59.2181 40.7498 59.409 39.8022 59.5534C38.854 59.6973 37.9211 59.7692 37.0033 59.7692ZM27.1651 57.5284C26.2519 57.1512 25.3457 56.7267 24.4464 56.255C23.5471 55.7832 22.7002 55.2614 21.9057 54.6894C20.5655 53.787 19.5059 52.5719 18.7268 51.0441C17.9483 49.5163 17.559 47.8827 17.559 46.1432C17.559 44.9232 17.4354 43.7644 17.1882 42.6667C16.9416 41.5691 16.4714 40.5462 15.7776 39.598C15.2735 39.0009 14.3647 38.0805 13.0512 36.8369C11.7382 35.5933 10.5367 34.4247 9.44675 33.3312C8.86246 32.714 8.57031 32.0295 8.57031 31.2777C8.57031 30.5264 8.86477 29.8606 9.45369 29.2804C10.0899 28.6401 10.759 28.32 11.4609 28.32C12.1624 28.32 12.8212 28.6381 13.4374 29.2743L24.3963 39.5865C25.293 40.4395 25.9786 41.4542 26.4529 42.6305C26.9277 43.8063 27.1651 45.0129 27.1651 46.2503V57.5284ZM46.8383 57.5284V46.2627C46.8383 45.0118 47.1251 43.7998 47.6986 42.6266C48.2716 41.4529 49.0067 40.4431 49.9039 39.5973L60.5854 29.275C61.1553 28.7529 61.8321 28.4919 62.6158 28.4919C63.3994 28.4919 64.0541 28.7547 64.5798 29.2804C65.1688 29.8693 65.4632 30.5397 65.4632 31.2915C65.4632 32.0439 65.1713 32.726 64.5875 33.3381C63.4991 34.4198 62.2935 35.5661 60.9708 36.7768C59.648 37.988 58.7323 38.9282 58.2235 39.5973C57.5277 40.5444 57.0573 41.5662 56.8121 42.6629C56.567 43.7595 56.4445 44.9235 56.4445 46.1547C56.4445 47.8907 56.0601 49.5215 55.2913 51.0472C54.5225 52.573 53.466 53.7922 52.1216 54.7048C51.3313 55.2352 50.4831 55.7439 49.5771 56.2311C48.6711 56.7188 47.7582 57.1512 46.8383 57.5284Z" fill="#B6C1FF"/>
<path d="M36.9974 38.4233C35.76 38.4233 34.7391 38.0212 33.9349 37.2169C33.1307 36.4122 32.7285 35.3913 32.7285 34.1544C32.7285 32.917 33.1307 31.8961 33.9349 31.0919C34.7391 30.2871 35.76 29.8848 36.9974 29.8848C38.2349 29.8848 39.2557 30.2871 40.0599 31.0919C40.8642 31.8961 41.2663 32.917 41.2663 34.1544C41.2663 35.3913 40.8642 36.4122 40.0599 37.2169C39.2557 38.0212 38.2349 38.4233 36.9974 38.4233ZM36.999 59.7692C36.0806 59.7692 35.1472 59.6973 34.1985 59.5534C33.2499 59.409 32.3269 59.2181 31.4297 58.9806V48.7702C31.4297 47.0903 31.9533 45.6573 33.0006 44.4712C34.0485 43.2857 35.3807 42.6929 36.9974 42.6929C38.6141 42.6929 39.9464 43.2857 40.9942 44.4712C42.0415 45.6573 42.5651 47.0903 42.5651 48.7702V58.9806C41.6679 59.2181 40.7455 59.409 39.7979 59.5534C38.8497 59.6973 37.9168 59.7692 36.999 59.7692Z" fill="#556FF9"/>
</g>
</svg>
