<svg width="74" height="74" viewBox="0 0 74 74" fill="none" xmlns="http://www.w3.org/2000/svg">
<mask id="mask0_1_9679" style="mask-type:alpha" maskUnits="userSpaceOnUse" x="0" y="0" width="74" height="74">
<rect width="74" height="74" fill="#D9D9D9"/>
</mask>
<g mask="url(#mask0_1_9679)">
<path d="M27.1395 54.1654H46.8605C47.3574 54.1654 47.7732 53.9968 48.1077 53.6597C48.4422 53.3221 48.6095 52.903 48.6095 52.4025C48.6095 51.9019 48.4422 51.4875 48.1077 51.1591C47.7732 50.8313 47.3574 50.6673 46.8605 50.6673H27.1395C26.6426 50.6673 26.2268 50.8359 25.8923 51.173C25.5577 51.5106 25.3905 51.9297 25.3905 52.4302C25.3905 52.9307 25.5577 53.3452 25.8923 53.6736C26.2268 54.0014 26.6426 54.1654 27.1395 54.1654ZM27.1395 41.2686H46.8605C47.3574 41.2686 47.7732 41.1 48.1077 40.7629C48.4422 40.4253 48.6095 40.0062 48.6095 39.5057C48.6095 39.0051 48.4422 38.5909 48.1077 38.2631C47.7732 37.9347 47.3574 37.7705 46.8605 37.7705H27.1395C26.6426 37.7705 26.2268 37.9393 25.8923 38.2769C25.5577 38.6141 25.3905 39.0329 25.3905 39.5334C25.3905 40.0344 25.5577 40.4489 25.8923 40.7768C26.2268 41.1046 26.6426 41.2686 27.1395 41.2686ZM18.3219 66.2913C17.1128 66.2913 16.0693 65.8525 15.1916 64.9748C14.3139 64.097 13.875 63.0536 13.875 61.8444V12.1549C13.875 10.9458 14.3139 9.90231 15.1916 9.02459C16.0693 8.14687 17.1128 7.70801 18.3219 7.70801H43.2738C43.8931 7.70801 44.4779 7.8316 45.0282 8.07878C45.5781 8.32596 46.0586 8.64508 46.4697 9.03615L58.7969 21.3633C59.1879 21.7744 59.507 22.2549 59.7542 22.8048C60.0014 23.3552 60.125 23.94 60.125 24.5592V61.8444C60.125 63.0536 59.6861 64.097 58.8084 64.9748C57.9307 65.8525 56.8872 66.2913 55.6781 66.2913H18.3219ZM43.3625 22.0748V11.2068H18.3219C18.085 11.2068 17.8677 11.3055 17.6698 11.5028C17.4725 11.7007 17.3738 11.918 17.3738 12.1549V61.8444C17.3738 62.0813 17.4725 62.2987 17.6698 62.4965C17.8677 62.6939 18.085 62.7925 18.3219 62.7925H55.6781C55.915 62.7925 56.1323 62.6939 56.3302 62.4965C56.5275 62.2987 56.6262 62.0813 56.6262 61.8444V24.2987H45.5863C44.9702 24.2987 44.4455 24.082 44.0123 23.6488C43.5791 23.2151 43.3625 22.6904 43.3625 22.0748Z" fill="#B6C1FF"/>
<path d="M18.3219 66.2923C17.1128 66.2923 16.0693 65.8535 15.1916 64.9757C14.3139 64.098 13.875 63.0546 13.875 61.8454V12.1559C13.875 10.9467 14.3139 9.90329 15.1916 9.02557C16.0693 8.14785 17.1128 7.70898 18.3219 7.70898H43.2738C43.8931 7.70898 44.4779 7.83257 45.0282 8.07976C45.5781 8.32694 46.0586 8.64606 46.4697 9.03713L58.7969 21.3643C59.1879 21.7754 59.507 22.2559 59.7542 22.8058C60.0014 23.3561 60.125 23.9409 60.125 24.5602V61.8454C60.125 63.0546 59.6861 64.098 58.8084 64.9757C57.9307 65.8535 56.8872 66.2923 55.6781 66.2923H18.3219ZM43.3625 22.0758V11.2078H18.3219C18.085 11.2078 17.8677 11.3065 17.6698 11.5038C17.4725 11.7016 17.3738 11.919 17.3738 12.1559V61.8454C17.3738 62.0823 17.4725 62.2997 17.6698 62.4975C17.8677 62.6948 18.085 62.7935 18.3219 62.7935H55.6781C55.915 62.7935 56.1323 62.6948 56.3302 62.4975C56.5275 62.2997 56.6262 62.0823 56.6262 61.8454V24.2996H45.5863C44.9702 24.2996 44.4455 24.083 44.0123 23.6498C43.5791 23.2161 43.3625 22.6914 43.3625 22.0758Z" fill="#556FF9"/>
</g>
</svg>
