<svg width="74" height="74" viewBox="0 0 74 74" fill="none" xmlns="http://www.w3.org/2000/svg">
<mask id="mask0_1_9672" style="mask-type:alpha" maskUnits="userSpaceOnUse" x="0" y="0" width="74" height="74">
<rect width="74" height="74" fill="#D9D9D9"/>
</mask>
<g mask="url(#mask0_1_9672)">
<path d="M4.65625 58.4947V49.1553C4.65625 47.8428 5.10873 46.7192 6.01369 45.7844C6.91916 44.8496 8.00835 44.3625 9.28125 44.3229H19.3491C20.1636 44.3229 20.9442 44.5264 21.6909 44.9334C22.4381 45.3409 23.0745 45.9003 23.6003 46.6115C25.1301 48.8295 27.0759 50.5441 29.4378 51.7553C31.8001 52.967 34.3213 53.5729 37.0012 53.5729C39.6811 53.5729 42.2071 52.967 44.5793 51.7553C46.9508 50.5441 48.9273 48.8295 50.5085 46.6115C51.0147 45.9003 51.6285 45.3409 52.35 44.9334C53.071 44.5264 53.8388 44.3229 54.6533 44.3229H64.7211C66.0141 44.3625 67.113 44.8496 68.018 45.7844C68.9235 46.7192 69.3762 47.8428 69.3762 49.1553V58.4947C69.3762 59.1427 69.1676 59.6753 68.7503 60.0926C68.3335 60.5094 67.8009 60.7178 67.1523 60.7178H52.6846C52.0366 60.7178 51.5039 60.5094 51.0866 60.0926C50.6693 59.6753 50.4607 59.1427 50.4607 58.4947V51.901C48.6503 53.5372 46.595 54.808 44.2948 55.7135C41.9941 56.6185 39.5629 57.071 37.0012 57.071C34.479 57.071 32.0707 56.6234 29.7762 55.7282C27.4817 54.833 25.4133 53.567 23.571 51.9303V58.4947C23.571 59.1427 23.3623 59.6753 22.945 60.0926C22.5283 60.5094 21.9956 60.7178 21.3471 60.7178H6.87933C6.23132 60.7178 5.69867 60.5094 5.2814 60.0926C4.86463 59.6753 4.65625 59.1427 4.65625 58.4947ZM37.0012 48.1771C35.2617 48.1771 33.5915 47.768 31.9908 46.9499C30.39 46.1313 29.0855 44.9966 28.0773 43.5459C27.3146 42.4827 26.4194 41.5962 25.3917 40.8865C24.3639 40.1774 23.2511 39.6547 22.0532 39.3187C23.6226 37.9743 25.8719 36.9604 28.8011 36.277C31.7302 35.593 34.4636 35.251 37.0012 35.251C39.5588 35.251 42.305 35.593 45.2399 36.277C48.1752 36.9604 50.4373 37.9743 52.0263 39.3187C50.8284 39.6547 49.7156 40.1774 48.6878 40.8865C47.66 41.5962 46.7746 42.4827 46.0315 43.5459C45.0238 44.9966 43.7144 46.1313 42.1033 46.9499C40.4928 47.768 38.7921 48.1771 37.0012 48.1771ZM13.2241 38.3636C11.0698 38.3636 9.21188 37.583 7.65017 36.0218C6.08897 34.4601 5.30837 32.6021 5.30837 30.4479C5.30837 28.2423 6.08897 26.3715 7.65017 24.8355C9.21188 23.3 11.0698 22.5322 13.2241 22.5322C15.4297 22.5322 17.3005 23.3 18.8365 24.8355C20.372 26.3715 21.1398 28.2423 21.1398 30.4479C21.1398 32.6021 20.372 34.4601 18.8365 36.0218C17.3005 37.583 15.4297 38.3636 13.2241 38.3636ZM60.7783 38.3636C58.6241 38.3636 56.7661 37.583 55.2044 36.0218C53.6432 34.4601 52.8626 32.6021 52.8626 30.4479C52.8626 28.2423 53.6432 26.3715 55.2044 24.8355C56.7661 23.3 58.6241 22.5322 60.7783 22.5322C62.9839 22.5322 64.8547 23.3 66.3908 24.8355C67.9263 26.3715 68.694 28.2423 68.694 30.4479C68.694 32.6021 67.9263 34.4601 66.3908 36.0218C64.8547 37.583 62.9839 38.3636 60.7783 38.3636ZM37.0012 29.1136C34.847 29.1136 32.989 28.333 31.4273 26.7718C29.8661 25.2101 29.0855 23.3521 29.0855 21.1979C29.0855 18.9923 29.8661 17.1215 31.4273 15.5855C32.989 14.05 34.847 13.2822 37.0012 13.2822C39.2068 13.2822 41.0776 14.05 42.6136 15.5855C44.1491 17.1215 44.9169 18.9923 44.9169 21.1979C44.9169 23.3521 44.1491 25.2101 42.6136 26.7718C41.0776 28.333 39.2068 29.1136 37.0012 29.1136Z" fill="#B6C1FF"/>
<path d="M4.65625 58.4947V49.1553C4.65625 47.8428 5.10873 46.7192 6.01369 45.7844C6.91916 44.8496 8.00835 44.3625 9.28125 44.3229H19.3491C20.1636 44.3229 20.9442 44.5264 21.6909 44.9334C22.4381 45.3409 23.0745 45.9003 23.6003 46.6115C25.1301 48.8295 27.0759 50.5441 29.4378 51.7553C31.8001 52.967 34.3213 53.5729 37.0012 53.5729C39.6811 53.5729 42.2071 52.967 44.5793 51.7553C46.9508 50.5441 48.9273 48.8295 50.5085 46.6115C51.0147 45.9003 51.6285 45.3409 52.35 44.9334C53.071 44.5264 53.8388 44.3229 54.6533 44.3229H64.7211C66.0141 44.3625 67.113 44.8496 68.018 45.7844C68.9235 46.7192 69.3762 47.8428 69.3762 49.1553V58.4947C69.3762 59.1427 69.1675 59.6753 68.7503 60.0926C68.3335 60.5094 67.8009 60.7178 67.1523 60.7178H52.6846C52.0366 60.7178 51.5039 60.5094 51.0866 60.0926C50.6693 59.6753 50.4607 59.1427 50.4607 58.4947V51.901C48.6503 53.5372 46.595 54.808 44.2948 55.7135C41.9941 56.6185 39.5629 57.071 37.0012 57.071C34.479 57.071 32.0707 56.6234 29.7762 55.7282C27.4817 54.833 25.4132 53.567 23.571 51.9303V58.4947C23.571 59.1427 23.3623 59.6753 22.945 60.0926C22.5283 60.5094 21.9956 60.7178 21.3471 60.7178H6.87933C6.23132 60.7178 5.69867 60.5094 5.2814 60.0926C4.86463 59.6753 4.65625 59.1427 4.65625 58.4947ZM13.2241 38.3636C11.0698 38.3636 9.21188 37.583 7.65017 36.0218C6.08897 34.4601 5.30837 32.6021 5.30837 30.4479C5.30837 28.2423 6.08897 26.3715 7.65017 24.8355C9.21188 23.3 11.0698 22.5322 13.2241 22.5322C15.4297 22.5322 17.3005 23.3 18.8365 24.8355C20.372 26.3715 21.1398 28.2423 21.1398 30.4479C21.1398 32.6021 20.372 34.4601 18.8365 36.0218C17.3005 37.583 15.4297 38.3636 13.2241 38.3636ZM60.7783 38.3636C58.6241 38.3636 56.7661 37.583 55.2044 36.0218C53.6432 34.4601 52.8626 32.6021 52.8626 30.4479C52.8626 28.2423 53.6432 26.3715 55.2044 24.8355C56.7661 23.3 58.6241 22.5322 60.7783 22.5322C62.9839 22.5322 64.8547 23.3 66.3908 24.8355C67.9263 26.3715 68.694 28.2423 68.694 30.4479C68.694 32.6021 67.9263 34.4601 66.3908 36.0218C64.8547 37.583 62.9839 38.3636 60.7783 38.3636Z" fill="#556FF9"/>
</g>
</svg>
