<svg width="25" height="13" viewBox="0 0 25 13" fill="none" xmlns="http://www.w3.org/2000/svg">
<path d="M0.320569 7.55897C0.14093 7.37913 0.052319 7.16878 0.0547356 6.92792C0.0569509 6.68706 0.151805 6.47288 0.339298 6.28539C0.526791 6.11038 0.739055 6.01975 0.97609 6.01351C1.21292 6.00747 1.42509 6.09809 1.61258 6.28539L6.11151 10.7843L6.41359 10.4822C6.5312 10.538 6.65475 10.6073 6.78425 10.6901C6.91354 10.773 7.04092 10.8773 7.16638 11.0027C7.35388 11.19 7.4445 11.4022 7.43826 11.6392C7.43201 11.8762 7.33515 12.0885 7.14765 12.276L6.85735 12.5666C6.63884 12.7726 6.38399 12.8787 6.09278 12.8847C5.80157 12.8909 5.54671 12.7849 5.3282 12.5666L0.320569 7.55897ZM12.9199 10.7656L23.3997 0.285707C23.5796 0.106068 23.7899 0.0173565 24.0308 0.0195717C24.2717 0.0219884 24.4858 0.116842 24.6733 0.304134C24.8483 0.491627 24.939 0.703891 24.9452 0.940926C24.9512 1.17796 24.8606 1.39023 24.6733 1.57772L13.6844 12.5666C13.4659 12.7849 13.2111 12.8941 12.9199 12.8941C12.6287 12.8941 12.3738 12.7849 12.1553 12.5666L7.14765 7.55897C6.9805 7.39161 6.89491 7.18439 6.89088 6.93728C6.88706 6.69018 6.97265 6.47288 7.14765 6.28539C7.33515 6.09809 7.55053 6.00445 7.79381 6.00445C8.03689 6.00445 8.25217 6.09809 8.43966 6.28539L12.9199 10.7656ZM17.8275 1.59614L13.1383 6.28539C12.9709 6.45274 12.7637 6.53833 12.5166 6.54216C12.2695 6.54618 12.0523 6.46059 11.865 6.28539C11.6775 6.09809 11.5837 5.88281 11.5837 5.63953C11.5837 5.39625 11.6775 5.18097 11.865 4.99368L16.5542 0.304134C16.7216 0.136981 16.9287 0.0513907 17.1756 0.0473629C17.4227 0.0435365 17.64 0.129127 17.8275 0.304134C18.015 0.491627 18.1087 0.707013 18.1087 0.950291C18.1087 1.19337 18.015 1.40865 17.8275 1.59614Z" fill="#007AFF"/>
</svg>
