<svg width="4" height="5" viewBox="0 0 4 5" fill="none" xmlns="http://www.w3.org/2000/svg">
<path d="M1.5625 4.0625C1.27604 4.0625 1.01444 3.99266 0.777699 3.85298C0.540956 3.71094 0.351563 3.52154 0.209517 3.2848C0.069839 3.04806 0 2.78646 0 2.5C0 2.21117 0.069839 1.94957 0.209517 1.7152C0.351563 1.47846 0.540956 1.29025 0.777699 1.15057C1.01444 1.00852 1.27604 0.9375 1.5625 0.9375C1.85133 0.9375 2.11293 1.00852 2.3473 1.15057C2.58404 1.29025 2.77225 1.47846 2.91193 1.7152C3.05398 1.94957 3.125 2.21117 3.125 2.5C3.125 2.78646 3.05398 3.04806 2.91193 3.2848C2.77225 3.52154 2.58404 3.71094 2.3473 3.85298C2.11293 3.99266 1.85133 4.0625 1.5625 4.0625Z" fill="#808080"/>
</svg>
