<svg width="74" height="74" viewBox="0 0 74 74" fill="none" xmlns="http://www.w3.org/2000/svg">
<mask id="mask0_1_10394" style="mask-type:alpha" maskUnits="userSpaceOnUse" x="0" y="0" width="74" height="74">
<rect width="74" height="74" fill="#D9D9D9"/>
</mask>
<g mask="url(#mask0_1_10394)">
<path d="M3.64421 54.8479C3.06711 54.8479 2.57198 54.6413 2.15881 54.2281C1.74565 53.815 1.53906 53.3198 1.53906 52.7427V51.652C1.53906 49.7686 2.56093 48.2195 4.60467 47.0046C6.6484 45.7898 9.3124 45.1824 12.5967 45.1824C13.1234 45.1824 13.6653 45.2004 14.2224 45.2364C14.7799 45.2718 15.3413 45.3319 15.9066 45.4167C15.5546 46.2492 15.2856 47.0835 15.0996 47.9196C14.914 48.7562 14.8213 49.6129 14.8213 50.4896V54.8479H3.64421ZM22.2752 54.8479C21.6313 54.8479 21.0977 54.6349 20.6742 54.2089C20.2508 53.7828 20.0391 53.2546 20.0391 52.624V50.6083C20.0391 49.1648 20.4443 47.8454 21.2547 46.6501C22.0651 45.4542 23.2331 44.4118 24.7589 43.5228C26.2846 42.6333 28.0873 41.9662 30.167 41.5217C32.2462 41.0767 34.5192 40.8542 36.9858 40.8542C39.4998 40.8542 41.7963 41.0767 43.8755 41.5217C45.9547 41.9662 47.7572 42.6333 49.2829 43.5228C50.8092 44.4118 51.9695 45.4542 52.764 46.6501C53.5585 47.8454 53.9557 49.1648 53.9557 50.6083V52.624C53.9557 53.2546 53.7427 53.7828 53.3167 54.2089C52.8907 54.6349 52.3624 54.8479 51.7319 54.8479H22.2752ZM59.1735 54.8479V50.4934C59.1735 49.569 59.0936 48.6899 58.9338 47.8564C58.7734 47.0229 58.5075 46.2117 58.136 45.4229C58.7408 45.334 59.3153 45.2718 59.8595 45.2364C60.4043 45.2004 60.9367 45.1824 61.4567 45.1824C64.7471 45.1824 67.4029 45.7785 69.424 46.9707C71.4452 48.1624 72.4557 49.7229 72.4557 51.652V52.7427C72.4557 53.3198 72.2491 53.815 71.836 54.2281C71.4228 54.6413 70.9277 54.8479 70.3506 54.8479H59.1735ZM12.5265 42.752C11.2418 42.752 10.1418 42.2907 9.22658 41.3683C8.31135 40.4464 7.85373 39.3361 7.85373 38.0375C7.85373 36.7451 8.31494 35.6413 9.23738 34.726C10.1593 33.8108 11.2695 33.3532 12.5681 33.3532C13.8606 33.3532 14.9693 33.8108 15.8943 34.726C16.8193 35.6413 17.2818 36.7592 17.2818 38.0799C17.2818 39.3446 16.8247 40.4395 15.9105 41.3645C14.9963 42.2895 13.8683 42.752 12.5265 42.752ZM61.4228 42.752C60.1525 42.752 59.0548 42.2877 58.1298 41.3591C57.2048 40.431 56.7423 39.3269 56.7423 38.0468C56.7423 36.7482 57.2066 35.6413 58.1352 34.726C59.0633 33.8108 60.1722 33.3532 61.4621 33.3532C62.7705 33.3532 63.8823 33.8108 64.7975 34.726C65.7127 35.6413 66.1704 36.7564 66.1704 38.0715C66.1704 39.3541 65.714 40.4549 64.8014 41.3737C63.8887 42.2925 62.7625 42.752 61.4228 42.752ZM37.0082 38.5417C34.7872 38.5417 32.896 37.7634 31.3349 36.2068C29.7737 34.6508 28.9931 32.7609 28.9931 30.5373C28.9931 28.269 29.7711 26.3679 31.3271 24.8339C32.8837 23.2995 34.7738 22.5322 36.9974 22.5322C39.2652 22.5322 41.1663 23.2984 42.7008 24.8309C44.2347 26.3628 45.0017 28.2613 45.0017 30.5265C45.0017 32.7471 44.2358 34.6382 42.7039 36.1999C41.1715 37.7611 39.2729 38.5417 37.0082 38.5417Z" fill="#B6C1FF"/>
<path d="M22.2752 54.8479C21.6313 54.8479 21.0977 54.6349 20.6742 54.2089C20.2508 53.7828 20.0391 53.2546 20.0391 52.624V50.6083C20.0391 49.1648 20.4443 47.8454 21.2547 46.6501C22.0651 45.4542 23.2331 44.4118 24.7589 43.5228C26.2846 42.6333 28.0873 41.9662 30.167 41.5217C32.2462 41.0767 34.5192 40.8542 36.9858 40.8542C39.4998 40.8542 41.7963 41.0767 43.8755 41.5217C45.9547 41.9662 47.7572 42.6333 49.2829 43.5228C50.8092 44.4118 51.9696 45.4542 52.764 46.6501C53.5585 47.8454 53.9557 49.1648 53.9557 50.6083V52.624C53.9557 53.2546 53.7427 53.7828 53.3167 54.2089C52.8907 54.6349 52.3624 54.8479 51.7319 54.8479H22.2752ZM37.0082 38.5417C34.7872 38.5417 32.8961 37.7634 31.3349 36.2068C29.7737 34.6508 28.9931 32.7609 28.9931 30.5373C28.9931 28.269 29.7711 26.3679 31.3271 24.8339C32.8837 23.2995 34.7738 22.5322 36.9974 22.5322C39.2652 22.5322 41.1663 23.2984 42.7008 24.8309C44.2347 26.3628 45.0017 28.2613 45.0017 30.5265C45.0017 32.7471 44.2358 34.6382 42.7039 36.1999C41.1715 37.7611 39.2729 38.5417 37.0082 38.5417Z" fill="#556FF9"/>
</g>
</svg>
