<svg width="32" height="32" viewBox="0 0 32 32" fill="none" xmlns="http://www.w3.org/2000/svg">
<mask id="mask0_1_10168" style="mask-type:alpha" maskUnits="userSpaceOnUse" x="0" y="0" width="32" height="32">
<rect width="32" height="32" fill="#D9D9D9"/>
</mask>
<g mask="url(#mask0_1_10168)">
<path d="M5.67188 23.5139C5.38854 23.5139 5.15104 23.418 4.95938 23.2262C4.76771 23.0345 4.67188 22.7969 4.67188 22.5134C4.67188 22.23 4.76771 21.9925 4.95938 21.8011C5.15104 21.6096 5.38854 21.5139 5.67188 21.5139H26.3385C26.6218 21.5139 26.8593 21.6098 27.051 21.8015C27.2426 21.9933 27.3385 22.2309 27.3385 22.5143C27.3385 22.7978 27.2426 23.0352 27.051 23.2267C26.8593 23.4181 26.6218 23.5139 26.3385 23.5139H5.67188ZM5.67188 17.001C5.38854 17.001 5.15104 16.9052 4.95938 16.7134C4.76771 16.5217 4.67188 16.2841 4.67188 16.0006C4.67188 15.7172 4.76771 15.4797 4.95938 15.2883C5.15104 15.0968 5.38854 15.0011 5.67188 15.0011H26.3385C26.6218 15.0011 26.8593 15.097 27.051 15.2887C27.2426 15.4805 27.3385 15.7181 27.3385 16.0015C27.3385 16.285 27.2426 16.5224 27.051 16.7139C26.8593 16.9053 26.6218 17.001 26.3385 17.001H5.67188ZM5.67188 10.4882C5.38854 10.4882 5.15104 10.3924 4.95938 10.2006C4.76771 10.0089 4.67188 9.77128 4.67188 9.48781C4.67188 9.20437 4.76771 8.96692 4.95938 8.77548C5.15104 8.58401 5.38854 8.48828 5.67188 8.48828H26.3385C26.6218 8.48828 26.8593 8.58416 27.051 8.77591C27.2426 8.96767 27.3385 9.20527 27.3385 9.48871C27.3385 9.77218 27.2426 10.0096 27.051 10.2011C26.8593 10.3925 26.6218 10.4882 26.3385 10.4882H5.67188Z" fill="black"/>
</g>
</svg>
