<svg width="16" height="16" viewBox="0 0 16 16" fill="none" xmlns="http://www.w3.org/2000/svg">
<path d="M7.99323 11.792C8.14559 11.792 8.27462 11.74 8.38031 11.6362C8.48615 11.5324 8.53906 11.4038 8.53906 11.2503V7.54199C8.53906 7.38852 8.48753 7.25984 8.38448 7.15595C8.28142 7.0522 8.15379 7.00033 8.00156 7.00033C7.8492 7.00033 7.72017 7.0522 7.61448 7.15595C7.50865 7.25984 7.45573 7.38852 7.45573 7.54199V11.2503C7.45573 11.4038 7.50726 11.5324 7.61031 11.6362C7.71337 11.74 7.84101 11.792 7.99323 11.792ZM7.99302 5.74074C8.15885 5.74074 8.29934 5.68463 8.41448 5.57241C8.52962 5.46019 8.58719 5.32116 8.58719 5.15533C8.58719 4.98949 8.53108 4.84901 8.41885 4.73387C8.30663 4.61887 8.1676 4.56137 8.00177 4.56137C7.83594 4.56137 7.69545 4.61741 7.58031 4.72949C7.46517 4.84171 7.4076 4.98074 7.4076 5.14658C7.4076 5.31241 7.46372 5.4529 7.57594 5.56803C7.68816 5.68317 7.82719 5.74074 7.99302 5.74074ZM8.00448 15.5837C6.96128 15.5837 5.97878 15.3863 5.05698 14.9916C4.13517 14.5969 3.32837 14.0537 2.63656 13.3622C1.94476 12.6707 1.40135 11.8645 1.00635 10.9437C0.611493 10.023 0.414062 9.03914 0.414062 7.9922C0.414062 6.94526 0.611424 5.96435 1.00615 5.04949C1.40087 4.13463 1.94399 3.3313 2.63552 2.63949C3.32705 1.94769 4.13323 1.40428 5.05406 1.00928C5.97476 0.614423 6.95858 0.416992 8.00552 0.416992C9.05247 0.416992 10.0334 0.614353 10.9482 1.00908C11.8631 1.4038 12.6664 1.94692 13.3582 2.63845C14.05 3.32998 14.5934 4.13449 14.9884 5.05199C15.3833 5.96963 15.5807 6.95005 15.5807 7.99324C15.5807 9.03644 15.3834 10.0189 14.9886 10.9407C14.5939 11.8625 14.0508 12.6694 13.3593 13.3612C12.6677 14.053 11.8632 14.5964 10.9457 14.9914C10.0281 15.3862 9.04767 15.5837 8.00448 15.5837ZM7.9974 14.5003C9.80295 14.5003 11.3377 13.8684 12.6016 12.6045C13.8655 11.3406 14.4974 9.80588 14.4974 8.00033C14.4974 6.19477 13.8655 4.66005 12.6016 3.39616C11.3377 2.13227 9.80295 1.50033 7.9974 1.50033C6.19184 1.50033 4.65712 2.13227 3.39323 3.39616C2.12934 4.66005 1.4974 6.19477 1.4974 8.00033C1.4974 9.80588 2.12934 11.3406 3.39323 12.6045C4.65712 13.8684 6.19184 14.5003 7.9974 14.5003Z" fill="#ACACAC"/>
</svg>
