<svg width="119" height="32" viewBox="0 0 119 32" fill="none" xmlns="http://www.w3.org/2000/svg">
<path d="M1.59801 23.5V8.95455H3.79261V21.6108H10.3835V23.5H1.59801ZM12.7166 23.5V12.5909H14.8402V23.5H12.7166ZM13.7891 10.9077C13.4197 10.9077 13.1025 10.7846 12.8374 10.5384C12.5769 10.2874 12.4467 9.98911 12.4467 9.64347C12.4467 9.29309 12.5769 8.99479 12.8374 8.74858C13.1025 8.49763 13.4197 8.37216 13.7891 8.37216C14.1584 8.37216 14.4732 8.49763 14.7337 8.74858C14.9988 8.99479 15.1314 9.29309 15.1314 9.64347C15.1314 9.98911 14.9988 10.2874 14.7337 10.5384C14.4732 10.7846 14.1584 10.9077 13.7891 10.9077ZM19.8207 17.0227V23.5H17.6971V12.5909H19.7354V14.3665H19.8704C20.1213 13.7888 20.5143 13.3248 21.0494 12.9744C21.5891 12.6241 22.2686 12.4489 23.0877 12.4489C23.8311 12.4489 24.4821 12.6051 25.0408 12.9176C25.5996 13.2254 26.0328 13.6847 26.3406 14.2955C26.6483 14.9062 26.8022 15.6615 26.8022 16.5611V23.5H24.6786V16.8168C24.6786 16.026 24.4727 15.4081 24.0607 14.9631C23.6488 14.5133 23.083 14.2884 22.3633 14.2884C21.8709 14.2884 21.4329 14.3949 21.0494 14.608C20.6706 14.821 20.3699 15.1335 20.1474 15.5455C19.9296 15.9527 19.8207 16.4451 19.8207 17.0227ZM31.6033 19.7997L31.5891 17.2074H31.9585L36.305 12.5909H38.8477L33.8903 17.8466H33.5565L31.6033 19.7997ZM29.6502 23.5V8.95455H31.7738V23.5H29.6502ZM36.5394 23.5L32.6332 18.3153L34.0962 16.831L39.146 23.5H36.5394ZM45.0355 23.7202C43.9607 23.7202 43.035 23.4905 42.2585 23.0312C41.4867 22.5672 40.8902 21.9162 40.4688 21.0781C40.0521 20.2353 39.8438 19.2481 39.8438 18.1165C39.8438 16.9991 40.0521 16.0142 40.4688 15.1619C40.8902 14.3097 41.4773 13.6444 42.2301 13.1662C42.9877 12.688 43.8731 12.4489 44.8864 12.4489C45.5019 12.4489 46.0985 12.5507 46.6761 12.7543C47.2538 12.9579 47.7723 13.2775 48.2315 13.7131C48.6908 14.1487 49.053 14.7145 49.3182 15.4105C49.5833 16.1018 49.7159 16.9422 49.7159 17.9318V18.6847H41.044V17.0938H47.6349C47.6349 16.535 47.5213 16.0402 47.294 15.6094C47.0668 15.1738 46.7472 14.8305 46.3352 14.5795C45.928 14.3286 45.4498 14.2031 44.9006 14.2031C44.304 14.2031 43.7831 14.3499 43.3381 14.6435C42.8977 14.9323 42.5568 15.3111 42.3153 15.7798C42.0786 16.2438 41.9602 16.7481 41.9602 17.2926V18.5355C41.9602 19.2647 42.0881 19.8849 42.3438 20.3963C42.6042 20.9077 42.9664 21.2983 43.4304 21.5682C43.8944 21.8333 44.4366 21.9659 45.0568 21.9659C45.4593 21.9659 45.8262 21.9091 46.1577 21.7955C46.4891 21.6771 46.7756 21.5019 47.017 21.2699C47.2585 21.0379 47.4432 20.7514 47.571 20.4105L49.581 20.7727C49.42 21.3646 49.1312 21.883 48.7145 22.3281C48.3026 22.7685 47.7841 23.1117 47.1591 23.358C46.5388 23.5994 45.831 23.7202 45.0355 23.7202ZM56.1559 23.7131C55.2752 23.7131 54.4892 23.4882 53.7979 23.0384C53.1114 22.5838 52.5716 21.9375 52.1786 21.0994C51.7904 20.2566 51.5962 19.2457 51.5962 18.0668C51.5962 16.8878 51.7927 15.8793 52.1857 15.0412C52.5835 14.2031 53.128 13.5616 53.8192 13.1165C54.5105 12.6714 55.2942 12.4489 56.1701 12.4489C56.8472 12.4489 57.3917 12.5625 57.8036 12.7898C58.2203 13.0123 58.5423 13.2727 58.7695 13.571C59.0015 13.8693 59.1815 14.1321 59.3093 14.3594H59.4371V8.95455H61.5607V23.5H59.4869V21.8026H59.3093C59.1815 22.0346 58.9968 22.2997 58.7553 22.598C58.5186 22.8963 58.1919 23.1567 57.7752 23.3793C57.3585 23.6018 56.8188 23.7131 56.1559 23.7131ZM56.6246 21.902C57.2354 21.902 57.7515 21.741 58.1729 21.419C58.5991 21.0923 58.921 20.6402 59.1388 20.0625C59.3614 19.4848 59.4727 18.8125 59.4727 18.0455C59.4727 17.2879 59.3638 16.625 59.146 16.0568C58.9281 15.4886 58.6085 15.0459 58.1871 14.7287C57.7657 14.4115 57.2449 14.2528 56.6246 14.2528C55.9854 14.2528 55.4528 14.4186 55.0266 14.75C54.6005 15.0814 54.2785 15.5336 54.0607 16.1065C53.8477 16.6795 53.7411 17.3258 53.7411 18.0455C53.7411 18.7746 53.85 19.4304 54.0678 20.0128C54.2856 20.5952 54.6076 21.0568 55.0337 21.3977C55.4646 21.7339 55.9949 21.902 56.6246 21.902ZM66.9567 8.95455V23.5H64.7621V8.95455H66.9567ZM72.1058 17.0227V23.5H69.9822V12.5909H72.0206V14.3665H72.1555C72.4065 13.7888 72.7995 13.3248 73.3345 12.9744C73.8743 12.6241 74.5537 12.4489 75.3729 12.4489C76.1162 12.4489 76.7673 12.6051 77.326 12.9176C77.8847 13.2254 78.3179 13.6847 78.6257 14.2955C78.9335 14.9062 79.0874 15.6615 79.0874 16.5611V23.5H76.9638V16.8168C76.9638 16.026 76.7578 15.4081 76.3459 14.9631C75.9339 14.5133 75.3681 14.2884 74.6484 14.2884C74.156 14.2884 73.718 14.3949 73.3345 14.608C72.9557 14.821 72.6551 15.1335 72.4325 15.5455C72.2147 15.9527 72.1058 16.4451 72.1058 17.0227Z" fill="#A4A4A4"/>
<path d="M114.336 5.76471V26.2353C114.336 26.7033 114.15 27.1522 113.819 27.4831C113.488 27.8141 113.039 28 112.571 28H92.1006C91.6326 28 91.1838 27.8141 90.8528 27.4831C90.5219 27.1522 90.3359 26.7033 90.3359 26.2353V5.76471C90.3359 5.29668 90.5219 4.84782 90.8528 4.51687C91.1838 4.18592 91.6326 4 92.1006 4H112.571C113.039 4 113.488 4.18592 113.819 4.51687C114.15 4.84782 114.336 5.29668 114.336 5.76471ZM97.3948 13.1765H93.8653V24.4706H97.3948V13.1765ZM97.7124 9.29412C97.7143 9.02715 97.6635 8.76242 97.5631 8.51506C97.4626 8.2677 97.3144 8.04255 97.127 7.85246C96.9395 7.66237 96.7164 7.51107 96.4705 7.4072C96.2245 7.30332 95.9606 7.24891 95.6936 7.24706H95.6301C95.0871 7.24706 94.5665 7.46273 94.1826 7.84663C93.7987 8.23053 93.583 8.7512 93.583 9.29412C93.583 9.83703 93.7987 10.3577 94.1826 10.7416C94.5665 11.1255 95.0871 11.3412 95.6301 11.3412C95.897 11.3477 96.1627 11.3016 96.4119 11.2055C96.661 11.1094 96.8888 10.9651 97.0822 10.7809C97.2756 10.5967 97.4308 10.3762 97.5389 10.132C97.647 9.88775 97.706 9.62464 97.7124 9.35765V9.29412ZM110.807 17.6094C110.807 14.2141 108.647 12.8941 106.501 12.8941C105.798 12.8589 105.098 13.0086 104.472 13.3281C103.845 13.6477 103.313 14.126 102.929 14.7153H102.83V13.1765H99.5124V24.4706H103.042V18.4635C102.991 17.8483 103.185 17.2378 103.581 16.7646C103.978 16.2915 104.545 15.9939 105.159 15.9365H105.294C106.416 15.9365 107.249 16.6424 107.249 18.4212V24.4706H110.778L110.807 17.6094Z" fill="#A4A4A4"/>
</svg>
