<svg width="24" height="16" viewBox="0 0 24 16" fill="none" xmlns="http://www.w3.org/2000/svg">
<path d="M1.67188 15.5139C1.38854 15.5139 1.15104 15.418 0.959375 15.2262C0.767708 15.0345 0.671875 14.7969 0.671875 14.5134C0.671875 14.23 0.767708 13.9925 0.959375 13.8011C1.15104 13.6096 1.38854 13.5139 1.67188 13.5139H22.3385C22.6218 13.5139 22.8593 13.6098 23.051 13.8015C23.2426 13.9933 23.3385 14.2309 23.3385 14.5143C23.3385 14.7978 23.2426 15.0352 23.051 15.2267C22.8593 15.4181 22.6218 15.5139 22.3385 15.5139H1.67188ZM1.67188 9.00105C1.38854 9.00105 1.15104 8.90518 0.959375 8.71345C0.767708 8.52169 0.671875 8.28409 0.671875 8.00065C0.671875 7.71718 0.767708 7.47973 0.959375 7.28828C1.15104 7.09684 1.38854 7.00111 1.67188 7.00111H22.3385C22.6218 7.00111 22.8593 7.09698 23.051 7.28871C23.2426 7.48047 23.3385 7.71807 23.3385 8.00151C23.3385 8.28498 23.2426 8.52244 23.051 8.71388C22.8593 8.90532 22.6218 9.00105 22.3385 9.00105H1.67188ZM1.67188 2.48825C1.38854 2.48825 1.15104 2.39237 0.959375 2.20061C0.767708 2.00888 0.671875 1.77128 0.671875 1.48781C0.671875 1.20437 0.767708 0.966925 0.959375 0.77548C1.15104 0.584013 1.38854 0.488281 1.67188 0.488281H22.3385C22.6218 0.488281 22.8593 0.584158 23.051 0.775914C23.2426 0.967669 23.3385 1.20527 23.3385 1.48871C23.3385 1.77218 23.2426 2.00964 23.051 2.20108C22.8593 2.39252 22.6218 2.48825 22.3385 2.48825H1.67188Z" fill="black"/>
</svg>
