<svg width="74" height="74" viewBox="0 0 74 74" fill="none" xmlns="http://www.w3.org/2000/svg">
<mask id="mask0_1_9686" style="mask-type:alpha" maskUnits="userSpaceOnUse" x="0" y="0" width="74" height="74">
<rect width="74" height="74" fill="#D9D9D9"/>
</mask>
<g mask="url(#mask0_1_9686)">
<path d="M37.0036 59.6629L32.118 63.2912C31.6751 63.6314 31.2452 63.6394 30.8284 63.3151C30.4112 62.9909 30.2796 62.5659 30.4338 62.0402L32.2953 55.9922L27.4391 52.4526C26.9966 52.1129 26.8604 51.691 27.0305 51.1868C27.2001 50.6827 27.5676 50.4307 28.1328 50.4307H34.0629L36.1086 42.9536L25.5243 36.7807C24.4765 36.1641 23.6571 35.3627 23.0661 34.3765C22.4752 33.3904 22.1797 32.3161 22.1797 31.1537V11.5036C22.1797 10.2785 22.6147 9.23091 23.4847 8.36089C24.3542 7.49139 25.4018 7.05664 26.6274 7.05664H47.3798C48.6054 7.05664 49.653 7.49139 50.5225 8.36089C51.3925 9.23091 51.8275 10.2785 51.8275 11.5036V31.1537C51.8275 32.296 51.5269 33.3505 50.9256 34.3172C50.3249 35.2838 49.5008 36.0852 48.4535 36.7214L37.8515 42.9536L39.9443 50.4307H45.8265C46.3723 50.4307 46.73 50.6827 46.8995 51.1868C47.0696 51.691 46.9335 52.1129 46.491 52.4526L41.6348 55.9922L43.5256 62.0402C43.6798 62.5659 43.5485 62.9829 43.1317 63.2912C42.7144 63.5996 42.2745 63.5839 41.812 63.2442L37.0036 59.6629ZM35.4735 10.5547V38.364L37.2233 39.3014L38.9723 38.364V10.5547H35.4735Z" fill="#556FF9"/>
</g>
</svg>
