<svg width="44" height="44" viewBox="0 0 44 44" fill="none" xmlns="http://www.w3.org/2000/svg">
<g filter="url(#filter0_dd_1_10087)">
<rect width="38" height="38" rx="19" transform="matrix(-1 0 0 1 41 3)" fill="white"/>
<rect x="0.25" y="-0.25" width="38.5" height="38.5" rx="19.25" transform="matrix(-1 0 0 1 41.5 3)" stroke="black" stroke-opacity="0.02" stroke-width="0.5"/>
<mask id="mask0_1_10087" style="mask-type:alpha" maskUnits="userSpaceOnUse" x="10" y="10" width="24" height="24">
<rect width="24" height="24" transform="matrix(-1 0 0 1 34 10)" fill="#D9D9D9"/>
</mask>
<g mask="url(#mask0_1_10087)">
<path d="M23.5 26.3002C23.6333 26.3002 23.75 26.2544 23.85 26.1627C23.95 26.071 24 25.9502 24 25.8002V18.2002C24 18.0502 23.95 17.9294 23.85 17.8377C23.75 17.746 23.6333 17.7002 23.5 17.7002C23.4667 17.7002 23.35 17.7502 23.15 17.8502L19.525 21.4752C19.4417 21.5585 19.3833 21.6419 19.35 21.7252C19.3167 21.8085 19.3 21.9002 19.3 22.0002C19.3 22.1002 19.3167 22.1919 19.35 22.2752C19.3833 22.3585 19.4417 22.4419 19.525 22.5252L23.15 26.1502C23.2 26.2002 23.2542 26.2377 23.3125 26.2627C23.3708 26.2877 23.4333 26.3002 23.5 26.3002Z" fill="#1C1B1F"/>
</g>
</g>
<defs>
<filter id="filter0_dd_1_10087" x="0.4" y="0.65" width="43.2" height="43.2" filterUnits="userSpaceOnUse" color-interpolation-filters="sRGB">
<feFlood flood-opacity="0" result="BackgroundImageFix"/>
<feColorMatrix in="SourceAlpha" type="matrix" values="0 0 0 0 0 0 0 0 0 0 0 0 0 0 0 0 0 0 127 0" result="hardAlpha"/>
<feOffset dy="1"/>
<feGaussianBlur stdDeviation="0.375"/>
<feColorMatrix type="matrix" values="0 0 0 0 0 0 0 0 0 0 0 0 0 0 0 0 0 0 0.05 0"/>
<feBlend mode="normal" in2="BackgroundImageFix" result="effect1_dropShadow_1_10087"/>
<feColorMatrix in="SourceAlpha" type="matrix" values="0 0 0 0 0 0 0 0 0 0 0 0 0 0 0 0 0 0 127 0" result="hardAlpha"/>
<feOffset dy="0.25"/>
<feGaussianBlur stdDeviation="1.05"/>
<feColorMatrix type="matrix" values="0 0 0 0 0 0 0 0 0 0 0 0 0 0 0 0 0 0 0.15 0"/>
<feBlend mode="normal" in2="effect1_dropShadow_1_10087" result="effect2_dropShadow_1_10087"/>
<feBlend mode="normal" in="SourceGraphic" in2="effect2_dropShadow_1_10087" result="shape"/>
</filter>
</defs>
</svg>
