<svg width="65" height="61" viewBox="0 0 65 61" fill="none" xmlns="http://www.w3.org/2000/svg">
<rect width="65" height="61" rx="6" fill="#F1F3FF"/>
<mask id="mask0_1_10289" style="mask-type:alpha" maskUnits="userSpaceOnUse" x="5" y="3" width="55" height="55">
<rect x="5" y="3" width="55" height="55" fill="#D9D9D9"/>
</mask>
<g mask="url(#mask0_1_10289)">
<path d="M46.794 44.8367C47.8344 44.8367 48.7167 44.4739 49.4409 43.7482C50.1651 43.0221 50.5271 42.1406 50.5271 41.1036C50.5271 40.0666 50.1647 39.1928 49.4397 38.482C48.7148 37.7708 47.8346 37.4152 46.7992 37.4152C45.7633 37.4152 44.8889 37.7757 44.1758 38.4969C43.4627 39.218 43.1061 40.0936 43.1061 41.1237C43.1061 42.1534 43.4646 43.0298 44.1815 43.7528C44.8988 44.4754 45.7696 44.8367 46.794 44.8367ZM46.7889 52.2583C48.0267 52.2583 49.1812 51.9696 50.2521 51.3921C51.3231 50.8149 52.2023 50.0255 52.8898 49.0236C51.9258 48.4889 50.9408 48.0665 49.9347 47.7563C48.9287 47.4466 47.885 47.2917 46.8038 47.2917C45.7225 47.2917 44.6735 47.4466 43.6567 47.7563C42.6404 48.0665 41.6576 48.4889 40.7085 49.0236C41.3784 50.027 42.2498 50.817 43.3227 51.3938C44.3956 51.9701 45.551 52.2583 46.7889 52.2583ZM16.3286 49.9798C15.4276 49.9798 14.6515 49.6542 14.0003 49.003C13.349 48.3518 13.0234 47.5757 13.0234 46.6747V14.3266C13.0234 13.4256 13.349 12.6495 14.0003 11.9983C14.6515 11.3471 15.4276 11.0215 16.3286 11.0215H48.6766C49.5776 11.0215 50.3537 11.3471 51.005 11.9983C51.6562 12.6495 51.9818 13.4256 51.9818 14.3266V31.3686C51.5647 31.1662 51.1335 30.9987 50.6881 30.8662C50.2432 30.734 49.8076 30.6181 49.3813 30.5184V14.3266C49.3813 14.1506 49.308 13.989 49.1613 13.842C49.0143 13.6953 48.8527 13.622 48.6766 13.622H16.3286C16.1525 13.622 15.991 13.6953 15.8439 13.842C15.6972 13.989 15.6239 14.1506 15.6239 14.3266V46.6747C15.6239 46.8507 15.6972 47.0123 15.8439 47.1594C15.991 47.306 16.1525 47.3793 16.3286 47.3793H32.5553C32.6642 47.8438 32.7814 48.296 32.9071 48.736C33.0327 49.176 33.1916 49.5906 33.3838 49.9798H16.3286ZM15.6239 47.3793V13.622V30.5184V30.311V47.3793ZM21.6172 41.1214H32.824C32.9623 40.6718 33.1086 40.2305 33.2629 39.7974C33.4172 39.3639 33.6102 38.9386 33.8421 38.5215H21.6172V41.1214ZM21.6172 31.8006H40.3338C40.8097 31.6066 41.2409 31.4421 41.6275 31.3073C42.0136 31.1721 42.4389 31.0281 42.9033 30.8753V29.2007H21.6172V31.8006ZM21.6172 22.4798H43.388V19.8799H21.6172V22.4798ZM46.7808 54.66C44.0778 54.66 41.7714 53.6942 39.8617 51.7627C37.9524 49.8312 36.9977 47.5403 36.9977 44.89C36.9977 42.1465 37.9522 39.8182 39.8611 37.905C41.7705 35.9922 44.0866 35.0359 46.8095 35.0359C49.4938 35.0359 51.7967 35.9922 53.7183 37.905C55.6395 39.8182 56.6001 42.1465 56.6001 44.89C56.6001 47.5403 55.6395 49.8312 53.7183 51.7627C51.7967 53.6942 49.4842 54.66 46.7808 54.66Z" fill="#007AFF"/>
<path d="M21.6172 41.1204H32.824C32.9623 40.6708 33.1086 40.2295 33.2629 39.7964C33.4172 39.3629 33.6102 38.9376 33.8421 38.5205H21.6172V41.1204ZM21.6172 31.7996H40.3338C40.8097 31.6056 41.2409 31.4411 41.6275 31.3063C42.0136 31.1711 42.4389 31.0271 42.9033 30.8743V29.1997H21.6172V31.7996ZM21.6172 22.4788H43.388V19.8789H21.6172V22.4788Z" fill="#B6C1FF"/>
</g>
</svg>
