<svg width="64" height="60" viewBox="0 0 64 60" fill="none" xmlns="http://www.w3.org/2000/svg">
<rect width="64" height="60" rx="6" fill="#F1F3FF"/>
<mask id="mask0_1_10304" style="mask-type:alpha" maskUnits="userSpaceOnUse" x="5" y="3" width="54" height="54">
<rect x="5" y="3" width="54" height="54" fill="#D9D9D9"/>
</mask>
<g mask="url(#mask0_1_10304)">
<path d="M34.3929 41.6004L41.7335 34.1147C42.0867 33.7599 42.35 33.3546 42.5233 32.8986C42.6961 32.4422 42.7826 31.9476 42.7826 31.4147C42.7826 30.3523 42.4085 29.4369 41.6604 28.6686C40.9126 27.9006 40.0089 27.5166 38.9491 27.5166C38.1759 27.5166 37.4201 27.7423 36.6817 28.1938C35.9433 28.6449 35.1746 29.3998 34.3754 30.4584C33.5909 29.4144 32.8346 28.6631 32.1063 28.2045C31.3784 27.7459 30.629 27.5166 29.858 27.5166C28.7926 27.5166 27.8838 27.9009 27.1316 28.6697C26.3793 29.4384 26.0032 30.3546 26.0032 31.4181C26.0032 31.9423 26.0896 32.4341 26.2625 32.8935C26.4358 33.3529 26.699 33.7599 27.0522 34.1147L34.3929 41.6004ZM52.4401 34.383L36.4179 50.4401C36.0928 50.7518 35.7269 50.9854 35.3204 51.141C34.9139 51.297 34.5071 51.375 34.0998 51.375C33.6922 51.375 33.2894 51.2942 32.8916 51.1326C32.4933 50.9709 32.1327 50.7401 31.8099 50.4401L11.6161 30.2121C11.3015 29.9263 11.0578 29.5869 10.8849 29.1939C10.7116 28.8006 10.625 28.3813 10.625 27.9362V11.892C10.625 11.0048 10.9447 10.2384 11.5841 9.59306C12.2234 8.94769 12.9928 8.625 13.892 8.625H29.9705C30.41 8.625 30.8296 8.712 31.2294 8.886C31.6295 9.05963 31.9873 9.29569 32.3026 9.59419L52.4401 29.7317C52.7848 30.0583 53.0362 30.4258 53.1944 30.8342C53.3523 31.2426 53.4312 31.6523 53.4312 32.0632C53.4312 32.4795 53.3482 32.8943 53.1821 33.3075C53.0163 33.7204 52.769 34.0789 52.4401 34.383ZM34.6741 48.6964L50.6964 32.6179C50.8407 32.4735 50.9129 32.304 50.9129 32.1094C50.9129 31.9147 50.8407 31.7453 50.6964 31.6009L30.2518 11.1996H13.892C13.6899 11.1996 13.5204 11.2644 13.3835 11.3942C13.2466 11.5239 13.1782 11.6899 13.1782 11.892V27.8451C13.1782 27.9317 13.1924 28.0219 13.2209 28.1156C13.2498 28.2094 13.3004 28.2851 13.3728 28.3429L33.6571 48.6964C33.8015 48.8265 33.971 48.8916 34.1656 48.8916C34.3603 48.8916 34.5297 48.8265 34.6741 48.6964ZM19.0754 19.5201C19.7534 19.5201 20.3362 19.2716 20.8237 18.7748C21.3112 18.2775 21.5549 17.6953 21.5549 17.0282C21.5549 16.3476 21.3118 15.762 20.8254 15.2715C20.339 14.781 19.7587 14.5358 19.0844 14.5358C18.4038 14.5358 17.8147 14.7801 17.3171 15.2687C16.8191 15.7577 16.5701 16.3412 16.5701 17.0192C16.5701 17.6972 16.82 18.2835 17.3199 18.7781C17.8194 19.2728 18.4046 19.5201 19.0754 19.5201Z" fill="#007AFF"/>
<path d="M34.3931 41.5998L41.7337 34.1141C42.087 33.7593 42.3503 33.354 42.5235 32.898C42.6964 32.4416 42.7828 31.947 42.7828 31.4141C42.7828 30.3517 42.4088 29.4363 41.6606 28.668C40.9129 27.9 40.0091 27.516 38.9494 27.516C38.1761 27.516 37.4203 27.7417 36.6819 28.1932C35.9436 28.6443 35.1748 29.3992 34.3757 30.4578C33.5912 29.4138 32.8348 28.6625 32.1066 28.2039C31.3787 27.7453 30.6293 27.516 29.8583 27.516C28.7929 27.516 27.8841 27.9003 27.1318 28.6691C26.3796 29.4378 26.0034 30.354 26.0034 31.4175C26.0034 31.9417 26.0899 32.4335 26.2628 32.8929C26.436 33.3523 26.6992 33.7593 27.0525 34.1141L34.3931 41.5998ZM19.0757 19.5195C19.7537 19.5195 20.3364 19.271 20.8239 18.7742C21.3114 18.2769 21.5552 17.6947 21.5552 17.0276C21.5552 16.347 21.312 15.7614 20.8256 15.2709C20.3393 14.7804 19.7589 14.5352 19.0847 14.5352C18.4041 14.5352 17.8149 14.7795 17.3173 15.2681C16.8193 15.7571 16.5703 16.3406 16.5703 17.0186C16.5703 17.6966 16.8203 18.2829 17.3201 18.7775C17.8196 19.2722 18.4048 19.5195 19.0757 19.5195Z" fill="#B6C1FF"/>
</g>
</svg>
