<svg width="147" height="30" viewBox="0 0 147 30" fill="none" xmlns="http://www.w3.org/2000/svg">
<path d="M17 0L142.129 0C143.834 0 144.687 0 145.338 0.331795C145.911 0.62365 146.376 1.08935 146.668 1.66215C147 2.31333 147 3.16578 147 4.87067V25.1293C147 26.8342 147 27.6867 146.668 28.3379C146.376 28.9107 145.911 29.3764 145.338 29.6682C144.687 30 143.834 30 142.129 30L17 30V0Z" fill="#312ECB"/>
<path d="M32.8285 21.679C32.2021 21.6747 31.5906 21.5661 30.994 21.353C30.3974 21.1357 29.8604 20.7841 29.3832 20.2983C28.9059 19.8082 28.5266 19.1584 28.2454 18.3487C27.9641 17.5348 27.8256 16.527 27.8299 15.3253C27.8299 14.2045 27.9492 13.2053 28.1879 12.3274C28.4265 11.4496 28.7695 10.7081 29.217 10.103C29.6644 9.49361 30.2035 9.02912 30.8342 8.70952C31.4691 8.38991 32.1786 8.23011 32.9627 8.23011C33.7852 8.23011 34.5138 8.39204 35.1488 8.71591C35.788 9.03977 36.3036 9.48295 36.6957 10.0455C37.0877 10.6037 37.3306 11.2344 37.4244 11.9375H35.0913C34.9719 11.4347 34.7269 11.0341 34.3562 10.7358C33.9897 10.4332 33.5252 10.282 32.9627 10.282C32.055 10.282 31.3562 10.6761 30.8661 11.4645C30.3803 12.2528 30.1353 13.3352 30.131 14.7116H30.2205C30.4293 14.3366 30.6999 14.0149 31.0323 13.7464C31.3647 13.478 31.7397 13.2713 32.1573 13.1264C32.5792 12.9773 33.0245 12.9027 33.4933 12.9027C34.2603 12.9027 34.9485 13.0859 35.5579 13.4524C36.1715 13.8189 36.6573 14.3239 37.0153 14.9673C37.3732 15.6065 37.5501 16.3395 37.5458 17.1662C37.5501 18.027 37.354 18.8004 36.9577 19.4865C36.5614 20.1683 36.0096 20.7053 35.3022 21.0973C34.5948 21.4893 33.7702 21.6832 32.8285 21.679ZM32.8157 19.7614C33.2802 19.7614 33.6957 19.6484 34.0621 19.4226C34.4286 19.1967 34.7184 18.892 34.9315 18.5085C35.1445 18.125 35.2489 17.6946 35.2447 17.2173C35.2489 16.7486 35.1467 16.3246 34.9379 15.9453C34.7333 15.5661 34.4499 15.2656 34.0877 15.044C33.7255 14.8224 33.3121 14.7116 32.8477 14.7116C32.5025 14.7116 32.1808 14.7777 31.8825 14.9098C31.5842 15.0419 31.3242 15.2251 31.1026 15.4595C30.881 15.6896 30.7063 15.9581 30.5785 16.2649C30.4549 16.5675 30.391 16.8913 30.3867 17.2365C30.391 17.6925 30.4975 18.1122 30.7063 18.4957C30.9151 18.8793 31.2028 19.1861 31.5692 19.4162C31.9357 19.6463 32.3512 19.7614 32.8157 19.7614ZM43.6451 21.7493C42.5925 21.7493 41.6891 21.483 40.9349 20.9503C40.1849 20.4134 39.6075 19.6399 39.2026 18.63C38.8021 17.6158 38.6018 16.3949 38.6018 14.9673C38.606 13.5398 38.8085 12.3253 39.209 11.3239C39.6138 10.3182 40.1913 9.55114 40.9413 9.02273C41.6955 8.49432 42.5968 8.23011 43.6451 8.23011C44.6934 8.23011 45.5947 8.49432 46.3489 9.02273C47.1032 9.55114 47.6806 10.3182 48.0812 11.3239C48.486 12.3295 48.6884 13.544 48.6884 14.9673C48.6884 16.3991 48.486 17.6222 48.0812 18.6364C47.6806 19.6463 47.1032 20.4176 46.3489 20.9503C45.5989 21.483 44.6977 21.7493 43.6451 21.7493ZM43.6451 19.7486C44.4633 19.7486 45.1089 19.3459 45.5819 18.5405C46.0592 17.7308 46.2978 16.5398 46.2978 14.9673C46.2978 13.9276 46.1891 13.054 45.9718 12.3466C45.7545 11.6392 45.4477 11.1065 45.0514 10.7486C44.655 10.3864 44.1863 10.2053 43.6451 10.2053C42.8312 10.2053 42.1877 10.6101 41.7147 11.4197C41.2417 12.2251 41.0031 13.4077 40.9988 14.9673C40.9945 16.0114 41.0989 16.8892 41.312 17.6009C41.5293 18.3125 41.8362 18.8494 42.2325 19.2116C42.6288 19.5696 43.0996 19.7486 43.6451 19.7486ZM56.9115 19.0455V18.3551C56.9115 17.848 57.018 17.3814 57.2311 16.9553C57.4484 16.5291 57.7637 16.1861 58.1771 15.9261C58.5904 15.6662 59.0912 15.5362 59.6792 15.5362C60.2843 15.5362 60.7914 15.6662 61.2005 15.9261C61.6096 16.1818 61.9186 16.5227 62.1274 16.9489C62.3404 17.375 62.447 17.8437 62.447 18.3551V19.0455C62.447 19.5526 62.3404 20.0192 62.1274 20.4453C61.9143 20.8714 61.6011 21.2145 61.1878 21.4744C60.7787 21.7344 60.2758 21.8643 59.6792 21.8643C59.0826 21.8643 58.5777 21.7344 58.1643 21.4744C57.751 21.2145 57.4377 20.8714 57.2247 20.4453C57.0159 20.0192 56.9115 19.5526 56.9115 19.0455ZM58.5798 18.3551V19.0455C58.5798 19.3821 58.6608 19.6911 58.8227 19.9723C58.9846 20.2536 59.2701 20.3942 59.6792 20.3942C60.0926 20.3942 60.376 20.2557 60.5294 19.9787C60.687 19.6974 60.7659 19.3864 60.7659 19.0455V18.3551C60.7659 18.0142 60.6913 17.7031 60.5422 17.4219C60.393 17.1364 60.1054 16.9936 59.6792 16.9936C59.2787 16.9936 58.9953 17.1364 58.8291 17.4219C58.6629 17.7031 58.5798 18.0142 58.5798 18.3551ZM50.2574 11.554V10.8636C50.2574 10.3523 50.366 9.88352 50.5833 9.45739C50.8007 9.03125 51.116 8.69034 51.5294 8.43466C51.9427 8.17472 52.4434 8.04474 53.0315 8.04474C53.6324 8.04474 54.1373 8.17472 54.5464 8.43466C54.9598 8.69034 55.2708 9.03125 55.4797 9.45739C55.6885 9.88352 55.7929 10.3523 55.7929 10.8636V11.554C55.7929 12.0653 55.6863 12.5341 55.4733 12.9602C55.2645 13.3821 54.9534 13.7209 54.54 13.9766C54.1267 14.2322 53.6238 14.3601 53.0315 14.3601C52.4306 14.3601 51.9235 14.2322 51.5102 13.9766C51.1011 13.7209 50.79 13.38 50.577 12.9538C50.3639 12.5277 50.2574 12.0611 50.2574 11.554ZM51.9385 10.8636V11.554C51.9385 11.8949 52.0173 12.206 52.175 12.4872C52.3369 12.7642 52.6224 12.9027 53.0315 12.9027C53.4406 12.9027 53.7218 12.7642 53.8752 12.4872C54.0329 12.206 54.1118 11.8949 54.1118 11.554V10.8636C54.1118 10.5227 54.0372 10.2116 53.888 9.9304C53.7389 9.64489 53.4534 9.50213 53.0315 9.50213C52.6267 9.50213 52.3433 9.64489 52.1814 9.9304C52.0194 10.2159 51.9385 10.527 51.9385 10.8636ZM50.986 21.5L59.986 8.40909H61.5841L52.5841 21.5H50.986ZM72.3284 21.5H67.8924V8.40909H72.4179C73.7177 8.40909 74.8341 8.67116 75.7674 9.19531C76.7049 9.7152 77.425 10.4631 77.9279 11.4389C78.4307 12.4148 78.6821 13.5824 78.6821 14.9418C78.6821 16.3054 78.4286 17.4773 77.9215 18.4574C77.4186 19.4375 76.6921 20.1896 75.7418 20.7138C74.7958 21.2379 73.658 21.5 72.3284 21.5ZM70.2638 19.4482H72.2134C73.1253 19.4482 73.886 19.282 74.4953 18.9496C75.1047 18.6129 75.5628 18.1122 75.8696 17.4474C76.1765 16.7784 76.3299 15.9432 76.3299 14.9418C76.3299 13.9403 76.1765 13.1094 75.8696 12.4489C75.5628 11.7841 75.109 11.2876 74.5081 10.9595C73.9115 10.6271 73.1701 10.4609 72.2837 10.4609H70.2638V19.4482ZM79.9331 21.5V11.6818H82.247V21.5H79.9331ZM81.0964 10.2884C80.7299 10.2884 80.4146 10.1669 80.1504 9.92401C79.8862 9.67685 79.7541 9.38068 79.7541 9.03551C79.7541 8.68608 79.8862 8.38991 80.1504 8.14702C80.4146 7.89986 80.7299 7.77628 81.0964 7.77628C81.4672 7.77628 81.7825 7.89986 82.0424 8.14702C82.3066 8.38991 82.4387 8.68608 82.4387 9.03551C82.4387 9.38068 82.3066 9.67685 82.0424 9.92401C81.7825 10.1669 81.4672 10.2884 81.0964 10.2884ZM91.4864 14.277L89.377 14.5071C89.3173 14.294 89.2129 14.0937 89.0638 13.9062C88.9189 13.7187 88.7229 13.5675 88.4757 13.4524C88.2286 13.3374 87.926 13.2798 87.568 13.2798C87.0865 13.2798 86.6817 13.3842 86.3535 13.593C86.0297 13.8018 85.8699 14.0724 85.8741 14.4048C85.8699 14.6903 85.9743 14.9226 86.1874 15.1016C86.4047 15.2805 86.7626 15.4276 87.2612 15.5426L88.9359 15.9006C89.8649 16.1009 90.5553 16.4183 91.007 16.853C91.4629 17.2876 91.693 17.8565 91.6973 18.5597C91.693 19.1776 91.5119 19.723 91.154 20.196C90.8003 20.6648 90.3081 21.0312 89.6774 21.2955C89.0467 21.5597 88.3223 21.6918 87.5041 21.6918C86.3024 21.6918 85.3351 21.4403 84.6021 20.9375C83.8692 20.4304 83.4324 19.7251 83.2918 18.8217L85.5482 18.6044C85.6504 19.0476 85.8678 19.3821 86.2001 19.608C86.5325 19.8338 86.9651 19.9467 87.4977 19.9467C88.0474 19.9467 88.4885 19.8338 88.8209 19.608C89.1575 19.3821 89.3259 19.103 89.3259 18.7706C89.3259 18.4893 89.2172 18.2571 88.9999 18.0739C88.7868 17.8906 88.4544 17.75 88.0027 17.652L86.328 17.3004C85.3862 17.1044 84.6895 16.7741 84.2378 16.3097C83.7861 15.8409 83.5624 15.2486 83.5666 14.5327C83.5624 13.9276 83.7264 13.4034 84.0588 12.9602C84.3955 12.5128 84.8621 12.1676 85.4587 11.9247C86.0595 11.6776 86.752 11.554 87.5361 11.554C88.6866 11.554 89.5922 11.799 90.2527 12.2891C90.9175 12.7791 91.3287 13.4418 91.4864 14.277ZM96.988 21.6918C96.0079 21.6918 95.1663 21.4766 94.4631 21.0462C93.7643 20.6158 93.2252 20.0213 92.8459 19.2628C92.4709 18.5 92.2834 17.6222 92.2834 16.6293C92.2834 15.6321 92.4752 14.7521 92.8587 13.9893C93.2423 13.2223 93.7834 12.6257 94.4823 12.1996C95.1854 11.7692 96.0164 11.554 96.9752 11.554C97.7721 11.554 98.4773 11.701 99.091 11.995C99.7089 12.2848 100.201 12.696 100.568 13.2287C100.934 13.7571 101.143 14.375 101.194 15.0824H98.9823C98.8928 14.6094 98.6798 14.2152 98.3431 13.8999C98.0107 13.5803 97.5654 13.4205 97.0072 13.4205C96.5342 13.4205 96.1187 13.5483 95.7607 13.804C95.4028 14.0554 95.1236 14.4176 94.9234 14.8906C94.7273 15.3636 94.6293 15.9304 94.6293 16.5909C94.6293 17.2599 94.7273 17.8352 94.9234 18.3168C95.1194 18.794 95.3942 19.1626 95.7479 19.4226C96.1059 19.6783 96.5256 19.8061 97.0072 19.8061C97.3481 19.8061 97.6528 19.7422 97.9212 19.6143C98.194 19.4822 98.4219 19.2926 98.6052 19.0455C98.7884 18.7983 98.9141 18.4979 98.9823 18.1442H101.194C101.139 18.8388 100.934 19.4545 100.58 19.9915C100.227 20.5241 99.7451 20.9418 99.1357 21.2443C98.5263 21.5426 97.8104 21.6918 96.988 21.6918ZM106.477 21.6918C105.518 21.6918 104.687 21.4808 103.984 21.0589C103.281 20.6371 102.735 20.0469 102.347 19.2884C101.964 18.5298 101.772 17.6435 101.772 16.6293C101.772 15.6151 101.964 14.7266 102.347 13.9638C102.735 13.201 103.281 12.6087 103.984 12.1868C104.687 11.7649 105.518 11.554 106.477 11.554C107.435 11.554 108.266 11.7649 108.97 12.1868C109.673 12.6087 110.216 13.201 110.6 13.9638C110.987 14.7266 111.181 15.6151 111.181 16.6293C111.181 17.6435 110.987 18.5298 110.6 19.2884C110.216 20.0469 109.673 20.6371 108.97 21.0589C108.266 21.4808 107.435 21.6918 106.477 21.6918ZM106.489 19.8381C107.009 19.8381 107.444 19.6953 107.793 19.4098C108.143 19.12 108.403 18.7322 108.573 18.2464C108.748 17.7607 108.835 17.2195 108.835 16.6229C108.835 16.022 108.748 15.4787 108.573 14.9929C108.403 14.5028 108.143 14.1129 107.793 13.8232C107.444 13.5334 107.009 13.3885 106.489 13.3885C105.957 13.3885 105.514 13.5334 105.16 13.8232C104.81 14.1129 104.548 14.5028 104.374 14.9929C104.203 15.4787 104.118 16.022 104.118 16.6229C104.118 17.2195 104.203 17.7607 104.374 18.2464C104.548 18.7322 104.81 19.12 105.16 19.4098C105.514 19.6953 105.957 19.8381 106.489 19.8381ZM118.503 17.3707V11.6818H120.817V21.5H118.573V19.755H118.471C118.249 20.3047 117.885 20.7543 117.378 21.1037C116.875 21.4531 116.255 21.6278 115.518 21.6278C114.874 21.6278 114.306 21.4851 113.811 21.1996C113.321 20.9098 112.938 20.4901 112.661 19.9403C112.384 19.3864 112.245 18.7173 112.245 17.9332V11.6818H114.559V17.5753C114.559 18.1974 114.73 18.6918 115.07 19.0582C115.411 19.4247 115.859 19.608 116.413 19.608C116.754 19.608 117.084 19.5249 117.404 19.3587C117.723 19.1925 117.985 18.9453 118.19 18.6172C118.399 18.2848 118.503 17.8693 118.503 17.3707ZM124.61 15.7472V21.5H122.296V11.6818H124.508V13.3501H124.623C124.849 12.8004 125.209 12.3636 125.703 12.0398C126.202 11.7159 126.818 11.554 127.551 11.554C128.228 11.554 128.818 11.6989 129.321 11.9886C129.828 12.2784 130.22 12.6982 130.497 13.2479C130.779 13.7976 130.917 14.4645 130.913 15.2486V21.5H128.599V15.6065C128.599 14.9503 128.428 14.4368 128.088 14.0661C127.751 13.6953 127.284 13.5099 126.688 13.5099C126.283 13.5099 125.923 13.5994 125.607 13.7784C125.296 13.9531 125.051 14.2067 124.872 14.5391C124.698 14.8714 124.61 15.2741 124.61 15.7472ZM137.268 11.6818V13.4716H131.624V11.6818H137.268ZM133.017 9.32955H135.331V18.5469C135.331 18.858 135.378 19.0966 135.472 19.2628C135.57 19.4247 135.697 19.5355 135.855 19.5952C136.013 19.6548 136.188 19.6847 136.379 19.6847C136.524 19.6847 136.656 19.674 136.776 19.6527C136.899 19.6314 136.993 19.6122 137.057 19.5952L137.447 21.4041C137.323 21.4467 137.146 21.4936 136.916 21.5447C136.69 21.5959 136.413 21.6257 136.085 21.6342C135.506 21.6513 134.984 21.5639 134.519 21.3722C134.055 21.1761 133.686 20.8736 133.413 20.4645C133.145 20.0554 133.013 19.544 133.017 18.9304V9.32955Z" fill="white"/>
<path d="M3.32613 17.9348C1.56027 16.3767 1.56027 13.6233 3.32613 12.0652L17 0V30L3.32613 17.9348Z" fill="#312ECB"/>
<circle cx="6.51569" cy="14.8204" r="2.17194" fill="white"/>
</svg>
