<svg width="74" height="74" viewBox="0 0 74 74" fill="none" xmlns="http://www.w3.org/2000/svg">
<mask id="mask0_1_10390" style="mask-type:alpha" maskUnits="userSpaceOnUse" x="0" y="0" width="74" height="74">
<rect width="74" height="74" fill="#D9D9D9"/>
</mask>
<g mask="url(#mask0_1_10390)">
<path d="M18.4181 52.873V29.9145C18.4181 29.4186 18.5871 29.0031 18.9253 28.668C19.2634 28.3325 19.6822 28.1647 20.1817 28.1647C20.6817 28.1647 21.0957 28.3325 21.4235 28.668C21.7519 29.0031 21.9161 29.4186 21.9161 29.9145V52.873C21.9161 53.3689 21.747 53.7844 21.4089 54.1194C21.0708 54.4545 20.6517 54.622 20.1517 54.622C19.6517 54.622 19.2377 54.4545 18.9099 54.1194C18.582 53.7844 18.4181 53.3689 18.4181 52.873ZM35.4704 52.873V29.9145C35.4704 29.4186 35.6395 29.0031 35.9776 28.668C36.3158 28.3325 36.7349 28.1647 37.2349 28.1647C37.7349 28.1647 38.1488 28.3325 38.4767 28.668C38.8051 29.0031 38.9693 29.4186 38.9693 29.9145V52.873C38.9693 53.3689 38.8002 53.7844 38.462 54.1194C38.1239 54.4545 37.7048 54.622 37.2048 54.622C36.7048 54.622 36.2909 54.4545 35.963 54.1194C35.6346 53.7844 35.4704 53.3689 35.4704 52.873ZM10.2881 63.1605C9.7927 63.1605 9.37747 62.9915 9.04242 62.6533C8.70685 62.3152 8.53906 61.8964 8.53906 61.3969C8.53906 60.8968 8.70685 60.4826 9.04242 60.1543C9.37747 59.8264 9.7927 59.6625 10.2881 59.6625H63.713C64.2084 59.6625 64.6236 59.8315 64.9587 60.1697C65.2942 60.5078 65.462 60.9269 65.462 61.4269C65.462 61.9264 65.2942 62.3404 64.9587 62.6687C64.6236 62.9966 64.2084 63.1605 63.713 63.1605H10.2881ZM52.085 52.873V29.9145C52.085 29.4186 52.2541 29.0031 52.5922 28.668C52.9303 28.3325 53.3494 28.1647 53.8494 28.1647C54.3494 28.1647 54.7634 28.3325 55.0912 28.668C55.4191 29.0031 55.583 29.4186 55.583 29.9145V52.873C55.583 53.3689 55.414 53.7844 55.0758 54.1194C54.7377 54.4545 54.3189 54.622 53.8194 54.622C53.3193 54.622 52.9054 54.4545 52.5775 54.1194C52.2492 53.7844 52.085 53.3689 52.085 52.873ZM64.0506 23.125H9.77856C9.44916 23.125 9.1601 23.0011 8.91138 22.7534C8.66317 22.5057 8.53906 22.2193 8.53906 21.894V20.952C8.53906 20.7511 8.59816 20.5491 8.71635 20.3461C8.83455 20.1431 8.99488 19.9923 9.19735 19.8936L34.8954 5.88838C35.5563 5.53636 36.2559 5.36035 36.9944 5.36035C37.7328 5.36035 38.4366 5.53636 39.1057 5.88838L64.7559 19.8166C64.9656 19.9625 65.1357 20.1393 65.2662 20.3469C65.3968 20.5545 65.462 20.8043 65.462 21.0961V21.6612C65.462 22.0877 65.3305 22.4382 65.0674 22.7126C64.8042 22.9875 64.4653 23.125 64.0506 23.125Z" fill="#556FF9"/>
<path d="M18.4141 52.8733V29.9148C18.4141 29.4189 18.5831 29.0034 18.9213 28.6684C19.2594 28.3328 19.6782 28.165 20.1777 28.165C20.6777 28.165 21.0917 28.3328 21.4195 28.6684C21.7479 29.0034 21.9121 29.4189 21.9121 29.9148V52.8733C21.9121 53.3692 21.743 53.7847 21.4049 54.1198C21.0668 54.4548 20.6477 54.6224 20.1477 54.6224C19.6477 54.6224 19.2337 54.4548 18.9059 54.1198C18.578 53.7847 18.4141 53.3692 18.4141 52.8733ZM35.4664 52.8733V29.9148C35.4664 29.4189 35.6355 29.0034 35.9736 28.6684C36.3118 28.3328 36.7309 28.165 37.2309 28.165C37.7309 28.165 38.1448 28.3328 38.4727 28.6684C38.8011 29.0034 38.9653 29.4189 38.9653 29.9148V52.8733C38.9653 53.3692 38.7962 53.7847 38.458 54.1198C38.1199 54.4548 37.7008 54.6224 37.2008 54.6224C36.7008 54.6224 36.2869 54.4548 35.959 54.1198C35.6306 53.7847 35.4664 53.3692 35.4664 52.8733ZM52.081 52.8733V29.9148C52.081 29.4189 52.25 29.0034 52.5882 28.6684C52.9263 28.3328 53.3454 28.165 53.8454 28.165C54.3454 28.165 54.7594 28.3328 55.0872 28.6684C55.4151 29.0034 55.579 29.4189 55.579 29.9148V52.8733C55.579 53.3692 55.41 53.7847 55.0718 54.1198C54.7337 54.4548 54.3149 54.6224 53.8154 54.6224C53.3153 54.6224 52.9014 54.4548 52.5735 54.1198C52.2452 53.7847 52.081 53.3692 52.081 52.8733Z" fill="#B6C1FF"/>
</g>
</svg>
