<svg width="8" height="5" viewBox="0 0 8 5" fill="none" xmlns="http://www.w3.org/2000/svg">
<path d="M3.52852 4.76786L0.150302 0.875497C0.103858 0.821804 0.067197 0.761797 0.0403182 0.695472C0.0134394 0.629357 0 0.56282 0 0.495863C0 0.362159 0.0404091 0.246036 0.121228 0.147495C0.202047 0.0491646 0.308558 0 0.440757 0H7.55924C7.69144 0 7.79795 0.0513761 7.87877 0.154128C7.95959 0.25667 8 0.376371 8 0.513234C8 0.53071 7.94981 0.651149 7.84942 0.87455L4.47148 4.76786C4.4104 4.8384 4.33745 4.89472 4.2526 4.93683C4.16776 4.97894 4.08356 5 4 5C3.91644 5 3.83224 4.97894 3.74739 4.93683C3.66255 4.89472 3.5896 4.8384 3.52852 4.76786Z" fill="black"/>
</svg>
