<svg width="30" height="30" viewBox="0 0 30 30" fill="none" xmlns="http://www.w3.org/2000/svg">
<g filter="url(#filter0_di_1_9503)">
<rect x="2" width="26" height="26" rx="4.33333" fill="url(#paint0_linear_1_9503)"/>
<rect x="2.36111" y="0.361111" width="25.2778" height="25.2778" rx="3.97222" stroke="black" stroke-opacity="0.15" stroke-width="0.722222"/>
<mask id="mask0_1_9503" style="mask-type:alpha" maskUnits="userSpaceOnUse" x="5" y="3" width="20" height="20">
<rect x="5" y="3" width="20" height="20" fill="#D9D9D9"/>
</mask>
<g mask="url(#mask0_1_9503)">
<path d="M6.60524 13.7309C6.48135 13.6068 6.42024 13.4618 6.42191 13.2957C6.42344 13.1295 6.48885 12.9818 6.61816 12.8525C6.74746 12.7318 6.89385 12.6693 7.05732 12.665C7.22066 12.6609 7.36698 12.7234 7.49628 12.8525L10.599 15.9552L10.8073 15.7469C10.8884 15.7854 10.9736 15.8332 11.063 15.8902C11.1521 15.9475 11.24 16.0193 11.3265 16.1059C11.4558 16.235 11.5183 16.3813 11.514 16.5448C11.5097 16.7083 11.4429 16.8547 11.3136 16.984L11.1134 17.1844C10.9627 17.3265 10.7869 17.3996 10.5861 17.4038C10.3852 17.4081 10.2095 17.335 10.0588 17.1844L6.60524 13.7309ZM15.2944 15.9423L22.5219 8.71482C22.6459 8.59093 22.791 8.52975 22.9571 8.53128C23.1232 8.53294 23.2709 8.59836 23.4002 8.72753C23.5209 8.85683 23.5834 9.00322 23.5877 9.16669C23.5919 9.33017 23.5294 9.47656 23.4002 9.60586L15.8217 17.1844C15.671 17.335 15.4952 17.4102 15.2944 17.4102C15.0936 17.4102 14.9178 17.335 14.7671 17.1844L11.3136 13.7309C11.1983 13.6154 11.1393 13.4725 11.1365 13.3021C11.1339 13.1317 11.1929 12.9818 11.3136 12.8525C11.4429 12.7234 11.5914 12.6588 11.7592 12.6588C11.9268 12.6588 12.0753 12.7234 12.2046 12.8525L15.2944 15.9423ZM18.679 9.61857L15.445 12.8525C15.3296 12.9679 15.1867 13.027 15.0163 13.0296C14.8459 13.0324 14.6961 12.9734 14.5669 12.8525C14.4376 12.7234 14.3729 12.5749 14.3729 12.4071C14.3729 12.2393 14.4376 12.0909 14.5669 11.9617L17.8009 8.72753C17.9163 8.61225 18.0591 8.55322 18.2294 8.55044C18.3998 8.54781 18.5497 8.60683 18.679 8.72753C18.8083 8.85683 18.873 9.00538 18.873 9.17315C18.873 9.34079 18.8083 9.48926 18.679 9.61857Z" fill="white"/>
</g>
</g>
<defs>
<filter id="filter0_di_1_9503" x="0.338889" y="0" width="29.3222" height="29.8278" filterUnits="userSpaceOnUse" color-interpolation-filters="sRGB">
<feFlood flood-opacity="0" result="BackgroundImageFix"/>
<feColorMatrix in="SourceAlpha" type="matrix" values="0 0 0 0 0 0 0 0 0 0 0 0 0 0 0 0 0 0 127 0" result="hardAlpha"/>
<feOffset dy="2.16667"/>
<feGaussianBlur stdDeviation="0.830555"/>
<feComposite in2="hardAlpha" operator="out"/>
<feColorMatrix type="matrix" values="0 0 0 0 0.598333 0 0 0 0 0.598333 0 0 0 0 0.598333 0 0 0 0.25 0"/>
<feBlend mode="normal" in2="BackgroundImageFix" result="effect1_dropShadow_1_9503"/>
<feBlend mode="normal" in="SourceGraphic" in2="effect1_dropShadow_1_9503" result="shape"/>
<feColorMatrix in="SourceAlpha" type="matrix" values="0 0 0 0 0 0 0 0 0 0 0 0 0 0 0 0 0 0 127 0" result="hardAlpha"/>
<feOffset dy="2.16667"/>
<feGaussianBlur stdDeviation="0.65"/>
<feComposite in2="hardAlpha" operator="arithmetic" k2="-1" k3="1"/>
<feColorMatrix type="matrix" values="0 0 0 0 1 0 0 0 0 1 0 0 0 0 1 0 0 0 0.35 0"/>
<feBlend mode="normal" in2="shape" result="effect2_innerShadow_1_9503"/>
</filter>
<linearGradient id="paint0_linear_1_9503" x1="15" y1="0" x2="15" y2="26" gradientUnits="userSpaceOnUse">
<stop stop-color="#556FF9"/>
<stop offset="1" stop-color="#5770F2"/>
</linearGradient>
</defs>
</svg>
