<svg width="18" height="18" viewBox="0 0 18 18" fill="none" xmlns="http://www.w3.org/2000/svg">
<path d="M9.00104 10.8658L2.46771 17.3991C2.22326 17.6435 1.91215 17.7658 1.53438 17.7658C1.1566 17.7658 0.845486 17.6435 0.601042 17.3991C0.356597 17.1546 0.234375 16.8435 0.234375 16.4658C0.234375 16.088 0.356597 15.7769 0.601042 15.5324L7.13438 8.99909L0.601042 2.46576C0.356597 2.22131 0.234375 1.9102 0.234375 1.53242C0.234375 1.15464 0.356597 0.843533 0.601042 0.599089C0.845486 0.354644 1.1566 0.232422 1.53438 0.232422C1.91215 0.232422 2.22326 0.354644 2.46771 0.599089L9.00104 7.13242L15.5344 0.599089C15.7788 0.354644 16.0899 0.232422 16.4677 0.232422C16.8455 0.232422 17.1566 0.354644 17.401 0.599089C17.6455 0.843533 17.7677 1.15464 17.7677 1.53242C17.7677 1.9102 17.6455 2.22131 17.401 2.46576L10.8677 8.99909L17.401 15.5324C17.6455 15.7769 17.7677 16.088 17.7677 16.4658C17.7677 16.8435 17.6455 17.1546 17.401 17.3991C17.1566 17.6435 16.8455 17.7658 16.4677 17.7658C16.0899 17.7658 15.7788 17.6435 15.5344 17.3991L9.00104 10.8658Z" fill="#1C1B1F"/>
</svg>
