<svg width="64" height="60" viewBox="0 0 64 60" fill="none" xmlns="http://www.w3.org/2000/svg">
<rect width="64" height="60" rx="6" fill="#F1F3FF"/>
<mask id="mask0_1_10282" style="mask-type:alpha" maskUnits="userSpaceOnUse" x="5" y="3" width="54" height="54">
<rect x="5" y="3" width="54" height="54" fill="#D9D9D9"/>
</mask>
<g mask="url(#mask0_1_10282)">
<path d="M37.4951 31.233H46.8843V28.6804H37.4951V31.233ZM37.4951 24.7429H46.8843V22.1897H37.4951V24.7429ZM17.1157 38.2209H33.5576V37.542C33.5576 36.1256 32.8364 34.989 31.3942 34.1321C29.9519 33.2756 27.9328 32.8474 25.3366 32.8474C22.7405 32.8474 20.7213 33.2756 19.2791 34.1321C17.8368 34.989 17.1157 36.1256 17.1157 37.542V38.2209ZM25.331 29.0826C26.3443 29.0826 27.2071 28.7282 27.9196 28.0194C28.6321 27.3107 28.9884 26.4497 28.9884 25.4364C28.9884 24.4232 28.634 23.5603 27.9253 22.8478C27.2161 22.1353 26.3551 21.7791 25.3423 21.7791C24.329 21.7791 23.4661 22.1334 22.7536 22.8422C22.0411 23.5509 21.6849 24.4119 21.6849 25.4252C21.6849 26.4384 22.0393 27.3013 22.748 28.0138C23.4567 28.7263 24.3178 29.0826 25.331 29.0826ZM13.8701 46.875C12.9877 46.875 12.2263 46.5547 11.5858 45.9142C10.9453 45.2738 10.625 44.5123 10.625 43.6299V16.3701C10.625 15.4877 10.9453 14.7263 11.5858 14.0858C12.2263 13.4453 12.9877 13.125 13.8701 13.125H50.1299C51.0123 13.125 51.7738 13.4453 52.4142 14.0858C53.0547 14.7263 53.375 15.4877 53.375 16.3701V43.6299C53.375 44.5123 53.0547 45.2738 52.4142 45.9142C51.7738 46.5547 51.0123 46.875 50.1299 46.875H13.8701ZM13.8701 44.3218H50.1299C50.3028 44.3218 50.4614 44.2498 50.6058 44.1058C50.7498 43.9614 50.8218 43.8028 50.8218 43.6299V16.3701C50.8218 16.1972 50.7498 16.0386 50.6058 15.8942C50.4614 15.7502 50.3028 15.6782 50.1299 15.6782H13.8701C13.6972 15.6782 13.5386 15.7502 13.3942 15.8942C13.2502 16.0386 13.1782 16.1972 13.1782 16.3701V43.6299C13.1782 43.8028 13.2502 43.9614 13.3942 44.1058C13.5386 44.2498 13.6972 44.3218 13.8701 44.3218Z" fill="#007AFF"/>
<path d="M37.4966 31.2332H46.8858V28.6806H37.4966V31.2332ZM37.4966 24.7431H46.8858V22.1899H37.4966V24.7431ZM17.1172 38.2212H33.5591V37.5422C33.5591 36.1259 32.8379 34.9892 31.3957 34.1324C29.9534 33.2759 27.9342 32.8476 25.3381 32.8476C22.742 32.8476 20.7228 33.2759 19.2806 34.1324C17.8383 34.9892 17.1172 36.1259 17.1172 37.5422V38.2212ZM25.3325 29.0828C26.3458 29.0828 27.2086 28.7284 27.9211 28.0197C28.6336 27.3109 28.9899 26.4499 28.9899 25.4367C28.9899 24.4234 28.6355 23.5605 27.9268 22.848C27.2176 22.1355 26.3566 21.7793 25.3438 21.7793C24.3305 21.7793 23.4676 22.1337 22.7551 22.8424C22.0426 23.5512 21.6864 24.4122 21.6864 25.4254C21.6864 26.4387 22.0407 27.3015 22.7495 28.014C23.4583 28.7265 24.3193 29.0828 25.3325 29.0828Z" fill="#B6C1FF"/>
</g>
</svg>
