<svg width="290" height="250" viewBox="0 0 290 250" fill="none" xmlns="http://www.w3.org/2000/svg">
<path d="M118.762 198V184.909H126.88V186.609H120.737V190.598H126.299V192.292H120.737V198H118.762ZM128.796 198V188.182H130.707V198H128.796ZM129.761 186.667C129.429 186.667 129.143 186.556 128.904 186.335C128.67 186.109 128.553 185.84 128.553 185.529C128.553 185.214 128.67 184.945 128.904 184.724C129.143 184.498 129.429 184.385 129.761 184.385C130.093 184.385 130.377 184.498 130.611 184.724C130.85 184.945 130.969 185.214 130.969 185.529C130.969 185.84 130.85 186.109 130.611 186.335C130.377 186.556 130.093 186.667 129.761 186.667ZM134.829 184.909V198H132.918V184.909H134.829ZM137.041 198V188.182H138.952V198H137.041ZM138.006 186.667C137.673 186.667 137.388 186.556 137.149 186.335C136.915 186.109 136.798 185.84 136.798 185.529C136.798 185.214 136.915 184.945 137.149 184.724C137.388 184.498 137.673 184.385 138.006 184.385C138.338 184.385 138.622 184.498 138.856 184.724C139.095 184.945 139.214 185.214 139.214 185.529C139.214 185.84 139.095 186.109 138.856 186.335C138.622 186.556 138.338 186.667 138.006 186.667ZM143.074 192.17V198H141.163V188.182H142.998V189.78H143.119C143.345 189.26 143.699 188.842 144.18 188.527C144.666 188.212 145.277 188.054 146.015 188.054C146.684 188.054 147.27 188.195 147.772 188.476C148.275 188.753 148.665 189.166 148.942 189.716C149.219 190.266 149.358 190.945 149.358 191.755V198H147.446V191.985C147.446 191.273 147.261 190.717 146.89 190.317C146.52 189.912 146.01 189.71 145.363 189.71C144.919 189.71 144.525 189.805 144.18 189.997C143.839 190.189 143.569 190.47 143.368 190.841C143.172 191.207 143.074 191.651 143.074 192.17ZM155.677 201.886C154.898 201.886 154.226 201.784 153.664 201.58C153.106 201.375 152.65 201.104 152.296 200.768C151.942 200.431 151.678 200.063 151.503 199.662L153.146 198.984C153.261 199.172 153.415 199.37 153.606 199.579C153.802 199.792 154.067 199.973 154.399 200.122C154.736 200.271 155.168 200.346 155.697 200.346C156.421 200.346 157.02 200.169 157.493 199.815C157.966 199.466 158.202 198.908 158.202 198.141V196.21H158.081C157.966 196.419 157.8 196.651 157.582 196.907C157.369 197.163 157.075 197.384 156.7 197.572C156.325 197.759 155.837 197.853 155.236 197.853C154.461 197.853 153.762 197.672 153.14 197.31C152.522 196.943 152.032 196.404 151.67 195.692C151.312 194.977 151.133 194.097 151.133 193.053C151.133 192.009 151.309 191.114 151.663 190.368C152.021 189.622 152.511 189.051 153.133 188.655C153.755 188.254 154.461 188.054 155.249 188.054C155.858 188.054 156.351 188.156 156.726 188.361C157.101 188.561 157.393 188.795 157.601 189.064C157.814 189.332 157.979 189.569 158.094 189.773H158.234V188.182H160.107V198.217C160.107 199.061 159.911 199.754 159.519 200.295C159.127 200.836 158.596 201.237 157.927 201.496C157.263 201.756 156.513 201.886 155.677 201.886ZM155.658 196.268C156.208 196.268 156.672 196.14 157.052 195.884C157.435 195.624 157.725 195.254 157.921 194.772C158.121 194.286 158.221 193.705 158.221 193.027C158.221 192.366 158.123 191.785 157.927 191.282C157.731 190.779 157.444 190.387 157.064 190.106C156.685 189.82 156.216 189.678 155.658 189.678C155.083 189.678 154.604 189.827 154.22 190.125C153.836 190.419 153.547 190.82 153.351 191.327C153.159 191.834 153.063 192.401 153.063 193.027C153.063 193.67 153.161 194.235 153.357 194.721C153.553 195.207 153.843 195.586 154.226 195.859C154.614 196.131 155.091 196.268 155.658 196.268ZM169.668 190.579L167.935 190.886C167.863 190.664 167.748 190.453 167.59 190.253C167.437 190.053 167.228 189.888 166.964 189.761C166.699 189.633 166.369 189.569 165.973 189.569C165.432 189.569 164.98 189.69 164.618 189.933C164.256 190.172 164.074 190.481 164.074 190.86C164.074 191.188 164.196 191.452 164.439 191.653C164.682 191.853 165.074 192.017 165.615 192.145L167.175 192.503C168.078 192.712 168.751 193.033 169.195 193.468C169.638 193.903 169.859 194.467 169.859 195.162C169.859 195.75 169.689 196.274 169.348 196.734C169.011 197.19 168.54 197.548 167.935 197.808C167.334 198.068 166.638 198.198 165.845 198.198C164.746 198.198 163.849 197.964 163.154 197.495C162.459 197.022 162.033 196.351 161.876 195.482L163.723 195.2C163.838 195.682 164.074 196.046 164.432 196.293C164.79 196.536 165.257 196.658 165.832 196.658C166.459 196.658 166.959 196.528 167.334 196.268C167.709 196.004 167.897 195.682 167.897 195.303C167.897 194.996 167.782 194.738 167.552 194.529C167.326 194.32 166.979 194.163 166.51 194.056L164.848 193.692C163.932 193.483 163.254 193.151 162.815 192.695C162.381 192.239 162.163 191.661 162.163 190.962C162.163 190.383 162.325 189.876 162.649 189.441C162.973 189.006 163.42 188.668 163.991 188.425C164.562 188.178 165.217 188.054 165.954 188.054C167.015 188.054 167.85 188.284 168.459 188.744C169.069 189.2 169.471 189.812 169.668 190.579ZM92.7724 220V206.909H100.98V208.609H94.7475V212.598H100.552V214.292H94.7475V218.3H101.056V220H92.7724ZM111.504 210.182L107.943 220H105.898L102.331 210.182H104.383L106.87 217.737H106.972L109.452 210.182H111.504ZM116.838 220.198C115.87 220.198 115.037 219.991 114.338 219.578C113.644 219.161 113.107 218.575 112.727 217.82C112.352 217.062 112.165 216.173 112.165 215.155C112.165 214.149 112.352 213.263 112.727 212.496C113.107 211.729 113.635 211.13 114.313 210.7C114.995 210.269 115.791 210.054 116.703 210.054C117.257 210.054 117.794 210.146 118.314 210.329C118.834 210.512 119.301 210.8 119.714 211.192C120.127 211.584 120.453 212.093 120.692 212.719C120.931 213.342 121.05 214.098 121.05 214.989V215.666H113.245V214.234H119.177C119.177 213.732 119.075 213.286 118.87 212.898C118.666 212.506 118.378 212.197 118.007 211.972C117.641 211.746 117.21 211.633 116.716 211.633C116.179 211.633 115.71 211.765 115.31 212.029C114.914 212.289 114.607 212.63 114.389 213.052C114.176 213.469 114.07 213.923 114.07 214.413V215.532C114.07 216.188 114.185 216.746 114.415 217.207C114.649 217.667 114.975 218.018 115.393 218.261C115.811 218.5 116.298 218.619 116.857 218.619C117.219 218.619 117.549 218.568 117.847 218.466C118.146 218.359 118.404 218.202 118.621 217.993C118.838 217.784 119.004 217.526 119.12 217.219L120.928 217.545C120.784 218.078 120.524 218.545 120.149 218.945C119.778 219.342 119.311 219.651 118.749 219.872C118.191 220.089 117.553 220.198 116.838 220.198ZM122.81 220V210.182H124.658V211.741H124.76C124.939 211.213 125.254 210.798 125.706 210.495C126.162 210.188 126.678 210.035 127.253 210.035C127.372 210.035 127.513 210.039 127.675 210.048C127.841 210.056 127.971 210.067 128.065 210.08V211.908C127.988 211.886 127.852 211.863 127.656 211.837C127.46 211.808 127.264 211.793 127.068 211.793C126.616 211.793 126.213 211.888 125.859 212.08C125.51 212.268 125.233 212.53 125.029 212.866C124.824 213.199 124.722 213.578 124.722 214.004V220H122.81ZM130.866 223.682C130.58 223.682 130.32 223.658 130.086 223.612C129.851 223.569 129.677 223.522 129.562 223.471L130.022 221.905C130.371 221.999 130.682 222.039 130.955 222.026C131.228 222.013 131.469 221.911 131.677 221.719C131.89 221.528 132.078 221.214 132.24 220.78L132.476 220.128L128.884 210.182H130.93L133.416 217.801H133.518L136.005 210.182H138.057L134.01 221.31C133.823 221.822 133.584 222.254 133.295 222.608C133.005 222.966 132.66 223.234 132.259 223.413C131.858 223.592 131.394 223.682 130.866 223.682ZM144.05 206.909H146.447L150.615 217.085H150.768L154.936 206.909H157.333V220H155.453V210.527H155.332L151.471 219.981H149.911L146.051 210.521H145.929V220H144.05V206.909ZM163.826 220.198C162.906 220.198 162.103 219.987 161.417 219.565C160.731 219.143 160.198 218.553 159.819 217.795C159.439 217.036 159.25 216.15 159.25 215.136C159.25 214.117 159.439 213.227 159.819 212.464C160.198 211.701 160.731 211.109 161.417 210.687C162.103 210.265 162.906 210.054 163.826 210.054C164.747 210.054 165.55 210.265 166.236 210.687C166.922 211.109 167.455 211.701 167.834 212.464C168.214 213.227 168.403 214.117 168.403 215.136C168.403 216.15 168.214 217.036 167.834 217.795C167.455 218.553 166.922 219.143 166.236 219.565C165.55 219.987 164.747 220.198 163.826 220.198ZM163.833 218.594C164.429 218.594 164.924 218.436 165.316 218.121C165.708 217.805 165.998 217.386 166.185 216.862C166.377 216.337 166.473 215.76 166.473 215.129C166.473 214.503 166.377 213.928 166.185 213.403C165.998 212.875 165.708 212.451 165.316 212.131C164.924 211.812 164.429 211.652 163.833 211.652C163.232 211.652 162.733 211.812 162.337 212.131C161.945 212.451 161.653 212.875 161.461 213.403C161.274 213.928 161.18 214.503 161.18 215.129C161.18 215.76 161.274 216.337 161.461 216.862C161.653 217.386 161.945 217.805 162.337 218.121C162.733 218.436 163.232 218.594 163.833 218.594ZM172.088 214.17V220H170.176V210.182H172.011V211.78H172.132C172.358 211.26 172.712 210.842 173.194 210.527C173.679 210.212 174.291 210.054 175.028 210.054C175.697 210.054 176.283 210.195 176.786 210.476C177.289 210.753 177.679 211.166 177.956 211.716C178.233 212.266 178.371 212.945 178.371 213.755V220H176.46V213.985C176.46 213.273 176.274 212.717 175.904 212.317C175.533 211.912 175.024 211.71 174.376 211.71C173.933 211.71 173.539 211.805 173.194 211.997C172.853 212.189 172.582 212.47 172.382 212.841C172.186 213.207 172.088 213.651 172.088 214.17ZM185.157 210.182V211.716H179.794V210.182H185.157ZM181.233 207.83H183.144V217.117C183.144 217.488 183.199 217.767 183.31 217.955C183.421 218.138 183.564 218.263 183.738 218.332C183.917 218.396 184.111 218.428 184.32 218.428C184.473 218.428 184.608 218.417 184.723 218.396C184.838 218.374 184.927 218.357 184.991 218.344L185.336 219.923C185.226 219.966 185.068 220.009 184.863 220.051C184.659 220.098 184.403 220.124 184.096 220.128C183.593 220.136 183.125 220.047 182.69 219.859C182.255 219.672 181.904 219.382 181.635 218.99C181.367 218.598 181.233 218.106 181.233 217.513V207.83ZM189.034 214.17V220H187.122V206.909H189.008V211.78H189.13C189.36 211.251 189.711 210.832 190.184 210.521C190.657 210.21 191.275 210.054 192.038 210.054C192.711 210.054 193.299 210.192 193.802 210.469C194.309 210.746 194.701 211.16 194.978 211.71C195.26 212.255 195.4 212.937 195.4 213.755V220H193.489V213.985C193.489 213.265 193.304 212.707 192.933 212.31C192.562 211.91 192.046 211.71 191.386 211.71C190.934 211.71 190.529 211.805 190.171 211.997C189.818 212.189 189.539 212.47 189.334 212.841C189.134 213.207 189.034 213.651 189.034 214.17Z" fill="black"/>
<path d="M88.4581 160V156.574L97.5476 147.663C98.4169 146.786 99.1413 146.006 99.7209 145.324C100.3 144.642 100.735 143.982 101.025 143.342C101.315 142.703 101.46 142.021 101.46 141.297C101.46 140.47 101.272 139.763 100.897 139.175C100.522 138.578 100.006 138.118 99.3502 137.794C98.6939 137.47 97.9482 137.308 97.1129 137.308C96.2521 137.308 95.4979 137.487 94.8502 137.845C94.2024 138.195 93.6996 138.693 93.3416 139.341C92.9922 139.989 92.8175 140.76 92.8175 141.655H88.3047C88.3047 139.993 88.684 138.548 89.4425 137.321C90.201 136.094 91.245 135.143 92.5746 134.47C93.9127 133.797 95.4467 133.46 97.1769 133.46C98.9325 133.46 100.475 133.788 101.805 134.445C103.134 135.101 104.165 136 104.898 137.142C105.64 138.284 106.011 139.588 106.011 141.054C106.011 142.034 105.823 142.997 105.448 143.943C105.073 144.889 104.413 145.937 103.467 147.088C102.529 148.239 101.212 149.632 99.5163 151.268L95.0036 155.858V156.037H106.407V160H88.4581ZM119.775 160.499C117.67 160.499 115.863 159.966 114.355 158.901C112.855 157.827 111.7 156.28 110.89 154.26C110.089 152.232 109.688 149.79 109.688 146.935C109.697 144.08 110.102 141.651 110.903 139.648C111.713 137.636 112.867 136.102 114.367 135.045C115.876 133.989 117.678 133.46 119.775 133.46C121.872 133.46 123.674 133.989 125.183 135.045C126.691 136.102 127.846 137.636 128.647 139.648C129.457 141.659 129.862 144.088 129.862 146.935C129.862 149.798 129.457 152.244 128.647 154.273C127.846 156.293 126.691 157.835 125.183 158.901C123.683 159.966 121.88 160.499 119.775 160.499ZM119.775 156.497C121.411 156.497 122.703 155.692 123.649 154.081C124.603 152.462 125.08 150.08 125.08 146.935C125.08 144.855 124.863 143.108 124.428 141.693C123.994 140.278 123.38 139.213 122.588 138.497C121.795 137.773 120.857 137.411 119.775 137.411C118.147 137.411 116.86 138.22 115.914 139.839C114.968 141.45 114.491 143.815 114.482 146.935C114.474 149.023 114.683 150.778 115.109 152.202C115.544 153.625 116.157 154.699 116.95 155.423C117.742 156.139 118.684 156.497 119.775 156.497ZM143.067 160.499C140.962 160.499 139.155 159.966 137.646 158.901C136.146 157.827 134.991 156.28 134.182 154.26C133.381 152.232 132.98 149.79 132.98 146.935C132.989 144.08 133.393 141.651 134.195 139.648C135.004 137.636 136.159 136.102 137.659 135.045C139.168 133.989 140.97 133.46 143.067 133.46C145.163 133.46 146.966 133.989 148.474 135.045C149.983 136.102 151.138 137.636 151.939 139.648C152.749 141.659 153.153 144.088 153.153 146.935C153.153 149.798 152.749 152.244 151.939 154.273C151.138 156.293 149.983 157.835 148.474 158.901C146.974 159.966 145.172 160.499 143.067 160.499ZM143.067 156.497C144.703 156.497 145.994 155.692 146.94 154.081C147.895 152.462 148.372 150.08 148.372 146.935C148.372 144.855 148.155 143.108 147.72 141.693C147.286 140.278 146.672 139.213 145.879 138.497C145.087 137.773 144.149 137.411 143.067 137.411C141.439 137.411 140.152 138.22 139.206 139.839C138.26 141.45 137.783 143.815 137.774 146.935C137.766 149.023 137.974 150.778 138.401 152.202C138.835 153.625 139.449 154.699 140.241 155.423C141.034 156.139 141.976 156.497 143.067 156.497ZM166.358 160.499C164.253 160.499 162.447 159.966 160.938 158.901C159.438 157.827 158.283 156.28 157.474 154.26C156.672 152.232 156.272 149.79 156.272 146.935C156.28 144.08 156.685 141.651 157.486 139.648C158.296 137.636 159.451 136.102 160.951 135.045C162.459 133.989 164.262 133.46 166.358 133.46C168.455 133.46 170.258 133.989 171.766 135.045C173.275 136.102 174.43 137.636 175.231 139.648C176.04 141.659 176.445 144.088 176.445 146.935C176.445 149.798 176.04 152.244 175.231 154.273C174.43 156.293 173.275 157.835 171.766 158.901C170.266 159.966 168.464 160.499 166.358 160.499ZM166.358 156.497C167.995 156.497 169.286 155.692 170.232 154.081C171.187 152.462 171.664 150.08 171.664 146.935C171.664 144.855 171.447 143.108 171.012 141.693C170.577 140.278 169.964 139.213 169.171 138.497C168.378 137.773 167.441 137.411 166.358 137.411C164.731 137.411 163.444 138.22 162.498 139.839C161.552 141.45 161.074 143.815 161.066 146.935C161.057 149.023 161.266 150.778 161.692 152.202C162.127 153.625 162.741 154.699 163.533 155.423C164.326 156.139 165.268 156.497 166.358 156.497ZM187.745 155.807V138.114H191.76V155.807H187.745ZM180.906 148.967V144.953H198.599V148.967H180.906Z" fill="#556FF9"/>
<mask id="mask0_1_9676" style="mask-type:alpha" maskUnits="userSpaceOnUse" x="108" y="20" width="74" height="74">
<rect x="108" y="20" width="74" height="74" fill="#D9D9D9"/>
</mask>
<g mask="url(#mask0_1_9676)">
<path d="M135.139 74.1654H154.861C155.357 74.1654 155.773 73.9968 156.108 73.6597C156.442 73.3221 156.61 72.903 156.61 72.4025C156.61 71.9019 156.442 71.4875 156.108 71.1591C155.773 70.8313 155.357 70.6673 154.861 70.6673H135.139C134.643 70.6673 134.227 70.8359 133.892 71.173C133.558 71.5106 133.39 71.9297 133.39 72.4302C133.39 72.9307 133.558 73.3452 133.892 73.6736C134.227 74.0014 134.643 74.1654 135.139 74.1654ZM135.139 61.2686H154.861C155.357 61.2686 155.773 61.1 156.108 60.7629C156.442 60.4253 156.61 60.0062 156.61 59.5057C156.61 59.0051 156.442 58.5909 156.108 58.2631C155.773 57.9347 155.357 57.7705 154.861 57.7705H135.139C134.643 57.7705 134.227 57.9393 133.892 58.2769C133.558 58.6141 133.39 59.0329 133.39 59.5334C133.39 60.0344 133.558 60.4489 133.892 60.7768C134.227 61.1046 134.643 61.2686 135.139 61.2686ZM126.322 86.2913C125.113 86.2913 124.069 85.8525 123.192 84.9748C122.314 84.097 121.875 83.0536 121.875 81.8444V32.1549C121.875 30.9458 122.314 29.9023 123.192 29.0246C124.069 28.1469 125.113 27.708 126.322 27.708H151.274C151.893 27.708 152.478 27.8316 153.028 28.0788C153.578 28.326 154.059 28.6451 154.47 29.0362L166.797 41.3633C167.188 41.7744 167.507 42.2549 167.754 42.8048C168.001 43.3552 168.125 43.94 168.125 44.5592V81.8444C168.125 83.0536 167.686 84.097 166.808 84.9748C165.931 85.8525 164.887 86.2913 163.678 86.2913H126.322ZM151.362 42.0748V31.2068H126.322C126.085 31.2068 125.868 31.3055 125.67 31.5028C125.472 31.7007 125.374 31.918 125.374 32.1549V81.8444C125.374 82.0813 125.472 82.2987 125.67 82.4965C125.868 82.6939 126.085 82.7925 126.322 82.7925H163.678C163.915 82.7925 164.132 82.6939 164.33 82.4965C164.528 82.2987 164.626 82.0813 164.626 81.8444V44.2987H153.586C152.97 44.2987 152.445 44.082 152.012 43.6488C151.579 43.2151 151.362 42.6904 151.362 42.0748Z" fill="#B6C1FF"/>
<path d="M126.322 86.2923C125.113 86.2923 124.069 85.8535 123.192 84.9757C122.314 84.098 121.875 83.0546 121.875 81.8454V32.1559C121.875 30.9467 122.314 29.9033 123.192 29.0256C124.069 28.1478 125.113 27.709 126.322 27.709H151.274C151.893 27.709 152.478 27.8326 153.028 28.0798C153.578 28.3269 154.059 28.6461 154.47 29.0371L166.797 41.3643C167.188 41.7754 167.507 42.2559 167.754 42.8058C168.001 43.3561 168.125 43.9409 168.125 44.5602V81.8454C168.125 83.0546 167.686 84.098 166.808 84.9757C165.931 85.8535 164.887 86.2923 163.678 86.2923H126.322ZM151.362 42.0758V31.2078H126.322C126.085 31.2078 125.868 31.3065 125.67 31.5038C125.472 31.7016 125.374 31.919 125.374 32.1559V81.8454C125.374 82.0823 125.472 82.2997 125.67 82.4975C125.868 82.6948 126.085 82.7935 126.322 82.7935H163.678C163.915 82.7935 164.132 82.6948 164.33 82.4975C164.528 82.2997 164.626 82.0823 164.626 81.8454V44.2996H153.586C152.97 44.2996 152.445 44.083 152.012 43.6498C151.579 43.2161 151.362 42.6914 151.362 42.0758Z" fill="#556FF9"/>
</g>
</svg>
