<svg width="64" height="64" viewBox="0 0 64 64" fill="none" xmlns="http://www.w3.org/2000/svg">
<g filter="url(#filter0_di_1_9537)">
<g clip-path="url(#clip0_1_9537)">
<rect x="2" width="60" height="60" rx="4.33333" fill="url(#paint0_linear_1_9537)"/>
<g filter="url(#filter1_f_1_9537)">
<ellipse cx="32.5" cy="59.5" rx="29.5" ry="11.5" fill="white" fill-opacity="0.49"/>
</g>
<g filter="url(#filter2_d_1_9537)">
<path d="M30.95 24.4496L27.8 21.2996C27.5 20.9996 27.35 20.6496 27.35 20.2496C27.35 19.8496 27.5 19.4996 27.8 19.1996L30.95 16.0496C31.25 15.7496 31.6 15.5996 32 15.5996C32.4 15.5996 32.75 15.7496 33.05 16.0496L36.2 19.1996C36.5 19.4996 36.65 19.8496 36.65 20.2496C36.65 20.6496 36.5 20.9996 36.2 21.2996L33.05 24.4496C32.75 24.7496 32.4 24.8996 32 24.8996C31.6 24.8996 31.25 24.7496 30.95 24.4496ZM17 41.9996C16.575 41.9996 16.2188 41.8559 15.9312 41.5684C15.6437 41.2809 15.5 40.9246 15.5 40.4996V35.9996C15.5 35.1496 15.7938 34.4371 16.3813 33.8621C16.9688 33.2871 17.675 32.9996 18.5 32.9996H23.4125C23.9125 32.9996 24.3875 33.1246 24.8375 33.3746C25.2875 33.6246 25.65 33.9621 25.925 34.3871C26.65 35.3621 27.5437 36.1246 28.6063 36.6746C29.6688 37.2246 30.8 37.4996 32 37.4996C33.225 37.4996 34.3687 37.2246 35.4313 36.6746C36.4938 36.1246 37.375 35.3621 38.075 34.3871C38.4 33.9621 38.7812 33.6246 39.2188 33.3746C39.6562 33.1246 40.1125 32.9996 40.5875 32.9996H45.5C46.35 32.9996 47.0625 33.2871 47.6375 33.8621C48.2125 34.4371 48.5 35.1496 48.5 35.9996V40.4996C48.5 40.9246 48.3563 41.2809 48.0687 41.5684C47.7812 41.8559 47.425 41.9996 47 41.9996H39.5C39.075 41.9996 38.7188 41.8559 38.4313 41.5684C38.1438 41.2809 38 40.9246 38 40.4996V38.5871C37.125 39.2121 36.1812 39.6871 35.1688 40.0121C34.1562 40.3371 33.1 40.4996 32 40.4996C30.925 40.4996 29.875 40.3309 28.85 39.9934C27.825 39.6559 26.875 39.1746 26 38.5496V40.4996C26 40.9246 25.8562 41.2809 25.5688 41.5684C25.2812 41.8559 24.925 41.9996 24.5 41.9996H17ZM20 31.4996C18.75 31.4996 17.6875 31.0621 16.8125 30.1871C15.9375 29.3121 15.5 28.2496 15.5 26.9996C15.5 25.7246 15.9375 24.6559 16.8125 23.7934C17.6875 22.9309 18.75 22.4996 20 22.4996C21.275 22.4996 22.3438 22.9309 23.2063 23.7934C24.0688 24.6559 24.5 25.7246 24.5 26.9996C24.5 28.2496 24.0688 29.3121 23.2063 30.1871C22.3438 31.0621 21.275 31.4996 20 31.4996ZM44 31.4996C42.75 31.4996 41.6875 31.0621 40.8125 30.1871C39.9375 29.3121 39.5 28.2496 39.5 26.9996C39.5 25.7246 39.9375 24.6559 40.8125 23.7934C41.6875 22.9309 42.75 22.4996 44 22.4996C45.275 22.4996 46.3438 22.9309 47.2063 23.7934C48.0688 24.6559 48.5 25.7246 48.5 26.9996C48.5 28.2496 48.0688 29.3121 47.2063 30.1871C46.3438 31.0621 45.275 31.4996 44 31.4996Z" fill="white"/>
<path d="M37.6778 34.0834L37.6732 34.0894L37.6688 34.0955C37.0146 35.0067 36.1937 35.7169 35.2014 36.2306C34.2117 36.7429 33.147 36.9996 32 36.9996C30.8797 36.9996 29.8273 36.7437 28.8361 36.2306C27.8466 35.7184 27.0142 35.0102 26.3354 34.1011C26.0163 33.6128 25.5957 33.2238 25.0803 32.9375C24.5583 32.6475 24.0001 32.4996 23.4125 32.4996H18.5C17.5448 32.4996 16.7128 32.838 16.0315 33.5048C15.3443 34.1774 15 35.0203 15 35.9996V40.4996C15 41.0505 15.1918 41.536 15.5777 41.9219C15.9636 42.3078 16.4491 42.4996 17 42.4996H24.5C25.0509 42.4996 25.5364 42.3078 25.9223 41.9219C26.3082 41.536 26.5 41.0505 26.5 40.4996V39.4723C27.1907 39.8822 27.9222 40.2143 28.6936 40.4683C29.7689 40.8223 30.8717 40.9996 32 40.9996C33.1501 40.9996 34.258 40.8296 35.3216 40.4882C36.0852 40.2431 36.8115 39.9166 37.5 39.5092V40.4996C37.5 41.0505 37.6918 41.536 38.0777 41.9219C38.4636 42.3078 38.9491 42.4996 39.5 42.4996H47C47.5509 42.4996 48.0364 42.3078 48.4223 41.9219C48.8082 41.536 49 41.0505 49 40.4996V35.9996C49 35.0237 48.6645 34.182 47.9911 33.5086C47.3177 32.8352 46.4759 32.4996 45.5 32.4996H40.5875C40.0202 32.4996 39.479 32.65 38.9707 32.9405C38.4718 33.2256 38.0408 33.6087 37.6778 34.0834ZM27.4464 21.6532L30.5964 24.8032C30.9839 25.1906 31.4587 25.3996 32 25.3996C32.5413 25.3996 33.0161 25.1906 33.4036 24.8032L36.5536 21.6532C36.941 21.2657 37.15 20.7909 37.15 20.2496C37.15 19.7083 36.941 19.2335 36.5536 18.8461L33.4036 15.6961C33.0161 15.3086 32.5413 15.0996 32 15.0996C31.4587 15.0996 30.9839 15.3086 30.5964 15.6961L27.4464 18.8461C27.059 19.2335 26.85 19.7083 26.85 20.2496C26.85 20.7909 27.059 21.2657 27.4464 21.6532ZM16.4589 30.5407C17.4288 31.5105 18.6189 31.9996 20 31.9996C21.4032 31.9996 22.602 31.5124 23.5623 30.5381C24.5188 29.5678 25 28.3784 25 26.9996C25 25.5987 24.5207 24.4007 23.5598 23.4398C22.5989 22.4789 21.4009 21.9996 20 21.9996C18.6212 21.9996 17.4319 22.4808 16.4615 23.4373C15.4872 24.3976 15 25.5964 15 26.9996C15 28.3807 15.4891 29.5708 16.4589 30.5407ZM40.4589 30.5407C41.4288 31.5105 42.6189 31.9996 44 31.9996C45.4032 31.9996 46.602 31.5124 47.5623 30.5381C48.5188 29.5678 49 28.3784 49 26.9996C49 25.5987 48.5207 24.4007 47.5598 23.4398C46.5989 22.4789 45.4009 21.9996 44 21.9996C42.6212 21.9996 41.4319 22.4808 40.4615 23.4373C39.4872 24.3976 39 25.5964 39 26.9996C39 28.3807 39.4891 29.5708 40.4589 30.5407Z" stroke="url(#paint1_linear_1_9537)"/>
</g>
</g>
<rect x="2.36111" y="0.361111" width="59.2778" height="59.2778" rx="3.97222" stroke="black" stroke-opacity="0.15" stroke-width="0.722222"/>
</g>
<defs>
<filter id="filter0_di_1_9537" x="0.338889" y="0" width="63.3222" height="63.8278" filterUnits="userSpaceOnUse" color-interpolation-filters="sRGB">
<feFlood flood-opacity="0" result="BackgroundImageFix"/>
<feColorMatrix in="SourceAlpha" type="matrix" values="0 0 0 0 0 0 0 0 0 0 0 0 0 0 0 0 0 0 127 0" result="hardAlpha"/>
<feOffset dy="2.16667"/>
<feGaussianBlur stdDeviation="0.830555"/>
<feComposite in2="hardAlpha" operator="out"/>
<feColorMatrix type="matrix" values="0 0 0 0 0.598333 0 0 0 0 0.598333 0 0 0 0 0.598333 0 0 0 0.25 0"/>
<feBlend mode="normal" in2="BackgroundImageFix" result="effect1_dropShadow_1_9537"/>
<feBlend mode="normal" in="SourceGraphic" in2="effect1_dropShadow_1_9537" result="shape"/>
<feColorMatrix in="SourceAlpha" type="matrix" values="0 0 0 0 0 0 0 0 0 0 0 0 0 0 0 0 0 0 127 0" result="hardAlpha"/>
<feOffset dy="2.16667"/>
<feGaussianBlur stdDeviation="0.65"/>
<feComposite in2="hardAlpha" operator="arithmetic" k2="-1" k3="1"/>
<feColorMatrix type="matrix" values="0 0 0 0 1 0 0 0 0 1 0 0 0 0 1 0 0 0 0.35 0"/>
<feBlend mode="normal" in2="shape" result="effect2_innerShadow_1_9537"/>
</filter>
<filter id="filter1_f_1_9537" x="-11.2" y="33.8" width="87.4" height="51.4" filterUnits="userSpaceOnUse" color-interpolation-filters="sRGB">
<feFlood flood-opacity="0" result="BackgroundImageFix"/>
<feBlend mode="normal" in="SourceGraphic" in2="BackgroundImageFix" result="shape"/>
<feGaussianBlur stdDeviation="7.1" result="effect1_foregroundBlur_1_9537"/>
</filter>
<filter id="filter2_d_1_9537" x="10.5" y="14.5996" width="43" height="36.4004" filterUnits="userSpaceOnUse" color-interpolation-filters="sRGB">
<feFlood flood-opacity="0" result="BackgroundImageFix"/>
<feColorMatrix in="SourceAlpha" type="matrix" values="0 0 0 0 0 0 0 0 0 0 0 0 0 0 0 0 0 0 127 0" result="hardAlpha"/>
<feOffset dy="4"/>
<feGaussianBlur stdDeviation="2"/>
<feComposite in2="hardAlpha" operator="out"/>
<feColorMatrix type="matrix" values="0 0 0 0 0 0 0 0 0 0 0 0 0 0 0 0 0 0 0.25 0"/>
<feBlend mode="normal" in2="BackgroundImageFix" result="effect1_dropShadow_1_9537"/>
<feBlend mode="normal" in="SourceGraphic" in2="effect1_dropShadow_1_9537" result="shape"/>
</filter>
<linearGradient id="paint0_linear_1_9537" x1="32" y1="0" x2="32" y2="60" gradientUnits="userSpaceOnUse">
<stop stop-color="#556FF9"/>
<stop offset="1" stop-color="#5770F2"/>
</linearGradient>
<linearGradient id="paint1_linear_1_9537" x1="32" y1="15.5996" x2="32" y2="41.9996" gradientUnits="userSpaceOnUse">
<stop stop-color="white"/>
<stop offset="1" stop-color="#007AFF"/>
</linearGradient>
<clipPath id="clip0_1_9537">
<rect x="2" width="60" height="60" rx="4.33333" fill="white"/>
</clipPath>
</defs>
</svg>
