<svg width="147" height="30" viewBox="0 0 147 30" fill="none" xmlns="http://www.w3.org/2000/svg">
<path d="M17 0L142.129 0C143.834 0 144.687 0 145.338 0.331795C145.911 0.62365 146.376 1.08935 146.668 1.66215C147 2.31333 147 3.16578 147 4.87067V25.1293C147 26.8342 147 27.6867 146.668 28.3379C146.376 28.9107 145.911 29.3764 145.338 29.6682C144.687 30 143.834 30 142.129 30L17 30V0Z" fill="#312ECB"/>
<path d="M36.4322 12.5895C36.3256 12.2443 36.1786 11.9354 35.9911 11.6626C35.8079 11.3857 35.5863 11.1491 35.3263 10.9531C35.0707 10.7571 34.7766 10.6101 34.4442 10.5121C34.1119 10.4098 33.7496 10.3587 33.3576 10.3587C32.6545 10.3587 32.0281 10.5355 31.4783 10.8892C30.9286 11.2429 30.4961 11.7628 30.1808 12.4489C29.8697 13.1307 29.7141 13.9616 29.7141 14.9418C29.7141 15.9304 29.8697 16.7678 30.1808 17.4538C30.4918 18.1399 30.9244 18.6619 31.4783 19.0199C32.0323 19.3736 32.6758 19.5504 33.4087 19.5504C34.0735 19.5504 34.6488 19.4226 35.1346 19.1669C35.6246 18.9112 36.0018 18.549 36.266 18.0803C36.5302 17.6072 36.6623 17.0533 36.6623 16.4183L37.1992 16.5014H33.6452V14.6477H38.957V16.2202C38.957 17.3409 38.7184 18.3104 38.2411 19.1286C37.7638 19.9467 37.1076 20.5774 36.2724 21.0206C35.4371 21.4595 34.4783 21.679 33.396 21.679C32.19 21.679 31.131 21.4084 30.2191 20.8672C29.3114 20.3217 28.6019 19.5483 28.0906 18.5469C27.5835 17.5412 27.3299 16.348 27.3299 14.9673C27.3299 13.9105 27.479 12.9666 27.7773 12.1357C28.0799 11.3047 28.5018 10.5994 29.043 10.0199C29.5842 9.43608 30.2191 8.9929 30.9478 8.69034C31.6765 8.38352 32.4691 8.23011 33.3256 8.23011C34.0501 8.23011 34.7255 8.33665 35.3519 8.54972C35.9783 8.75852 36.5344 9.05682 37.0202 9.4446C37.5103 9.83239 37.913 10.2926 38.2283 10.8253C38.5437 11.358 38.7504 11.946 38.8484 12.5895H36.4322ZM44.5945 21.6918C43.6101 21.6918 42.76 21.4872 42.0441 21.0781C41.3324 20.6648 40.7848 20.081 40.4013 19.3267C40.0178 18.5682 39.826 17.6754 39.826 16.6484C39.826 15.6385 40.0178 14.7521 40.4013 13.9893C40.7891 13.2223 41.3303 12.6257 42.0249 12.1996C42.7195 11.7692 43.5355 11.554 44.473 11.554C45.0782 11.554 45.6492 11.652 46.1861 11.848C46.7273 12.0398 47.2046 12.3381 47.6179 12.7429C48.0355 13.1477 48.3637 13.6634 48.6023 14.2898C48.8409 14.9119 48.9603 15.6534 48.9603 16.5142V17.2237H40.9127V15.6641H46.7422C46.738 15.2209 46.6421 14.8267 46.4546 14.4815C46.2671 14.1321 46.005 13.8572 45.6684 13.657C45.336 13.4567 44.9482 13.3565 44.505 13.3565C44.032 13.3565 43.6165 13.4716 43.2586 13.7017C42.9006 13.9276 42.6215 14.2259 42.4212 14.5966C42.2252 14.9631 42.125 15.3658 42.1208 15.8047V17.1662C42.1208 17.7372 42.2252 18.2273 42.434 18.6364C42.6428 19.0412 42.9347 19.3523 43.3097 19.5696C43.6847 19.7827 44.1236 19.8892 44.6265 19.8892C44.9631 19.8892 45.2678 19.8423 45.5405 19.7486C45.8132 19.6506 46.0498 19.5078 46.25 19.3203C46.4503 19.1328 46.6016 18.9006 46.7039 18.6236L48.8644 18.8665C48.728 19.4375 48.4681 19.9361 48.0846 20.3622C47.7053 20.7841 47.2195 21.1122 46.6272 21.3466C46.0348 21.5767 45.3573 21.6918 44.5945 21.6918ZM54.9205 11.6818V13.4716H49.2764V11.6818H54.9205ZM50.6698 9.32955H52.9837V18.5469C52.9837 18.858 53.0306 19.0966 53.1244 19.2628C53.2224 19.4247 53.3502 19.5355 53.5079 19.5952C53.6656 19.6548 53.8403 19.6847 54.032 19.6847C54.1769 19.6847 54.309 19.674 54.4283 19.6527C54.5519 19.6314 54.6457 19.6122 54.7096 19.5952L55.0995 21.4041C54.9759 21.4467 54.7991 21.4936 54.569 21.5447C54.3431 21.5959 54.0661 21.6257 53.738 21.6342C53.1585 21.6513 52.6364 21.5639 52.1719 21.3722C51.7075 21.1761 51.3389 20.8736 51.0661 20.4645C50.7977 20.0554 50.6656 19.544 50.6698 18.9304V9.32955ZM67.2805 14.277L65.1711 14.5071C65.1115 14.294 65.0071 14.0937 64.8579 13.9062C64.713 13.7188 64.517 13.5675 64.2699 13.4524C64.0227 13.3374 63.7201 13.2798 63.3622 13.2798C62.8806 13.2798 62.4758 13.3842 62.1477 13.593C61.8238 13.8018 61.664 14.0724 61.6683 14.4048C61.664 14.6903 61.7684 14.9226 61.9815 15.1016C62.1988 15.2805 62.5568 15.4276 63.0554 15.5426L64.7301 15.9006C65.6591 16.1009 66.3494 16.4183 66.8011 16.853C67.2571 17.2876 67.4872 17.8565 67.4914 18.5597C67.4872 19.1776 67.3061 19.723 66.9481 20.196C66.5944 20.6648 66.1022 21.0312 65.4716 21.2955C64.8409 21.5597 64.1164 21.6918 63.2983 21.6918C62.0966 21.6918 61.1292 21.4403 60.3963 20.9375C59.6633 20.4304 59.2265 19.7251 59.0859 18.8217L61.3423 18.6044C61.4446 19.0476 61.6619 19.3821 61.9943 19.608C62.3267 19.8338 62.7592 19.9467 63.2919 19.9467C63.8416 19.9467 64.2826 19.8338 64.615 19.608C64.9517 19.3821 65.12 19.103 65.12 18.7706C65.12 18.4893 65.0113 18.2571 64.794 18.0739C64.5809 17.8906 64.2485 17.75 63.7968 17.652L62.1221 17.3004C61.1804 17.1044 60.4836 16.7741 60.0319 16.3097C59.5802 15.8409 59.3565 15.2486 59.3608 14.5327C59.3565 13.9276 59.5206 13.4034 59.8529 12.9602C60.1896 12.5128 60.6562 12.1676 61.2528 11.9247C61.8537 11.6776 62.5461 11.554 63.3302 11.554C64.4808 11.554 65.3863 11.799 66.0468 12.2891C66.7116 12.7791 67.1228 13.4418 67.2805 14.277ZM73.4022 11.6818V13.4716H67.758V11.6818H73.4022ZM69.1515 9.32955H71.4654V18.5469C71.4654 18.858 71.5123 19.0966 71.606 19.2628C71.704 19.4247 71.8319 19.5355 71.9895 19.5952C72.1472 19.6548 72.3219 19.6847 72.5137 19.6847C72.6586 19.6847 72.7907 19.674 72.91 19.6527C73.0336 19.6314 73.1273 19.6122 73.1912 19.5952L73.5811 21.4041C73.4576 21.4467 73.2807 21.4936 73.0506 21.5447C72.8248 21.5959 72.5478 21.6257 72.2196 21.6342C71.6401 21.6513 71.1181 21.5639 70.6536 21.3722C70.1891 21.1761 69.8205 20.8736 69.5478 20.4645C69.2793 20.0554 69.1472 19.544 69.1515 18.9304V9.32955ZM77.2626 21.6982C76.6405 21.6982 76.0801 21.5874 75.5815 21.3658C75.0872 21.1399 74.6952 20.8075 74.4054 20.3686C74.1199 19.9297 73.9771 19.3885 73.9771 18.745C73.9771 18.1911 74.0794 17.733 74.2839 17.3707C74.4885 17.0085 74.7676 16.7188 75.1213 16.5014C75.475 16.2841 75.8734 16.12 76.3166 16.0092C76.7641 15.8942 77.2264 15.8111 77.7037 15.7599C78.279 15.7003 78.7456 15.647 79.1035 15.6001C79.4615 15.549 79.7214 15.4723 79.8834 15.37C80.0496 15.2635 80.1327 15.0994 80.1327 14.8778V14.8395C80.1327 14.358 79.9899 13.9851 79.7044 13.7209C79.4189 13.4567 79.0077 13.3246 78.4707 13.3246C77.904 13.3246 77.4544 13.4482 77.122 13.6953C76.7939 13.9425 76.5723 14.2344 76.4572 14.571L74.2967 14.2642C74.4672 13.6676 74.7484 13.169 75.1405 12.7685C75.5325 12.3636 76.0119 12.0611 76.5787 11.8608C77.1455 11.6562 77.7719 11.554 78.458 11.554C78.931 11.554 79.4018 11.6094 79.8706 11.7202C80.3393 11.831 80.7676 12.0142 81.1554 12.2699C81.5432 12.5213 81.8543 12.8643 82.0886 13.299C82.3273 13.7337 82.4466 14.277 82.4466 14.929V21.5H80.2222V20.1513H80.1455C80.0048 20.424 79.8067 20.6797 79.551 20.9183C79.2996 21.1527 78.9821 21.3423 78.5986 21.4872C78.2193 21.6278 77.774 21.6982 77.2626 21.6982ZM77.8635 19.9979C78.328 19.9979 78.7307 19.9062 79.0716 19.723C79.4125 19.5355 79.6746 19.2884 79.8578 18.9815C80.0453 18.6747 80.1391 18.3402 80.1391 17.978V16.821C80.0666 16.8807 79.943 16.9361 79.7683 16.9872C79.5979 17.0384 79.4061 17.0831 79.193 17.1214C78.98 17.1598 78.769 17.1939 78.5602 17.2237C78.3514 17.2536 78.1703 17.2791 78.0169 17.3004C77.6717 17.3473 77.3628 17.424 77.0901 17.5305C76.8173 17.6371 76.6021 17.7862 76.4445 17.978C76.2868 18.1655 76.208 18.4084 76.208 18.7067C76.208 19.1328 76.3635 19.4545 76.6746 19.6719C76.9857 19.8892 77.382 19.9979 77.8635 19.9979ZM83.8733 21.5V11.6818H86.1169V13.3182H86.2192C86.3982 12.7514 86.705 12.3146 87.1396 12.0078C87.5786 11.6967 88.0793 11.5412 88.6418 11.5412C88.7696 11.5412 88.9124 11.5476 89.07 11.5604C89.232 11.5689 89.3662 11.5838 89.4727 11.6051V13.7337C89.3747 13.6996 89.2192 13.6697 89.0061 13.6442C88.7973 13.6143 88.5949 13.5994 88.3989 13.5994C87.977 13.5994 87.5977 13.6911 87.2611 13.8743C86.9287 14.0533 86.6666 14.3026 86.4749 14.6222C86.2831 14.9418 86.1872 15.3104 86.1872 15.728V21.5H83.8733ZM95.5401 11.6818V13.4716L89.8959 13.4716V11.6818H95.5401ZM91.2893 9.32955H93.6033V18.5469C93.6033 18.858 93.6501 19.0966 93.7439 19.2628C93.8419 19.4247 93.9697 19.5355 94.1274 19.5952C94.2851 19.6548 94.4598 19.6847 94.6516 19.6847C94.7964 19.6847 94.9286 19.674 95.0479 19.6527C95.1714 19.6314 95.2652 19.6122 95.3291 19.5952L95.719 21.4041C95.5955 21.4467 95.4186 21.4936 95.1885 21.5447C94.9626 21.5959 94.6857 21.6257 94.3575 21.6342C93.778 21.6513 93.256 21.5639 92.7915 21.3722C92.327 21.1761 91.9584 20.8736 91.6857 20.4645C91.4172 20.0554 91.2851 19.544 91.2893 18.9304V9.32955ZM102.965 21.6982C102.343 21.6982 101.783 21.5874 101.284 21.3658C100.79 21.1399 100.398 20.8075 100.108 20.3686C99.8226 19.9297 99.6799 19.3885 99.6799 18.745C99.6799 18.1911 99.7821 17.733 99.9867 17.3707C100.191 17.0085 100.47 16.7188 100.824 16.5014C101.178 16.2841 101.576 16.12 102.019 16.0092C102.467 15.8942 102.929 15.8111 103.406 15.7599C103.982 15.7003 104.448 15.647 104.806 15.6001C105.164 15.549 105.424 15.4723 105.586 15.37C105.752 15.2635 105.835 15.0994 105.835 14.8778V14.8395C105.835 14.358 105.693 13.9851 105.407 13.7209C105.122 13.4567 104.71 13.3246 104.173 13.3246C103.607 13.3246 103.157 13.4482 102.825 13.6953C102.497 13.9425 102.275 14.2344 102.16 14.571L99.9995 14.2642C100.17 13.6676 100.451 13.169 100.843 12.7685C101.235 12.3636 101.715 12.0611 102.281 11.8608C102.848 11.6562 103.475 11.554 104.161 11.554C104.634 11.554 105.105 11.6094 105.573 11.7202C106.042 11.831 106.47 12.0142 106.858 12.2699C107.246 12.5213 107.557 12.8643 107.791 13.299C108.03 13.7337 108.149 14.277 108.149 14.929V21.5H105.925V20.1513H105.848C105.708 20.424 105.509 20.6797 105.254 20.9183C105.002 21.1527 104.685 21.3423 104.301 21.4872C103.922 21.6278 103.477 21.6982 102.965 21.6982ZM103.566 19.9979C104.031 19.9979 104.433 19.9062 104.774 19.723C105.115 19.5355 105.377 19.2884 105.561 18.9815C105.748 18.6747 105.842 18.3402 105.842 17.978V16.821C105.769 16.8807 105.646 16.9361 105.471 16.9872C105.301 17.0384 105.109 17.0831 104.896 17.1214C104.683 17.1598 104.472 17.1939 104.263 17.2237C104.054 17.2536 103.873 17.2791 103.72 17.3004C103.374 17.3473 103.066 17.424 102.793 17.5305C102.52 17.6371 102.305 17.7862 102.147 17.978C101.99 18.1655 101.911 18.4084 101.911 18.7067C101.911 19.1328 102.066 19.4545 102.377 19.6719C102.688 19.8892 103.085 19.9979 103.566 19.9979ZM114.479 11.6818V13.4716H108.835V11.6818H114.479ZM110.228 9.32955H112.542V18.5469C112.542 18.858 112.589 19.0966 112.683 19.2628C112.781 19.4247 112.908 19.5355 113.066 19.5952C113.224 19.6548 113.398 19.6847 113.59 19.6847C113.735 19.6847 113.867 19.674 113.987 19.6527C114.11 19.6314 114.204 19.6122 114.268 19.5952L114.658 21.4041C114.534 21.4467 114.357 21.4936 114.127 21.5447C113.901 21.5959 113.624 21.6257 113.296 21.6342C112.717 21.6513 112.195 21.5639 111.73 21.3722C111.266 21.1761 110.897 20.8736 110.624 20.4645C110.356 20.0554 110.224 19.544 110.228 18.9304V9.32955ZM127.427 11.6051L126.973 13.2798H118.491L118.951 11.6051H127.427ZM123.163 21.5L118.689 16.1179L118.682 14.6989H120.894C121.423 14.6989 121.864 14.6115 122.217 14.4368C122.575 14.2578 122.846 14.0085 123.029 13.6889C123.217 13.3651 123.31 12.9858 123.31 12.5511C123.31 11.8991 123.119 11.375 122.735 10.9787C122.351 10.5824 121.738 10.3842 120.894 10.3842H118.491L118.989 8.40909H120.894C121.968 8.40909 122.856 8.57528 123.56 8.90767C124.267 9.2358 124.795 9.70028 125.145 10.3011C125.499 10.902 125.675 11.6051 125.675 12.4105C125.675 13.1222 125.545 13.7571 125.285 14.3153C125.026 14.8736 124.616 15.3317 124.058 15.6896C123.5 16.0476 122.769 16.2862 121.866 16.4055L121.789 16.4311L125.829 21.3849V21.5H123.163ZM127.44 8.40909L126.973 10.1094L120.095 10.0838L120.562 8.40909H127.44ZM133.117 21.7493C132.064 21.7493 131.161 21.483 130.407 20.9503C129.657 20.4134 129.079 19.6399 128.675 18.63C128.274 17.6158 128.074 16.3949 128.074 14.9673C128.078 13.5398 128.28 12.3253 128.681 11.3239C129.086 10.3182 129.663 9.55114 130.413 9.02273C131.167 8.49432 132.069 8.23011 133.117 8.23011C134.165 8.23011 135.067 8.49432 135.821 9.02273C136.575 9.55114 137.152 10.3182 137.553 11.3239C137.958 12.3295 138.16 13.544 138.16 14.9673C138.16 16.3991 137.958 17.6222 137.553 18.6364C137.152 19.6463 136.575 20.4176 135.821 20.9503C135.071 21.483 134.17 21.7493 133.117 21.7493ZM133.117 19.7486C133.935 19.7486 134.581 19.3459 135.054 18.5405C135.531 17.7308 135.77 16.5398 135.77 14.9673C135.77 13.9276 135.661 13.054 135.444 12.3466C135.226 11.6392 134.92 11.1065 134.523 10.7486C134.127 10.3864 133.658 10.2053 133.117 10.2053C132.303 10.2053 131.66 10.6101 131.187 11.4197C130.714 12.2251 130.475 13.4077 130.471 14.9673C130.466 16.0114 130.571 16.8892 130.784 17.6009C131.001 18.3125 131.308 18.8494 131.704 19.2116C132.101 19.5696 132.572 19.7486 133.117 19.7486Z" fill="white"/>
<path d="M3.32613 17.9348C1.56027 16.3767 1.56027 13.6233 3.32613 12.0652L17 0V30L3.32613 17.9348Z" fill="#312ECB"/>
<circle cx="6.51569" cy="14.8204" r="2.17194" fill="white"/>
</svg>
