<svg width="40" height="29" viewBox="0 0 40 29" fill="none" xmlns="http://www.w3.org/2000/svg">
<rect x="0.5" y="1" width="39" height="27" rx="13.5" stroke="#E0E0E0"/>
<mask id="mask0_7_19599" style="mask-type:alpha" maskUnits="userSpaceOnUse" x="8" y="2" width="24" height="25">
<rect x="8" y="2.5" width="24" height="24" fill="#D9D9D9"/>
</mask>
<g mask="url(#mask0_7_19599)">
<path d="M15.2369 18.8391C14.0366 18.8391 13.0134 18.4156 12.1674 17.5686C11.3214 16.7216 10.8984 15.6973 10.8984 14.4956C10.8984 13.2938 11.3214 12.2711 12.1674 11.4276C13.0134 10.5839 14.0366 10.1621 15.2369 10.1621H17.9562C18.1404 10.1621 18.2947 10.2239 18.4192 10.3476C18.5439 10.4713 18.6062 10.6245 18.6062 10.8074C18.6062 10.99 18.5439 11.1449 18.4192 11.2719C18.2947 11.3987 18.1404 11.4621 17.9562 11.4621H15.2357C14.3967 11.4621 13.6808 11.7586 13.0879 12.3516C12.4949 12.9446 12.1984 13.6609 12.1984 14.5006C12.1984 15.3403 12.4949 16.0566 13.0879 16.6496C13.6808 17.2426 14.3967 17.5391 15.2357 17.5391H17.9562C18.1404 17.5391 18.2947 17.6009 18.4192 17.7246C18.5439 17.8481 18.6062 18.0013 18.6062 18.1841C18.6062 18.3669 18.5439 18.5218 18.4192 18.6486C18.2947 18.7756 18.1404 18.8391 17.9562 18.8391H15.2369ZM17.3054 15.1506C17.1216 15.1506 16.9662 15.0888 16.8392 14.9651C16.712 14.8414 16.6484 14.6883 16.6484 14.5056C16.6484 14.3228 16.7106 14.1679 16.8349 14.0411C16.9594 13.9141 17.1136 13.8506 17.2974 13.8506H22.6914C22.8753 13.8506 23.0307 13.9124 23.1577 14.0361C23.2849 14.1598 23.3484 14.3129 23.3484 14.4956C23.3484 14.6784 23.2863 14.8333 23.1619 14.9601C23.0374 15.0871 22.8833 15.1506 22.6994 15.1506H17.3054ZM22.0407 18.8391C21.8565 18.8391 21.7022 18.7773 21.5777 18.6536C21.453 18.5299 21.3907 18.3767 21.3907 18.1939C21.3907 18.0112 21.453 17.8564 21.5777 17.7294C21.7022 17.6025 21.8565 17.5391 22.0407 17.5391H24.7612C25.6002 17.5391 26.3161 17.2426 26.9089 16.6496C27.5019 16.0566 27.7984 15.3403 27.7984 14.5006C27.7984 13.6609 27.5019 12.9446 26.9089 12.3516C26.3161 11.7586 25.6002 11.4621 24.7612 11.4621H22.0407C21.8565 11.4621 21.7022 11.4003 21.5777 11.2766C21.453 11.1531 21.3907 10.9999 21.3907 10.8171C21.3907 10.6343 21.453 10.4794 21.5777 10.3526C21.7022 10.2256 21.8565 10.1621 22.0407 10.1621H24.7599C25.9603 10.1621 26.9834 10.5856 27.8294 11.4326C28.6754 12.2796 29.0984 13.3039 29.0984 14.5056C29.0984 15.7074 28.6754 16.7301 27.8294 17.5736C26.9834 18.4173 25.9603 18.8391 24.7599 18.8391H22.0407Z" fill="black"/>
</g>
</svg>
