<svg width="159" height="28" viewBox="0 0 159 28" fill="none" xmlns="http://www.w3.org/2000/svg">
<path d="M12.7368 0H30.061L17.3242 18.8784H0L12.7368 0Z" fill="#007AFF"/>
<path d="M13.4957 20.6288L8.5625 27.9409H26.7085L39.4452 9.0625H26.0524L18.2489 20.6288H13.4957Z" fill="#312ECB"/>
<path d="M48.226 22.4707V5.24214H59.4419V7.67033H50.9548V12.8505H58.5169V15.2786H50.9548V22.4707H48.226ZM60.3203 22.4707V9.95976H62.9335V22.4707H60.3203ZM60.3203 8.24847V5.24214H62.9335V8.24847H60.3203ZM64.8325 22.4707V4.96464H67.4457V22.4707H64.8325ZM69.3447 22.4707V9.95976H71.9579V22.4707H69.3447ZM69.3447 8.24847V5.24214H71.9579V8.24847H69.3447ZM73.8569 22.4707V9.95976H76.3545V12.4111L76.0538 12.0873C76.3622 11.301 76.8555 10.7075 77.5339 10.3066C78.2122 9.89038 78.9985 9.68225 79.8927 9.68225C80.8177 9.68225 81.6348 9.88268 82.344 10.2835C83.0532 10.6844 83.6082 11.2394 84.009 11.9486C84.4099 12.6577 84.6103 13.4749 84.6103 14.3999V22.4707H82.0202V15.0936C82.0202 14.4615 81.9046 13.9297 81.6733 13.498C81.4421 13.0509 81.1106 12.7117 80.6789 12.4805C80.2627 12.2338 79.7848 12.1104 79.2452 12.1104C78.7056 12.1104 78.2199 12.2338 77.7882 12.4805C77.372 12.7117 77.0482 13.0509 76.817 13.498C76.5857 13.9451 76.4701 14.477 76.4701 15.0936V22.4707H73.8569ZM92.2865 27.5583C91.3769 27.5583 90.5367 27.4119 89.7659 27.1189C88.995 26.826 88.3321 26.4175 87.7771 25.8933C87.222 25.3845 86.8058 24.7833 86.5283 24.0895L88.9333 23.0951C89.1492 23.6809 89.5423 24.1666 90.1127 24.552C90.6986 24.9374 91.4155 25.1301 92.2634 25.1301C92.9263 25.1301 93.5199 24.9991 94.0441 24.737C94.5683 24.4903 94.9845 24.1203 95.2929 23.627C95.6012 23.1491 95.7554 22.5709 95.7554 21.8926V19.0712L96.2179 19.6031C95.7862 20.4048 95.1849 21.0138 94.4141 21.4301C93.6587 21.8463 92.803 22.0544 91.8472 22.0544C90.6909 22.0544 89.6502 21.7846 88.7252 21.245C87.8002 20.7055 87.0679 19.9654 86.5283 19.025C86.0041 18.0846 85.742 17.0285 85.742 15.8568C85.742 14.6697 86.0041 13.6136 86.5283 12.6886C87.0679 11.7636 87.7925 11.0312 88.7021 10.4917C89.6117 9.95205 90.6523 9.68225 91.824 9.68225C92.7799 9.68225 93.6278 9.89038 94.3678 10.3066C95.1233 10.7075 95.74 11.2933 96.2179 12.0642L95.871 12.7117V9.95976H98.3454V21.8926C98.3454 22.9718 98.0834 23.9353 97.5592 24.7833C97.0504 25.6466 96.3412 26.325 95.4316 26.8183C94.522 27.3117 93.4737 27.5583 92.2865 27.5583ZM92.1478 19.6263C92.8416 19.6263 93.4582 19.4644 93.9978 19.1406C94.5374 18.8014 94.9614 18.3543 95.2697 17.7993C95.5935 17.2289 95.7554 16.5891 95.7554 15.8799C95.7554 15.1707 95.5935 14.5309 95.2697 13.9605C94.946 13.3901 94.5143 12.943 93.9747 12.6192C93.4351 12.28 92.8261 12.1104 92.1478 12.1104C91.4386 12.1104 90.8065 12.28 90.2515 12.6192C89.6965 12.943 89.2571 13.3901 88.9333 13.9605C88.625 14.5155 88.4708 15.1553 88.4708 15.8799C88.4708 16.5737 88.625 17.2058 88.9333 17.7762C89.2571 18.3466 89.6965 18.8014 90.2515 19.1406C90.8065 19.4644 91.4386 19.6263 92.1478 19.6263ZM104.873 22.7482C103.594 22.7482 102.468 22.4322 101.497 21.8001C100.541 21.168 99.8703 20.32 99.4849 19.2562L101.497 18.3081C101.836 19.0173 102.299 19.58 102.884 19.9963C103.486 20.4125 104.149 20.6207 104.873 20.6207C105.49 20.6207 105.991 20.4819 106.376 20.2044C106.762 19.9269 106.954 19.5492 106.954 19.0712C106.954 18.7629 106.87 18.5162 106.7 18.3312C106.531 18.1308 106.315 17.9689 106.053 17.8456C105.806 17.7222 105.552 17.6297 105.289 17.5681L103.324 17.0131C102.245 16.7047 101.435 16.2422 100.896 15.6255C100.371 14.9934 100.109 14.2611 100.109 13.4286C100.109 12.6732 100.302 12.0179 100.687 11.4629C101.073 10.8925 101.605 10.4531 102.283 10.1448C102.961 9.83643 103.725 9.68225 104.573 9.68225C105.713 9.68225 106.731 9.96747 107.625 10.5379C108.519 11.0929 109.151 11.8715 109.521 12.8736L107.51 13.8217C107.263 13.2205 106.87 12.7425 106.33 12.3879C105.806 12.0334 105.212 11.8561 104.549 11.8561C103.979 11.8561 103.524 11.9948 103.185 12.2723C102.846 12.5344 102.676 12.8813 102.676 13.313C102.676 13.6059 102.753 13.8526 102.908 14.053C103.062 14.238 103.262 14.3922 103.509 14.5155C103.755 14.6234 104.01 14.7159 104.272 14.793L106.307 15.3943C107.34 15.6872 108.134 16.1497 108.689 16.7818C109.244 17.3985 109.521 18.1385 109.521 19.0019C109.521 19.7419 109.321 20.3971 108.92 20.9675C108.535 21.5226 107.995 21.9619 107.301 22.2857C106.608 22.594 105.798 22.7482 104.873 22.7482ZM111.18 22.4707V5.24214H113.909V14.5849L113.192 14.3074L120.985 5.24214H124.385L117.493 13.313L117.632 11.3704L124.662 22.4707H121.448L116.406 14.5849L113.909 17.4987V22.4707H111.18ZM128.805 22.7482C127.957 22.7482 127.209 22.6017 126.562 22.3088C125.929 22.0005 125.436 21.5842 125.082 21.06C124.727 20.5204 124.55 19.8883 124.55 19.1637C124.55 18.4854 124.696 17.8764 124.989 17.3368C125.297 16.7972 125.768 16.3424 126.4 15.9724C127.032 15.6024 127.826 15.3403 128.782 15.1861L133.129 14.4693V16.5274L129.29 17.1981C128.597 17.3214 128.088 17.545 127.764 17.8687C127.44 18.1771 127.278 18.5779 127.278 19.0712C127.278 19.5492 127.456 19.9423 127.81 20.2506C128.18 20.5436 128.651 20.69 129.221 20.69C129.93 20.69 130.547 20.5359 131.071 20.2275C131.611 19.9192 132.027 19.5106 132.32 19.0019C132.613 18.4777 132.759 17.8995 132.759 17.2674V14.053C132.759 13.4363 132.528 12.9353 132.065 12.5498C131.618 12.149 131.017 11.9486 130.262 11.9486C129.568 11.9486 128.959 12.1336 128.435 12.5036C127.926 12.8582 127.548 13.3207 127.302 13.8911L125.128 12.8042C125.359 12.1875 125.737 11.6479 126.261 11.1854C126.785 10.7075 127.394 10.3375 128.088 10.0754C128.797 9.8133 129.545 9.68225 130.331 9.68225C131.318 9.68225 132.189 9.86726 132.944 10.2373C133.715 10.6073 134.309 11.1238 134.725 11.7867C135.157 12.4342 135.372 13.1896 135.372 14.053V22.4707H132.875V20.2044L133.407 20.2738C133.114 20.7825 132.736 21.2219 132.274 21.5919C131.826 21.9619 131.31 22.2472 130.724 22.4476C130.154 22.648 129.514 22.7482 128.805 22.7482ZM137.272 22.4707V9.95976H139.769V12.4805L139.538 12.1104C139.815 11.2933 140.262 10.7075 140.879 10.3529C141.496 9.98289 142.236 9.79788 143.099 9.79788H143.862V12.1798H142.775C141.912 12.1798 141.211 12.4496 140.671 12.9892C140.147 13.5134 139.885 14.2688 139.885 15.2555V22.4707H137.272ZM150.53 22.7482C149.327 22.7482 148.225 22.463 147.223 21.8926C146.236 21.3221 145.45 20.5436 144.864 19.5569C144.278 18.5702 143.985 17.4525 143.985 16.2037C143.985 14.9395 144.278 13.8217 144.864 12.8505C145.45 11.8638 146.236 11.0929 147.223 10.5379C148.209 9.96747 149.312 9.68225 150.53 9.68225C151.763 9.68225 152.865 9.96747 153.837 10.5379C154.823 11.0929 155.602 11.8638 156.172 12.8505C156.758 13.8217 157.051 14.9395 157.051 16.2037C157.051 17.4679 156.758 18.5933 156.172 19.58C155.586 20.5667 154.8 21.3453 153.813 21.9157C152.827 22.4707 151.732 22.7482 150.53 22.7482ZM150.53 20.32C151.27 20.32 151.925 20.1427 152.495 19.7881C153.066 19.4335 153.513 18.9479 153.837 18.3312C154.176 17.6991 154.345 16.9899 154.345 16.2037C154.345 15.4174 154.176 14.7159 153.837 14.0992C153.513 13.4826 153.066 12.9969 152.495 12.6423C151.925 12.2877 151.27 12.1104 150.53 12.1104C149.805 12.1104 149.15 12.2877 148.564 12.6423C147.993 12.9969 147.539 13.4826 147.2 14.0992C146.876 14.7159 146.714 15.4174 146.714 16.2037C146.714 16.9899 146.876 17.6991 147.2 18.3312C147.539 18.9479 147.993 19.4335 148.564 19.7881C149.15 20.1427 149.805 20.32 150.53 20.32Z" fill="black"/>
</svg>
