<svg width="74" height="74" viewBox="0 0 74 74" fill="none" xmlns="http://www.w3.org/2000/svg">
<mask id="mask0_1_9651" style="mask-type:alpha" maskUnits="userSpaceOnUse" x="0" y="0" width="74" height="74">
<rect width="74" height="74" fill="#D9D9D9"/>
</mask>
<g mask="url(#mask0_1_9651)">
<path d="M35.4418 23.8962L29.6891 18.0957C29.2512 17.6579 29.0323 17.1455 29.0323 16.5587C29.0323 15.9718 29.2535 15.4569 29.696 15.0139L35.4495 9.21339C35.8868 8.75603 36.404 8.52734 37.0012 8.52734C37.5983 8.52734 38.1181 8.75859 38.5606 9.22109L44.3611 15.0216C44.7989 15.4594 45.0179 15.9718 45.0179 16.5587C45.0179 17.1455 44.7964 17.6604 44.3534 18.1034L38.5529 23.9039C38.1156 24.3613 37.5983 24.59 37.0012 24.59C36.404 24.59 35.8843 24.3587 35.4418 23.8962ZM6.87933 60.7182C6.23594 60.7182 5.70458 60.5085 5.28525 60.0892C4.86592 59.6693 4.65625 59.1379 4.65625 58.4951V49.1557C4.65625 47.8432 5.10873 46.7196 6.01369 45.7848C6.91916 44.85 8.00835 44.3629 9.28125 44.3233H19.3491C20.1636 44.3233 20.9442 44.5268 21.6909 44.9338C22.4381 45.3413 23.0745 45.9007 23.6003 46.6119C25.1301 48.8298 27.0759 50.5444 29.4378 51.7557C31.8001 52.9674 34.3213 53.5733 37.0012 53.5733C39.6837 53.5733 42.2102 52.9674 44.5808 51.7557C46.9514 50.5444 48.9273 48.8298 50.5085 46.6119C51.0147 45.9007 51.6262 45.3413 52.3431 44.9338C53.0605 44.5268 53.8305 44.3233 54.6533 44.3233H64.7211C66.0141 44.3629 67.113 44.85 68.018 45.7848C68.9235 46.7196 69.3762 47.8432 69.3762 49.1557V58.4951C69.3762 59.1379 69.1665 59.6693 68.7472 60.0892C68.3273 60.5085 67.7957 60.7182 67.1523 60.7182H52.6846C52.0412 60.7182 51.5098 60.5085 51.0905 60.0892C50.6706 59.6693 50.4607 59.1379 50.4607 58.4951V51.9014C48.6503 53.5376 46.5927 54.8084 44.2879 55.7139C41.9826 56.6189 39.5514 57.0713 36.9943 57.0713C34.4767 57.0713 32.0727 56.6232 29.7823 55.727C27.4914 54.8303 25.421 53.5648 23.571 51.9307V58.4951C23.571 59.1379 23.3613 59.6693 22.942 60.0892C22.5221 60.5085 21.9905 60.7182 21.3471 60.7182H6.87933ZM13.2279 38.364C11.0711 38.364 9.21188 37.5834 7.65017 36.0222C6.08897 34.4605 5.30837 32.6012 5.30837 30.4444C5.30837 28.2414 6.08897 26.3719 7.65017 24.8359C9.21188 23.3004 11.0711 22.5326 13.2279 22.5326C15.431 22.5326 17.3005 23.3004 18.8365 24.8359C20.372 26.3719 21.1398 28.2414 21.1398 30.4444C21.1398 32.6012 20.372 34.4605 18.8365 36.0222C17.3005 37.5834 15.431 38.364 13.2279 38.364ZM60.7822 38.364C58.6254 38.364 56.7661 37.5834 55.2044 36.0222C53.6432 34.4605 52.8626 32.6012 52.8626 30.4444C52.8626 28.2414 53.6432 26.3719 55.2044 24.8359C56.7661 23.3004 58.6254 22.5326 60.7822 22.5326C62.9852 22.5326 64.8547 23.3004 66.3908 24.8359C67.9263 26.3719 68.694 28.2414 68.694 30.4444C68.694 32.6012 67.9263 34.4605 66.3908 36.0222C64.8547 37.5834 62.9852 38.364 60.7822 38.364Z" fill="#556FF9"/>
<path d="M35.4407 23.8962L29.688 18.0957C29.2502 17.6579 29.0312 17.1455 29.0312 16.5587C29.0312 15.9718 29.2525 15.4569 29.6949 15.0139L35.4484 9.21339C35.8858 8.75603 36.403 8.52734 37.0001 8.52734C37.5973 8.52734 38.1171 8.75859 38.5595 9.22109L44.36 15.0216C44.7979 15.4594 45.0168 15.9718 45.0168 16.5587C45.0168 17.1455 44.7953 17.6604 44.3523 18.1034L38.5518 23.9039C38.1145 24.3613 37.5973 24.59 37.0001 24.59C36.403 24.59 35.8832 24.3587 35.4407 23.8962Z" fill="#B6C1FF"/>
</g>
</svg>
