<svg width="290" height="250" viewBox="0 0 290 250" fill="none" xmlns="http://www.w3.org/2000/svg">
<path d="M125.033 189.045C124.909 188.657 124.743 188.31 124.534 188.003C124.329 187.692 124.084 187.428 123.799 187.21C123.513 186.989 123.187 186.82 122.821 186.705C122.459 186.59 122.06 186.533 121.626 186.533C120.888 186.533 120.224 186.722 119.631 187.102C119.039 187.481 118.57 188.037 118.225 188.77C117.884 189.499 117.714 190.391 117.714 191.448C117.714 192.509 117.886 193.406 118.231 194.139C118.577 194.872 119.05 195.428 119.65 195.808C120.251 196.187 120.935 196.376 121.702 196.376C122.414 196.376 123.034 196.232 123.562 195.942C124.095 195.652 124.506 195.243 124.796 194.714C125.09 194.182 125.237 193.555 125.237 192.835L125.748 192.931H122.003V191.301H127.148V192.79C127.148 193.89 126.914 194.844 126.445 195.654C125.981 196.46 125.337 197.082 124.515 197.521C123.697 197.96 122.759 198.179 121.702 198.179C120.518 198.179 119.478 197.906 118.583 197.361C117.692 196.815 116.998 196.042 116.499 195.04C116.001 194.035 115.751 192.842 115.751 191.461C115.751 190.417 115.896 189.479 116.186 188.648C116.476 187.817 116.883 187.112 117.407 186.533C117.935 185.949 118.555 185.504 119.267 185.197C119.983 184.886 120.765 184.73 121.613 184.73C122.32 184.73 122.979 184.835 123.588 185.043C124.202 185.252 124.747 185.548 125.224 185.932C125.706 186.315 126.104 186.771 126.42 187.3C126.735 187.824 126.948 188.406 127.059 189.045H125.033ZM133.278 198.198C132.357 198.198 131.554 197.987 130.868 197.565C130.182 197.143 129.649 196.553 129.27 195.795C128.891 195.036 128.701 194.15 128.701 193.136C128.701 192.117 128.891 191.227 129.27 190.464C129.649 189.701 130.182 189.109 130.868 188.687C131.554 188.265 132.357 188.054 133.278 188.054C134.198 188.054 135.002 188.265 135.688 188.687C136.374 189.109 136.906 189.701 137.286 190.464C137.665 191.227 137.855 192.117 137.855 193.136C137.855 194.15 137.665 195.036 137.286 195.795C136.906 196.553 136.374 197.143 135.688 197.565C135.002 197.987 134.198 198.198 133.278 198.198ZM133.284 196.594C133.881 196.594 134.375 196.436 134.767 196.121C135.159 195.805 135.449 195.386 135.637 194.862C135.828 194.337 135.924 193.76 135.924 193.129C135.924 192.503 135.828 191.928 135.637 191.403C135.449 190.875 135.159 190.451 134.767 190.131C134.375 189.812 133.881 189.652 133.284 189.652C132.683 189.652 132.185 189.812 131.788 190.131C131.396 190.451 131.105 190.875 130.913 191.403C130.725 191.928 130.632 192.503 130.632 193.129C130.632 193.76 130.725 194.337 130.913 194.862C131.105 195.386 131.396 195.805 131.788 196.121C132.185 196.436 132.683 196.594 133.284 196.594ZM143.764 198.198C142.843 198.198 142.04 197.987 141.354 197.565C140.668 197.143 140.135 196.553 139.756 195.795C139.376 195.036 139.187 194.15 139.187 193.136C139.187 192.117 139.376 191.227 139.756 190.464C140.135 189.701 140.668 189.109 141.354 188.687C142.04 188.265 142.843 188.054 143.764 188.054C144.684 188.054 145.487 188.265 146.173 188.687C146.859 189.109 147.392 189.701 147.771 190.464C148.151 191.227 148.34 192.117 148.34 193.136C148.34 194.15 148.151 195.036 147.771 195.795C147.392 196.553 146.859 197.143 146.173 197.565C145.487 197.987 144.684 198.198 143.764 198.198ZM143.77 196.594C144.367 196.594 144.861 196.436 145.253 196.121C145.645 195.805 145.935 195.386 146.122 194.862C146.314 194.337 146.41 193.76 146.41 193.129C146.41 192.503 146.314 191.928 146.122 191.403C145.935 190.875 145.645 190.451 145.253 190.131C144.861 189.812 144.367 189.652 143.77 189.652C143.169 189.652 142.671 189.812 142.274 190.131C141.882 190.451 141.59 190.875 141.398 191.403C141.211 191.928 141.117 192.503 141.117 193.129C141.117 193.76 141.211 194.337 141.398 194.862C141.59 195.386 141.882 195.805 142.274 196.121C142.671 196.436 143.169 196.594 143.77 196.594ZM154.23 201.886C153.45 201.886 152.779 201.784 152.217 201.58C151.658 201.375 151.202 201.104 150.849 200.768C150.495 200.431 150.231 200.063 150.056 199.662L151.699 198.984C151.814 199.172 151.967 199.37 152.159 199.579C152.355 199.792 152.619 199.973 152.952 200.122C153.288 200.271 153.721 200.346 154.249 200.346C154.974 200.346 155.572 200.169 156.045 199.815C156.518 199.466 156.755 198.908 156.755 198.141V196.21H156.633C156.518 196.419 156.352 196.651 156.135 196.907C155.922 197.163 155.628 197.384 155.253 197.572C154.878 197.759 154.39 197.853 153.789 197.853C153.013 197.853 152.315 197.672 151.692 197.31C151.075 196.943 150.584 196.404 150.222 195.692C149.864 194.977 149.685 194.097 149.685 193.053C149.685 192.009 149.862 191.114 150.216 190.368C150.574 189.622 151.064 189.051 151.686 188.655C152.308 188.254 153.013 188.054 153.802 188.054C154.411 188.054 154.903 188.156 155.278 188.361C155.653 188.561 155.945 188.795 156.154 189.064C156.367 189.332 156.531 189.569 156.646 189.773H156.787V188.182H158.66V198.217C158.66 199.061 158.464 199.754 158.072 200.295C157.68 200.836 157.149 201.237 156.48 201.496C155.815 201.756 155.065 201.886 154.23 201.886ZM154.211 196.268C154.761 196.268 155.225 196.14 155.604 195.884C155.988 195.624 156.278 195.254 156.474 194.772C156.674 194.286 156.774 193.705 156.774 193.027C156.774 192.366 156.676 191.785 156.48 191.282C156.284 190.779 155.996 190.387 155.617 190.106C155.238 189.82 154.769 189.678 154.211 189.678C153.636 189.678 153.156 189.827 152.773 190.125C152.389 190.419 152.099 190.82 151.903 191.327C151.712 191.834 151.616 192.401 151.616 193.027C151.616 193.67 151.714 194.235 151.91 194.721C152.106 195.207 152.396 195.586 152.779 195.859C153.167 196.131 153.644 196.268 154.211 196.268ZM162.774 184.909V198H160.863V184.909H162.774ZM169.217 198.198C168.25 198.198 167.416 197.991 166.718 197.578C166.023 197.161 165.486 196.575 165.107 195.82C164.732 195.062 164.544 194.173 164.544 193.155C164.544 192.149 164.732 191.263 165.107 190.496C165.486 189.729 166.015 189.13 166.692 188.7C167.374 188.269 168.171 188.054 169.083 188.054C169.637 188.054 170.174 188.146 170.693 188.329C171.213 188.512 171.68 188.8 172.093 189.192C172.507 189.584 172.833 190.093 173.071 190.719C173.31 191.342 173.429 192.098 173.429 192.989V193.666H165.625V192.234H171.556C171.556 191.732 171.454 191.286 171.25 190.898C171.045 190.506 170.757 190.197 170.387 189.972C170.02 189.746 169.59 189.633 169.095 189.633C168.559 189.633 168.09 189.765 167.689 190.029C167.293 190.289 166.986 190.63 166.769 191.052C166.556 191.469 166.449 191.923 166.449 192.413V193.532C166.449 194.188 166.564 194.746 166.794 195.207C167.029 195.667 167.355 196.018 167.772 196.261C168.19 196.5 168.678 196.619 169.236 196.619C169.598 196.619 169.929 196.568 170.227 196.466C170.525 196.359 170.783 196.202 171 195.993C171.218 195.784 171.384 195.526 171.499 195.219L173.308 195.545C173.163 196.078 172.903 196.545 172.528 196.945C172.157 197.342 171.691 197.651 171.128 197.872C170.57 198.089 169.933 198.198 169.217 198.198ZM114.745 220V206.909H119.411C120.425 206.909 121.267 207.084 121.936 207.433C122.609 207.783 123.112 208.266 123.444 208.884C123.777 209.498 123.943 210.207 123.943 211.013C123.943 211.814 123.775 212.519 123.438 213.129C123.106 213.734 122.603 214.205 121.929 214.541C121.26 214.878 120.419 215.046 119.405 215.046H115.87V213.346H119.226C119.865 213.346 120.385 213.254 120.785 213.071C121.19 212.888 121.486 212.621 121.674 212.272C121.861 211.923 121.955 211.503 121.955 211.013C121.955 210.518 121.859 210.09 121.667 209.728C121.48 209.366 121.184 209.089 120.779 208.897C120.378 208.701 119.852 208.603 119.2 208.603H116.72V220H114.745ZM121.207 214.094L124.442 220H122.192L119.021 214.094H121.207ZM128.69 220.217C128.068 220.217 127.506 220.102 127.003 219.872C126.5 219.638 126.101 219.299 125.807 218.856C125.518 218.413 125.373 217.869 125.373 217.226C125.373 216.672 125.479 216.216 125.692 215.858C125.905 215.5 126.193 215.217 126.555 215.008C126.917 214.799 127.322 214.641 127.77 214.535C128.217 214.428 128.673 214.347 129.138 214.292C129.726 214.224 130.203 214.168 130.569 214.126C130.936 214.079 131.202 214.004 131.368 213.902C131.535 213.8 131.618 213.634 131.618 213.403V213.359C131.618 212.8 131.46 212.368 131.145 212.061C130.834 211.754 130.369 211.601 129.751 211.601C129.108 211.601 128.601 211.744 128.23 212.029C127.863 212.31 127.61 212.624 127.469 212.969L125.673 212.56C125.886 211.963 126.197 211.482 126.606 211.115C127.02 210.744 127.495 210.476 128.032 210.31C128.569 210.139 129.133 210.054 129.726 210.054C130.118 210.054 130.533 210.101 130.972 210.195C131.415 210.284 131.829 210.45 132.212 210.693C132.6 210.936 132.917 211.283 133.165 211.735C133.412 212.183 133.535 212.764 133.535 213.48V220H131.669V218.658H131.592C131.469 218.905 131.283 219.148 131.036 219.386C130.789 219.625 130.471 219.823 130.084 219.981C129.696 220.138 129.231 220.217 128.69 220.217ZM129.106 218.683C129.634 218.683 130.086 218.579 130.461 218.37C130.84 218.161 131.128 217.888 131.324 217.552C131.524 217.211 131.624 216.847 131.624 216.459V215.193C131.556 215.261 131.424 215.325 131.228 215.385C131.036 215.44 130.817 215.489 130.569 215.532C130.322 215.57 130.082 215.607 129.847 215.641C129.613 215.67 129.417 215.696 129.259 215.717C128.888 215.764 128.55 215.843 128.243 215.954C127.94 216.065 127.697 216.224 127.514 216.433C127.335 216.638 127.246 216.911 127.246 217.251C127.246 217.724 127.42 218.082 127.77 218.325C128.119 218.564 128.564 218.683 129.106 218.683ZM140.304 210.182V211.716H134.941V210.182H140.304ZM136.379 207.83H138.291V217.117C138.291 217.488 138.346 217.767 138.457 217.955C138.568 218.138 138.71 218.263 138.885 218.332C139.064 218.396 139.258 218.428 139.467 218.428C139.62 218.428 139.754 218.417 139.869 218.396C139.984 218.374 140.074 218.357 140.138 218.344L140.483 219.923C140.372 219.966 140.215 220.009 140.01 220.051C139.805 220.098 139.55 220.124 139.243 220.128C138.74 220.136 138.271 220.047 137.837 219.859C137.402 219.672 137.051 219.382 136.782 218.99C136.514 218.598 136.379 218.106 136.379 217.513V207.83ZM142.058 220V210.182H143.969V220H142.058ZM143.023 208.667C142.691 208.667 142.406 208.556 142.167 208.335C141.933 208.109 141.815 207.84 141.815 207.529C141.815 207.214 141.933 206.945 142.167 206.724C142.406 206.498 142.691 206.385 143.023 206.385C143.356 206.385 143.639 206.498 143.874 206.724C144.112 206.945 144.232 207.214 144.232 207.529C144.232 207.84 144.112 208.109 143.874 208.335C143.639 208.556 143.356 208.667 143.023 208.667ZM148.092 214.17V220H146.181V210.182H148.015V211.78H148.137C148.362 211.26 148.716 210.842 149.198 210.527C149.684 210.212 150.295 210.054 151.032 210.054C151.701 210.054 152.287 210.195 152.79 210.476C153.293 210.753 153.683 211.166 153.96 211.716C154.237 212.266 154.375 212.945 154.375 213.755V220H152.464V213.985C152.464 213.273 152.279 212.717 151.908 212.317C151.537 211.912 151.028 211.71 150.38 211.71C149.937 211.71 149.543 211.805 149.198 211.997C148.857 212.189 148.586 212.47 148.386 212.841C148.19 213.207 148.092 213.651 148.092 214.17ZM160.695 223.886C159.915 223.886 159.244 223.784 158.681 223.58C158.123 223.375 157.667 223.104 157.314 222.768C156.96 222.431 156.696 222.063 156.521 221.662L158.164 220.984C158.279 221.172 158.432 221.37 158.624 221.579C158.82 221.792 159.084 221.973 159.417 222.122C159.753 222.271 160.186 222.346 160.714 222.346C161.439 222.346 162.037 222.169 162.51 221.815C162.983 221.466 163.22 220.908 163.22 220.141V218.21H163.098C162.983 218.419 162.817 218.651 162.6 218.907C162.387 219.163 162.093 219.384 161.718 219.572C161.343 219.759 160.855 219.853 160.254 219.853C159.478 219.853 158.779 219.672 158.157 219.31C157.539 218.943 157.049 218.404 156.687 217.692C156.329 216.977 156.15 216.097 156.15 215.053C156.15 214.009 156.327 213.114 156.681 212.368C157.039 211.622 157.529 211.051 158.151 210.655C158.773 210.254 159.478 210.054 160.267 210.054C160.876 210.054 161.368 210.156 161.743 210.361C162.118 210.561 162.41 210.795 162.619 211.064C162.832 211.332 162.996 211.569 163.111 211.773H163.252V210.182H165.125V220.217C165.125 221.061 164.929 221.754 164.537 222.295C164.145 222.836 163.614 223.237 162.945 223.496C162.28 223.756 161.53 223.886 160.695 223.886ZM160.676 218.268C161.225 218.268 161.69 218.14 162.069 217.884C162.453 217.624 162.743 217.254 162.939 216.772C163.139 216.286 163.239 215.705 163.239 215.027C163.239 214.366 163.141 213.785 162.945 213.282C162.749 212.779 162.461 212.387 162.082 212.106C161.703 211.82 161.234 211.678 160.676 211.678C160.1 211.678 159.621 211.827 159.238 212.125C158.854 212.419 158.564 212.82 158.368 213.327C158.176 213.834 158.081 214.401 158.081 215.027C158.081 215.67 158.179 216.235 158.375 216.721C158.571 217.207 158.86 217.586 159.244 217.859C159.632 218.131 160.109 218.268 160.676 218.268ZM174.685 212.579L172.953 212.886C172.88 212.664 172.765 212.453 172.608 212.253C172.454 212.053 172.245 211.888 171.981 211.761C171.717 211.633 171.387 211.569 170.99 211.569C170.449 211.569 169.998 211.69 169.635 211.933C169.273 212.172 169.092 212.481 169.092 212.86C169.092 213.188 169.213 213.452 169.456 213.653C169.699 213.853 170.091 214.017 170.633 214.145L172.192 214.503C173.096 214.712 173.769 215.033 174.212 215.468C174.655 215.903 174.877 216.467 174.877 217.162C174.877 217.75 174.706 218.274 174.365 218.734C174.029 219.19 173.558 219.548 172.953 219.808C172.352 220.068 171.655 220.198 170.863 220.198C169.763 220.198 168.866 219.964 168.172 219.495C167.477 219.022 167.051 218.351 166.893 217.482L168.74 217.2C168.856 217.682 169.092 218.046 169.45 218.293C169.808 218.536 170.275 218.658 170.85 218.658C171.476 218.658 171.977 218.528 172.352 218.268C172.727 218.004 172.914 217.682 172.914 217.303C172.914 216.996 172.799 216.738 172.569 216.529C172.343 216.32 171.996 216.163 171.527 216.056L169.865 215.692C168.949 215.483 168.272 215.151 167.833 214.695C167.398 214.239 167.181 213.661 167.181 212.962C167.181 212.383 167.343 211.876 167.667 211.441C167.99 211.006 168.438 210.668 169.009 210.425C169.58 210.178 170.234 210.054 170.971 210.054C172.032 210.054 172.868 210.284 173.477 210.744C174.086 211.2 174.489 211.812 174.685 212.579Z" fill="black"/>
<path d="M107.25 155.142V151.371L118.359 133.818H121.504V139.188H119.587L112.108 151.038V151.243H127.615V155.142H107.25ZM119.74 160V153.991L119.791 152.304V133.818H124.266V160H119.74ZM133.143 160.281C132.368 160.281 131.703 160.009 131.149 159.463C130.595 158.918 130.322 158.253 130.331 157.469C130.322 156.702 130.595 156.045 131.149 155.5C131.703 154.955 132.368 154.682 133.143 154.682C133.893 154.682 134.545 154.955 135.099 155.5C135.662 156.045 135.947 156.702 135.956 157.469C135.947 157.989 135.811 158.462 135.547 158.888C135.291 159.314 134.95 159.655 134.524 159.911C134.106 160.158 133.646 160.281 133.143 160.281ZM148.749 160.358C147.044 160.358 145.519 160.038 144.172 159.399C142.825 158.751 141.756 157.865 140.963 156.74C140.179 155.615 139.761 154.328 139.71 152.879H144.313C144.398 153.953 144.862 154.831 145.706 155.513C146.55 156.186 147.564 156.523 148.749 156.523C149.678 156.523 150.504 156.31 151.229 155.884C151.953 155.457 152.524 154.865 152.942 154.107C153.359 153.348 153.564 152.483 153.555 151.511C153.564 150.523 153.355 149.645 152.929 148.878C152.503 148.111 151.919 147.51 151.178 147.075C150.436 146.632 149.584 146.411 148.621 146.411C147.837 146.402 147.065 146.547 146.307 146.845C145.548 147.143 144.948 147.536 144.504 148.021L140.222 147.318L141.59 133.818H156.777V137.781H145.514L144.76 144.723H144.913C145.399 144.152 146.085 143.679 146.972 143.304C147.858 142.92 148.83 142.729 149.886 142.729C151.472 142.729 152.886 143.104 154.131 143.854C155.375 144.595 156.355 145.618 157.071 146.922C157.787 148.226 158.145 149.717 158.145 151.396C158.145 153.126 157.744 154.669 156.943 156.024C156.151 157.371 155.047 158.432 153.632 159.207C152.226 159.974 150.598 160.358 148.749 160.358ZM169.48 155.807V138.114H173.495V155.807H169.48ZM162.641 148.967V144.953H180.334V148.967H162.641Z" fill="#556FF9"/>
<mask id="mask0_1_9683" style="mask-type:alpha" maskUnits="userSpaceOnUse" x="108" y="20" width="74" height="74">
<rect x="108" y="20" width="74" height="74" fill="#D9D9D9"/>
</mask>
<g mask="url(#mask0_1_9683)">
<path d="M145.004 79.6629L140.118 83.2912C139.675 83.6314 139.245 83.6394 138.828 83.3151C138.411 82.9909 138.28 82.5659 138.434 82.0402L140.295 75.9922L135.439 72.4526C134.997 72.1129 134.86 71.691 135.031 71.1868C135.2 70.6827 135.568 70.4307 136.133 70.4307H142.063L144.109 62.9536L133.524 56.7807C132.477 56.1641 131.657 55.3627 131.066 54.3765C130.475 53.3904 130.18 52.3161 130.18 51.1537V31.5036C130.18 30.2785 130.615 29.2309 131.485 28.3609C132.354 27.4914 133.402 27.0566 134.627 27.0566H155.38C156.605 27.0566 157.653 27.4914 158.522 28.3609C159.392 29.2309 159.827 30.2785 159.827 31.5036V51.1537C159.827 52.296 159.527 53.3505 158.926 54.3172C158.325 55.2838 157.501 56.0852 156.454 56.7214L145.852 62.9536L147.944 70.4307H153.827C154.372 70.4307 154.73 70.6827 154.9 71.1868C155.07 71.691 154.933 72.1129 154.491 72.4526L149.635 75.9922L151.526 82.0402C151.68 82.5659 151.548 82.9829 151.132 83.2912C150.714 83.5996 150.275 83.5839 149.812 83.2442L145.004 79.6629ZM143.473 30.5547V58.364L145.223 59.3014L146.972 58.364V30.5547H143.473Z" fill="#556FF9"/>
</g>
</svg>
