<svg width="74" height="74" viewBox="0 0 74 74" fill="none" xmlns="http://www.w3.org/2000/svg">
<mask id="mask0_1_9665" style="mask-type:alpha" maskUnits="userSpaceOnUse" x="0" y="0" width="74" height="74">
<rect width="74" height="74" fill="#D9D9D9"/>
</mask>
<g mask="url(#mask0_1_9665)">
<path d="M52.6834 60.125C52.0533 60.125 51.5253 59.912 51.0993 59.486C50.6728 59.0595 50.4595 58.5312 50.4595 57.9011V44.1449C50.4595 43.5148 50.6728 42.9868 51.0993 42.5608C51.5253 42.1348 52.0533 41.9218 52.6834 41.9218H57.9011C58.5312 41.9218 59.0595 42.1348 59.486 42.5608C59.912 42.9868 60.125 43.5148 60.125 44.1449V57.9011C60.125 58.5312 59.912 59.0595 59.486 59.486C59.0595 59.912 58.5312 60.125 57.9011 60.125H52.6834ZM34.3907 60.125C33.7607 60.125 33.2327 59.912 32.8067 59.486C32.3807 59.0595 32.1676 58.5312 32.1676 57.9011V16.0989C32.1676 15.4688 32.3807 14.9405 32.8067 14.514C33.2327 14.088 33.7607 13.875 34.3907 13.875H39.6093C40.2393 13.875 40.7673 14.088 41.1933 14.514C41.6193 14.9405 41.8324 15.4688 41.8324 16.0989V57.9011C41.8324 58.5312 41.6193 59.0595 41.1933 59.486C40.7673 59.912 40.2393 60.125 39.6093 60.125H34.3907ZM16.0989 60.125C15.4688 60.125 14.9405 59.912 14.514 59.486C14.088 59.0595 13.875 58.5312 13.875 57.9011V31.2334C13.875 30.589 14.088 30.0548 14.514 29.6308C14.9405 29.2074 15.4688 28.9957 16.0989 28.9957H21.3166C21.9467 28.9957 22.4747 29.2087 22.9007 29.6347C23.3272 30.0607 23.5405 30.5887 23.5405 31.2188V57.8873C23.5405 58.5317 23.3272 59.0656 22.9007 59.4891C22.4747 59.913 21.9467 60.125 21.3166 60.125H16.0989Z" fill="#B6C1FF"/>
<path d="M52.6834 60.1254C52.0533 60.1254 51.5253 59.9124 51.0993 59.4864C50.6728 59.0599 50.4595 58.5316 50.4595 57.9016V44.1453C50.4595 43.5153 50.6728 42.9872 51.0993 42.5612C51.5253 42.1352 52.0533 41.9222 52.6834 41.9222H57.9011C58.5312 41.9222 59.0595 42.1352 59.486 42.5612C59.912 42.9872 60.125 43.5153 60.125 44.1453V57.9016C60.125 58.5316 59.912 59.0599 59.486 59.4864C59.0595 59.9124 58.5312 60.1254 57.9011 60.1254H52.6834ZM16.0989 60.1254C15.4688 60.1254 14.9405 59.9124 14.514 59.4864C14.088 59.0599 13.875 58.5316 13.875 57.9016V31.2338C13.875 30.5894 14.088 30.0552 14.514 29.6313C14.9405 29.2078 15.4688 28.9961 16.0989 28.9961H21.3166C21.9467 28.9961 22.4747 29.2091 22.9007 29.6351C23.3272 30.0611 23.5405 30.5892 23.5405 31.2192V57.8877C23.5405 58.5321 23.3272 59.066 22.9007 59.4895C22.4747 59.9134 21.9467 60.1254 21.3166 60.1254H16.0989Z" fill="#556FF9"/>
</g>
</svg>
