<svg width="74" height="74" viewBox="0 0 74 74" fill="none" xmlns="http://www.w3.org/2000/svg">
<mask id="mask0_1_9658" style="mask-type:alpha" maskUnits="userSpaceOnUse" x="0" y="0" width="74" height="74">
<rect width="74" height="74" fill="#D9D9D9"/>
</mask>
<g mask="url(#mask0_1_9658)">
<path d="M21.1656 38.7795C22.5017 35.5101 24.0948 32.4237 25.9448 29.5202C27.7948 26.6168 29.8701 23.841 32.1708 21.1929L26.5615 20.0953C25.6323 19.9097 24.7163 19.9514 23.8134 20.2201C22.91 20.4889 22.1382 20.9534 21.4979 21.6138L11.7854 31.3733C11.2396 31.9191 11.0389 32.5802 11.1833 33.3567C11.3277 34.1337 11.7597 34.6663 12.4791 34.9546L21.1656 38.7795ZM62.7012 9.64198C57.515 9.44824 52.6046 10.4365 47.9698 12.6066C43.335 14.7768 39.1618 17.7177 35.4499 21.4296C33.0583 23.8212 30.9424 26.375 29.1021 29.0909C27.2619 31.8063 25.7094 34.7216 24.4447 37.8368C24.2392 38.3306 24.1364 38.8345 24.1364 39.3484C24.1364 39.8622 24.332 40.305 24.723 40.6765L34.0624 49.9859C34.434 50.3774 34.8716 50.5781 35.3752 50.5879C35.8793 50.5976 36.3785 50.4997 36.8729 50.2942C39.9876 49.0809 42.9029 47.5364 45.6188 45.6607C48.3342 43.785 50.8877 41.6513 53.2793 39.2597C56.9911 35.5479 59.9401 31.3746 62.1262 26.7398C64.3122 22.1046 65.3084 17.1938 65.1147 12.0077C65.0828 11.7194 65.0078 11.4388 64.8896 11.1659C64.7709 10.893 64.5928 10.6382 64.3554 10.4012C64.1185 10.1638 63.8685 9.99065 63.6054 9.88171C63.3428 9.77328 63.0414 9.69337 62.7012 9.64198ZM44.2845 30.4244C43.3553 29.4958 42.8908 28.3524 42.8908 26.9942C42.8908 25.6365 43.3553 24.4931 44.2845 23.564C45.2136 22.6354 46.357 22.1711 47.7147 22.1711C49.0724 22.1711 50.2158 22.6354 51.1449 23.564C52.074 24.4931 52.5385 25.6365 52.5385 26.9942C52.5385 28.3524 52.074 29.4958 51.1449 30.4244C50.2158 31.3535 49.0724 31.8181 47.7147 31.8181C46.357 31.8181 45.2136 31.3535 44.2845 30.4244ZM35.9772 53.5432L39.725 62.2305C40.0133 62.9813 40.5536 63.421 41.346 63.5494C42.139 63.6779 42.8081 63.4695 43.3533 62.9243L53.0658 53.2118C53.7261 52.5514 54.1907 51.7696 54.4595 50.8661C54.7282 49.9632 54.7696 49.0472 54.5836 48.1181L53.5345 42.5388C50.9059 44.839 48.1348 46.9141 45.221 48.7641C42.3078 50.6141 39.2265 52.2071 35.9772 53.5432ZM14.1803 49.6359C15.6829 48.1338 17.5065 47.3799 19.6509 47.3743C21.7954 47.3681 23.6187 48.1161 25.1208 49.6182C26.6229 51.1203 27.3739 52.9435 27.3739 55.088C27.3739 57.2325 26.6229 59.0557 25.1208 60.5578C23.0292 62.6494 20.5626 63.9212 17.7208 64.3735C14.8785 64.8262 12.0184 65.2245 9.14062 65.5683C9.48442 62.6709 9.89553 59.806 10.374 56.9735C10.8524 54.1414 12.1212 51.6956 14.1803 49.6359Z" fill="#B6C1FF"/>
<path d="M21.1604 38.7795C22.4965 35.5101 24.0896 32.4237 25.9396 29.5202C27.7896 26.6168 29.8649 23.841 32.1656 21.1929L26.5563 20.0953C25.6271 19.9097 24.7111 19.9514 23.8082 20.2201C22.9048 20.4889 22.133 20.9534 21.4927 21.6138L11.7802 31.3733C11.2344 31.9191 11.0337 32.5802 11.1781 33.3567C11.3225 34.1337 11.7545 34.6663 12.4739 34.9546L21.1604 38.7795ZM62.696 9.64198C57.5098 9.44824 52.5994 10.4365 47.9646 12.6066C43.3298 14.7768 39.1566 17.7177 35.4447 21.4296C33.0531 23.8212 30.9372 26.375 29.0969 29.0909C27.2567 31.8063 25.7042 34.7216 24.4395 37.8368C24.234 38.3306 24.1312 38.8345 24.1312 39.3484C24.1312 39.8622 24.3268 40.305 24.7178 40.6765L34.0572 49.9859C34.4288 50.3774 34.8664 50.5781 35.37 50.5879C35.8741 50.5976 36.3733 50.4997 36.8677 50.2942C39.9824 49.0809 42.8977 47.5364 45.6136 45.6607C48.329 43.785 50.8825 41.6513 53.2741 39.2597C56.9859 35.5479 59.9349 31.3746 62.121 26.7398C64.307 22.1046 65.3032 17.1938 65.1095 12.0077C65.0776 11.7194 65.0026 11.4388 64.8844 11.1659C64.7657 10.893 64.5876 10.6382 64.3502 10.4012C64.1133 10.1638 63.8633 9.99065 63.6002 9.88171C63.3376 9.77328 63.0362 9.69337 62.696 9.64198ZM44.2793 30.4244C43.3501 29.4958 42.8856 28.3524 42.8856 26.9942C42.8856 25.6365 43.3501 24.4931 44.2793 23.564C45.2084 22.6354 46.3518 22.1711 47.7095 22.1711C49.0672 22.1711 50.2106 22.6354 51.1397 23.564C52.0688 24.4931 52.5333 25.6365 52.5333 26.9942C52.5333 28.3524 52.0688 29.4958 51.1397 30.4244C50.2106 31.3535 49.0672 31.8181 47.7095 31.8181C46.3518 31.8181 45.2084 31.3535 44.2793 30.4244ZM35.972 53.5432L39.7198 62.2305C40.0081 62.9813 40.5484 63.421 41.3408 63.5494C42.1338 63.6779 42.8029 63.4695 43.3481 62.9243L53.0606 53.2118C53.7209 52.5514 54.1855 51.7696 54.4543 50.8661C54.723 49.9632 54.7644 49.0472 54.5784 48.1181L53.5293 42.5388C50.9007 44.839 48.1296 46.9141 45.2158 48.7641C42.3026 50.6141 39.2213 52.2071 35.972 53.5432Z" fill="#556FF9"/>
</g>
</svg>
