<svg width="128" height="40" viewBox="0 0 128 40" fill="none" xmlns="http://www.w3.org/2000/svg">
<path d="M0.21336 2.60938V0.909091H10.3448V2.60938H6.26023V14H4.29148V2.60938H0.21336ZM14.8779 14.1982C13.9105 14.1982 13.0774 13.9915 12.3786 13.5781C11.684 13.1605 11.147 12.5746 10.7678 11.8203C10.3928 11.0618 10.2053 10.1733 10.2053 9.15483C10.2053 8.14915 10.3928 7.26278 10.7678 6.49574C11.147 5.72869 11.6754 5.12997 12.353 4.69957C13.0348 4.26918 13.8317 4.05398 14.7436 4.05398C15.2976 4.05398 15.8345 4.1456 16.3544 4.32884C16.8743 4.51207 17.3409 4.79972 17.7543 5.19176C18.1676 5.58381 18.4936 6.09304 18.7323 6.71946C18.9709 7.34162 19.0902 8.09801 19.0902 8.98864V9.66619H11.2855V8.23438H17.2174C17.2174 7.73153 17.1151 7.28622 16.9105 6.89844C16.706 6.50639 16.4183 6.19744 16.0476 5.97159C15.6811 5.74574 15.2507 5.63281 14.7564 5.63281C14.2195 5.63281 13.7507 5.76491 13.3502 6.02912C12.9539 6.28906 12.647 6.62997 12.4297 7.05185C12.2166 7.46946 12.1101 7.9233 12.1101 8.41335V9.53196C12.1101 10.1882 12.2252 10.7464 12.4553 11.2067C12.6897 11.6669 13.0156 12.0185 13.4333 12.2614C13.8509 12.5 14.3388 12.6193 14.897 12.6193C15.2593 12.6193 15.5895 12.5682 15.8878 12.4659C16.1861 12.3594 16.4439 12.2017 16.6612 11.9929C16.8786 11.7841 17.0448 11.5263 17.1598 11.2195L18.9688 11.5455C18.8239 12.0781 18.5639 12.5447 18.1889 12.9453C17.8182 13.3416 17.3516 13.6506 16.7891 13.8722C16.2308 14.0895 15.5938 14.1982 14.8779 14.1982ZM23.708 14.2173C23.0859 14.2173 22.5234 14.1023 22.0205 13.8722C21.5177 13.6378 21.1192 13.299 20.8252 12.8558C20.5354 12.4126 20.3906 11.8693 20.3906 11.2259C20.3906 10.6719 20.4971 10.2159 20.7102 9.85795C20.9232 9.5 21.2109 9.21662 21.5731 9.00781C21.9353 8.79901 22.3401 8.64134 22.7876 8.5348C23.235 8.42827 23.691 8.3473 24.1555 8.2919C24.7435 8.22372 25.2208 8.16832 25.5873 8.12571C25.9538 8.07884 26.2201 8.00426 26.3863 7.90199C26.5525 7.79972 26.6356 7.63352 26.6356 7.40341V7.35866C26.6356 6.80043 26.4779 6.3679 26.1626 6.06108C25.8515 5.75426 25.387 5.60085 24.7691 5.60085C24.1256 5.60085 23.6185 5.74361 23.2478 6.02912C22.8813 6.31037 22.6278 6.62358 22.4871 6.96875L20.691 6.55966C20.904 5.96307 21.2151 5.48153 21.6242 5.11506C22.0376 4.74432 22.5127 4.47585 23.0496 4.30966C23.5866 4.1392 24.1512 4.05398 24.7435 4.05398C25.1356 4.05398 25.5511 4.10085 25.99 4.1946C26.4332 4.28409 26.8465 4.45028 27.23 4.69318C27.6178 4.93608 27.9353 5.28338 28.1825 5.73509C28.4296 6.18253 28.5532 6.7642 28.5532 7.48011V14H26.6867V12.6577H26.61C26.4864 12.9048 26.3011 13.1477 26.0539 13.3864C25.8067 13.625 25.4893 13.8232 25.1015 13.9808C24.7137 14.1385 24.2492 14.2173 23.708 14.2173ZM24.1235 12.6832C24.6519 12.6832 25.1036 12.5788 25.4786 12.37C25.8579 12.1612 26.1455 11.8885 26.3415 11.5518C26.5418 11.2109 26.642 10.8466 26.642 10.4588V9.19318C26.5738 9.26136 26.4417 9.32528 26.2457 9.38494C26.0539 9.44034 25.8344 9.48935 25.5873 9.53196C25.3401 9.57031 25.0994 9.60653 24.865 9.64062C24.6306 9.67045 24.4346 9.69602 24.2769 9.71733C23.9062 9.7642 23.5674 9.84304 23.2606 9.95384C22.958 10.0646 22.7151 10.2244 22.5319 10.4332C22.3529 10.6378 22.2634 10.9105 22.2634 11.2514C22.2634 11.7244 22.4381 12.0824 22.7876 12.3253C23.137 12.5639 23.5823 12.6832 24.1235 12.6832ZM30.7388 14V4.18182H32.5733V5.77983H32.6948C32.8993 5.23864 33.2339 4.81676 33.6983 4.5142C34.1628 4.20739 34.7189 4.05398 35.3667 4.05398C36.0229 4.05398 36.5726 4.20739 37.0158 4.5142C37.4633 4.82102 37.7935 5.2429 38.0066 5.77983H38.1089C38.3432 5.25568 38.7161 4.83807 39.2275 4.52699C39.7388 4.21165 40.3482 4.05398 41.0556 4.05398C41.9462 4.05398 42.6728 4.3331 43.2353 4.89134C43.802 5.44957 44.0854 6.29119 44.0854 7.41619V14H42.1742V7.59517C42.1742 6.9304 41.9931 6.44886 41.6309 6.15057C41.2687 5.85227 40.8361 5.70312 40.3333 5.70312C39.7111 5.70312 39.2275 5.89489 38.8823 6.27841C38.5371 6.65767 38.3645 7.1456 38.3645 7.74219V14H36.4597V7.47372C36.4597 6.94105 36.2935 6.51278 35.9611 6.18892C35.6287 5.86506 35.1962 5.70312 34.6635 5.70312C34.3013 5.70312 33.9668 5.79901 33.66 5.99077C33.3574 6.17827 33.1124 6.44034 32.9249 6.77699C32.7417 7.11364 32.6501 7.50355 32.6501 7.94673V14H30.7388ZM50.8441 0.909091H53.2411L57.4087 11.0852H57.5622L61.7298 0.909091H64.1268V14H62.2475V4.52699H62.1261L58.2653 13.9808H56.7056L52.8448 4.5206H52.7234V14H50.8441V0.909091ZM70.7165 14.1982C69.7492 14.1982 68.9161 13.9915 68.2172 13.5781C67.5226 13.1605 66.9857 12.5746 66.6064 11.8203C66.2314 11.0618 66.0439 10.1733 66.0439 9.15483C66.0439 8.14915 66.2314 7.26278 66.6064 6.49574C66.9857 5.72869 67.5141 5.12997 68.1917 4.69957C68.8735 4.26918 69.6704 4.05398 70.5823 4.05398C71.1363 4.05398 71.6732 4.1456 72.1931 4.32884C72.713 4.51207 73.1796 4.79972 73.593 5.19176C74.0063 5.58381 74.3323 6.09304 74.5709 6.71946C74.8096 7.34162 74.9289 8.09801 74.9289 8.98864V9.66619H67.1242V8.23438H73.056C73.056 7.73153 72.9537 7.28622 72.7492 6.89844C72.5447 6.50639 72.257 6.19744 71.8863 5.97159C71.5198 5.74574 71.0894 5.63281 70.5951 5.63281C70.0581 5.63281 69.5894 5.76491 69.1888 6.02912C68.7925 6.28906 68.4857 6.62997 68.2684 7.05185C68.0553 7.46946 67.9488 7.9233 67.9488 8.41335V9.53196C67.9488 10.1882 68.0638 10.7464 68.2939 11.2067C68.5283 11.6669 68.8543 12.0185 69.2719 12.2614C69.6895 12.5 70.1775 12.6193 70.7357 12.6193C71.0979 12.6193 71.4282 12.5682 71.7265 12.4659C72.0248 12.3594 72.2826 12.2017 72.4999 11.9929C72.7172 11.7841 72.8834 11.5263 72.9985 11.2195L74.8074 11.5455C74.6626 12.0781 74.4026 12.5447 74.0276 12.9453C73.6569 13.3416 73.1903 13.6506 72.6278 13.8722C72.0695 14.0895 71.4324 14.1982 70.7165 14.1982ZM76.6895 14V4.18182H78.524V5.77983H78.6454C78.85 5.23864 79.1845 4.81676 79.649 4.5142C80.1135 4.20739 80.6696 4.05398 81.3173 4.05398C81.9735 4.05398 82.5233 4.20739 82.9664 4.5142C83.4139 4.82102 83.7441 5.2429 83.9572 5.77983H84.0595C84.2939 5.25568 84.6667 4.83807 85.1781 4.52699C85.6895 4.21165 86.2988 4.05398 87.0062 4.05398C87.8968 4.05398 88.6234 4.3331 89.1859 4.89134C89.7527 5.44957 90.036 6.29119 90.036 7.41619V14H88.1248V7.59517C88.1248 6.9304 87.9437 6.44886 87.5815 6.15057C87.2193 5.85227 86.7868 5.70312 86.2839 5.70312C85.6618 5.70312 85.1781 5.89489 84.8329 6.27841C84.4878 6.65767 84.3152 7.1456 84.3152 7.74219V14H82.4103V7.47372C82.4103 6.94105 82.2441 6.51278 81.9118 6.18892C81.5794 5.86506 81.1468 5.70312 80.6142 5.70312C80.252 5.70312 79.9174 5.79901 79.6106 5.99077C79.3081 6.17827 79.063 6.44034 78.8755 6.77699C78.6923 7.11364 78.6007 7.50355 78.6007 7.94673V14H76.6895ZM92.3911 14V0.909091H94.3023V5.77344H94.4173C94.5281 5.56889 94.6879 5.33239 94.8968 5.06392C95.1056 4.79545 95.3953 4.56108 95.7661 4.3608C96.1368 4.15625 96.6269 4.05398 97.2362 4.05398C98.0289 4.05398 98.7362 4.25426 99.3584 4.65483C99.9806 5.0554 100.468 5.63281 100.822 6.38707C101.18 7.14133 101.359 8.04901 101.359 9.11009C101.359 10.1712 101.182 11.081 100.829 11.8395C100.475 12.5937 99.9891 13.1754 99.3712 13.5845C98.7533 13.9893 98.048 14.1918 97.2554 14.1918C96.6588 14.1918 96.1709 14.0916 95.7916 13.8913C95.4166 13.6911 95.1226 13.4567 94.9095 13.1882C94.6965 12.9197 94.5324 12.6811 94.4173 12.4723H94.2575V14H92.3911ZM94.2639 9.09091C94.2639 9.78125 94.3641 10.3864 94.5644 10.9062C94.7646 11.4261 95.0544 11.8331 95.4337 12.1271C95.8129 12.4169 96.2774 12.5618 96.8271 12.5618C97.3982 12.5618 97.8754 12.4105 98.259 12.108C98.6425 11.8011 98.9323 11.3857 99.1283 10.8615C99.3286 10.3374 99.4287 9.74716 99.4287 9.09091C99.4287 8.44318 99.3307 7.86151 99.1347 7.34588C98.9429 6.83026 98.6531 6.4233 98.2654 6.125C97.8818 5.8267 97.4024 5.67756 96.8271 5.67756C96.2732 5.67756 95.8044 5.82031 95.4209 6.10582C95.0416 6.39133 94.754 6.78977 94.558 7.30114C94.3619 7.8125 94.2639 8.40909 94.2639 9.09091ZM107.377 14.1982C106.409 14.1982 105.576 13.9915 104.877 13.5781C104.183 13.1605 103.646 12.5746 103.267 11.8203C102.892 11.0618 102.704 10.1733 102.704 9.15483C102.704 8.14915 102.892 7.26278 103.267 6.49574C103.646 5.72869 104.174 5.12997 104.852 4.69957C105.534 4.26918 106.331 4.05398 107.243 4.05398C107.797 4.05398 108.333 4.1456 108.853 4.32884C109.373 4.51207 109.84 4.79972 110.253 5.19176C110.667 5.58381 110.993 6.09304 111.231 6.71946C111.47 7.34162 111.589 8.09801 111.589 8.98864V9.66619H103.784V8.23438H109.716C109.716 7.73153 109.614 7.28622 109.409 6.89844C109.205 6.50639 108.917 6.19744 108.547 5.97159C108.18 5.74574 107.75 5.63281 107.255 5.63281C106.718 5.63281 106.25 5.76491 105.849 6.02912C105.453 6.28906 105.146 6.62997 104.929 7.05185C104.716 7.46946 104.609 7.9233 104.609 8.41335V9.53196C104.609 10.1882 104.724 10.7464 104.954 11.2067C105.189 11.6669 105.515 12.0185 105.932 12.2614C106.35 12.5 106.838 12.6193 107.396 12.6193C107.758 12.6193 108.088 12.5682 108.387 12.4659C108.685 12.3594 108.943 12.2017 109.16 11.9929C109.377 11.7841 109.544 11.5263 109.659 11.2195L111.468 11.5455C111.323 12.0781 111.063 12.5447 110.688 12.9453C110.317 13.3416 109.85 13.6506 109.288 13.8722C108.73 14.0895 108.093 14.1982 107.377 14.1982ZM113.35 14V4.18182H115.197V5.74148H115.299C115.478 5.21307 115.794 4.79758 116.245 4.49503C116.701 4.18821 117.217 4.0348 117.792 4.0348C117.911 4.0348 118.052 4.03906 118.214 4.04759C118.38 4.05611 118.51 4.06676 118.604 4.07955V5.90767C118.527 5.88636 118.391 5.86293 118.195 5.83736C117.999 5.80753 117.803 5.79261 117.607 5.79261C117.155 5.79261 116.752 5.88849 116.399 6.08026C116.049 6.26776 115.772 6.52983 115.568 6.86648C115.363 7.19886 115.261 7.57812 115.261 8.00426V14H113.35ZM127.255 6.57884L125.523 6.88565C125.45 6.66406 125.335 6.45312 125.178 6.25284C125.024 6.05256 124.816 5.88849 124.551 5.76065C124.287 5.63281 123.957 5.56889 123.561 5.56889C123.019 5.56889 122.568 5.69034 122.205 5.93324C121.843 6.17187 121.662 6.48082 121.662 6.86009C121.662 7.18821 121.784 7.45241 122.026 7.6527C122.269 7.85298 122.661 8.01705 123.203 8.14489L124.762 8.50284C125.666 8.71165 126.339 9.03338 126.782 9.46804C127.225 9.9027 127.447 10.4673 127.447 11.1619C127.447 11.75 127.276 12.2741 126.936 12.7344C126.599 13.1903 126.128 13.5483 125.523 13.8082C124.922 14.0682 124.225 14.1982 123.433 14.1982C122.333 14.1982 121.436 13.9638 120.742 13.495C120.047 13.022 119.621 12.3509 119.463 11.4815L121.311 11.2003C121.426 11.6818 121.662 12.0462 122.02 12.2933C122.378 12.5362 122.845 12.6577 123.42 12.6577C124.046 12.6577 124.547 12.5277 124.922 12.2678C125.297 12.0036 125.485 11.6818 125.485 11.3026C125.485 10.9957 125.369 10.7379 125.139 10.5291C124.914 10.3203 124.566 10.1626 124.097 10.0561L122.436 9.69176C121.519 9.48295 120.842 9.15057 120.403 8.6946C119.968 8.23864 119.751 7.66122 119.751 6.96236C119.751 6.38281 119.913 5.87571 120.237 5.44105C120.561 5.00639 121.008 4.66761 121.579 4.42472C122.15 4.17756 122.804 4.05398 123.541 4.05398C124.602 4.05398 125.438 4.28409 126.047 4.74432C126.656 5.20028 127.059 5.81179 127.255 6.57884ZM8.82709 36.2173C8.20493 36.2173 7.64243 36.1023 7.13959 35.8722C6.63674 35.6378 6.23831 35.299 5.94427 34.8558C5.6545 34.4126 5.50961 33.8693 5.50961 33.2259C5.50961 32.6719 5.61615 32.2159 5.82922 31.858C6.04228 31.5 6.32993 31.2166 6.69214 31.0078C7.05436 30.799 7.45919 30.6413 7.90663 30.5348C8.35407 30.4283 8.81004 30.3473 9.27453 30.2919C9.8626 30.2237 10.3399 30.1683 10.7063 30.1257C11.0728 30.0788 11.3392 30.0043 11.5054 29.902C11.6715 29.7997 11.7546 29.6335 11.7546 29.4034V29.3587C11.7546 28.8004 11.597 28.3679 11.2816 28.0611C10.9706 27.7543 10.5061 27.6009 9.88816 27.6009C9.2447 27.6009 8.7376 27.7436 8.36686 28.0291C8.00038 28.3104 7.74683 28.6236 7.6062 28.9688L5.81004 28.5597C6.02311 27.9631 6.33419 27.4815 6.74328 27.1151C7.15663 26.7443 7.63177 26.4759 8.1687 26.3097C8.70564 26.1392 9.27027 26.054 9.8626 26.054C10.2546 26.054 10.6701 26.1009 11.109 26.1946C11.5522 26.2841 11.9656 26.4503 12.3491 26.6932C12.7369 26.9361 13.0544 27.2834 13.3015 27.7351C13.5487 28.1825 13.6723 28.7642 13.6723 29.4801V36H11.8058V34.6577H11.7291C11.6055 34.9048 11.4201 35.1477 11.173 35.3864C10.9258 35.625 10.6083 35.8232 10.2206 35.9808C9.83277 36.1385 9.36828 36.2173 8.82709 36.2173ZM9.24257 34.6832C9.77098 34.6832 10.2227 34.5788 10.5977 34.37C10.9769 34.1612 11.2646 33.8885 11.4606 33.5518C11.6609 33.2109 11.761 32.8466 11.761 32.4588V31.1932C11.6929 31.2614 11.5608 31.3253 11.3647 31.3849C11.173 31.4403 10.9535 31.4893 10.7063 31.532C10.4592 31.5703 10.2184 31.6065 9.98405 31.6406C9.74967 31.6705 9.55365 31.696 9.39598 31.7173C9.02524 31.7642 8.68646 31.843 8.37964 31.9538C8.07709 32.0646 7.83419 32.2244 7.65095 32.4332C7.47197 32.6378 7.38248 32.9105 7.38248 33.2514C7.38248 33.7244 7.5572 34.0824 7.90663 34.3253C8.25606 34.5639 8.70137 34.6832 9.24257 34.6832ZM20.441 26.1818V27.7159H15.0781V26.1818H20.441ZM16.5163 23.8295H18.4275V33.1172C18.4275 33.4879 18.4829 33.767 18.5937 33.9545C18.7045 34.1378 18.8472 34.2635 19.022 34.3317C19.2009 34.3956 19.3948 34.4276 19.6036 34.4276C19.757 34.4276 19.8913 34.4169 20.0063 34.3956C20.1214 34.3743 20.2109 34.3572 20.2748 34.3445L20.62 35.9233C20.5092 35.9659 20.3515 36.0085 20.147 36.0511C19.9424 36.098 19.6867 36.1236 19.3799 36.1278C18.8771 36.1364 18.4083 36.0469 17.9737 35.8594C17.539 35.6719 17.1874 35.3821 16.919 34.9901C16.6505 34.598 16.5163 34.1058 16.5163 33.5135V23.8295ZM27.8069 39.6818C27.5214 39.6818 27.2615 39.6584 27.0271 39.6115C26.7927 39.5689 26.618 39.522 26.5029 39.4709L26.9632 37.9048C27.3126 37.9986 27.6237 38.0391 27.8964 38.0263C28.1691 38.0135 28.4099 37.9112 28.6187 37.7195C28.8318 37.5277 29.0193 37.2145 29.1812 36.7798L29.4177 36.1278L25.8254 26.1818H27.8708L30.3573 33.8011H30.4596L32.9461 26.1818H34.998L30.9518 37.3104C30.7643 37.8217 30.5257 38.2543 30.2359 38.608C29.9461 38.9659 29.601 39.2344 29.2004 39.4134C28.7998 39.5923 28.3353 39.6818 27.8069 39.6818ZM40.2358 36.1982C39.3154 36.1982 38.5121 35.9872 37.826 35.5653C37.1399 35.1435 36.6073 34.5533 36.228 33.7947C35.8487 33.0362 35.6591 32.1499 35.6591 31.1357C35.6591 30.1172 35.8487 29.2266 36.228 28.4638C36.6073 27.701 37.1399 27.1087 37.826 26.6868C38.5121 26.2649 39.3154 26.054 40.2358 26.054C41.1563 26.054 41.9595 26.2649 42.6456 26.6868C43.3317 27.1087 43.8644 27.701 44.2436 28.4638C44.6229 29.2266 44.8125 30.1172 44.8125 31.1357C44.8125 32.1499 44.6229 33.0362 44.2436 33.7947C43.8644 34.5533 43.3317 35.1435 42.6456 35.5653C41.9595 35.9872 41.1563 36.1982 40.2358 36.1982ZM40.2422 34.5938C40.8388 34.5938 41.3331 34.4361 41.7252 34.1207C42.1172 33.8054 42.407 33.3857 42.5945 32.8615C42.7862 32.3374 42.8821 31.7599 42.8821 31.1293C42.8821 30.5028 42.7862 29.9276 42.5945 29.4034C42.407 28.875 42.1172 28.451 41.7252 28.1314C41.3331 27.8118 40.8388 27.652 40.2422 27.652C39.6413 27.652 39.1428 27.8118 38.7465 28.1314C38.3544 28.451 38.0625 28.875 37.8708 29.4034C37.6833 29.9276 37.5895 30.5028 37.5895 31.1293C37.5895 31.7599 37.6833 32.3374 37.8708 32.8615C38.0625 33.3857 38.3544 33.8054 38.7465 34.1207C39.1428 34.4361 39.6413 34.5938 40.2422 34.5938ZM52.8053 31.9283V26.1818H54.7229V36H52.8437V34.2997H52.7414C52.5155 34.8239 52.1533 35.2607 51.6547 35.6101C51.1604 35.9553 50.5447 36.1278 49.8074 36.1278C49.1768 36.1278 48.6185 35.9893 48.1327 35.7124C47.6512 35.4311 47.2719 35.0156 46.9949 34.4659C46.7222 33.9162 46.5859 33.2365 46.5859 32.4268V26.1818H48.4971V32.1967C48.4971 32.8658 48.6824 33.3984 49.0532 33.7947C49.4239 34.1911 49.9055 34.3892 50.4978 34.3892C50.8557 34.3892 51.2116 34.2997 51.5653 34.1207C51.9232 33.9418 52.2194 33.6712 52.4538 33.3089C52.6924 32.9467 52.8096 32.4865 52.8053 31.9283ZM56.9309 36V26.1818H58.7782V27.7415H58.8805C59.0595 27.2131 59.3748 26.7976 59.8265 26.495C60.2825 26.1882 60.7981 26.0348 61.3734 26.0348C61.4927 26.0348 61.6333 26.0391 61.7953 26.0476C61.9615 26.0561 62.0914 26.0668 62.1852 26.0795V27.9077C62.1085 27.8864 61.9721 27.8629 61.7761 27.8374C61.5801 27.8075 61.3841 27.7926 61.188 27.7926C60.7363 27.7926 60.3336 27.8885 59.9799 28.0803C59.6305 28.2678 59.3535 28.5298 59.149 28.8665C58.9444 29.1989 58.8422 29.5781 58.8422 30.0043V36H56.9309ZM75.2401 28.5788L73.5078 28.8857C73.4354 28.6641 73.3203 28.4531 73.1626 28.2528C73.0092 28.0526 72.8004 27.8885 72.5362 27.7607C72.272 27.6328 71.9418 27.5689 71.5455 27.5689C71.0043 27.5689 70.5526 27.6903 70.1903 27.9332C69.8281 28.1719 69.647 28.4808 69.647 28.8601C69.647 29.1882 69.7685 29.4524 70.0114 29.6527C70.2543 29.853 70.6463 30.017 71.1875 30.1449L72.7472 30.5028C73.6506 30.7116 74.3239 31.0334 74.767 31.468C75.2102 31.9027 75.4318 32.4673 75.4318 33.1619C75.4318 33.75 75.2614 34.2741 74.9205 34.7344C74.5838 35.1903 74.1129 35.5483 73.5078 35.8082C72.907 36.0682 72.2102 36.1982 71.4176 36.1982C70.3182 36.1982 69.4212 35.9638 68.7266 35.495C68.032 35.022 67.6058 34.3509 67.4481 33.4815L69.2955 33.2003C69.4105 33.6818 69.647 34.0462 70.005 34.2933C70.3629 34.5362 70.8295 34.6577 71.4048 34.6577C72.0312 34.6577 72.532 34.5277 72.907 34.2678C73.282 34.0036 73.4695 33.6818 73.4695 33.3026C73.4695 32.9957 73.3544 32.7379 73.1243 32.5291C72.8984 32.3203 72.5511 32.1626 72.0824 32.0561L70.4205 31.6918C69.5043 31.483 68.8267 31.1506 68.3878 30.6946C67.9531 30.2386 67.7358 29.6612 67.7358 28.9624C67.7358 28.3828 67.8977 27.8757 68.2216 27.4411C68.5455 27.0064 68.9929 26.6676 69.5639 26.4247C70.1349 26.1776 70.7891 26.054 71.5263 26.054C72.5874 26.054 73.4226 26.2841 74.032 26.7443C74.6413 27.2003 75.044 27.8118 75.2401 28.5788ZM81.4047 36.1982C80.4374 36.1982 79.6043 35.9915 78.9054 35.5781C78.2108 35.1605 77.6739 34.5746 77.2946 33.8203C76.9196 33.0618 76.7321 32.1733 76.7321 31.1548C76.7321 30.1491 76.9196 29.2628 77.2946 28.4957C77.6739 27.7287 78.2023 27.13 78.8799 26.6996C79.5617 26.2692 80.3586 26.054 81.2705 26.054C81.8245 26.054 82.3614 26.1456 82.8813 26.3288C83.4012 26.5121 83.8678 26.7997 84.2812 27.1918C84.6945 27.5838 85.0205 28.093 85.2591 28.7195C85.4978 29.3416 85.6171 30.098 85.6171 30.9886V31.6662H77.8124V30.2344H83.7442C83.7442 29.7315 83.6419 29.2862 83.4374 28.8984C83.2329 28.5064 82.9452 28.1974 82.5745 27.9716C82.208 27.7457 81.7776 27.6328 81.2833 27.6328C80.7464 27.6328 80.2776 27.7649 79.877 28.0291C79.4807 28.2891 79.1739 28.63 78.9566 29.0518C78.7435 29.4695 78.637 29.9233 78.637 30.4134V31.532C78.637 32.1882 78.752 32.7464 78.9821 33.2067C79.2165 33.6669 79.5425 34.0185 79.9601 34.2614C80.3777 34.5 80.8657 34.6193 81.4239 34.6193C81.7861 34.6193 82.1164 34.5682 82.4147 34.4659C82.713 34.3594 82.9708 34.2017 83.1881 33.9929C83.4054 33.7841 83.5716 33.5263 83.6867 33.2195L85.4956 33.5455C85.3508 34.0781 85.0908 34.5447 84.7158 34.9453C84.3451 35.3416 83.8785 35.6506 83.316 35.8722C82.7577 36.0895 82.1206 36.1982 81.4047 36.1982ZM87.3777 36V26.1818H89.225V27.7415H89.3272C89.5062 27.2131 89.8215 26.7976 90.2732 26.495C90.7292 26.1882 91.2448 26.0348 91.8201 26.0348C91.9394 26.0348 92.0801 26.0391 92.242 26.0476C92.4082 26.0561 92.5382 26.0668 92.6319 26.0795V27.9077C92.5552 27.8864 92.4188 27.8629 92.2228 27.8374C92.0268 27.8075 91.8308 27.7926 91.6348 27.7926C91.183 27.7926 90.7803 27.8885 90.4267 28.0803C90.0772 28.2678 89.8002 28.5298 89.5957 28.8665C89.3911 29.1989 89.2889 29.5781 89.2889 30.0043V36H87.3777ZM102.624 26.1818L99.0635 36H97.018L93.4512 26.1818H95.5031L97.9896 33.7372H98.0919L100.572 26.1818H102.624ZM104.06 36V26.1818H105.971V36H104.06ZM105.025 24.6669C104.693 24.6669 104.407 24.5561 104.169 24.3345C103.934 24.1087 103.817 23.8402 103.817 23.5291C103.817 23.2138 103.934 22.9453 104.169 22.7237C104.407 22.4979 104.693 22.3849 105.025 22.3849C105.358 22.3849 105.641 22.4979 105.875 22.7237C106.114 22.9453 106.233 23.2138 106.233 23.5291C106.233 23.8402 106.114 24.1087 105.875 24.3345C105.641 24.5561 105.358 24.6669 105.025 24.6669ZM112.318 36.1982C111.368 36.1982 110.55 35.983 109.864 35.5526C109.182 35.1179 108.658 34.5192 108.291 33.7564C107.925 32.9936 107.741 32.12 107.741 31.1357C107.741 30.1385 107.929 29.2585 108.304 28.4957C108.679 27.7287 109.207 27.13 109.889 26.6996C110.571 26.2692 111.374 26.054 112.299 26.054C113.045 26.054 113.709 26.1925 114.293 26.4695C114.877 26.7422 115.348 27.1257 115.706 27.62C116.068 28.1143 116.283 28.6918 116.351 29.3523H114.491C114.389 28.892 114.155 28.4957 113.788 28.1634C113.426 27.831 112.94 27.6648 112.331 27.6648C111.798 27.6648 111.332 27.8054 110.931 28.0866C110.535 28.3636 110.226 28.7599 110.004 29.2756C109.783 29.7869 109.672 30.392 109.672 31.0909C109.672 31.8068 109.78 32.4247 109.998 32.9446C110.215 33.4645 110.522 33.8672 110.918 34.1527C111.319 34.4382 111.79 34.581 112.331 34.581C112.693 34.581 113.021 34.5149 113.315 34.3828C113.614 34.2464 113.863 34.0526 114.063 33.8011C114.268 33.5497 114.41 33.2472 114.491 32.8935H116.351C116.283 33.5284 116.077 34.0952 115.731 34.5938C115.386 35.0923 114.924 35.4844 114.344 35.7699C113.769 36.0554 113.094 36.1982 112.318 36.1982ZM122.267 36.1982C121.3 36.1982 120.466 35.9915 119.768 35.5781C119.073 35.1605 118.536 34.5746 118.157 33.8203C117.782 33.0618 117.594 32.1733 117.594 31.1548C117.594 30.1491 117.782 29.2628 118.157 28.4957C118.536 27.7287 119.064 27.13 119.742 26.6996C120.424 26.2692 121.221 26.054 122.133 26.054C122.687 26.054 123.224 26.1456 123.743 26.3288C124.263 26.5121 124.73 26.7997 125.143 27.1918C125.557 27.5838 125.883 28.093 126.121 28.7195C126.36 29.3416 126.479 30.098 126.479 30.9886V31.6662H118.675V30.2344H124.606C124.606 29.7315 124.504 29.2862 124.3 28.8984C124.095 28.5064 123.807 28.1974 123.437 27.9716C123.07 27.7457 122.64 27.6328 122.145 27.6328C121.608 27.6328 121.14 27.7649 120.739 28.0291C120.343 28.2891 120.036 28.63 119.819 29.0518C119.606 29.4695 119.499 29.9233 119.499 30.4134V31.532C119.499 32.1882 119.614 32.7464 119.844 33.2067C120.079 33.6669 120.405 34.0185 120.822 34.2614C121.24 34.5 121.728 34.6193 122.286 34.6193C122.648 34.6193 122.978 34.5682 123.277 34.4659C123.575 34.3594 123.833 34.2017 124.05 33.9929C124.268 33.7841 124.434 33.5263 124.549 33.2195L126.358 33.5455C126.213 34.0781 125.953 34.5447 125.578 34.9453C125.207 35.3416 124.741 35.6506 124.178 35.8722C123.62 36.0895 122.983 36.1982 122.267 36.1982Z" fill="black"/>
</svg>
