<svg width="289" height="250" viewBox="0 0 289 250" fill="none" xmlns="http://www.w3.org/2000/svg">
<path d="M69.8825 184.909H72.1261L75.5458 190.86H75.6865L79.1062 184.909H81.3498L76.6005 192.861V198H74.6318V192.861L69.8825 184.909ZM85.3156 198.198C84.3483 198.198 83.5152 197.991 82.8163 197.578C82.1217 197.161 81.5848 196.575 81.2055 195.82C80.8305 195.062 80.643 194.173 80.643 193.155C80.643 192.149 80.8305 191.263 81.2055 190.496C81.5848 189.729 82.1132 189.13 82.7908 188.7C83.4726 188.269 84.2695 188.054 85.1814 188.054C85.7354 188.054 86.2723 188.146 86.7922 188.329C87.3121 188.512 87.7787 188.8 88.192 189.192C88.6054 189.584 88.9314 190.093 89.17 190.719C89.4087 191.342 89.528 192.098 89.528 192.989V193.666H81.7233V192.234H87.6551C87.6551 191.732 87.5528 191.286 87.3483 190.898C87.1438 190.506 86.8561 190.197 86.4854 189.972C86.1189 189.746 85.6885 189.633 85.1942 189.633C84.6572 189.633 84.1885 189.765 83.7879 190.029C83.3916 190.289 83.0848 190.63 82.8675 191.052C82.6544 191.469 82.5479 191.923 82.5479 192.413V193.532C82.5479 194.188 82.6629 194.746 82.893 195.207C83.1274 195.667 83.4534 196.018 83.871 196.261C84.2886 196.5 84.7766 196.619 85.3348 196.619C85.697 196.619 86.0273 196.568 86.3256 196.466C86.6239 196.359 86.8817 196.202 87.099 195.993C87.3163 195.784 87.4825 195.526 87.5976 195.219L89.4065 195.545C89.2617 196.078 89.0017 196.545 88.6267 196.945C88.256 197.342 87.7894 197.651 87.2269 197.872C86.6686 198.089 86.0315 198.198 85.3156 198.198ZM94.1458 198.217C93.5236 198.217 92.9611 198.102 92.4583 197.872C91.9555 197.638 91.557 197.299 91.263 196.856C90.9732 196.413 90.8283 195.869 90.8283 195.226C90.8283 194.672 90.9349 194.216 91.1479 193.858C91.361 193.5 91.6486 193.217 92.0108 193.008C92.3731 192.799 92.7779 192.641 93.2253 192.535C93.6728 192.428 94.1287 192.347 94.5932 192.292C95.1813 192.224 95.6586 192.168 96.0251 192.126C96.3915 192.079 96.6579 192.004 96.8241 191.902C96.9903 191.8 97.0733 191.634 97.0733 191.403V191.359C97.0733 190.8 96.9157 190.368 96.6003 190.061C96.2893 189.754 95.8248 189.601 95.2069 189.601C94.5634 189.601 94.0563 189.744 93.6856 190.029C93.3191 190.31 93.0655 190.624 92.9249 190.969L91.1287 190.56C91.3418 189.963 91.6529 189.482 92.062 189.115C92.4753 188.744 92.9505 188.476 93.4874 188.31C94.0243 188.139 94.589 188.054 95.1813 188.054C95.5733 188.054 95.9888 188.101 96.4278 188.195C96.8709 188.284 97.2843 188.45 97.6678 188.693C98.0556 188.936 98.3731 189.283 98.6202 189.735C98.8674 190.183 98.991 190.764 98.991 191.48V198H97.1245V196.658H97.0478C96.9242 196.905 96.7388 197.148 96.4917 197.386C96.2445 197.625 95.927 197.823 95.5393 197.981C95.1515 198.138 94.687 198.217 94.1458 198.217ZM94.5613 196.683C95.0897 196.683 95.5414 196.579 95.9164 196.37C96.2956 196.161 96.5833 195.888 96.7793 195.552C96.9796 195.211 97.0797 194.847 97.0797 194.459V193.193C97.0116 193.261 96.8795 193.325 96.6834 193.385C96.4917 193.44 96.2722 193.489 96.0251 193.532C95.7779 193.57 95.5371 193.607 95.3028 193.641C95.0684 193.67 94.8724 193.696 94.7147 193.717C94.3439 193.764 94.0052 193.843 93.6983 193.954C93.3958 194.065 93.1529 194.224 92.9697 194.433C92.7907 194.638 92.7012 194.911 92.7012 195.251C92.7012 195.724 92.8759 196.082 93.2253 196.325C93.5748 196.564 94.0201 196.683 94.5613 196.683ZM101.177 198V188.182H103.024V189.741H103.126C103.305 189.213 103.62 188.798 104.072 188.495C104.528 188.188 105.044 188.035 105.619 188.035C105.738 188.035 105.879 188.039 106.041 188.048C106.207 188.056 106.337 188.067 106.431 188.08V189.908C106.354 189.886 106.218 189.863 106.022 189.837C105.826 189.808 105.63 189.793 105.434 189.793C104.982 189.793 104.579 189.888 104.226 190.08C103.876 190.268 103.599 190.53 103.395 190.866C103.19 191.199 103.088 191.578 103.088 192.004V198H101.177ZM115.082 190.579L113.35 190.886C113.277 190.664 113.162 190.453 113.005 190.253C112.851 190.053 112.642 189.888 112.378 189.761C112.114 189.633 111.784 189.569 111.387 189.569C110.846 189.569 110.395 189.69 110.032 189.933C109.67 190.172 109.489 190.481 109.489 190.86C109.489 191.188 109.61 191.452 109.853 191.653C110.096 191.853 110.488 192.017 111.029 192.145L112.589 192.503C113.493 192.712 114.166 193.033 114.609 193.468C115.052 193.903 115.274 194.467 115.274 195.162C115.274 195.75 115.103 196.274 114.762 196.734C114.426 197.19 113.955 197.548 113.35 197.808C112.749 198.068 112.052 198.198 111.26 198.198C110.16 198.198 109.263 197.964 108.569 197.495C107.874 197.022 107.448 196.351 107.29 195.482L109.137 195.2C109.252 195.682 109.489 196.046 109.847 196.293C110.205 196.536 110.672 196.658 111.247 196.658C111.873 196.658 112.374 196.528 112.749 196.268C113.124 196.004 113.311 195.682 113.311 195.303C113.311 194.996 113.196 194.738 112.966 194.529C112.74 194.32 112.393 194.163 111.924 194.056L110.262 193.692C109.346 193.483 108.669 193.151 108.23 192.695C107.795 192.239 107.578 191.661 107.578 190.962C107.578 190.383 107.74 189.876 108.064 189.441C108.387 189.006 108.835 188.668 109.406 188.425C109.977 188.178 110.631 188.054 111.368 188.054C112.429 188.054 113.265 188.284 113.874 188.744C114.483 189.2 114.886 189.812 115.082 190.579ZM125.555 198.198C124.634 198.198 123.831 197.987 123.145 197.565C122.459 197.143 121.926 196.553 121.547 195.795C121.167 195.036 120.978 194.15 120.978 193.136C120.978 192.117 121.167 191.227 121.547 190.464C121.926 189.701 122.459 189.109 123.145 188.687C123.831 188.265 124.634 188.054 125.555 188.054C126.475 188.054 127.278 188.265 127.964 188.687C128.65 189.109 129.183 189.701 129.562 190.464C129.942 191.227 130.131 192.117 130.131 193.136C130.131 194.15 129.942 195.036 129.562 195.795C129.183 196.553 128.65 197.143 127.964 197.565C127.278 197.987 126.475 198.198 125.555 198.198ZM125.561 196.594C126.158 196.594 126.652 196.436 127.044 196.121C127.436 195.805 127.726 195.386 127.913 194.862C128.105 194.337 128.201 193.76 128.201 193.129C128.201 192.503 128.105 191.928 127.913 191.403C127.726 190.875 127.436 190.451 127.044 190.131C126.652 189.812 126.158 189.652 125.561 189.652C124.96 189.652 124.461 189.812 124.065 190.131C123.673 190.451 123.381 190.875 123.189 191.403C123.002 191.928 122.908 192.503 122.908 193.129C122.908 193.76 123.002 194.337 123.189 194.862C123.381 195.386 123.673 195.805 124.065 196.121C124.461 196.436 124.96 196.594 125.561 196.594ZM136.577 188.182V189.716H131.029V188.182H136.577ZM132.55 198V187.044C132.55 186.43 132.684 185.921 132.953 185.516C133.221 185.107 133.577 184.803 134.02 184.602C134.464 184.398 134.945 184.295 135.465 184.295C135.848 184.295 136.177 184.327 136.449 184.391C136.722 184.451 136.924 184.506 137.057 184.558L136.609 186.104C136.52 186.079 136.405 186.049 136.264 186.015C136.123 185.977 135.953 185.957 135.753 185.957C135.288 185.957 134.956 186.072 134.755 186.303C134.559 186.533 134.461 186.865 134.461 187.3V198H132.55ZM149.886 188.348C149.818 187.743 149.537 187.274 149.042 186.942C148.548 186.605 147.926 186.437 147.176 186.437C146.639 186.437 146.174 186.522 145.782 186.692C145.39 186.859 145.086 187.089 144.868 187.383C144.655 187.673 144.549 188.003 144.549 188.374C144.549 188.685 144.621 188.953 144.766 189.179C144.915 189.405 145.109 189.594 145.348 189.748C145.591 189.897 145.851 190.023 146.128 190.125C146.405 190.223 146.671 190.304 146.927 190.368L148.205 190.7C148.623 190.803 149.051 190.941 149.49 191.116C149.929 191.29 150.336 191.521 150.711 191.806C151.086 192.092 151.388 192.445 151.618 192.867C151.853 193.289 151.97 193.794 151.97 194.382C151.97 195.124 151.778 195.782 151.395 196.357C151.015 196.933 150.464 197.386 149.739 197.719C149.019 198.051 148.147 198.217 147.125 198.217C146.145 198.217 145.297 198.062 144.581 197.751C143.865 197.44 143.304 196.999 142.9 196.428C142.495 195.852 142.271 195.17 142.228 194.382H144.21C144.248 194.855 144.402 195.249 144.67 195.565C144.943 195.876 145.29 196.108 145.712 196.261C146.138 196.411 146.605 196.485 147.112 196.485C147.67 196.485 148.167 196.398 148.601 196.223C149.04 196.044 149.385 195.797 149.637 195.482C149.888 195.162 150.014 194.789 150.014 194.363C150.014 193.975 149.903 193.658 149.682 193.411C149.464 193.163 149.168 192.959 148.793 192.797C148.422 192.635 148.003 192.492 147.534 192.369L145.987 191.947C144.939 191.661 144.108 191.241 143.494 190.688C142.885 190.134 142.58 189.401 142.58 188.489C142.58 187.734 142.785 187.076 143.194 186.513C143.603 185.951 144.157 185.514 144.856 185.203C145.554 184.888 146.343 184.73 147.221 184.73C148.107 184.73 148.889 184.886 149.566 185.197C150.248 185.508 150.785 185.936 151.177 186.482C151.569 187.023 151.774 187.645 151.791 188.348H149.886ZM158.4 188.182V189.716H153.037V188.182H158.4ZM154.475 185.83H156.386V195.117C156.386 195.488 156.442 195.767 156.553 195.955C156.663 196.138 156.806 196.263 156.981 196.332C157.16 196.396 157.354 196.428 157.562 196.428C157.716 196.428 157.85 196.417 157.965 196.396C158.08 196.374 158.17 196.357 158.234 196.344L158.579 197.923C158.468 197.966 158.31 198.009 158.106 198.051C157.901 198.098 157.646 198.124 157.339 198.128C156.836 198.136 156.367 198.047 155.933 197.859C155.498 197.672 155.146 197.382 154.878 196.99C154.609 196.598 154.475 196.106 154.475 195.513V185.83ZM163.011 198.217C162.389 198.217 161.827 198.102 161.324 197.872C160.821 197.638 160.422 197.299 160.128 196.856C159.839 196.413 159.694 195.869 159.694 195.226C159.694 194.672 159.8 194.216 160.013 193.858C160.226 193.5 160.514 193.217 160.876 193.008C161.239 192.799 161.643 192.641 162.091 192.535C162.538 192.428 162.994 192.347 163.459 192.292C164.047 192.224 164.524 192.168 164.891 192.126C165.257 192.079 165.523 192.004 165.69 191.902C165.856 191.8 165.939 191.634 165.939 191.403V191.359C165.939 190.8 165.781 190.368 165.466 190.061C165.155 189.754 164.69 189.601 164.072 189.601C163.429 189.601 162.922 189.744 162.551 190.029C162.185 190.31 161.931 190.624 161.79 190.969L159.994 190.56C160.207 189.963 160.518 189.482 160.927 189.115C161.341 188.744 161.816 188.476 162.353 188.31C162.89 188.139 163.454 188.054 164.047 188.054C164.439 188.054 164.854 188.101 165.293 188.195C165.736 188.284 166.15 188.45 166.533 188.693C166.921 188.936 167.239 189.283 167.486 189.735C167.733 190.183 167.856 190.764 167.856 191.48V198H165.99V196.658H165.913C165.79 196.905 165.604 197.148 165.357 197.386C165.11 197.625 164.793 197.823 164.405 197.981C164.017 198.138 163.552 198.217 163.011 198.217ZM163.427 196.683C163.955 196.683 164.407 196.579 164.782 196.37C165.161 196.161 165.449 195.888 165.645 195.552C165.845 195.211 165.945 194.847 165.945 194.459V193.193C165.877 193.261 165.745 193.325 165.549 193.385C165.357 193.44 165.138 193.489 164.891 193.532C164.643 193.57 164.403 193.607 164.168 193.641C163.934 193.67 163.738 193.696 163.58 193.717C163.209 193.764 162.871 193.843 162.564 193.954C162.261 194.065 162.018 194.224 161.835 194.433C161.656 194.638 161.567 194.911 161.567 195.251C161.567 195.724 161.741 196.082 162.091 196.325C162.44 196.564 162.886 196.683 163.427 196.683ZM170.042 198V188.182H171.889V189.741H171.992C172.171 189.213 172.486 188.798 172.938 188.495C173.394 188.188 173.909 188.035 174.485 188.035C174.604 188.035 174.744 188.039 174.906 188.048C175.073 188.056 175.203 188.067 175.296 188.08V189.908C175.22 189.886 175.083 189.863 174.887 189.837C174.691 189.808 174.495 189.793 174.299 189.793C173.847 189.793 173.445 189.888 173.091 190.08C172.742 190.268 172.465 190.53 172.26 190.866C172.056 191.199 171.953 191.578 171.953 192.004V198H170.042ZM181.753 188.182V189.716H176.391V188.182H181.753ZM177.829 185.83H179.74V195.117C179.74 195.488 179.795 195.767 179.906 195.955C180.017 196.138 180.16 196.263 180.334 196.332C180.513 196.396 180.707 196.428 180.916 196.428C181.069 196.428 181.204 196.417 181.319 196.396C181.434 196.374 181.523 196.357 181.587 196.344L181.932 197.923C181.822 197.966 181.664 198.009 181.459 198.051C181.255 198.098 180.999 198.124 180.692 198.128C180.19 198.136 179.721 198.047 179.286 197.859C178.851 197.672 178.5 197.382 178.231 196.99C177.963 196.598 177.829 196.106 177.829 195.513V185.83ZM189.727 193.928V188.182H191.645V198H189.765V196.3H189.663C189.437 196.824 189.075 197.261 188.577 197.61C188.082 197.955 187.466 198.128 186.729 198.128C186.099 198.128 185.54 197.989 185.054 197.712C184.573 197.431 184.194 197.016 183.917 196.466C183.644 195.916 183.508 195.237 183.508 194.427V188.182H185.419V194.197C185.419 194.866 185.604 195.398 185.975 195.795C186.346 196.191 186.827 196.389 187.42 196.389C187.777 196.389 188.133 196.3 188.487 196.121C188.845 195.942 189.141 195.671 189.376 195.309C189.614 194.947 189.731 194.487 189.727 193.928ZM193.853 201.682V188.182H195.719V189.773H195.879C195.99 189.569 196.15 189.332 196.358 189.064C196.567 188.795 196.857 188.561 197.228 188.361C197.598 188.156 198.088 188.054 198.698 188.054C199.49 188.054 200.198 188.254 200.82 188.655C201.442 189.055 201.93 189.633 202.284 190.387C202.642 191.141 202.821 192.049 202.821 193.11C202.821 194.171 202.644 195.081 202.29 195.839C201.936 196.594 201.451 197.175 200.833 197.585C200.215 197.989 199.51 198.192 198.717 198.192C198.12 198.192 197.633 198.092 197.253 197.891C196.878 197.691 196.584 197.457 196.371 197.188C196.158 196.92 195.994 196.681 195.879 196.472H195.764V201.682H193.853ZM195.726 193.091C195.726 193.781 195.826 194.386 196.026 194.906C196.226 195.426 196.516 195.833 196.895 196.127C197.275 196.417 197.739 196.562 198.289 196.562C198.86 196.562 199.337 196.411 199.721 196.108C200.104 195.801 200.394 195.386 200.59 194.862C200.79 194.337 200.89 193.747 200.89 193.091C200.89 192.443 200.792 191.862 200.596 191.346C200.405 190.83 200.115 190.423 199.727 190.125C199.343 189.827 198.864 189.678 198.289 189.678C197.735 189.678 197.266 189.82 196.883 190.106C196.503 190.391 196.216 190.79 196.02 191.301C195.824 191.812 195.726 192.409 195.726 193.091ZM61.6373 211.166H59.643C59.5663 210.74 59.4235 210.365 59.2147 210.041C59.0059 209.717 58.7502 209.442 58.4477 209.217C58.1451 208.991 57.8063 208.82 57.4313 208.705C57.0606 208.59 56.6664 208.533 56.2488 208.533C55.4945 208.533 54.8191 208.722 54.2225 209.102C53.6302 209.481 53.1614 210.037 52.8163 210.77C52.4754 211.503 52.3049 212.398 52.3049 213.455C52.3049 214.52 52.4754 215.419 52.8163 216.152C53.1614 216.885 53.6323 217.439 54.2289 217.814C54.8255 218.189 55.4967 218.376 56.2424 218.376C56.6558 218.376 57.0478 218.321 57.4185 218.21C57.7935 218.095 58.1323 217.927 58.4349 217.705C58.7374 217.484 58.9931 217.213 59.2019 216.893C59.415 216.57 59.562 216.199 59.643 215.781L61.6373 215.788C61.5308 216.431 61.3241 217.023 61.0173 217.565C60.7147 218.102 60.3248 218.566 59.8475 218.958C59.3745 219.346 58.8333 219.646 58.2239 219.859C57.6146 220.072 56.9498 220.179 56.2296 220.179C55.0961 220.179 54.0862 219.911 53.1998 219.374C52.3134 218.832 51.6146 218.059 51.1032 217.053C50.5961 216.048 50.3425 214.848 50.3425 213.455C50.3425 212.057 50.5982 210.857 51.1096 209.856C51.621 208.85 52.3198 208.079 53.2062 207.542C54.0925 207.001 55.1004 206.73 56.2296 206.73C56.9242 206.73 57.5719 206.83 58.1728 207.031C58.7779 207.227 59.3212 207.516 59.8028 207.9C60.2843 208.279 60.6827 208.744 60.9981 209.293C61.3134 209.839 61.5265 210.463 61.6373 211.166ZM67.7189 220.198C66.7515 220.198 65.9184 219.991 65.2196 219.578C64.525 219.161 63.988 218.575 63.6088 217.82C63.2338 217.062 63.0463 216.173 63.0463 215.155C63.0463 214.149 63.2338 213.263 63.6088 212.496C63.988 211.729 64.5165 211.13 65.194 210.7C65.8758 210.269 66.6727 210.054 67.5846 210.054C68.1386 210.054 68.6756 210.146 69.1954 210.329C69.7153 210.512 70.1819 210.8 70.5953 211.192C71.0086 211.584 71.3346 212.093 71.5733 212.719C71.8119 213.342 71.9312 214.098 71.9312 214.989V215.666H64.1265V214.234H70.0584C70.0584 213.732 69.9561 213.286 69.7515 212.898C69.547 212.506 69.2594 212.197 68.8886 211.972C68.5221 211.746 68.0917 211.633 67.5974 211.633C67.0605 211.633 66.5917 211.765 66.1912 212.029C65.7949 212.289 65.488 212.63 65.2707 213.052C65.0577 213.469 64.9511 213.923 64.9511 214.413V215.532C64.9511 216.188 65.0662 216.746 65.2963 217.207C65.5307 217.667 65.8567 218.018 66.2743 218.261C66.6919 218.5 67.1798 218.619 67.738 218.619C68.1003 218.619 68.4305 218.568 68.7288 218.466C69.0271 218.359 69.2849 218.202 69.5023 217.993C69.7196 217.784 69.8858 217.526 70.0008 217.219L71.8098 217.545C71.6649 218.078 71.405 218.545 71.03 218.945C70.6592 219.342 70.1926 219.651 69.6301 219.872C69.0719 220.089 68.4348 220.198 67.7189 220.198ZM75.603 214.17V220H73.6918V210.182H75.5263V211.78H75.6478C75.8736 211.26 76.2273 210.842 76.7088 210.527C77.1946 210.212 77.8061 210.054 78.5434 210.054C79.2124 210.054 79.7983 210.195 80.3012 210.476C80.804 210.753 81.1939 211.166 81.4709 211.716C81.7479 212.266 81.8864 212.945 81.8864 213.755V220H79.9752V213.985C79.9752 213.273 79.7898 212.717 79.4191 212.317C79.0483 211.912 78.5391 211.71 77.8914 211.71C77.4482 211.71 77.054 211.805 76.7088 211.997C76.3679 212.189 76.0973 212.47 75.897 212.841C75.701 213.207 75.603 213.651 75.603 214.17ZM88.6727 210.182V211.716H83.3098V210.182H88.6727ZM84.748 207.83H86.6592V217.117C86.6592 217.488 86.7146 217.767 86.8254 217.955C86.9362 218.138 87.0789 218.263 87.2537 218.332C87.4326 218.396 87.6265 218.428 87.8353 218.428C87.9888 218.428 88.123 218.417 88.238 218.396C88.3531 218.374 88.4426 218.357 88.5065 218.344L88.8517 219.923C88.7409 219.966 88.5832 220.009 88.3787 220.051C88.1741 220.098 87.9184 220.124 87.6116 220.128C87.1088 220.136 86.64 220.047 86.2054 219.859C85.7707 219.672 85.4191 219.382 85.1507 218.99C84.8822 218.598 84.748 218.106 84.748 217.513V207.83ZM90.4269 220V210.182H92.2742V211.741H92.3764C92.5554 211.213 92.8708 210.798 93.3225 210.495C93.7784 210.188 94.2941 210.035 94.8693 210.035C94.9887 210.035 95.1293 210.039 95.2912 210.048C95.4574 210.056 95.5874 210.067 95.6811 210.08V211.908C95.6044 211.886 95.4681 211.863 95.272 211.837C95.076 211.808 94.88 211.793 94.684 211.793C94.2323 211.793 93.8296 211.888 93.4759 212.08C93.1264 212.268 92.8495 212.53 92.6449 212.866C92.4404 213.199 92.3381 213.578 92.3381 214.004V220H90.4269ZM96.9751 220V210.182H98.8863V220H96.9751ZM97.9403 208.667C97.6079 208.667 97.3224 208.556 97.0837 208.335C96.8494 208.109 96.7322 207.84 96.7322 207.529C96.7322 207.214 96.8494 206.945 97.0837 206.724C97.3224 206.498 97.6079 206.385 97.9403 206.385C98.2727 206.385 98.556 206.498 98.7904 206.724C99.0291 206.945 99.1484 207.214 99.1484 207.529C99.1484 207.84 99.0291 208.109 98.7904 208.335C98.556 208.556 98.2727 208.667 97.9403 208.667ZM105.233 220.198C104.283 220.198 103.465 219.983 102.779 219.553C102.097 219.118 101.573 218.519 101.206 217.756C100.84 216.994 100.656 216.12 100.656 215.136C100.656 214.138 100.844 213.259 101.219 212.496C101.594 211.729 102.122 211.13 102.804 210.7C103.486 210.269 104.289 210.054 105.214 210.054C105.96 210.054 106.624 210.192 107.208 210.469C107.792 210.742 108.263 211.126 108.621 211.62C108.983 212.114 109.198 212.692 109.267 213.352H107.406C107.304 212.892 107.07 212.496 106.703 212.163C106.341 211.831 105.855 211.665 105.246 211.665C104.713 211.665 104.247 211.805 103.846 212.087C103.45 212.364 103.141 212.76 102.919 213.276C102.698 213.787 102.587 214.392 102.587 215.091C102.587 215.807 102.696 216.425 102.913 216.945C103.13 217.464 103.437 217.867 103.833 218.153C104.234 218.438 104.705 218.581 105.246 218.581C105.608 218.581 105.936 218.515 106.23 218.383C106.529 218.246 106.778 218.053 106.978 217.801C107.183 217.55 107.325 217.247 107.406 216.893H109.267C109.198 217.528 108.992 218.095 108.647 218.594C108.301 219.092 107.839 219.484 107.259 219.77C106.684 220.055 106.009 220.198 105.233 220.198ZM115.507 220V206.909H117.483V218.3H123.414V220H115.507ZM129.386 220.198C128.418 220.198 127.585 219.991 126.886 219.578C126.192 219.161 125.655 218.575 125.276 217.82C124.901 217.062 124.713 216.173 124.713 215.155C124.713 214.149 124.901 213.263 125.276 212.496C125.655 211.729 126.183 211.13 126.861 210.7C127.543 210.269 128.34 210.054 129.252 210.054C129.805 210.054 130.342 210.146 130.862 210.329C131.382 210.512 131.849 210.8 132.262 211.192C132.676 211.584 133.002 212.093 133.24 212.719C133.479 213.342 133.598 214.098 133.598 214.989V215.666H125.793V214.234H131.725C131.725 213.732 131.623 213.286 131.418 212.898C131.214 212.506 130.926 212.197 130.555 211.972C130.189 211.746 129.759 211.633 129.264 211.633C128.727 211.633 128.259 211.765 127.858 212.029C127.462 212.289 127.155 212.63 126.938 213.052C126.725 213.469 126.618 213.923 126.618 214.413V215.532C126.618 216.188 126.733 216.746 126.963 217.207C127.198 217.667 127.524 218.018 127.941 218.261C128.359 218.5 128.847 218.619 129.405 218.619C129.767 218.619 130.097 218.568 130.396 218.466C130.694 218.359 130.952 218.202 131.169 217.993C131.386 217.784 131.553 217.526 131.668 217.219L133.477 217.545C133.332 218.078 133.072 218.545 132.697 218.945C132.326 219.342 131.859 219.651 131.297 219.872C130.739 220.089 130.102 220.198 129.386 220.198ZM139.475 223.886C138.695 223.886 138.024 223.784 137.462 223.58C136.903 223.375 136.447 223.104 136.094 222.768C135.74 222.431 135.476 222.063 135.301 221.662L136.944 220.984C137.059 221.172 137.212 221.37 137.404 221.579C137.6 221.792 137.864 221.973 138.197 222.122C138.533 222.271 138.966 222.346 139.494 222.346C140.219 222.346 140.817 222.169 141.29 221.815C141.763 221.466 142 220.908 142 220.141V218.21H141.879C141.763 218.419 141.597 218.651 141.38 218.907C141.167 219.163 140.873 219.384 140.498 219.572C140.123 219.759 139.635 219.853 139.034 219.853C138.259 219.853 137.56 219.672 136.938 219.31C136.32 218.943 135.83 218.404 135.467 217.692C135.109 216.977 134.93 216.097 134.93 215.053C134.93 214.009 135.107 213.114 135.461 212.368C135.819 211.622 136.309 211.051 136.931 210.655C137.553 210.254 138.259 210.054 139.047 210.054C139.656 210.054 140.148 210.156 140.523 210.361C140.898 210.561 141.19 210.795 141.399 211.064C141.612 211.332 141.776 211.569 141.891 211.773H142.032V210.182H143.905V220.217C143.905 221.061 143.709 221.754 143.317 222.295C142.925 222.836 142.394 223.237 141.725 223.496C141.06 223.756 140.31 223.886 139.475 223.886ZM139.456 218.268C140.006 218.268 140.47 218.14 140.849 217.884C141.233 217.624 141.523 217.254 141.719 216.772C141.919 216.286 142.019 215.705 142.019 215.027C142.019 214.366 141.921 213.785 141.725 213.282C141.529 212.779 141.241 212.387 140.862 212.106C140.483 211.82 140.014 211.678 139.456 211.678C138.881 211.678 138.401 211.827 138.018 212.125C137.634 212.419 137.344 212.82 137.148 213.327C136.957 213.834 136.861 214.401 136.861 215.027C136.861 215.67 136.959 216.235 137.155 216.721C137.351 217.207 137.641 217.586 138.024 217.859C138.412 218.131 138.889 218.268 139.456 218.268ZM148.965 220.217C148.343 220.217 147.781 220.102 147.278 219.872C146.775 219.638 146.377 219.299 146.082 218.856C145.793 218.413 145.648 217.869 145.648 217.226C145.648 216.672 145.754 216.216 145.967 215.858C146.18 215.5 146.468 215.217 146.83 215.008C147.193 214.799 147.597 214.641 148.045 214.535C148.492 214.428 148.948 214.347 149.413 214.292C150.001 214.224 150.478 214.168 150.845 214.126C151.211 214.079 151.477 214.004 151.644 213.902C151.81 213.8 151.893 213.634 151.893 213.403V213.359C151.893 212.8 151.735 212.368 151.42 212.061C151.109 211.754 150.644 211.601 150.026 211.601C149.383 211.601 148.876 211.744 148.505 212.029C148.139 212.31 147.885 212.624 147.744 212.969L145.948 212.56C146.161 211.963 146.472 211.482 146.881 211.115C147.295 210.744 147.77 210.476 148.307 210.31C148.844 210.139 149.408 210.054 150.001 210.054C150.393 210.054 150.808 210.101 151.247 210.195C151.69 210.284 152.104 210.45 152.487 210.693C152.875 210.936 153.193 211.283 153.44 211.735C153.687 212.183 153.81 212.764 153.81 213.48V220H151.944V218.658H151.867C151.744 218.905 151.558 219.148 151.311 219.386C151.064 219.625 150.747 219.823 150.359 219.981C149.971 220.138 149.506 220.217 148.965 220.217ZM149.381 218.683C149.909 218.683 150.361 218.579 150.736 218.37C151.115 218.161 151.403 217.888 151.599 217.552C151.799 217.211 151.899 216.847 151.899 216.459V215.193C151.831 215.261 151.699 215.325 151.503 215.385C151.311 215.44 151.092 215.489 150.845 215.532C150.597 215.57 150.357 215.607 150.122 215.641C149.888 215.67 149.692 215.696 149.534 215.717C149.163 215.764 148.825 215.843 148.518 215.954C148.215 216.065 147.972 216.224 147.789 216.433C147.61 216.638 147.521 216.911 147.521 217.251C147.521 217.724 147.695 218.082 148.045 218.325C148.394 218.564 148.84 218.683 149.381 218.683ZM157.907 206.909V220H155.996V206.909H157.907ZM164.676 220V206.909H172.883V208.609H166.651V212.598H172.455V214.292H166.651V218.3H172.96V220H164.676ZM176.516 210.182L178.683 214.004L180.869 210.182H182.96L179.898 215.091L182.985 220H180.895L178.683 216.331L176.478 220H174.381L177.437 215.091L174.42 210.182H176.516ZM184.562 223.682V210.182H186.428V211.773H186.588C186.699 211.569 186.859 211.332 187.068 211.064C187.276 210.795 187.566 210.561 187.937 210.361C188.308 210.156 188.798 210.054 189.407 210.054C190.2 210.054 190.907 210.254 191.529 210.655C192.151 211.055 192.639 211.633 192.993 212.387C193.351 213.141 193.53 214.049 193.53 215.11C193.53 216.171 193.353 217.081 192.999 217.839C192.646 218.594 192.16 219.175 191.542 219.585C190.924 219.989 190.219 220.192 189.426 220.192C188.83 220.192 188.342 220.092 187.963 219.891C187.588 219.691 187.293 219.457 187.08 219.188C186.867 218.92 186.703 218.681 186.588 218.472H186.473V223.682H184.562ZM186.435 215.091C186.435 215.781 186.535 216.386 186.735 216.906C186.936 217.426 187.225 217.833 187.605 218.127C187.984 218.417 188.448 218.562 188.998 218.562C189.569 218.562 190.046 218.411 190.43 218.108C190.813 217.801 191.103 217.386 191.299 216.862C191.499 216.337 191.6 215.747 191.6 215.091C191.6 214.443 191.502 213.862 191.306 213.346C191.114 212.83 190.824 212.423 190.436 212.125C190.053 211.827 189.573 211.678 188.998 211.678C188.444 211.678 187.975 211.82 187.592 212.106C187.213 212.391 186.925 212.79 186.729 213.301C186.533 213.812 186.435 214.409 186.435 215.091ZM199.543 220.198C198.576 220.198 197.742 219.991 197.044 219.578C196.349 219.161 195.812 218.575 195.433 217.82C195.058 217.062 194.87 216.173 194.87 215.155C194.87 214.149 195.058 213.263 195.433 212.496C195.812 211.729 196.34 211.13 197.018 210.7C197.7 210.269 198.497 210.054 199.409 210.054C199.963 210.054 200.5 210.146 201.019 210.329C201.539 210.512 202.006 210.8 202.419 211.192C202.833 211.584 203.159 212.093 203.397 212.719C203.636 213.342 203.755 214.098 203.755 214.989V215.666H195.951V214.234H201.882C201.882 213.732 201.78 213.286 201.576 212.898C201.371 212.506 201.083 212.197 200.713 211.972C200.346 211.746 199.916 211.633 199.421 211.633C198.884 211.633 198.416 211.765 198.015 212.029C197.619 212.289 197.312 212.63 197.095 213.052C196.882 213.469 196.775 213.923 196.775 214.413V215.532C196.775 216.188 196.89 216.746 197.12 217.207C197.355 217.667 197.681 218.018 198.098 218.261C198.516 218.5 199.004 218.619 199.562 218.619C199.924 218.619 200.255 218.568 200.553 218.466C200.851 218.359 201.109 218.202 201.326 217.993C201.544 217.784 201.71 217.526 201.825 217.219L203.634 217.545C203.489 218.078 203.229 218.545 202.854 218.945C202.483 219.342 202.017 219.651 201.454 219.872C200.896 220.089 200.259 220.198 199.543 220.198ZM205.516 220V210.182H207.363V211.741H207.465C207.644 211.213 207.96 210.798 208.411 210.495C208.867 210.188 209.383 210.035 209.958 210.035C210.078 210.035 210.218 210.039 210.38 210.048C210.546 210.056 210.676 210.067 210.77 210.08V211.908C210.693 211.886 210.557 211.863 210.361 211.837C210.165 211.808 209.969 211.793 209.773 211.793C209.321 211.793 208.918 211.888 208.565 212.08C208.215 212.268 207.938 212.53 207.734 212.866C207.529 213.199 207.427 213.578 207.427 214.004V220H205.516ZM217.227 210.182V211.716H211.864V210.182H217.227ZM213.302 207.83H215.214V217.117C215.214 217.488 215.269 217.767 215.38 217.955C215.491 218.138 215.633 218.263 215.808 218.332C215.987 218.396 216.181 218.428 216.39 218.428C216.543 218.428 216.677 218.417 216.792 218.396C216.908 218.374 216.997 218.357 217.061 218.344L217.406 219.923C217.295 219.966 217.138 220.009 216.933 220.051C216.729 220.098 216.473 220.124 216.166 220.128C215.663 220.136 215.194 220.047 214.76 219.859C214.325 219.672 213.974 219.382 213.705 218.99C213.437 218.598 213.302 218.106 213.302 217.513V207.83ZM218.981 220V210.182H220.893V220H218.981ZM219.947 208.667C219.614 208.667 219.329 208.556 219.09 208.335C218.856 208.109 218.738 207.84 218.738 207.529C218.738 207.214 218.856 206.945 219.09 206.724C219.329 206.498 219.614 206.385 219.947 206.385C220.279 206.385 220.562 206.498 220.797 206.724C221.035 206.945 221.155 207.214 221.155 207.529C221.155 207.84 221.035 208.109 220.797 208.335C220.562 208.556 220.279 208.667 219.947 208.667ZM230.461 212.579L228.729 212.886C228.656 212.664 228.541 212.453 228.384 212.253C228.23 212.053 228.021 211.888 227.757 211.761C227.493 211.633 227.163 211.569 226.766 211.569C226.225 211.569 225.773 211.69 225.411 211.933C225.049 212.172 224.868 212.481 224.868 212.86C224.868 213.188 224.989 213.452 225.232 213.653C225.475 213.853 225.867 214.017 226.408 214.145L227.968 214.503C228.871 214.712 229.545 215.033 229.988 215.468C230.431 215.903 230.653 216.467 230.653 217.162C230.653 217.75 230.482 218.274 230.141 218.734C229.805 219.19 229.334 219.548 228.729 219.808C228.128 220.068 227.431 220.198 226.639 220.198C225.539 220.198 224.642 219.964 223.947 219.495C223.253 219.022 222.827 218.351 222.669 217.482L224.516 217.2C224.631 217.682 224.868 218.046 225.226 218.293C225.584 218.536 226.05 218.658 226.626 218.658C227.252 218.658 227.753 218.528 228.128 218.268C228.503 218.004 228.69 217.682 228.69 217.303C228.69 216.996 228.575 216.738 228.345 216.529C228.119 216.32 227.772 216.163 227.303 216.056L225.641 215.692C224.725 215.483 224.048 215.151 223.609 214.695C223.174 214.239 222.957 213.661 222.957 212.962C222.957 212.383 223.119 211.876 223.443 211.441C223.766 211.006 224.214 210.668 224.785 210.425C225.356 210.178 226.01 210.054 226.747 210.054C227.808 210.054 228.644 210.284 229.253 210.744C229.862 211.2 230.265 211.812 230.461 212.579ZM236.626 220.198C235.658 220.198 234.825 219.991 234.126 219.578C233.432 219.161 232.895 218.575 232.516 217.82C232.141 217.062 231.953 216.173 231.953 215.155C231.953 214.149 232.141 213.263 232.516 212.496C232.895 211.729 233.423 211.13 234.101 210.7C234.783 210.269 235.58 210.054 236.491 210.054C237.045 210.054 237.582 210.146 238.102 210.329C238.622 210.512 239.089 210.8 239.502 211.192C239.915 211.584 240.241 212.093 240.48 212.719C240.719 213.342 240.838 214.098 240.838 214.989V215.666H233.033V214.234H238.965C238.965 213.732 238.863 213.286 238.658 212.898C238.454 212.506 238.166 212.197 237.795 211.972C237.429 211.746 236.999 211.633 236.504 211.633C235.967 211.633 235.499 211.765 235.098 212.029C234.702 212.289 234.395 212.63 234.178 213.052C233.964 213.469 233.858 213.923 233.858 214.413V215.532C233.858 216.188 233.973 216.746 234.203 217.207C234.437 217.667 234.763 218.018 235.181 218.261C235.599 218.5 236.087 218.619 236.645 218.619C237.007 218.619 237.337 218.568 237.636 218.466C237.934 218.359 238.192 218.202 238.409 217.993C238.626 217.784 238.793 217.526 238.908 217.219L240.717 217.545C240.572 218.078 240.312 218.545 239.937 218.945C239.566 219.342 239.099 219.651 238.537 219.872C237.979 220.089 237.342 220.198 236.626 220.198Z" fill="black"/>
<path d="M126.43 133.818V160H121.687V138.433H121.534L115.41 142.345V137.999L121.917 133.818H126.43ZM142.036 160.499C139.93 160.499 138.124 159.966 136.615 158.901C135.115 157.827 133.96 156.28 133.151 154.26C132.349 152.232 131.949 149.79 131.949 146.935C131.957 144.08 132.362 141.651 133.163 139.648C133.973 137.636 135.128 136.102 136.628 135.045C138.136 133.989 139.939 133.46 142.036 133.46C144.132 133.46 145.935 133.989 147.443 135.045C148.952 136.102 150.107 137.636 150.908 139.648C151.717 141.659 152.122 144.088 152.122 146.935C152.122 149.798 151.717 152.244 150.908 154.273C150.107 156.293 148.952 157.835 147.443 158.901C145.943 159.966 144.141 160.499 142.036 160.499ZM142.036 156.497C143.672 156.497 144.963 155.692 145.909 154.081C146.864 152.462 147.341 150.08 147.341 146.935C147.341 144.855 147.124 143.108 146.689 141.693C146.254 140.278 145.641 139.213 144.848 138.497C144.055 137.773 143.118 137.411 142.036 137.411C140.408 137.411 139.121 138.22 138.175 139.839C137.229 141.45 136.751 143.815 136.743 146.935C136.734 149.023 136.943 150.778 137.369 152.202C137.804 153.625 138.418 154.699 139.21 155.423C140.003 156.139 140.945 156.497 142.036 156.497ZM163.422 155.807V138.114H167.437V155.807H163.422ZM156.583 148.967V144.953H174.276V148.967H156.583Z" fill="#556FF9"/>
<mask id="mask0_1_9655" style="mask-type:alpha" maskUnits="userSpaceOnUse" x="108" y="20" width="74" height="74">
<rect x="108" y="20" width="74" height="74" fill="#D9D9D9"/>
</mask>
<g mask="url(#mask0_1_9655)">
<path d="M129.166 58.7795C130.502 55.5101 132.095 52.4237 133.945 49.5202C135.795 46.6168 137.87 43.841 140.171 41.1929L134.561 40.0953C133.632 39.9097 132.716 39.9514 131.813 40.2201C130.91 40.4889 130.138 40.9534 129.498 41.6138L119.785 51.3733C119.24 51.9191 119.039 52.5802 119.183 53.3567C119.328 54.1337 119.76 54.6663 120.479 54.9546L129.166 58.7795ZM170.701 29.642C165.515 29.4482 160.605 30.4365 155.97 32.6066C151.335 34.7768 147.162 37.7177 143.45 41.4296C141.058 43.8212 138.942 46.375 137.102 49.0909C135.262 51.8063 133.709 54.7216 132.445 57.8368C132.239 58.3306 132.136 58.8345 132.136 59.3484C132.136 59.8622 132.332 60.305 132.723 60.6765L142.062 69.9859C142.434 70.3774 142.872 70.5781 143.375 70.5879C143.879 70.5976 144.379 70.4997 144.873 70.2942C147.988 69.0809 150.903 67.5364 153.619 65.6607C156.334 63.785 158.888 61.6513 161.279 59.2597C164.991 55.5479 167.94 51.3746 170.126 46.7398C172.312 42.1046 173.308 37.1938 173.115 32.0077C173.083 31.7194 173.008 31.4388 172.89 31.1659C172.771 30.893 172.593 30.6382 172.355 30.4012C172.119 30.1638 171.869 29.9907 171.605 29.8817C171.343 29.7733 171.041 29.6934 170.701 29.642ZM152.284 50.4244C151.355 49.4958 150.891 48.3524 150.891 46.9942C150.891 45.6365 151.355 44.4931 152.284 43.564C153.214 42.6354 154.357 42.1711 155.715 42.1711C157.072 42.1711 158.216 42.6354 159.145 43.564C160.074 44.4931 160.539 45.6365 160.539 46.9942C160.539 48.3524 160.074 49.4958 159.145 50.4244C158.216 51.3535 157.072 51.8181 155.715 51.8181C154.357 51.8181 153.214 51.3535 152.284 50.4244ZM143.977 73.5432L147.725 82.2305C148.013 82.9813 148.554 83.421 149.346 83.5494C150.139 83.6779 150.808 83.4695 151.353 82.9243L161.066 73.2118C161.726 72.5514 162.191 71.7696 162.459 70.8661C162.728 69.9632 162.77 69.0472 162.584 68.1181L161.534 62.5388C158.906 64.839 156.135 66.9141 153.221 68.7641C150.308 70.6141 147.227 72.2071 143.977 73.5432ZM122.18 69.6359C123.683 68.1338 125.506 67.3799 127.651 67.3743C129.795 67.3681 131.619 68.1161 133.121 69.6182C134.623 71.1203 135.374 72.9435 135.374 75.088C135.374 77.2325 134.623 79.0557 133.121 80.5578C131.029 82.6494 128.563 83.9212 125.721 84.3735C122.878 84.8262 120.018 85.2245 117.141 85.5683C117.484 82.6709 117.896 79.806 118.374 76.9735C118.852 74.1414 120.121 71.6956 122.18 69.6359Z" fill="#B6C1FF"/>
<path d="M129.16 58.7795C130.497 55.5101 132.09 52.4237 133.94 49.5202C135.79 46.6168 137.865 43.841 140.166 41.1929L134.556 40.0953C133.627 39.9097 132.711 39.9514 131.808 40.2201C130.905 40.4889 130.133 40.9534 129.493 41.6138L119.78 51.3733C119.234 51.9191 119.034 52.5802 119.178 53.3567C119.323 54.1337 119.754 54.6663 120.474 54.9546L129.16 58.7795ZM170.696 29.642C165.51 29.4482 160.599 30.4365 155.965 32.6066C151.33 34.7768 147.157 37.7177 143.445 41.4296C141.053 43.8212 138.937 46.375 137.097 49.0909C135.257 51.8063 133.704 54.7216 132.44 57.8368C132.234 58.3306 132.131 58.8345 132.131 59.3484C132.131 59.8622 132.327 60.305 132.718 60.6765L142.057 69.9859C142.429 70.3774 142.866 70.5781 143.37 70.5879C143.874 70.5976 144.373 70.4997 144.868 70.2942C147.982 69.0809 150.898 67.5364 153.614 65.6607C156.329 63.785 158.882 61.6513 161.274 59.2597C164.986 55.5479 167.935 51.3746 170.121 46.7398C172.307 42.1046 173.303 37.1938 173.109 32.0077C173.078 31.7194 173.003 31.4388 172.884 31.1659C172.766 30.893 172.588 30.6382 172.35 30.4012C172.113 30.1638 171.863 29.9907 171.6 29.8817C171.338 29.7733 171.036 29.6934 170.696 29.642ZM152.279 50.4244C151.35 49.4958 150.886 48.3524 150.886 46.9942C150.886 45.6365 151.35 44.4931 152.279 43.564C153.208 42.6354 154.352 42.1711 155.709 42.1711C157.067 42.1711 158.211 42.6354 159.14 43.564C160.069 44.4931 160.533 45.6365 160.533 46.9942C160.533 48.3524 160.069 49.4958 159.14 50.4244C158.211 51.3535 157.067 51.8181 155.709 51.8181C154.352 51.8181 153.208 51.3535 152.279 50.4244ZM143.972 73.5432L147.72 82.2305C148.008 82.9813 148.548 83.421 149.341 83.5494C150.134 83.6779 150.803 83.4695 151.348 82.9243L161.061 73.2118C161.721 72.5514 162.185 71.7696 162.454 70.8661C162.723 69.9632 162.764 69.0472 162.578 68.1181L161.529 62.5388C158.901 64.839 156.13 66.9141 153.216 68.7641C150.303 70.6141 147.221 72.2071 143.972 73.5432Z" fill="#556FF9"/>
</g>
</svg>
