<svg width="6" height="7" viewBox="0 0 6 7" fill="none" xmlns="http://www.w3.org/2000/svg">
<path d="M2.8125 6.3125C2.29688 6.3125 1.82599 6.18679 1.39986 5.93537C0.973722 5.67969 0.632813 5.33878 0.377131 4.91264C0.12571 4.48651 0 4.01563 0 3.5C0 2.98011 0.12571 2.50923 0.377131 2.08736C0.632813 1.66122 0.973722 1.32244 1.39986 1.07102C1.82599 0.815341 2.29688 0.6875 2.8125 0.6875C3.33239 0.6875 3.80327 0.815341 4.22514 1.07102C4.65128 1.32244 4.99006 1.66122 5.24148 2.08736C5.49716 2.50923 5.625 2.98011 5.625 3.5C5.625 4.01563 5.49716 4.48651 5.24148 4.91264C4.99006 5.33878 4.65128 5.67969 4.22514 5.93537C3.80327 6.18679 3.33239 6.3125 2.8125 6.3125Z" fill="#312ECB"/>
</svg>
