<svg width="21" height="21" viewBox="0 0 21 21" fill="none" xmlns="http://www.w3.org/2000/svg">
<g filter="url(#filter0_i_7_2476)">
<path d="M9.08876 12.1428L7.01384 10.0679C6.8369 9.89098 6.61172 9.80252 6.33828 9.80252C6.06484 9.80252 5.83965 9.89098 5.66272 10.0679C5.48579 10.2448 5.39732 10.47 5.39732 10.7435C5.39732 11.0169 5.48579 11.2421 5.66272 11.419L8.4132 14.1695C8.60622 14.3625 8.8314 14.459 9.08876 14.459C9.34612 14.459 9.5713 14.3625 9.76432 14.1695L15.217 8.7168C15.394 8.53987 15.4824 8.31468 15.4824 8.04124C15.4824 7.76781 15.394 7.54262 15.217 7.36569C15.0401 7.18876 14.8149 7.10029 14.5415 7.10029C14.268 7.10029 14.0428 7.18876 13.8659 7.36569L9.08876 12.1428ZM10.4399 20.0565C9.10484 20.0565 7.85024 19.8032 6.67606 19.2965C5.50187 18.7898 4.4805 18.1022 3.61192 17.2336C2.74335 16.3651 2.05573 15.3437 1.54906 14.1695C1.0424 12.9953 0.789062 11.7407 0.789062 10.4057C0.789062 9.07066 1.0424 7.81606 1.54906 6.64188C2.05573 5.4677 2.74335 4.44632 3.61192 3.57774C4.4805 2.70917 5.50187 2.02155 6.67606 1.51488C7.85024 1.00822 9.10484 0.754883 10.4399 0.754883C11.7749 0.754883 13.0295 1.00822 14.2037 1.51488C15.3779 2.02155 16.3992 2.70917 17.2678 3.57774C18.1364 4.44632 18.824 5.4677 19.3307 6.64188C19.8373 7.81606 20.0907 9.07066 20.0907 10.4057C20.0907 11.7407 19.8373 12.9953 19.3307 14.1695C18.824 15.3437 18.1364 16.3651 17.2678 17.2336C16.3992 18.1022 15.3779 18.7898 14.2037 19.2965C13.0295 19.8032 11.7749 20.0565 10.4399 20.0565Z" fill="#292929"/>
</g>
<defs>
<filter id="filter0_i_7_2476" x="0.789062" y="-7.86475" width="19.3008" height="27.9214" filterUnits="userSpaceOnUse" color-interpolation-filters="sRGB">
<feFlood flood-opacity="0" result="BackgroundImageFix"/>
<feBlend mode="normal" in="SourceGraphic" in2="BackgroundImageFix" result="shape"/>
<feColorMatrix in="SourceAlpha" type="matrix" values="0 0 0 0 0 0 0 0 0 0 0 0 0 0 0 0 0 0 127 0" result="hardAlpha"/>
<feOffset dy="-8.61963"/>
<feGaussianBlur stdDeviation="4.41756"/>
<feComposite in2="hardAlpha" operator="arithmetic" k2="-1" k3="1"/>
<feColorMatrix type="matrix" values="0 0 0 0 1 0 0 0 0 1 0 0 0 0 1 0 0 0 0.25 0"/>
<feBlend mode="normal" in2="shape" result="effect1_innerShadow_7_2476"/>
</filter>
</defs>
</svg>
