<svg width="62" height="54" viewBox="0 0 62 54" fill="none" xmlns="http://www.w3.org/2000/svg">
<rect width="62" height="54" rx="6" fill="#F1F3FF"/>
<mask id="mask0_7_2372" style="mask-type:alpha" maskUnits="userSpaceOnUse" x="4" y="0" width="54" height="54">
<rect x="4" width="54" height="54" fill="#D9D9D9"/>
</mask>
<g mask="url(#mask0_7_2372)">
<path d="M13.6924 45.3457C13.1971 45.3457 12.7703 45.1668 12.4122 44.8091C12.0541 44.451 11.875 44.0242 11.875 43.5288V18.0211C11.875 17.5258 12.0541 17.099 12.4122 16.7409C12.7703 16.3831 13.1971 16.2043 13.6924 16.2043H21.0263V8.91314C21.0263 8.41777 21.1997 7.99101 21.5466 7.63289C21.8935 7.27476 22.3259 7.0957 22.8438 7.0957H39.1996C39.6949 7.0957 40.1217 7.27476 40.4798 7.63289C40.8379 7.99101 41.017 8.41777 41.017 8.91314V25.3556H48.3076C48.8029 25.3556 49.2297 25.5346 49.5878 25.8928C49.9459 26.2509 50.125 26.6776 50.125 27.173V43.5288C50.125 44.0242 49.9459 44.451 49.5878 44.8091C49.2297 45.1668 48.8029 45.3457 48.3076 45.3457H34.717V36.1944H27.283V45.3457H13.6924ZM13.6058 43.6149H21.0263V36.1944H13.6058V43.6149ZM13.6058 34.4636H21.0263V27.0864H13.6058V34.4636ZM13.6058 25.3556H21.0263V17.9351H13.6058V25.3556ZM22.7571 34.4636H30.1349V27.0864H22.7571V34.4636ZM22.7571 25.3556H30.1349V17.9351H22.7571V25.3556ZM22.7571 16.2043H30.1349V8.82651H22.7571V16.2043ZM31.8651 34.4636H39.2862V27.0864H31.8651V34.4636ZM31.8651 25.3556H39.2862V17.9351H31.8651V25.3556ZM31.8651 16.2043H39.2862V8.82651H31.8651V16.2043ZM41.017 43.6149H48.3942V36.1944H41.017V43.6149ZM41.017 34.4636H48.3942V27.0864H41.017V34.4636Z" fill="#007AFF"/>
</g>
</svg>
