<svg width="60" height="60" viewBox="0 0 60 60" fill="none" xmlns="http://www.w3.org/2000/svg">
<path d="M7.67111 59.2913C5.75893 59.2913 4.13453 58.623 2.79791 57.2864C1.46128 55.9498 0.792969 54.3254 0.792969 52.4132V44.9122C0.792969 44.2822 1.00598 43.7542 1.43199 43.3282C1.85852 42.9021 2.3868 42.6891 3.01682 42.6891H10.043V5.15495C10.043 3.94731 10.4823 2.90437 11.3611 2.02613C12.2393 1.14738 13.2823 0.708008 14.4899 0.708008H48.7627C49.9703 0.708008 51.0133 1.14738 51.8915 2.02613C52.7703 2.90437 53.2096 3.94731 53.2096 5.15495V23.6257C53.2096 24.121 53.0406 24.5365 52.7024 24.8721C52.3643 25.2071 51.9452 25.3747 51.4452 25.3747C50.9452 25.3747 50.5312 25.2071 50.2034 24.8721C49.875 24.5365 49.7108 24.121 49.7108 23.6257V5.15495C49.7108 4.87847 49.6219 4.65133 49.4441 4.47353C49.2663 4.29572 49.0392 4.20682 48.7627 4.20682H14.4899C14.2134 4.20682 13.9863 4.29572 13.8085 4.47353C13.6307 4.65133 13.5418 4.87847 13.5418 5.15495V42.6891H29.1064C30.0294 42.6891 30.6553 43.1051 30.9842 43.9371C31.3136 44.7691 31.1579 45.4955 30.5171 46.1163L29.2483 47.4143C28.8372 47.8059 28.5083 48.2795 28.2616 48.835C28.0144 49.39 27.8908 49.9817 27.8908 50.6102V57.0652C27.8908 57.7019 27.6776 58.232 27.2511 58.6554C26.825 59.0794 26.297 59.2913 25.667 59.2913H7.67111ZM33.5241 57.0675V52.01C33.5241 51.7212 33.5755 51.4535 33.6783 51.2068C33.781 50.9597 33.9509 50.7174 34.1878 50.4799L50.245 34.4952C50.633 34.1272 51.0518 33.8592 51.5015 33.6912C51.9516 33.5232 52.3979 33.4391 52.8404 33.4391C53.3235 33.4391 53.7916 33.5298 54.2449 33.7112C54.6981 33.8932 55.11 34.166 55.4805 34.5299L58.3326 37.4112C58.6964 37.7951 58.9613 38.2103 59.1273 38.6569C59.2933 39.1035 59.3763 39.55 59.3763 39.9966C59.3763 40.4432 59.2853 40.8977 59.1034 41.3602C58.9215 41.8227 58.6466 42.249 58.2786 42.639L42.3332 58.6269C42.0973 58.8643 41.8558 59.0344 41.6086 59.1372C41.3614 59.24 41.0937 59.2913 40.8054 59.2913H35.7472C35.1172 59.2913 34.5891 59.0783 34.1631 58.6523C33.7371 58.2258 33.5241 57.6975 33.5241 57.0675ZM52.8481 42.9736L55.7002 39.9966L52.8481 37.1152L49.9189 40.0444L52.8481 42.9736ZM20.0931 22.9435H43.1595C43.6549 22.9435 44.0701 23.1125 44.4052 23.4507C44.7407 23.7888 44.9085 24.2079 44.9085 24.7079C44.9085 25.2079 44.7407 25.6219 44.4052 25.9497C44.0701 26.2781 43.6549 26.4423 43.1595 26.4423H20.0931C19.5977 26.4423 19.1825 26.2732 18.8474 25.9351C18.5119 25.5969 18.3441 25.1779 18.3441 24.6778C18.3441 24.1778 18.5119 23.7639 18.8474 23.436C19.1825 23.1077 19.5977 22.9435 20.0931 22.9435ZM20.0931 14.0496H43.1595C43.6549 14.0496 44.0701 14.2187 44.4052 14.5568C44.7407 14.8949 44.9085 15.314 44.9085 15.814C44.9085 16.3135 44.7407 16.7275 44.4052 17.0558C44.0701 17.3837 43.6549 17.5476 43.1595 17.5476H20.0931C19.5977 17.5476 19.1825 17.3786 18.8474 17.0404C18.5119 16.7023 18.3441 16.2832 18.3441 15.7832C18.3441 15.2837 18.5119 14.8698 18.8474 14.5414C19.1825 14.2135 19.5977 14.0496 20.0931 14.0496Z" fill="#556FF9"/>
</svg>
