<svg width="74" height="74" viewBox="0 0 74 74" fill="none" xmlns="http://www.w3.org/2000/svg">
<mask id="mask0_1_12837" style="mask-type:alpha" maskUnits="userSpaceOnUse" x="0" y="0" width="74" height="74">
<rect width="74" height="74" fill="#D9D9D9"/>
</mask>
<g mask="url(#mask0_1_12837)">
<path d="M58.8536 58.5059L53.5349 63.8247C53.171 64.1685 52.755 64.3452 52.2869 64.355C51.8182 64.3653 51.412 64.1885 51.0682 63.8247C50.7044 63.4608 50.5224 63.0497 50.5224 62.5913C50.5224 62.133 50.7044 61.7218 51.0682 61.358L56.3869 56.0393L51.0682 50.7205C50.7244 50.3767 50.5474 49.9705 50.5371 49.5018C50.5273 49.0337 50.7044 48.6177 51.0682 48.2538C51.432 47.89 51.8431 47.7081 52.3015 47.7081C52.7599 47.7081 53.171 47.89 53.5349 48.2538L58.8536 53.6027L64.1724 48.2538C64.5161 47.91 64.9224 47.7382 65.391 47.7382C65.8592 47.7382 66.2752 47.91 66.639 48.2538C66.9828 48.6177 67.1547 49.0288 67.1547 49.4872C67.1547 49.9456 66.9828 50.3567 66.639 50.7205L61.2902 56.0393L66.639 61.358C66.9828 61.7018 67.1547 62.108 67.1547 62.5767C67.1547 63.0448 66.9828 63.4608 66.639 63.8247C66.2752 64.1885 65.8641 64.3704 65.4057 64.3704C64.9473 64.3704 64.5362 64.1885 64.1724 63.8247L58.8536 58.5059ZM30.0892 24.5476C29.5794 24.5476 29.1606 24.3837 28.8327 24.0558C28.5044 23.7275 28.3402 23.3084 28.3402 22.7986C28.3402 22.2888 28.5044 21.8698 28.8327 21.5414C29.1606 21.2135 29.5794 21.0496 30.0892 21.0496H53.1556C53.6654 21.0496 54.0842 21.2135 54.4121 21.5414C54.7404 21.8698 54.9046 22.2888 54.9046 22.7986C54.9046 23.3084 54.7404 23.7275 54.4121 24.0558C54.0842 24.3837 53.6654 24.5476 53.1556 24.5476H30.0892ZM30.0892 33.4423C29.5794 33.4423 29.1606 33.2781 28.8327 32.9497C28.5044 32.6219 28.3402 32.2028 28.3402 31.6925C28.3402 31.1827 28.5044 30.7639 28.8327 30.436C29.1606 30.1077 29.5794 29.9435 30.0892 29.9435H53.1556C53.6654 29.9435 54.0842 30.1077 54.4121 30.436C54.7404 30.7639 54.9046 31.1827 54.9046 31.6925C54.9046 32.2028 54.7404 32.6219 54.4121 32.9497C54.0842 33.2781 53.6654 33.4423 53.1556 33.4423H30.0892ZM17.6672 66.2913C15.7422 66.2913 14.1147 65.6261 12.7847 64.2957C11.4543 62.9657 10.7891 61.3382 10.7891 59.4132V54.1361C10.7891 52.9104 11.2238 51.8629 12.0933 50.9934C12.9633 50.1239 14.0109 49.6891 15.236 49.6891H20.0391V12.1549C20.0391 10.9298 20.4738 9.88227 21.3433 9.01226C22.2133 8.14276 23.2609 7.70801 24.486 7.70801H58.7588C59.9839 7.70801 61.0315 8.14276 61.9015 9.01226C62.771 9.88227 63.2057 10.9298 63.2057 12.1549V37.4737C63.2057 37.984 63.0415 38.4031 62.7132 38.731C62.3853 39.0593 61.9665 39.2235 61.4567 39.2235C60.9464 39.2235 60.5273 39.0593 60.1995 38.731C59.8711 38.4031 59.7069 37.984 59.7069 37.4737V12.1549C59.7069 11.8785 59.618 11.6513 59.4402 11.4735C59.2624 11.2957 59.0353 11.2068 58.7588 11.2068H24.486C24.2095 11.2068 23.9824 11.2957 23.8046 11.4735C23.6268 11.6513 23.5379 11.8785 23.5379 12.1549V49.6891H40.5371C41.2169 49.6891 41.7398 49.9569 42.1057 50.4923C42.4711 51.0278 42.561 51.6198 42.3755 52.2683C42.2409 52.8968 42.1401 53.5253 42.0733 54.1538C42.006 54.7823 41.9724 55.4108 41.9724 56.0393C41.9724 57.3754 42.1442 58.6986 42.488 60.009C42.8318 61.3195 43.3419 62.5538 44.0181 63.7121C44.3301 64.2774 44.3301 64.8486 44.0181 65.4257C43.7057 66.0028 43.2352 66.2913 42.6068 66.2913H17.6672Z" fill="#556FF9"/>
<path d="M58.8546 58.5058L53.5359 63.8246C53.172 64.1684 52.756 64.3452 52.2879 64.3549C51.8192 64.3652 51.413 64.1884 51.0692 63.8246C50.7054 63.4608 50.5234 63.0496 50.5234 62.5913C50.5234 62.1329 50.7054 61.7218 51.0692 61.3579L56.3879 56.0392L51.0692 50.7204C50.7254 50.3766 50.5484 49.9704 50.5381 49.5017C50.5283 49.0336 50.7054 48.6176 51.0692 48.2538C51.433 47.8899 51.8441 47.708 52.3025 47.708C52.7609 47.708 53.172 47.8899 53.5359 48.2538L58.8546 53.6026L64.1734 48.2538C64.5171 47.91 64.9234 47.7381 65.392 47.7381C65.8602 47.7381 66.2762 47.91 66.64 48.2538C66.9838 48.6176 67.1557 49.0287 67.1557 49.4871C67.1557 49.9455 66.9838 50.3566 66.64 50.7204L61.2912 56.0392L66.64 61.3579C66.9838 61.7017 67.1557 62.1079 67.1557 62.5766C67.1557 63.0448 66.9838 63.4608 66.64 63.8246C66.2762 64.1884 65.8651 64.3703 65.4067 64.3703C64.9483 64.3703 64.5372 64.1884 64.1734 63.8246L58.8546 58.5058Z" fill="#B6C1FF"/>
</g>
</svg>
