<svg width="64" height="64" viewBox="0 0 64 64" fill="none" xmlns="http://www.w3.org/2000/svg">
<g filter="url(#filter0_di_1224_4593)">
<g clip-path="url(#clip0_1224_4593)">
<rect x="2" width="60" height="60" rx="4.33333" fill="url(#paint0_linear_1224_4593)"/>
<g filter="url(#filter1_f_1224_4593)">
<ellipse cx="32.5" cy="59.5" rx="29.5" ry="11.5" fill="white" fill-opacity="0.49"/>
</g>
<g filter="url(#filter2_d_1224_4593)">
<path d="M32 12.4688C28.5327 12.4688 25.1432 13.4969 22.2602 15.4233C19.3772 17.3497 17.1301 20.0877 15.8032 23.2911C14.4763 26.4945 14.1292 30.0194 14.8056 33.4202C15.4821 36.8209 17.1518 39.9447 19.6035 42.3965C22.0553 44.8483 25.1791 46.5179 28.5798 47.1944C31.9806 47.8708 35.5055 47.5237 38.7089 46.1968C41.9123 44.8699 44.6504 42.6228 46.5767 39.7398C48.5031 36.8568 49.5313 33.4674 49.5313 30C49.5258 25.3521 47.677 20.8961 44.3904 17.6096C41.1039 14.323 36.6479 12.4742 32 12.4688ZM32 45.4688C28.9406 45.4688 25.9499 44.5615 23.406 42.8618C20.8622 41.1621 18.8795 38.7462 17.7087 35.9196C16.538 33.0931 16.2316 29.9828 16.8285 26.9822C17.4254 23.9816 18.8986 21.2253 21.0619 19.0619C23.2253 16.8986 25.9816 15.4253 28.9822 14.8285C31.9828 14.2316 35.0931 14.5379 37.9196 15.7087C40.7462 16.8795 43.1621 18.8622 44.8618 21.406C46.5615 23.9498 47.4688 26.9406 47.4688 30C47.4642 34.1012 45.833 38.0331 42.933 40.933C40.0331 43.833 36.1012 45.4642 32 45.4688ZM26.1563 30C26.1563 31.2265 26.5422 32.4219 27.2593 33.4169C27.9765 34.4119 28.9885 35.156 30.1521 35.5439C31.3156 35.9317 32.5717 35.9436 33.7424 35.5779C34.9131 35.2122 35.9391 34.4874 36.675 33.5062C36.8393 33.2874 37.0839 33.1429 37.3548 33.1044C37.6257 33.0658 37.9008 33.1365 38.1196 33.3009C38.3384 33.4652 38.483 33.7097 38.5215 33.9806C38.56 34.2515 38.4893 34.5267 38.325 34.7455C37.3291 36.0726 35.941 37.0527 34.3571 37.5471C32.7733 38.0415 31.0741 38.0251 29.5001 37.5002C27.9261 36.9753 26.5572 35.9685 25.5871 34.6224C24.617 33.2764 24.095 31.6592 24.095 30C24.095 28.3408 24.617 26.7236 25.5871 25.3776C26.5572 24.0315 27.9261 23.0247 29.5001 22.4998C31.0741 21.9749 32.7733 21.9585 34.3571 22.4529C35.941 22.9473 37.3291 23.9274 38.325 25.2545C38.4893 25.4733 38.56 25.7485 38.5215 26.0194C38.483 26.2903 38.3384 26.5348 38.1196 26.6991C37.9008 26.8635 37.6257 26.9342 37.3548 26.8956C37.0839 26.8571 36.8393 26.7126 36.675 26.4937C35.9391 25.5125 34.9131 24.7878 33.7424 24.4221C32.5717 24.0564 31.3156 24.0683 30.1521 24.4561C28.9885 24.844 27.9765 25.5881 27.2593 26.5831C26.5422 27.5781 26.1563 28.7735 26.1563 30Z" fill="white"/>
<path d="M32.0006 11.9688H32C28.4338 11.9688 24.9476 13.0263 21.9824 15.0076C19.0172 16.9889 16.706 19.805 15.3413 23.0997C13.9766 26.3945 13.6195 30.02 14.3152 33.5177C15.011 37.0154 16.7283 40.2283 19.25 42.75C21.7717 45.2717 24.9846 46.989 28.4823 47.6848C31.98 48.3805 35.6055 48.0234 38.9003 46.6587C42.195 45.294 45.0111 42.9829 46.9924 40.0176C48.9737 37.0524 50.0313 33.5662 50.0313 30V29.9994C50.0256 25.2191 48.1242 20.6362 44.744 17.256C41.3638 13.8758 36.7809 11.9744 32.0006 11.9688ZM36.2752 33.206L36.275 33.2062C35.6021 34.1035 34.6639 34.7663 33.5933 35.1007C32.5228 35.4351 31.3742 35.4242 30.3102 35.0695C29.2462 34.7149 28.3207 34.0344 27.6649 33.1245C27.0091 32.2147 26.6563 31.1216 26.6563 30C26.6563 28.8784 27.0091 27.7853 27.6649 26.8755C28.3207 25.9656 29.2462 25.2851 30.3102 24.9305C31.3742 24.5758 32.5228 24.5649 33.5933 24.8993C34.6639 25.2337 35.6021 25.8965 36.275 26.7937L36.2752 26.794C36.5192 27.1189 36.8822 27.3335 37.2844 27.3907C37.6866 27.4478 38.095 27.3429 38.4199 27.0989C38.7447 26.855 38.9593 26.492 39.0165 26.0898C39.0737 25.6876 38.9688 25.2791 38.7248 24.9543C37.666 23.5433 36.1901 22.5013 34.5061 21.9756C32.8221 21.4499 31.0154 21.4674 29.3419 22.0255C27.6684 22.5836 26.2129 23.654 25.1815 25.0852C24.1501 26.5164 23.595 28.2359 23.595 30C23.595 31.7641 24.1501 33.4836 25.1815 34.9148C26.2129 36.346 27.6684 37.4164 29.3419 37.9745C31.0154 38.5326 32.8221 38.5501 34.5061 38.0244C36.1901 37.4987 37.666 36.4567 38.7248 35.0457C38.9688 34.7209 39.0737 34.3125 39.0165 33.9102C38.9593 33.508 38.7447 33.145 38.4199 32.9011C38.095 32.6571 37.6866 32.5522 37.2844 32.6093C36.8822 32.6665 36.5192 32.8811 36.2752 33.206ZM31.9995 44.9688C29.0391 44.9686 26.1453 44.0907 23.6838 42.4461C21.2222 40.8013 19.3036 38.4635 18.1707 35.7283C17.0377 32.9931 16.7413 29.9834 17.3189 27.0797C17.8965 24.1761 19.3221 21.5089 21.4155 19.4155C23.5089 17.3221 26.1761 15.8964 29.0798 15.3189C31.9834 14.7413 34.9931 15.0377 37.7283 16.1707C40.4635 17.3036 42.8013 19.2222 44.4461 21.6838C46.0908 24.1453 46.9687 27.0391 46.9688 29.9994C46.9644 33.9682 45.3858 37.7731 42.5795 40.5795C39.7732 43.3858 35.9682 44.9643 31.9995 44.9688Z" stroke="url(#paint1_linear_1224_4593)"/>
</g>
</g>
<rect x="2.36111" y="0.361111" width="59.2778" height="59.2778" rx="3.97222" stroke="black" stroke-opacity="0.15" stroke-width="0.722222"/>
</g>
<defs>
<filter id="filter0_di_1224_4593" x="0.338889" y="0" width="63.3222" height="63.8278" filterUnits="userSpaceOnUse" color-interpolation-filters="sRGB">
<feFlood flood-opacity="0" result="BackgroundImageFix"/>
<feColorMatrix in="SourceAlpha" type="matrix" values="0 0 0 0 0 0 0 0 0 0 0 0 0 0 0 0 0 0 127 0" result="hardAlpha"/>
<feOffset dy="2.16667"/>
<feGaussianBlur stdDeviation="0.830555"/>
<feComposite in2="hardAlpha" operator="out"/>
<feColorMatrix type="matrix" values="0 0 0 0 0.598333 0 0 0 0 0.598333 0 0 0 0 0.598333 0 0 0 0.25 0"/>
<feBlend mode="normal" in2="BackgroundImageFix" result="effect1_dropShadow_1224_4593"/>
<feBlend mode="normal" in="SourceGraphic" in2="effect1_dropShadow_1224_4593" result="shape"/>
<feColorMatrix in="SourceAlpha" type="matrix" values="0 0 0 0 0 0 0 0 0 0 0 0 0 0 0 0 0 0 127 0" result="hardAlpha"/>
<feOffset dy="2.16667"/>
<feGaussianBlur stdDeviation="0.65"/>
<feComposite in2="hardAlpha" operator="arithmetic" k2="-1" k3="1"/>
<feColorMatrix type="matrix" values="0 0 0 0 1 0 0 0 0 1 0 0 0 0 1 0 0 0 0.35 0"/>
<feBlend mode="normal" in2="shape" result="effect2_innerShadow_1224_4593"/>
</filter>
<filter id="filter1_f_1224_4593" x="-11.2" y="33.8" width="87.4" height="51.4" filterUnits="userSpaceOnUse" color-interpolation-filters="sRGB">
<feFlood flood-opacity="0" result="BackgroundImageFix"/>
<feBlend mode="normal" in="SourceGraphic" in2="BackgroundImageFix" result="shape"/>
<feGaussianBlur stdDeviation="7.1" result="effect1_foregroundBlur_1224_4593"/>
</filter>
<filter id="filter2_d_1224_4593" x="9.46875" y="11.4688" width="45.0625" height="45.0625" filterUnits="userSpaceOnUse" color-interpolation-filters="sRGB">
<feFlood flood-opacity="0" result="BackgroundImageFix"/>
<feColorMatrix in="SourceAlpha" type="matrix" values="0 0 0 0 0 0 0 0 0 0 0 0 0 0 0 0 0 0 127 0" result="hardAlpha"/>
<feOffset dy="4"/>
<feGaussianBlur stdDeviation="2"/>
<feComposite in2="hardAlpha" operator="out"/>
<feColorMatrix type="matrix" values="0 0 0 0 0 0 0 0 0 0 0 0 0 0 0 0 0 0 0.25 0"/>
<feBlend mode="normal" in2="BackgroundImageFix" result="effect1_dropShadow_1224_4593"/>
<feBlend mode="normal" in="SourceGraphic" in2="effect1_dropShadow_1224_4593" result="shape"/>
</filter>
<linearGradient id="paint0_linear_1224_4593" x1="32" y1="0" x2="32" y2="60" gradientUnits="userSpaceOnUse">
<stop stop-color="#556FF9"/>
<stop offset="1" stop-color="#5770F2"/>
</linearGradient>
<linearGradient id="paint1_linear_1224_4593" x1="32" y1="12.4688" x2="32" y2="47.5313" gradientUnits="userSpaceOnUse">
<stop stop-color="white"/>
<stop offset="1" stop-color="#007AFF"/>
</linearGradient>
<clipPath id="clip0_1224_4593">
<rect x="2" width="60" height="60" rx="4.33333" fill="white"/>
</clipPath>
</defs>
</svg>
