<svg width="66" height="66" viewBox="0 0 66 66" fill="none" xmlns="http://www.w3.org/2000/svg">
<path d="M33.5099 47.5626C35.5454 47.5626 37.3131 47.0518 38.8132 46.0302C40.3137 45.008 41.064 43.5463 41.064 41.6449C41.064 39.89 40.4561 38.4542 39.2402 37.3375C38.0249 36.2208 35.7054 34.9628 32.2819 33.5635C29.0603 32.2788 26.7034 30.9308 25.2111 29.5197C23.7187 28.108 22.9726 26.2025 22.9726 23.8032C22.9726 21.7004 23.7138 19.8722 25.1964 18.3187C26.679 16.7652 28.7345 15.8086 31.3631 15.4489V13.3322C31.3631 12.8851 31.5291 12.4956 31.861 12.1636C32.193 11.8316 32.5823 11.6656 33.0289 11.6656H33.0766C33.5232 11.6656 33.9125 11.8316 34.2445 12.1636C34.5764 12.4956 34.7424 12.8851 34.7424 13.3322V15.4489C36.3082 15.583 37.7235 16.0178 38.9882 16.7531C40.2534 17.4885 41.3127 18.4947 42.1663 19.7717C42.4155 20.0837 42.4669 20.4372 42.3205 20.8324C42.1745 21.2281 41.9037 21.5246 41.508 21.7219C41.0933 21.9198 40.6832 21.9614 40.2778 21.8468C39.8728 21.7322 39.5301 21.5089 39.2495 21.177C38.51 20.2319 37.6323 19.5132 36.6163 19.0209C35.6004 18.5291 34.4462 18.2833 33.1537 18.2833C31.0905 18.2833 29.4363 18.7951 28.1911 19.8187C26.9454 20.8424 26.3226 22.1706 26.3226 23.8032C26.3226 25.4872 26.9118 26.8076 28.0901 27.7645C29.268 28.7208 31.4461 29.8257 34.6245 31.0791C38.2099 32.5298 40.7328 34.0278 42.1933 35.573C43.6538 37.1188 44.384 39.1428 44.384 41.6449C44.384 42.9892 44.1281 44.191 43.6162 45.2501C43.1044 46.3097 42.4145 47.2101 41.5466 47.9511C40.6791 48.6921 39.6485 49.2821 38.4548 49.7209C37.261 50.1598 35.9722 50.4267 34.5882 50.5218V52.7156C34.5882 53.1822 34.4223 53.5764 34.0903 53.8981C33.7583 54.2203 33.369 54.3814 32.9225 54.3814C32.4759 54.3814 32.0787 54.2074 31.7308 53.8595C31.3829 53.5121 31.2089 53.1149 31.2089 52.6678V50.3676C29.3152 49.8615 27.6461 49.0906 26.2016 48.0551C24.7565 47.0191 23.5301 45.6216 22.5224 43.8626C22.305 43.4993 22.2744 43.1385 22.4307 42.7803C22.5864 42.4227 22.8778 42.1608 23.3048 41.9949C23.7514 41.8289 24.1694 41.8191 24.5589 41.9656C24.9485 42.1115 25.2519 42.3921 25.4693 42.8073C26.3311 44.3053 27.4627 45.4723 28.864 46.3084C30.2654 47.1445 31.814 47.5626 33.5099 47.5626ZM32.9996 65.375C26.9871 65.375 21.3433 63.6049 16.0682 60.0647C10.7926 56.5251 6.76142 52.2549 3.9746 47.2543V56.3917C3.9746 56.9015 3.81067 57.3206 3.48281 57.6489C3.15444 57.9768 2.73536 58.1407 2.22558 58.1407C1.71581 58.1407 1.29673 57.9768 0.968354 57.6489C0.640493 57.3206 0.476562 56.9015 0.476562 56.3917V43.4062C0.476562 42.7577 0.684944 42.2251 1.10171 41.8083C1.51899 41.391 2.05163 41.1824 2.69965 41.1824H15.6859C16.1957 41.1824 16.6145 41.3466 16.9423 41.675C17.2707 42.0028 17.4349 42.4216 17.4349 42.9314C17.4349 43.4417 17.2707 43.8608 16.9423 44.1886C16.6145 44.517 16.1957 44.6812 15.6859 44.6812H6.54842C8.89226 49.3694 12.5416 53.4073 17.4966 56.7949C22.452 60.1824 27.6197 61.8762 32.9996 61.8762C40.51 61.8762 46.9989 59.38 52.4662 54.3875C57.9329 49.3951 61.0242 43.1711 61.7401 35.7156C61.7915 35.1858 61.9811 34.7292 62.309 34.3459C62.6368 33.9625 63.0657 33.7708 63.5955 33.7708C64.0739 33.7708 64.4801 33.9545 64.8142 34.322C65.1482 34.6899 65.2895 35.1229 65.2381 35.6208C64.8902 39.7833 63.8131 43.6781 62.0068 47.3051C60.2 50.9316 57.8548 54.082 54.9714 56.7563C52.0875 59.4306 48.7629 61.5355 44.9976 63.071C41.2323 64.607 37.233 65.375 32.9996 65.375ZM32.9996 4.12381C25.6073 4.12381 19.1531 6.58534 13.637 11.5084C8.1204 16.432 4.99442 22.6806 4.25904 30.2543C4.20765 30.7841 4.01803 31.2458 3.69017 31.6395C3.36231 32.0326 2.93347 32.2292 2.40365 32.2292C1.92522 32.2292 1.51899 32.0455 1.18496 31.678C0.85093 31.3101 0.709611 30.8671 0.761 30.3491C1.12843 26.108 2.23047 22.1739 4.0671 18.5469C5.90323 14.9198 8.26789 11.7792 11.1611 9.12498C14.0548 6.47074 17.3745 4.39052 21.1203 2.88431C24.8655 1.3781 28.8252 0.625 32.9996 0.625C38.953 0.625 44.5968 2.39997 49.9309 5.94992C55.2656 9.49986 59.2968 13.8047 62.0245 18.8645V9.60829C62.0245 9.09851 62.1885 8.67944 62.5163 8.35106C62.8447 8.0232 63.2638 7.85927 63.7735 7.85927C64.2833 7.85927 64.7024 8.0232 65.0308 8.35106C65.3586 8.67944 65.5226 9.09851 65.5226 9.60829V22.5938C65.5226 23.2423 65.3142 23.7749 64.8974 24.1917C64.4801 24.609 63.9475 24.8176 63.2995 24.8176H50.3133C49.8035 24.8176 49.3847 24.6534 49.0568 24.325C48.7284 23.9972 48.5642 23.5784 48.5642 23.0686C48.5642 22.5583 48.7284 22.1392 49.0568 21.8114C49.3847 21.483 49.8035 21.3188 50.3133 21.3188H59.4507C57.166 16.7298 53.5541 12.7165 48.6151 9.27915C43.6756 5.84226 38.4704 4.12381 32.9996 4.12381Z" fill="#556FF9"/>
</svg>
