<svg width="64" height="64" viewBox="0 0 64 64" fill="none" xmlns="http://www.w3.org/2000/svg">
<g filter="url(#filter0_di_1224_5016)">
<g clip-path="url(#clip0_1224_5016)">
<rect x="2" width="60" height="60" rx="4.33333" fill="url(#paint0_linear_1224_5016)"/>
<g filter="url(#filter1_f_1224_5016)">
<ellipse cx="32.5" cy="59.5" rx="29.5" ry="11.5" fill="white" fill-opacity="0.49"/>
</g>
<mask id="mask0_1224_5016" style="mask-type:alpha" maskUnits="userSpaceOnUse" x="14" y="12" width="36" height="36">
<rect x="14" y="12" width="36" height="36" fill="#D9D9D9"/>
</mask>
<g mask="url(#mask0_1224_5016)">
<g filter="url(#filter2_d_1224_5016)">
<path d="M27.5 38.625H36.5C36.8193 38.625 37.0865 38.5173 37.3018 38.3018C37.5173 38.0865 37.625 37.8193 37.625 37.5C37.625 37.1807 37.5173 36.9135 37.3018 36.6982C37.0865 36.4827 36.8193 36.375 36.5 36.375H27.5C27.1807 36.375 26.9135 36.4827 26.6982 36.6982C26.4827 36.9135 26.375 37.1807 26.375 37.5C26.375 37.8193 26.4827 38.0865 26.6982 38.3018C26.9135 38.5173 27.1807 38.625 27.5 38.625ZM27.5 32.625H36.5C36.8193 32.625 37.0865 32.5173 37.3018 32.3018C37.5173 32.0865 37.625 31.8193 37.625 31.5C37.625 31.1807 37.5173 30.9135 37.3018 30.6982C37.0865 30.4827 36.8193 30.375 36.5 30.375H27.5C27.1807 30.375 26.9135 30.4827 26.6982 30.6982C26.4827 30.9135 26.375 31.1807 26.375 31.5C26.375 31.8193 26.4827 32.0865 26.6982 32.3018C26.9135 32.5173 27.1807 32.625 27.5 32.625ZM23.4616 44.25C22.7039 44.25 22.0625 43.9875 21.5375 43.4625C21.0125 42.9375 20.75 42.2961 20.75 41.5384V18.4616C20.75 17.7039 21.0125 17.0625 21.5375 16.5375C22.0625 16.0125 22.7039 15.75 23.4616 15.75H34.253C34.6145 15.75 34.9621 15.8202 35.2959 15.9607C35.6294 16.101 35.9193 16.2943 36.1655 16.5405L42.4595 22.8345C42.7057 23.0807 42.899 23.3706 43.0392 23.7041C43.1798 24.0379 43.25 24.3855 43.25 24.747V41.5384C43.25 42.2961 42.9875 42.9375 42.4625 43.4625C41.9375 43.9875 41.2961 44.25 40.5384 44.25H23.4616ZM34.25 23.394V18H23.4616C23.3461 18 23.2404 18.0481 23.1444 18.1444C23.0481 18.2404 23 18.3461 23 18.4616V41.5384C23 41.6539 23.0481 41.7596 23.1444 41.8556C23.2404 41.9519 23.3461 42 23.4616 42H40.5384C40.6539 42 40.7596 41.9519 40.8556 41.8556C40.9519 41.7596 41 41.6539 41 41.5384V24.75H35.606C35.2192 24.75 34.8966 24.6206 34.6381 24.3619C34.3794 24.1034 34.25 23.7808 34.25 23.394Z" fill="white"/>
<path d="M37.6553 36.3447C37.3414 36.0305 36.9447 35.875 36.5 35.875H27.5C27.0553 35.875 26.6586 36.0305 26.3447 36.3447C26.0305 36.6586 25.875 37.0553 25.875 37.5C25.875 37.9447 26.0305 38.3414 26.3447 38.6553C26.6586 38.9695 27.0553 39.125 27.5 39.125H36.5C36.9447 39.125 37.3414 38.9695 37.6553 38.6553M37.6553 36.3447C37.9695 36.6586 38.125 37.0553 38.125 37.5C38.125 37.9447 37.9695 38.3414 37.6553 38.6553M37.6553 36.3447C37.6554 36.3448 37.6554 36.3448 37.6555 36.3449L37.3018 36.6982L37.6551 36.3445C37.6552 36.3446 37.6552 36.3446 37.6553 36.3447ZM37.6553 38.6553C37.6552 38.6554 37.6552 38.6554 37.6551 38.6555L37.3018 38.3018L37.6555 38.6551C37.6554 38.6552 37.6554 38.6552 37.6553 38.6553ZM37.6553 32.6553C37.9695 32.3414 38.125 31.9447 38.125 31.5C38.125 31.0552 37.9694 30.6584 37.6551 30.3445C37.3412 30.0305 36.9446 29.875 36.5 29.875H27.5C27.0553 29.875 26.6588 30.0305 26.3449 30.3445C26.0306 30.6584 25.875 31.0552 25.875 31.5C25.875 31.9447 26.0305 32.3414 26.3447 32.6553C26.6586 32.9695 27.0553 33.125 27.5 33.125H36.5C36.9447 33.125 37.3414 32.9695 37.6553 32.6553ZM37.6553 32.6553C37.6552 32.6554 37.6552 32.6554 37.6551 32.6555L37.3018 32.3018L37.6555 32.6551C37.6554 32.6552 37.6554 32.6552 37.6553 32.6553ZM23.4616 44.75C22.5743 44.75 21.8049 44.437 21.1839 43.8161C20.563 43.1951 20.25 42.4257 20.25 41.5384V18.4616C20.25 17.5743 20.563 16.8049 21.1839 16.1839C21.8049 15.563 22.5743 15.25 23.4616 15.25H34.253C34.6812 15.25 35.0947 15.3336 35.4897 15.4998C35.8805 15.6642 36.2252 15.8931 36.5191 16.1869L42.8131 22.4809C43.1068 22.7747 43.3357 23.1194 43.5001 23.5101L23.4616 44.75ZM23.4616 44.75H40.5384C41.4257 44.75 42.1951 44.437 42.8161 43.8161C43.437 43.1951 43.75 42.4257 43.75 41.5384V24.747C43.75 24.3188 43.6664 23.9053 43.5002 23.5103L23.4616 44.75ZM23.5 41.5V18.5H33.75V23.394C33.75 23.9049 33.9262 24.3574 34.2846 24.7154C34.6426 25.0738 35.0951 25.25 35.606 25.25H40.5V41.5H23.5Z" stroke="url(#paint1_linear_1224_5016)"/>
</g>
</g>
</g>
<rect x="2.36111" y="0.361111" width="59.2778" height="59.2778" rx="3.97222" stroke="black" stroke-opacity="0.15" stroke-width="0.722222"/>
</g>
<defs>
<filter id="filter0_di_1224_5016" x="0.338889" y="0" width="63.3222" height="63.8278" filterUnits="userSpaceOnUse" color-interpolation-filters="sRGB">
<feFlood flood-opacity="0" result="BackgroundImageFix"/>
<feColorMatrix in="SourceAlpha" type="matrix" values="0 0 0 0 0 0 0 0 0 0 0 0 0 0 0 0 0 0 127 0" result="hardAlpha"/>
<feOffset dy="2.16667"/>
<feGaussianBlur stdDeviation="0.830555"/>
<feComposite in2="hardAlpha" operator="out"/>
<feColorMatrix type="matrix" values="0 0 0 0 0.598333 0 0 0 0 0.598333 0 0 0 0 0.598333 0 0 0 0.25 0"/>
<feBlend mode="normal" in2="BackgroundImageFix" result="effect1_dropShadow_1224_5016"/>
<feBlend mode="normal" in="SourceGraphic" in2="effect1_dropShadow_1224_5016" result="shape"/>
<feColorMatrix in="SourceAlpha" type="matrix" values="0 0 0 0 0 0 0 0 0 0 0 0 0 0 0 0 0 0 127 0" result="hardAlpha"/>
<feOffset dy="2.16667"/>
<feGaussianBlur stdDeviation="0.65"/>
<feComposite in2="hardAlpha" operator="arithmetic" k2="-1" k3="1"/>
<feColorMatrix type="matrix" values="0 0 0 0 1 0 0 0 0 1 0 0 0 0 1 0 0 0 0.35 0"/>
<feBlend mode="normal" in2="shape" result="effect2_innerShadow_1224_5016"/>
</filter>
<filter id="filter1_f_1224_5016" x="-11.2" y="33.8" width="87.4" height="51.4" filterUnits="userSpaceOnUse" color-interpolation-filters="sRGB">
<feFlood flood-opacity="0" result="BackgroundImageFix"/>
<feBlend mode="normal" in="SourceGraphic" in2="BackgroundImageFix" result="shape"/>
<feGaussianBlur stdDeviation="7.1" result="effect1_foregroundBlur_1224_5016"/>
</filter>
<filter id="filter2_d_1224_5016" x="15.75" y="14.75" width="32.5" height="38.5" filterUnits="userSpaceOnUse" color-interpolation-filters="sRGB">
<feFlood flood-opacity="0" result="BackgroundImageFix"/>
<feColorMatrix in="SourceAlpha" type="matrix" values="0 0 0 0 0 0 0 0 0 0 0 0 0 0 0 0 0 0 127 0" result="hardAlpha"/>
<feOffset dy="4"/>
<feGaussianBlur stdDeviation="2"/>
<feComposite in2="hardAlpha" operator="out"/>
<feColorMatrix type="matrix" values="0 0 0 0 0 0 0 0 0 0 0 0 0 0 0 0 0 0 0.25 0"/>
<feBlend mode="normal" in2="BackgroundImageFix" result="effect1_dropShadow_1224_5016"/>
<feBlend mode="normal" in="SourceGraphic" in2="effect1_dropShadow_1224_5016" result="shape"/>
</filter>
<linearGradient id="paint0_linear_1224_5016" x1="32" y1="0" x2="32" y2="60" gradientUnits="userSpaceOnUse">
<stop stop-color="#556FF9"/>
<stop offset="1" stop-color="#5770F2"/>
</linearGradient>
<linearGradient id="paint1_linear_1224_5016" x1="32" y1="15.75" x2="32" y2="44.25" gradientUnits="userSpaceOnUse">
<stop stop-color="white"/>
<stop offset="1" stop-color="#007AFF"/>
</linearGradient>
<clipPath id="clip0_1224_5016">
<rect x="2" width="60" height="60" rx="4.33333" fill="white"/>
</clipPath>
</defs>
</svg>
