<svg width="21" height="21" viewBox="0 0 21 21" fill="none" xmlns="http://www.w3.org/2000/svg">
<path d="M13.4482 15.772C15.6191 14.8655 13.5754 11.3905 11.826 9.62517C9.99705 7.81209 6.72876 5.7207 5.6791 8.01092L0.963559 18.4598C0.438727 19.6287 1.52815 20.75 2.70505 20.257L13.4482 15.772ZM1.96551 18.8892L5.93357 10.0863C6.33116 11.0962 7.13432 12.2413 8.1681 13.2831C9.18595 14.293 10.2992 15.0802 11.2932 15.4858L2.28359 19.2312C2.01322 19.3425 1.83828 19.1755 1.96551 18.8892ZM6.80033 8.24943C7.32517 7.71669 9.13825 8.49596 11.0387 10.4124C12.9632 12.3129 13.7265 14.1339 13.2017 14.6508C12.6689 15.1916 10.8558 14.4122 8.94737 12.4958C7.03889 10.5953 6.26755 8.77431 6.80033 8.24943ZM7.96927 2.56376C8.44638 2.56376 8.84402 2.17411 8.84402 1.68903C8.84402 1.21191 8.44638 0.822266 7.96927 0.822266C7.47625 0.822266 7.09456 1.21191 7.09456 1.68903C7.09456 2.17411 7.47625 2.56376 7.96927 2.56376ZM9.01896 4.05078C8.96325 3.75656 8.77243 3.51005 8.46232 3.51005C8.1681 3.518 7.86593 3.76451 7.92951 4.08259C8.28739 5.95131 8.28739 7.87568 7.92951 9.77622C7.85792 10.0863 8.1681 10.3249 8.45432 10.3329C8.75655 10.3329 8.95531 10.0943 9.01102 9.8001C9.38471 7.8598 9.38471 5.96721 9.01896 4.05078ZM12.8836 3.93945C13.7186 3.93945 14.3786 3.27149 14.3786 2.44447C14.3786 1.60156 13.7186 0.949498 12.8836 0.949498C12.0486 0.949498 11.3887 1.60156 11.3887 2.44447C11.3887 3.27149 12.0486 3.93945 12.8836 3.93945ZM11.3727 6.44434C11.7624 6.44434 12.0725 6.12626 12.0725 5.73661C12.0725 5.35491 11.7624 5.03683 11.3727 5.03683C10.991 5.03683 10.665 5.35491 10.665 5.73661C10.665 6.12626 10.991 6.44434 11.3727 6.44434ZM19.3725 3.01702C19.7542 3.01702 20.0643 2.70689 20.0643 2.31724C20.0643 1.9276 19.7542 1.60952 19.3725 1.60952C18.9828 1.60952 18.6727 1.9276 18.6727 2.31724C18.6727 2.70689 18.9828 3.01702 19.3725 3.01702ZM17.0743 3.5339L15.5873 5.02093C15.3806 5.23563 15.3806 5.58552 15.5873 5.80022C15.81 6.01492 16.1598 6.01492 16.3745 5.80022L17.8616 4.32115C18.0683 4.10644 18.0683 3.7486 17.8616 3.5339C17.6469 3.32715 17.289 3.32715 17.0743 3.5339ZM14.1241 6.49205L10.0686 10.5396C9.86188 10.7543 9.86188 11.1122 10.0686 11.3269C10.2833 11.5337 10.6411 11.5337 10.8558 11.3269L14.9035 7.27135C15.1022 7.06459 15.1022 6.7147 14.9035 6.49205C14.6808 6.29325 14.3309 6.29325 14.1241 6.49205ZM20.0961 10.15C20.5811 10.15 20.9708 9.76034 20.9708 9.26729C20.9708 8.79019 20.5811 8.40055 20.0961 8.40055C19.603 8.40055 19.2213 8.79019 19.2213 9.26729C19.2213 9.76034 19.603 10.15 20.0961 10.15ZM16.6767 10.476C17.3845 10.476 17.949 9.92734 17.949 9.21959C17.949 8.51984 17.3845 7.9552 16.6767 7.9552C15.977 7.9552 15.4283 8.51984 15.4283 9.21959C15.4283 9.92734 15.977 10.476 16.6767 10.476ZM19.7939 14.2214C20.279 14.2214 20.6686 13.8397 20.6686 13.3467C20.6686 12.8616 20.279 12.472 19.7939 12.472C19.3088 12.472 18.9192 12.8616 18.9192 13.3467C18.9192 13.8397 19.3088 14.2214 19.7939 14.2214ZM17.3686 12.3765C15.4441 12.0108 13.5595 12.0108 11.6113 12.3765C11.325 12.4402 11.0785 12.639 11.0865 12.9332C11.0865 13.2274 11.325 13.5375 11.6431 13.4739C13.5436 13.1161 15.4601 13.1081 17.3367 13.466C17.6389 13.5296 17.8934 13.2354 17.9013 12.9332C17.9093 12.623 17.6548 12.4322 17.3686 12.3765Z" fill="#312ECB"/>
</svg>
