<svg width="74" height="74" viewBox="0 0 74 74" fill="none" xmlns="http://www.w3.org/2000/svg">
<mask id="mask0_7_3353" style="mask-type:alpha" maskUnits="userSpaceOnUse" x="0" y="0" width="74" height="74">
<rect width="74" height="74" fill="#D9D9D9"/>
</mask>
<g mask="url(#mask0_7_3353)">
<path d="M36.9946 66.2919C30.3927 66.2919 24.8889 64.0243 20.4834 59.4893C16.0778 54.9537 13.875 49.3089 13.875 42.5548C13.875 39.5003 14.5729 36.446 15.9686 33.3919C17.3643 30.3384 19.109 27.408 21.2025 24.6006C23.2956 21.7932 25.5534 19.1611 27.9759 16.7042C30.3988 14.2478 32.6558 12.0756 34.7469 10.1875C35.0865 9.89874 35.4447 9.68034 35.8214 9.53234C36.1981 9.38382 36.5927 9.30957 37.0054 9.30957C37.418 9.30957 37.8109 9.38382 38.184 9.53234C38.5571 9.68034 38.9135 9.89874 39.2531 10.1875C41.3442 12.0756 43.604 14.2529 46.0326 16.7196C48.4613 19.1868 50.7193 21.8199 52.8067 24.6191C54.8941 27.4182 56.6357 30.3436 58.0314 33.395C59.4271 36.447 60.125 39.5003 60.125 42.5548C60.125 49.3089 57.9204 54.9537 53.5112 59.4893C49.1021 64.0243 43.5965 66.2919 36.9946 66.2919ZM44.1225 53.5731C45.0388 53.5731 45.815 53.2525 46.4512 52.6111C47.0879 51.9698 47.4062 51.191 47.4062 50.2747C47.4062 49.3585 47.0856 48.5822 46.4443 47.946C45.8029 47.3099 45.0241 46.9918 44.1079 46.9918C43.1916 46.9918 42.4154 47.3122 41.7792 47.953C41.143 48.5943 40.8249 49.3731 40.8249 50.2894C40.8249 51.2057 41.1453 51.9819 41.7861 52.6181C42.4274 53.2548 43.2062 53.5731 44.1225 53.5731ZM27.9088 52.2327C28.2552 52.577 28.6645 52.7491 29.1367 52.7491C29.6085 52.7491 30.0198 52.577 30.3708 52.2327L46.0658 36.5377C46.4101 36.1831 46.5822 35.7695 46.5822 35.2967C46.5822 34.8234 46.4078 34.4148 46.0588 34.071C45.7104 33.7273 45.2965 33.5554 44.817 33.5554C44.3376 33.5554 43.9259 33.7273 43.5821 34.071L27.9042 49.7961C27.5604 50.1378 27.3885 50.5432 27.3885 51.0124C27.3885 51.4821 27.5619 51.8889 27.9088 52.2327ZM29.8921 39.342C30.8084 39.342 31.5846 39.0216 32.2208 38.3808C32.857 37.7394 33.1751 36.9606 33.1751 36.0444C33.1751 35.1281 32.8547 34.3519 32.2139 33.7157C31.5726 33.079 30.7938 32.7606 29.8775 32.7606C28.9612 32.7606 28.185 33.0813 27.5488 33.7226C26.9121 34.364 26.5938 35.1428 26.5938 36.059C26.5938 36.9753 26.9144 37.7515 27.5558 38.3877C28.1971 39.0239 28.9759 39.342 29.8921 39.342Z" fill="#556FF9"/>
</g>
</svg>
