<svg width="62" height="54" viewBox="0 0 62 54" fill="none" xmlns="http://www.w3.org/2000/svg">
<rect width="62" height="54" rx="6" fill="#F1F3FF"/>
<mask id="mask0_7_7800" style="mask-type:alpha" maskUnits="userSpaceOnUse" x="4" y="0" width="54" height="54">
<rect x="4" width="54" height="54" fill="#D9D9D9"/>
</mask>
<g mask="url(#mask0_7_7800)">
<path d="M36.4951 28.233H45.8843V25.6804H36.4951V28.233ZM36.4951 21.7429H45.8843V19.1897H36.4951V21.7429ZM16.1157 35.2209H32.5576V34.542C32.5576 33.1256 31.8364 31.989 30.3942 31.1321C28.9519 30.2756 26.9328 29.8474 24.3366 29.8474C21.7405 29.8474 19.7213 30.2756 18.2791 31.1321C16.8368 31.989 16.1157 33.1256 16.1157 34.542V35.2209ZM24.331 26.0826C25.3443 26.0826 26.2071 25.7282 26.9196 25.0194C27.6321 24.3107 27.9884 23.4497 27.9884 22.4364C27.9884 21.4232 27.634 20.5603 26.9253 19.8478C26.2161 19.1353 25.3551 18.7791 24.3423 18.7791C23.329 18.7791 22.4661 19.1334 21.7536 19.8422C21.0411 20.5509 20.6849 21.4119 20.6849 22.4252C20.6849 23.4384 21.0393 24.3013 21.748 25.0138C22.4567 25.7263 23.3178 26.0826 24.331 26.0826ZM12.8701 43.875C11.9877 43.875 11.2263 43.5547 10.5858 42.9142C9.94525 42.2738 9.625 41.5123 9.625 40.6299V13.3701C9.625 12.4877 9.94525 11.7263 10.5858 11.0858C11.2263 10.4453 11.9877 10.125 12.8701 10.125H49.1299C50.0123 10.125 50.7738 10.4453 51.4142 11.0858C52.0547 11.7263 52.375 12.4877 52.375 13.3701V40.6299C52.375 41.5123 52.0547 42.2738 51.4142 42.9142C50.7738 43.5547 50.0123 43.875 49.1299 43.875H12.8701ZM12.8701 41.3218H49.1299C49.3028 41.3218 49.4614 41.2498 49.6058 41.1058C49.7498 40.9614 49.8218 40.8028 49.8218 40.6299V13.3701C49.8218 13.1972 49.7498 13.0386 49.6058 12.8942C49.4614 12.7502 49.3028 12.6782 49.1299 12.6782H12.8701C12.6972 12.6782 12.5386 12.7502 12.3942 12.8942C12.2502 13.0386 12.1782 13.1972 12.1782 13.3701V40.6299C12.1782 40.8028 12.2502 40.9614 12.3942 41.1058C12.5386 41.2498 12.6972 41.3218 12.8701 41.3218Z" fill="#007AFF"/>
<path d="M36.4966 28.2332H45.8858V25.6806H36.4966V28.2332ZM36.4966 21.7431H45.8858V19.1899H36.4966V21.7431ZM16.1172 35.2212H32.5591V34.5422C32.5591 33.1259 31.8379 31.9892 30.3957 31.1324C28.9534 30.2759 26.9342 29.8476 24.3381 29.8476C21.742 29.8476 19.7228 30.2759 18.2806 31.1324C16.8383 31.9892 16.1172 33.1259 16.1172 34.5422V35.2212ZM24.3325 26.0828C25.3458 26.0828 26.2086 25.7284 26.9211 25.0197C27.6336 24.3109 27.9899 23.4499 27.9899 22.4367C27.9899 21.4234 27.6355 20.5605 26.9268 19.848C26.2176 19.1355 25.3566 18.7793 24.3438 18.7793C23.3305 18.7793 22.4676 19.1337 21.7551 19.8424C21.0426 20.5512 20.6864 21.4122 20.6864 22.4254C20.6864 23.4387 21.0407 24.3015 21.7495 25.014C22.4583 25.7265 23.3193 26.0828 24.3325 26.0828Z" fill="#B6C1FF"/>
</g>
</svg>
