<svg width="74" height="74" viewBox="0 0 74 74" fill="none" xmlns="http://www.w3.org/2000/svg">
<mask id="mask0_1_12095" style="mask-type:alpha" maskUnits="userSpaceOnUse" x="0" y="0" width="74" height="74">
<rect width="74" height="74" fill="#D9D9D9"/>
</mask>
<g mask="url(#mask0_1_12095)">
<path d="M14.3465 60.1252C13.3711 60.1252 12.5345 59.776 11.8366 59.0777C11.1382 58.3798 10.7891 57.5432 10.7891 56.5678V54.273C10.7891 52.6168 11.2279 51.1738 12.1056 49.944C12.9834 48.7148 14.1237 47.77 15.5266 47.1097C18.7723 45.6672 21.9011 44.5803 24.913 43.8491C27.9255 43.1178 30.9258 42.7522 33.9141 42.7522C34.9932 42.7522 36.0675 42.8005 37.1369 42.8971C38.2063 42.9942 39.2806 43.1355 40.3598 43.321C40.7508 43.4238 41.0492 43.5988 41.2547 43.846C41.4603 44.0932 41.5731 44.4025 41.5931 44.7741C41.6918 47.0665 42.2827 49.2218 43.366 51.2398C44.4488 53.2579 45.9252 54.937 47.7952 56.2772C47.9885 56.382 48.1395 56.528 48.2485 56.715C48.3574 56.9021 48.4119 57.1 48.4119 57.3086V57.9607C48.4119 58.5568 48.2002 59.0666 47.7767 59.49C47.3533 59.9135 46.8435 60.1252 46.2474 60.1252H14.3465ZM33.9141 35.5179C31.0522 35.5179 28.6321 34.5287 26.6536 32.5502C24.6751 30.5717 23.6859 28.1516 23.6859 25.2897C23.6859 22.4279 24.6751 20.0077 26.6536 18.0292C28.6321 16.0508 31.0522 15.0615 33.9141 15.0615C36.7759 15.0615 39.1961 16.0508 41.1745 18.0292C43.153 20.0077 44.1423 22.4279 44.1423 25.2897C44.1423 28.1516 43.153 30.5717 41.1745 32.5502C39.1961 34.5287 36.7759 35.5179 33.9141 35.5179ZM56.7423 45.3668C57.4977 45.3668 58.1411 45.096 58.6725 44.5544C59.2043 44.0127 59.4703 43.3645 59.4703 42.6096C59.4703 41.8547 59.2043 41.2113 58.6725 40.6794C58.1411 40.148 57.4977 39.8824 56.7423 39.8824C55.9874 39.8824 55.3391 40.148 54.7975 40.6794C54.2558 41.2113 53.985 41.8547 53.985 42.6096C53.985 43.3645 54.2558 44.0127 54.7975 44.5544C55.3391 45.096 55.9874 45.3668 56.7423 45.3668ZM57.288 69.1555L54.3119 66.15C54.2168 66.055 54.1078 65.8117 53.985 65.4201V53.1569C51.9814 52.5608 50.3439 51.4287 49.0725 49.7606C47.8017 48.0925 47.1662 46.1734 47.1662 44.0032C47.1662 41.3588 48.1012 39.1015 49.9713 37.2315C51.8408 35.3619 54.0978 34.4272 56.7423 34.4272C59.3868 34.4272 61.6391 35.3619 63.4994 37.2315C65.3592 39.1015 66.2891 41.3588 66.2891 44.0032C66.2891 46.0588 65.713 47.8821 64.5609 49.4731C63.4082 51.0641 61.9385 52.1957 60.1517 52.8678L62.7432 55.4586C62.9801 55.677 63.0986 55.945 63.0986 56.2626C63.0986 56.5807 62.9801 56.8582 62.7432 57.0951L60.2588 59.5795C60.0214 59.7979 59.9027 60.061 59.9027 60.3688C59.9027 60.6766 60.0214 60.9492 60.2588 61.1867L62.7725 63.671C63.0099 63.8895 63.1286 64.1526 63.1286 64.4604C63.1286 64.7682 63.0099 65.0406 62.7725 65.2775L58.8952 69.1555C58.6763 69.3929 58.4132 69.5117 58.1059 69.5117C57.7981 69.5117 57.5255 69.3929 57.288 69.1555Z" fill="#B6C1FF"/>
<path d="M14.3465 60.1252C13.3711 60.1252 12.5345 59.776 11.8366 59.0777C11.1382 58.3798 10.7891 57.5432 10.7891 56.5678V54.273C10.7891 52.6168 11.2279 51.1738 12.1056 49.944C12.9834 48.7148 14.1237 47.77 15.5266 47.1097C18.7723 45.6672 21.9011 44.5803 24.913 43.8491C27.9255 43.1178 30.9258 42.7522 33.9141 42.7522C34.9932 42.7522 36.0675 42.8005 37.1369 42.8971C38.2063 42.9942 39.2806 43.1355 40.3598 43.321C40.7508 43.4238 41.0492 43.5988 41.2547 43.846C41.4603 44.0932 41.5731 44.4025 41.5931 44.7741C41.6918 47.0665 42.2827 49.2218 43.366 51.2398C44.4488 53.2579 45.9252 54.937 47.7952 56.2772C47.9885 56.382 48.1395 56.528 48.2485 56.715C48.3574 56.9021 48.4119 57.1 48.4119 57.3086V57.9607C48.4119 58.5568 48.2002 59.0666 47.7767 59.49C47.3533 59.9135 46.8435 60.1252 46.2474 60.1252H14.3465ZM33.9141 35.5179C31.0522 35.5179 28.6321 34.5287 26.6536 32.5502C24.6751 30.5717 23.6859 28.1516 23.6859 25.2897C23.6859 22.4279 24.6751 20.0077 26.6536 18.0292C28.6321 16.0508 31.0522 15.0615 33.9141 15.0615C36.7759 15.0615 39.1961 16.0508 41.1745 18.0292C43.153 20.0077 44.1423 22.4279 44.1423 25.2897C44.1423 28.1516 43.153 30.5717 41.1745 32.5502C39.1961 34.5287 36.7759 35.5179 33.9141 35.5179Z" fill="#556FF9"/>
</g>
</svg>
