<svg width="64" height="64" viewBox="0 0 64 64" fill="none" xmlns="http://www.w3.org/2000/svg">
<g filter="url(#filter0_di_1224_5086)">
<g clip-path="url(#clip0_1224_5086)">
<rect x="2" width="60" height="60" rx="4.33333" fill="url(#paint0_linear_1224_5086)"/>
<g filter="url(#filter1_f_1224_5086)">
<ellipse cx="32.5" cy="59.5" rx="29.5" ry="11.5" fill="white" fill-opacity="0.49"/>
</g>
<g filter="url(#filter2_d_1224_5086)">
<path d="M32 36C30.275 36 28.6625 36.2625 27.1625 36.7875C25.6625 37.3125 24.275 38.05 23 39V42H41V39C39.725 38.05 38.3375 37.3125 36.8375 36.7875C35.3375 36.2625 33.725 36 32 36ZM23 45C22.175 45 21.4688 44.7063 20.8813 44.1188C20.2938 43.5312 20 42.825 20 42V18C20 17.175 20.2938 16.4688 20.8813 15.8813C21.4688 15.2938 22.175 15 23 15H41C41.825 15 42.5312 15.2938 43.1188 15.8813C43.7063 16.4688 44 17.175 44 18V42C44 42.825 43.7063 43.5312 43.1188 44.1188C42.5312 44.7063 41.825 45 41 45H23ZM32 33C33.45 33 34.6875 32.4875 35.7125 31.4625C36.7375 30.4375 37.25 29.2 37.25 27.75C37.25 26.3 36.7375 25.0625 35.7125 24.0375C34.6875 23.0125 33.45 22.5 32 22.5C30.55 22.5 29.3125 23.0125 28.2875 24.0375C27.2625 25.0625 26.75 26.3 26.75 27.75C26.75 29.2 27.2625 30.4375 28.2875 31.4625C29.3125 32.4875 30.55 33 32 33Z" fill="white"/>
<path d="M27.3277 37.2594C28.7702 36.7545 30.3264 36.5 32 36.5C33.6736 36.5 35.2298 36.7545 36.6723 37.2594C38.0459 37.7402 39.3213 38.4046 40.5 39.2535V41.5H23.5V39.2535C24.6787 38.4046 25.9541 37.7402 27.3277 37.2594ZM20.5277 44.4723C21.2082 45.1528 22.0413 45.5 23 45.5H41C41.9587 45.5 42.7918 45.1528 43.4723 44.4723C44.1528 43.7918 44.5 42.9587 44.5 42V18C44.5 17.0413 44.1528 16.2082 43.4723 15.5277C42.7918 14.8472 41.9587 14.5 41 14.5H23C22.0413 14.5 21.2082 14.8472 20.5277 15.5277C19.8472 16.2082 19.5 17.0413 19.5 18V42C19.5 42.9587 19.8472 43.7918 20.5277 44.4723ZM35.3589 31.1089C34.4277 32.0401 33.3174 32.5 32 32.5C30.6826 32.5 29.5723 32.0401 28.6411 31.1089C27.7099 30.1777 27.25 29.0674 27.25 27.75C27.25 26.4326 27.7099 25.3223 28.6411 24.3911C29.5723 23.4599 30.6826 23 32 23C33.3174 23 34.4277 23.4599 35.3589 24.3911C36.2901 25.3223 36.75 26.4326 36.75 27.75C36.75 29.0674 36.2901 30.1777 35.3589 31.1089Z" stroke="url(#paint1_linear_1224_5086)"/>
</g>
</g>
<rect x="2.36111" y="0.361111" width="59.2778" height="59.2778" rx="3.97222" stroke="black" stroke-opacity="0.15" stroke-width="0.722222"/>
</g>
<defs>
<filter id="filter0_di_1224_5086" x="0.338889" y="0" width="63.3222" height="63.8278" filterUnits="userSpaceOnUse" color-interpolation-filters="sRGB">
<feFlood flood-opacity="0" result="BackgroundImageFix"/>
<feColorMatrix in="SourceAlpha" type="matrix" values="0 0 0 0 0 0 0 0 0 0 0 0 0 0 0 0 0 0 127 0" result="hardAlpha"/>
<feOffset dy="2.16667"/>
<feGaussianBlur stdDeviation="0.830555"/>
<feComposite in2="hardAlpha" operator="out"/>
<feColorMatrix type="matrix" values="0 0 0 0 0.598333 0 0 0 0 0.598333 0 0 0 0 0.598333 0 0 0 0.25 0"/>
<feBlend mode="normal" in2="BackgroundImageFix" result="effect1_dropShadow_1224_5086"/>
<feBlend mode="normal" in="SourceGraphic" in2="effect1_dropShadow_1224_5086" result="shape"/>
<feColorMatrix in="SourceAlpha" type="matrix" values="0 0 0 0 0 0 0 0 0 0 0 0 0 0 0 0 0 0 127 0" result="hardAlpha"/>
<feOffset dy="2.16667"/>
<feGaussianBlur stdDeviation="0.65"/>
<feComposite in2="hardAlpha" operator="arithmetic" k2="-1" k3="1"/>
<feColorMatrix type="matrix" values="0 0 0 0 1 0 0 0 0 1 0 0 0 0 1 0 0 0 0.35 0"/>
<feBlend mode="normal" in2="shape" result="effect2_innerShadow_1224_5086"/>
</filter>
<filter id="filter1_f_1224_5086" x="-11.2" y="33.8" width="87.4" height="51.4" filterUnits="userSpaceOnUse" color-interpolation-filters="sRGB">
<feFlood flood-opacity="0" result="BackgroundImageFix"/>
<feBlend mode="normal" in="SourceGraphic" in2="BackgroundImageFix" result="shape"/>
<feGaussianBlur stdDeviation="7.1" result="effect1_foregroundBlur_1224_5086"/>
</filter>
<filter id="filter2_d_1224_5086" x="15" y="14" width="34" height="40" filterUnits="userSpaceOnUse" color-interpolation-filters="sRGB">
<feFlood flood-opacity="0" result="BackgroundImageFix"/>
<feColorMatrix in="SourceAlpha" type="matrix" values="0 0 0 0 0 0 0 0 0 0 0 0 0 0 0 0 0 0 127 0" result="hardAlpha"/>
<feOffset dy="4"/>
<feGaussianBlur stdDeviation="2"/>
<feComposite in2="hardAlpha" operator="out"/>
<feColorMatrix type="matrix" values="0 0 0 0 0 0 0 0 0 0 0 0 0 0 0 0 0 0 0.25 0"/>
<feBlend mode="normal" in2="BackgroundImageFix" result="effect1_dropShadow_1224_5086"/>
<feBlend mode="normal" in="SourceGraphic" in2="effect1_dropShadow_1224_5086" result="shape"/>
</filter>
<linearGradient id="paint0_linear_1224_5086" x1="32" y1="0" x2="32" y2="60" gradientUnits="userSpaceOnUse">
<stop stop-color="#556FF9"/>
<stop offset="1" stop-color="#5770F2"/>
</linearGradient>
<linearGradient id="paint1_linear_1224_5086" x1="32" y1="15" x2="32" y2="45" gradientUnits="userSpaceOnUse">
<stop stop-color="white"/>
<stop offset="1" stop-color="#007AFF"/>
</linearGradient>
<clipPath id="clip0_1224_5086">
<rect x="2" width="60" height="60" rx="4.33333" fill="white"/>
</clipPath>
</defs>
</svg>
