<svg width="74" height="74" viewBox="0 0 74 74" fill="none" xmlns="http://www.w3.org/2000/svg">
<mask id="mask0_1_10402" style="mask-type:alpha" maskUnits="userSpaceOnUse" x="0" y="0" width="74" height="74">
<rect width="74" height="74" fill="#D9D9D9"/>
</mask>
<g mask="url(#mask0_1_10402)">
<path d="M59.8217 51.1258L33.8798 68.2516C33.3554 68.5896 32.7993 68.8046 32.2116 68.8967C31.624 68.9887 31.0543 68.978 30.5026 68.8644C29.951 68.7509 29.4327 68.5311 28.9479 68.2052C28.463 67.8793 28.0453 67.4704 27.6948 66.9785L6.17876 34.2487C5.83541 33.7782 5.602 33.2553 5.47854 32.6801C5.35468 32.1042 5.35424 31.5175 5.47722 30.9201L9.9099 9.38507C10.155 8.19418 10.7958 7.25393 11.8323 6.56433C12.8688 5.87474 13.9906 5.65416 15.1976 5.9026L36.7786 10.3448C37.3685 10.4662 37.9077 10.6989 38.3962 11.0429C38.8853 11.3865 39.3003 11.8022 39.6411 12.29L61.1067 44.8827C61.478 45.414 61.7139 45.9744 61.8145 46.5638C61.9151 47.1533 61.9079 47.7273 61.7929 48.286C61.6779 48.8447 61.4518 49.3785 61.1147 49.8873C60.7781 50.3956 60.3471 50.8085 59.8217 51.1258ZM19.1449 21.9584C20.0549 22.1457 20.9052 21.9755 21.6959 21.4478C22.4866 20.9201 22.9751 20.2037 23.1614 19.2987C23.3494 18.3852 23.1848 17.532 22.6675 16.7393C22.1502 15.9466 21.439 15.457 20.534 15.2708C19.6204 15.0827 18.7622 15.2479 17.9593 15.7662C17.1558 16.285 16.6603 16.9994 16.473 17.9094C16.2857 18.8195 16.4567 19.675 16.9859 20.4759C17.5152 21.2769 18.2348 21.7711 19.1449 21.9584Z" fill="#B6C1FF"/>
<path d="M65.0131 43.006L43.0567 65.0102C42.6112 65.447 42.1099 65.7697 41.5528 65.9784C40.9958 66.187 40.4356 66.2913 39.8724 66.2913C39.3092 66.2913 38.7573 66.1806 38.2167 65.9591C37.6761 65.7376 37.1845 65.4213 36.7421 65.0102L9.06915 37.2903C8.63799 36.8987 8.30397 36.4336 8.06706 35.8951C7.82965 35.356 7.71094 34.7815 7.71094 34.1715V12.185C7.71094 10.9691 8.14903 9.91902 9.02521 9.03461C9.90139 8.15021 10.9556 7.70801 12.1879 7.70801H34.2214C34.8237 7.70801 35.3988 7.82723 35.9466 8.06568C36.4949 8.30361 36.9851 8.6271 37.4173 9.03615L65.0131 36.632C65.4839 37.0775 65.8279 37.5788 66.0453 38.1359C66.2627 38.6929 66.3714 39.2567 66.3714 39.8271C66.3714 40.3975 66.2575 40.9659 66.0299 41.5322C65.8027 42.098 65.4638 42.5892 65.0131 43.006ZM19.2912 22.6383C20.2203 22.6383 21.0189 22.3001 21.6869 21.6239C22.355 20.9476 22.689 20.1475 22.689 19.2235C22.689 18.2908 22.3557 17.4883 21.6892 16.8162C21.0227 16.144 20.2275 15.8079 19.3035 15.8079C18.3708 15.8079 17.5635 16.1427 16.8815 16.8123C16.1991 17.4824 15.8579 18.282 15.8579 19.2112C15.8579 20.1403 16.1978 20.9437 16.8777 21.6215C17.5576 22.2994 18.3621 22.6383 19.2912 22.6383Z" fill="#556FF9"/>
</g>
</svg>
