<svg width="309" height="346" viewBox="0 0 309 346" fill="none" xmlns="http://www.w3.org/2000/svg">
<g clip-path="url(#clip0_164_35)">
<rect width="309" height="346" rx="10" fill="white"/>
<circle cx="154.999" cy="101.999" r="86.9325" fill="url(#paint0_linear_164_35)"/>
<circle cx="154.999" cy="101.999" r="86.2638" stroke="#B6C1FF" stroke-opacity="0.17" stroke-width="1.33742"/>
<g filter="url(#filter0_f_164_35)">
<path d="M167.042 -28.766V-51.273C167.042 -52.4921 166.008 -53.5002 163.94 -54.2974C161.872 -55.0945 159.257 -55.493 156.095 -55.493C152.932 -55.493 150.317 -55.0945 148.249 -54.2974C146.182 -53.5002 145.148 -52.4921 145.148 -51.273V-27.078C145.148 -26.5153 145.391 -25.9995 145.877 -25.5306C146.364 -25.0618 147.215 -24.5928 148.432 -24.124L191.49 -7.52506C193.68 -6.68105 196.234 -6.25905 199.153 -6.25905C202.072 -6.25905 204.627 -6.68105 206.816 -7.52506C209.006 -8.36908 210.1 -9.35376 210.1 -10.4791C210.1 -11.6045 209.006 -12.5891 206.816 -13.4331L167.042 -28.766ZM155 23C136.998 23 120.03 21.6871 104.096 19.0613C88.162 16.4355 74.2957 12.825 62.4972 8.22981C50.6987 3.63464 41.3329 -1.71077 34.3997 -7.80641C27.4666 -13.902 24 -20.4666 24 -27.5C24 -34.4396 27.4666 -40.9807 34.3997 -47.1233C41.3329 -53.2658 50.6987 -58.6346 62.4972 -63.2298C74.2957 -67.825 88.162 -71.4355 104.096 -74.0613C120.03 -76.6871 136.998 -78 155 -78C173.002 -78 189.97 -76.6871 205.904 -74.0613C221.838 -71.4355 235.765 -67.825 247.685 -63.2298C259.605 -58.6346 268.971 -53.2658 275.783 -47.1233C282.594 -40.9807 286 -34.4396 286 -27.5C286 -20.4666 282.594 -13.902 275.783 -7.80641C268.971 -1.71077 259.605 3.63464 247.685 8.22981C235.765 12.825 221.838 16.4355 205.904 19.0613C189.97 21.6871 173.002 23 155 23Z" fill="url(#paint1_linear_164_35)"/>
</g>
<g filter="url(#filter1_dd_164_35)">
<path d="M134.796 150.121C141.095 152.814 147.804 154.16 154.921 154.16C162.038 154.16 168.747 152.814 175.046 150.121C181.346 147.428 186.852 143.725 191.565 139.012C196.278 134.3 199.981 128.817 202.674 122.566C205.367 116.314 206.713 109.582 206.713 102.368C206.713 95.2511 205.367 88.5427 202.674 82.243C199.981 75.9433 196.278 70.437 191.565 65.7243C186.852 61.0115 181.346 57.3087 175.046 54.6157C168.747 51.9227 162.038 50.5762 154.921 50.5762C147.804 50.5762 141.095 51.9227 134.796 54.6157C128.496 57.3087 123.014 61.0115 118.349 65.7243C113.685 70.437 109.982 75.9433 107.241 82.243C104.499 88.5427 103.129 95.2511 103.129 102.368C103.129 109.582 104.499 116.314 107.241 122.566C109.982 128.817 113.685 134.3 118.349 139.012C123.014 143.725 128.496 147.428 134.796 150.121Z" fill="url(#paint2_linear_164_35)" shape-rendering="crispEdges"/>
<path d="M134.533 150.736C140.919 153.466 147.717 154.829 154.921 154.829C162.125 154.829 168.923 153.466 175.309 150.736C181.685 148.01 187.263 144.26 192.038 139.485C196.812 134.711 200.562 129.158 203.288 122.83C206.019 116.49 207.382 109.667 207.382 102.368C207.382 95.1643 206.018 88.3661 203.289 81.9801C200.563 75.6042 196.813 70.0262 192.038 65.2514C187.263 60.4767 181.685 56.7264 175.309 54.0008C168.923 51.2709 162.125 49.9075 154.921 49.9075C147.717 49.9075 140.919 51.2709 134.533 54.0008C128.156 56.7266 122.601 60.4776 117.874 65.2539C113.149 70.0275 109.4 75.6034 106.627 81.9762C103.848 88.3631 102.46 95.1627 102.46 102.368C102.46 109.669 103.848 116.493 106.628 122.834C109.401 129.159 113.15 134.71 117.874 139.483C122.601 144.259 128.156 148.01 134.533 150.736Z" stroke="white" stroke-opacity="0.02" stroke-width="1.33742" shape-rendering="crispEdges"/>
</g>
<g filter="url(#filter2_d_164_35)">
<path d="M155 77.7969C150.114 77.7969 145.338 79.2457 141.276 81.9601C137.213 84.6745 134.047 88.5326 132.177 93.0465C130.308 97.5604 129.818 102.527 130.772 107.319C131.725 112.111 134.077 116.513 137.532 119.968C140.987 123.423 145.389 125.775 150.181 126.728C154.973 127.682 159.94 127.192 164.453 125.323C168.967 123.453 172.825 120.287 175.54 116.224C178.254 112.162 179.703 107.386 179.703 102.5C179.695 95.9507 177.09 89.6718 172.459 85.0407C167.828 80.4097 161.549 77.8046 155 77.7969ZM155 124.297C150.689 124.297 146.475 123.019 142.89 120.623C139.306 118.228 136.512 114.824 134.862 110.841C133.213 106.858 132.781 102.476 133.622 98.2476C134.463 94.0195 136.539 90.1356 139.587 87.0873C142.636 84.0389 146.519 81.963 150.748 81.1219C154.976 80.2809 159.358 80.7126 163.341 82.3623C167.324 84.0121 170.728 86.8058 173.123 90.3903C175.519 93.9748 176.797 98.189 176.797 102.5C176.79 108.279 174.492 113.819 170.406 117.906C166.319 121.992 160.779 124.29 155 124.297ZM146.766 102.5C146.766 104.228 147.309 105.913 148.32 107.315C149.33 108.717 150.757 109.765 152.396 110.312C154.036 110.858 155.806 110.875 157.455 110.36C159.105 109.845 160.551 108.823 161.588 107.441C161.819 107.132 162.164 106.929 162.545 106.874C162.927 106.82 163.315 106.92 163.623 107.151C163.931 107.383 164.135 107.727 164.189 108.109C164.244 108.491 164.144 108.878 163.913 109.187C162.509 111.057 160.553 112.438 158.321 113.135C156.09 113.831 153.695 113.808 151.477 113.068C149.26 112.329 147.331 110.91 145.964 109.013C144.597 107.117 143.861 104.838 143.861 102.5C143.861 100.162 144.597 97.8833 145.964 95.9866C147.331 94.0898 149.26 92.6712 151.477 91.9316C153.695 91.1919 156.09 91.1688 158.321 91.8654C160.553 92.5621 162.509 93.9432 163.913 95.8132C164.144 96.1215 164.244 96.5092 164.189 96.8909C164.135 97.2727 163.931 97.6172 163.623 97.8488C163.315 98.0803 162.927 98.1799 162.545 98.1257C162.164 98.0714 161.819 97.8677 161.588 97.5594C160.551 96.1768 159.105 95.1555 157.455 94.6402C155.806 94.1249 154.036 94.1417 152.396 94.6882C150.757 95.2347 149.33 96.2832 148.32 97.6853C147.309 99.0873 146.766 100.772 146.766 102.5Z" fill="white"/>
</g>
<circle cx="155" cy="102" r="217.331" stroke="#B6C1FF" stroke-opacity="0.17" stroke-width="1.33742"/>
<circle cx="154.998" cy="102" r="173.196" stroke="#B6C1FF" stroke-opacity="0.17" stroke-width="1.33742"/>
<circle cx="155.001" cy="102.001" r="130.399" stroke="#B6C1FF" stroke-opacity="0.17" stroke-width="1.33742"/>
</g>
<rect x="0.5" y="0.5" width="308" height="345" rx="9.5" stroke="#CCCCCC"/>
<defs>
<filter id="filter0_f_164_35" x="-92.7" y="-194.7" width="495.4" height="334.4" filterUnits="userSpaceOnUse" color-interpolation-filters="sRGB">
<feFlood flood-opacity="0" result="BackgroundImageFix"/>
<feBlend mode="normal" in="SourceGraphic" in2="BackgroundImageFix" result="shape"/>
<feGaussianBlur stdDeviation="58.35" result="effect1_foregroundBlur_164_35"/>
</filter>
<filter id="filter1_dd_164_35" x="62.4682" y="19.8076" width="184.906" height="184.906" filterUnits="userSpaceOnUse" color-interpolation-filters="sRGB">
<feFlood flood-opacity="0" result="BackgroundImageFix"/>
<feColorMatrix in="SourceAlpha" type="matrix" values="0 0 0 0 0 0 0 0 0 0 0 0 0 0 0 0 0 0 127 0" result="hardAlpha"/>
<feOffset dy="9.89265"/>
<feGaussianBlur stdDeviation="19.6616"/>
<feComposite in2="hardAlpha" operator="out"/>
<feColorMatrix type="matrix" values="0 0 0 0 0.713726 0 0 0 0 0.756863 0 0 0 0 1 0 0 0 1 0"/>
<feBlend mode="normal" in2="BackgroundImageFix" result="effect1_dropShadow_164_35"/>
<feColorMatrix in="SourceAlpha" type="matrix" values="0 0 0 0 0 0 0 0 0 0 0 0 0 0 0 0 0 0 127 0" result="hardAlpha"/>
<feOffset/>
<feGaussianBlur stdDeviation="3.74479"/>
<feComposite in2="hardAlpha" operator="out"/>
<feColorMatrix type="matrix" values="0 0 0 0 0.830683 0 0 0 0 0.853937 0 0 0 0 0.985 0 0 0 1 0"/>
<feBlend mode="normal" in2="effect1_dropShadow_164_35" result="effect2_dropShadow_164_35"/>
<feBlend mode="normal" in="SourceGraphic" in2="effect2_dropShadow_164_35" result="shape"/>
</filter>
<filter id="filter2_d_164_35" x="123.784" y="77.7969" width="62.4316" height="62.4316" filterUnits="userSpaceOnUse" color-interpolation-filters="sRGB">
<feFlood flood-opacity="0" result="BackgroundImageFix"/>
<feColorMatrix in="SourceAlpha" type="matrix" values="0 0 0 0 0 0 0 0 0 0 0 0 0 0 0 0 0 0 127 0" result="hardAlpha"/>
<feOffset dy="6.51267"/>
<feGaussianBlur stdDeviation="3.25634"/>
<feComposite in2="hardAlpha" operator="out"/>
<feColorMatrix type="matrix" values="0 0 0 0 0 0 0 0 0 0 0 0 0 0 0 0 0 0 0.14 0"/>
<feBlend mode="normal" in2="BackgroundImageFix" result="effect1_dropShadow_164_35"/>
<feBlend mode="normal" in="SourceGraphic" in2="effect1_dropShadow_164_35" result="shape"/>
</filter>
<linearGradient id="paint0_linear_164_35" x1="154.999" y1="62.5449" x2="154.999" y2="188.931" gradientUnits="userSpaceOnUse">
<stop stop-color="#EFF1FF"/>
<stop offset="1" stop-color="white"/>
</linearGradient>
<linearGradient id="paint1_linear_164_35" x1="155" y1="-78" x2="155" y2="23" gradientUnits="userSpaceOnUse">
<stop stop-color="#B6C1FF"/>
<stop offset="1" stop-color="#E0E5FF"/>
</linearGradient>
<linearGradient id="paint2_linear_164_35" x1="154.921" y1="50.5762" x2="154.921" y2="154.16" gradientUnits="userSpaceOnUse">
<stop stop-color="#3495FF"/>
<stop offset="1" stop-color="#CED5FF"/>
</linearGradient>
<clipPath id="clip0_164_35">
<rect width="309" height="346" rx="10" fill="white"/>
</clipPath>
</defs>
</svg>
