<svg width="309" height="346" viewBox="0 0 309 346" fill="none" xmlns="http://www.w3.org/2000/svg">
<g clip-path="url(#clip0_133_4931)">
<rect width="309" height="346" rx="10" fill="white"/>
<circle cx="155" cy="102.001" r="86.9325" fill="url(#paint0_linear_133_4931)"/>
<circle cx="155" cy="102.001" r="86.2638" stroke="#B6C1FF" stroke-opacity="0.17" stroke-width="1.33742"/>
<g filter="url(#filter0_f_133_4931)">
<path d="M167.042 -28.766V-51.273C167.042 -52.4921 166.008 -53.5002 163.94 -54.2974C161.872 -55.0945 159.257 -55.493 156.095 -55.493C152.932 -55.493 150.317 -55.0945 148.249 -54.2974C146.182 -53.5002 145.148 -52.4921 145.148 -51.273V-27.078C145.148 -26.5153 145.391 -25.9995 145.877 -25.5306C146.364 -25.0618 147.215 -24.5928 148.432 -24.124L191.49 -7.52506C193.68 -6.68105 196.234 -6.25906 199.153 -6.25906C202.072 -6.25906 204.627 -6.68105 206.816 -7.52506C209.006 -8.36907 210.1 -9.35376 210.1 -10.4791C210.1 -11.6045 209.006 -12.5891 206.816 -13.4331L167.042 -28.766ZM155 23C136.998 23 120.03 21.6871 104.096 19.0613C88.162 16.4355 74.2957 12.825 62.4972 8.22981C50.6987 3.63464 41.3329 -1.71077 34.3997 -7.8064C27.4666 -13.902 24 -20.4666 24 -27.5C24 -34.4397 27.4666 -40.9807 34.3997 -47.1233C41.3329 -53.2658 50.6987 -58.6346 62.4972 -63.2298C74.2957 -67.825 88.162 -71.4355 104.096 -74.0613C120.03 -76.6871 136.998 -78 155 -78C173.002 -78 189.97 -76.6871 205.904 -74.0613C221.838 -71.4355 235.765 -67.825 247.685 -63.2298C259.605 -58.6346 268.971 -53.2658 275.783 -47.1233C282.594 -40.9807 286 -34.4397 286 -27.5C286 -20.4666 282.594 -13.902 275.783 -7.8064C268.971 -1.71077 259.605 3.63464 247.685 8.22981C235.765 12.825 221.838 16.4355 205.904 19.0613C189.97 21.6871 173.002 23 155 23Z" fill="url(#paint1_linear_133_4931)"/>
</g>
<g filter="url(#filter1_dd_133_4931)">
<path d="M134.796 150.121C141.095 152.814 147.804 154.16 154.921 154.16C162.038 154.16 168.747 152.814 175.046 150.121C181.346 147.428 186.852 143.725 191.565 139.012C196.278 134.3 199.981 128.817 202.674 122.566C205.367 116.314 206.713 109.582 206.713 102.368C206.713 95.2511 205.367 88.5427 202.674 82.243C199.981 75.9433 196.278 70.437 191.565 65.7243C186.852 61.0115 181.346 57.3087 175.046 54.6157C168.747 51.9227 162.038 50.5762 154.921 50.5762C147.804 50.5762 141.095 51.9227 134.796 54.6157C128.496 57.3087 123.014 61.0115 118.349 65.7243C113.685 70.437 109.982 75.9433 107.241 82.243C104.499 88.5427 103.129 95.2511 103.129 102.368C103.129 109.582 104.499 116.314 107.241 122.566C109.982 128.817 113.685 134.3 118.349 139.012C123.014 143.725 128.496 147.428 134.796 150.121Z" fill="url(#paint2_linear_133_4931)" shape-rendering="crispEdges"/>
<path d="M134.533 150.736C140.919 153.466 147.717 154.829 154.921 154.829C162.125 154.829 168.923 153.466 175.309 150.736C181.685 148.01 187.263 144.26 192.038 139.485C196.812 134.711 200.562 129.158 203.288 122.83C206.019 116.49 207.382 109.667 207.382 102.368C207.382 95.1643 206.019 88.3661 203.289 81.9801C200.563 75.6042 196.813 70.0262 192.038 65.2514C187.263 60.4767 181.685 56.7264 175.309 54.0008C168.923 51.2709 162.125 49.9075 154.921 49.9075C147.717 49.9075 140.919 51.2709 134.533 54.0008C128.156 56.7266 122.601 60.4776 117.874 65.2539C113.149 70.0275 109.4 75.6034 106.627 81.9762C103.848 88.3631 102.46 95.1627 102.46 102.368C102.46 109.669 103.848 116.493 106.628 122.834C109.401 129.159 113.15 134.71 117.874 139.483C122.601 144.259 128.156 148.01 134.533 150.736Z" stroke="white" stroke-opacity="0.02" stroke-width="1.33742" shape-rendering="crispEdges"/>
</g>
<circle cx="155" cy="102" r="217.331" stroke="#B6C1FF" stroke-opacity="0.17" stroke-width="1.33742"/>
<circle cx="155" cy="102" r="173.196" stroke="#B6C1FF" stroke-opacity="0.17" stroke-width="1.33742"/>
<circle cx="155" cy="101.999" r="130.399" stroke="#B6C1FF" stroke-opacity="0.17" stroke-width="1.33742"/>
<g filter="url(#filter2_d_133_4931)">
<path d="M130.993 117.174C130.993 121.407 133.099 123.598 137.417 123.598H172.683C177.15 123.598 179.362 121.407 179.362 117.025V84.588C179.362 80.2063 177.15 77.9941 172.683 77.9941H147.052C142.607 77.9941 140.373 80.2063 140.373 84.588V94.734H135.29C132.588 94.734 130.993 96.2015 130.993 98.7328V117.174ZM134.418 117.174V99.3922C134.418 98.6052 134.886 98.1585 135.673 98.1585H140.373V117.174C140.373 118.94 139.076 120.173 137.417 120.173C135.736 120.173 134.418 118.876 134.418 117.174ZM143.075 120.173C143.543 119.259 143.798 118.195 143.798 116.962V84.7794C143.798 82.5673 144.989 81.4187 147.116 81.4187H172.619C174.746 81.4187 175.937 82.5673 175.937 84.7794V116.834C175.937 119.046 174.746 120.173 172.619 120.173H143.075ZM149.328 90.6713H170.45C171.194 90.6713 171.768 90.0757 171.768 89.3313C171.768 88.6081 171.194 88.055 170.45 88.055H149.328C148.562 88.055 147.988 88.6081 147.988 89.3313C147.988 90.0757 148.562 90.6713 149.328 90.6713ZM149.328 98.1585H170.45C171.194 98.1585 171.768 97.5842 171.768 96.8609C171.768 96.1165 171.194 95.5422 170.45 95.5422H149.328C148.562 95.5422 147.988 96.1165 147.988 96.8609C147.988 97.5842 148.562 98.1585 149.328 98.1585ZM150.583 113.324H156.092C157.709 113.324 158.687 112.346 158.687 110.729V105.667C158.687 104.029 157.709 103.051 156.092 103.051H150.583C148.945 103.051 147.967 104.029 147.967 105.667V110.729C147.967 112.346 148.945 113.324 150.583 113.324ZM162.516 105.667H170.428C171.194 105.667 171.747 105.114 171.747 104.391C171.747 103.625 171.194 103.051 170.428 103.051H162.516C161.75 103.051 161.197 103.625 161.197 104.391C161.197 105.114 161.75 105.667 162.516 105.667ZM162.516 113.324H170.428C171.194 113.324 171.747 112.771 171.747 112.048C171.747 111.304 171.194 110.708 170.428 110.708H162.516C161.75 110.708 161.197 111.304 161.197 112.048C161.197 112.771 161.75 113.324 162.516 113.324Z" fill="white"/>
</g>
</g>
<rect x="0.5" y="0.5" width="308" height="345" rx="9.5" stroke="#CCCCCC"/>
<defs>
<filter id="filter0_f_133_4931" x="-92.7" y="-194.7" width="495.4" height="334.4" filterUnits="userSpaceOnUse" color-interpolation-filters="sRGB">
<feFlood flood-opacity="0" result="BackgroundImageFix"/>
<feBlend mode="normal" in="SourceGraphic" in2="BackgroundImageFix" result="shape"/>
<feGaussianBlur stdDeviation="58.35" result="effect1_foregroundBlur_133_4931"/>
</filter>
<filter id="filter1_dd_133_4931" x="62.4682" y="19.8076" width="184.906" height="184.906" filterUnits="userSpaceOnUse" color-interpolation-filters="sRGB">
<feFlood flood-opacity="0" result="BackgroundImageFix"/>
<feColorMatrix in="SourceAlpha" type="matrix" values="0 0 0 0 0 0 0 0 0 0 0 0 0 0 0 0 0 0 127 0" result="hardAlpha"/>
<feOffset dy="9.89265"/>
<feGaussianBlur stdDeviation="19.6616"/>
<feComposite in2="hardAlpha" operator="out"/>
<feColorMatrix type="matrix" values="0 0 0 0 0.713726 0 0 0 0 0.756863 0 0 0 0 1 0 0 0 1 0"/>
<feBlend mode="normal" in2="BackgroundImageFix" result="effect1_dropShadow_133_4931"/>
<feColorMatrix in="SourceAlpha" type="matrix" values="0 0 0 0 0 0 0 0 0 0 0 0 0 0 0 0 0 0 127 0" result="hardAlpha"/>
<feOffset/>
<feGaussianBlur stdDeviation="3.74479"/>
<feComposite in2="hardAlpha" operator="out"/>
<feColorMatrix type="matrix" values="0 0 0 0 0.830683 0 0 0 0 0.853937 0 0 0 0 0.985 0 0 0 1 0"/>
<feBlend mode="normal" in2="effect1_dropShadow_133_4931" result="effect2_dropShadow_133_4931"/>
<feBlend mode="normal" in="SourceGraphic" in2="effect2_dropShadow_133_4931" result="shape"/>
</filter>
<filter id="filter2_d_133_4931" x="125.643" y="77.9941" width="59.0682" height="56.3029" filterUnits="userSpaceOnUse" color-interpolation-filters="sRGB">
<feFlood flood-opacity="0" result="BackgroundImageFix"/>
<feColorMatrix in="SourceAlpha" type="matrix" values="0 0 0 0 0 0 0 0 0 0 0 0 0 0 0 0 0 0 127 0" result="hardAlpha"/>
<feOffset dy="5.34969"/>
<feGaussianBlur stdDeviation="2.67485"/>
<feComposite in2="hardAlpha" operator="out"/>
<feColorMatrix type="matrix" values="0 0 0 0 0 0 0 0 0 0 0 0 0 0 0 0 0 0 0.14 0"/>
<feBlend mode="normal" in2="BackgroundImageFix" result="effect1_dropShadow_133_4931"/>
<feBlend mode="normal" in="SourceGraphic" in2="effect1_dropShadow_133_4931" result="shape"/>
</filter>
<linearGradient id="paint0_linear_133_4931" x1="155" y1="62.5469" x2="155" y2="188.933" gradientUnits="userSpaceOnUse">
<stop stop-color="#EFF1FF"/>
<stop offset="1" stop-color="white"/>
</linearGradient>
<linearGradient id="paint1_linear_133_4931" x1="155" y1="-78" x2="155" y2="23" gradientUnits="userSpaceOnUse">
<stop stop-color="#B6C1FF"/>
<stop offset="1" stop-color="#E0E5FF"/>
</linearGradient>
<linearGradient id="paint2_linear_133_4931" x1="154.921" y1="50.5762" x2="154.921" y2="154.16" gradientUnits="userSpaceOnUse">
<stop stop-color="#3495FF"/>
<stop offset="1" stop-color="#CED5FF"/>
</linearGradient>
<clipPath id="clip0_133_4931">
<rect width="309" height="346" rx="10" fill="white"/>
</clipPath>
</defs>
</svg>
