<svg width="74" height="74" viewBox="0 0 74 74" fill="none" xmlns="http://www.w3.org/2000/svg">
<path d="M37 7.51562C31.1686 7.51562 25.4681 9.24485 20.6194 12.4846C15.7707 15.7244 11.9916 20.3293 9.76 25.7168C7.5284 31.1044 6.94451 37.0327 8.08217 42.7521C9.21983 48.4715 12.0279 53.7251 16.1514 57.8486C20.2749 61.9721 25.5285 64.7802 31.2479 65.9178C36.9673 67.0555 42.8956 66.4716 48.2832 64.24C53.6708 62.0084 58.2756 58.2293 61.5154 53.3806C64.7552 48.532 66.4844 42.8315 66.4844 37C66.4752 29.1831 63.3659 21.6889 57.8385 16.1615C52.3111 10.6341 44.8169 7.52481 37 7.51562ZM37 63.0156C31.8546 63.0156 26.8248 61.4898 22.5465 58.6312C18.2683 55.7726 14.9338 51.7095 12.9647 46.9557C10.9956 42.202 10.4805 36.9711 11.4843 31.9246C12.4881 26.8781 14.9658 22.2425 18.6042 18.6042C22.2425 14.9658 26.8781 12.4881 31.9246 11.4843C36.9712 10.4804 42.202 10.9956 46.9558 12.9647C51.7095 14.9338 55.7726 18.2682 58.6312 22.5465C61.4898 26.8247 63.0156 31.8546 63.0156 37C63.008 43.8974 60.2646 50.5102 55.3874 55.3874C50.5102 60.2646 43.8974 63.008 37 63.0156ZM42.8275 40.3011C44.644 39.4948 46.1283 38.0891 47.0322 36.3192C47.9361 34.5493 48.2047 32.5226 47.7929 30.5784C47.3812 28.6341 46.3142 26.8903 44.7704 25.6388C43.2267 24.3872 41.2999 23.7039 39.3125 23.7031H30.0625C29.6025 23.7031 29.1614 23.8859 28.8361 24.2111C28.5109 24.5364 28.3281 24.9775 28.3281 25.4375V48.5625C28.3281 49.0225 28.5109 49.4636 28.8361 49.7889C29.1614 50.1141 29.6025 50.2969 30.0625 50.2969C30.5225 50.2969 30.9636 50.1141 31.2889 49.7889C31.6142 49.4636 31.7969 49.0225 31.7969 48.5625V41.0469H39.1564L44.8047 49.5251C45.06 49.9084 45.4571 50.1746 45.9087 50.2651C46.3602 50.3557 46.8293 50.2631 47.2126 50.0078C47.5959 49.7525 47.8621 49.3554 47.9526 48.9038C48.0432 48.4523 47.9506 47.9832 47.6953 47.5999L42.8275 40.3011ZM31.7969 27.1719H39.3125C40.6925 27.1719 42.0159 27.7201 42.9917 28.6958C43.9675 29.6716 44.5156 30.995 44.5156 32.375C44.5156 33.755 43.9675 35.0784 42.9917 36.0542C42.0159 37.0299 40.6925 37.5781 39.3125 37.5781H31.7969V27.1719Z" fill="#B6C1FF"/>
<path d="M42.8275 40.3011C44.6439 39.4948 46.1283 38.0891 47.0322 36.3192C47.9361 34.5493 48.2047 32.5226 47.7929 30.5784C47.3812 28.6341 46.3141 26.8903 44.7704 25.6388C43.2266 24.3872 41.2999 23.7039 39.3125 23.7031H30.0625C29.6025 23.7031 29.1614 23.8859 28.8361 24.2111C28.5109 24.5364 28.3281 24.9775 28.3281 25.4375V48.5625C28.3281 49.0225 28.5109 49.4636 28.8361 49.7889C29.1614 50.1141 29.6025 50.2969 30.0625 50.2969C30.5225 50.2969 30.9636 50.1141 31.2889 49.7889C31.6141 49.4636 31.7969 49.0225 31.7969 48.5625V41.0469H39.1564L44.8047 49.5251C45.06 49.9084 45.4571 50.1746 45.9087 50.2651C46.3602 50.3557 46.8293 50.2631 47.2126 50.0078C47.5959 49.7525 47.8621 49.3554 47.9526 48.9038C48.0432 48.4523 47.9506 47.9832 47.6953 47.5999L42.8275 40.3011ZM31.7969 27.1719H39.3125C40.6925 27.1719 42.0159 27.7201 42.9917 28.6958C43.9674 29.6716 44.5156 30.995 44.5156 32.375C44.5156 33.755 43.9674 35.0784 42.9917 36.0542C42.0159 37.0299 40.6925 37.5781 39.3125 37.5781H31.7969V27.1719Z" fill="#556FF9"/>
</svg>
