<svg width="64" height="64" viewBox="0 0 64 64" fill="none" xmlns="http://www.w3.org/2000/svg">
<g filter="url(#filter0_di_1224_4767)">
<g clip-path="url(#clip0_1224_4767)">
<rect x="2" width="60" height="60" rx="4.33333" fill="url(#paint0_linear_1224_4767)"/>
<g filter="url(#filter1_f_1224_4767)">
<ellipse cx="32.5" cy="59.5" rx="29.5" ry="11.5" fill="white" fill-opacity="0.49"/>
</g>
<g filter="url(#filter2_d_1224_4767)">
<path d="M36.4268 22.0511C36.1061 22.0511 35.8373 21.9427 35.6202 21.726C35.4034 21.5089 35.295 21.2399 35.295 20.919C35.295 20.5984 35.4034 20.3297 35.6202 20.1129C35.8373 19.8964 36.1061 19.7881 36.4268 19.7881H45.4804C45.8011 19.7881 46.0698 19.8966 46.2866 20.1136C46.5036 20.3304 46.6121 20.5993 46.6121 20.9202C46.6121 21.2408 46.5036 21.5095 46.2866 21.7263C46.0698 21.9429 45.8011 22.0511 45.4804 22.0511H36.4268ZM36.4268 27.913C36.1061 27.913 35.8373 27.8045 35.6202 27.5875C35.4034 27.3704 35.295 27.1016 35.295 26.7809C35.295 26.46 35.4034 26.1913 35.6202 25.9748C35.8373 25.758 36.1061 25.6496 36.4268 25.6496H45.4804C45.8011 25.6496 46.0698 25.7581 46.2866 25.9751C46.5036 26.1922 46.6121 26.461 46.6121 26.7817C46.6121 27.1026 46.5036 27.3713 46.2866 27.5878C46.0698 27.8046 45.8011 27.913 45.4804 27.913H36.4268ZM36.4268 33.7745C36.1061 33.7745 35.8373 33.666 35.6202 33.449C35.4034 33.2322 35.295 32.9633 35.295 32.6424C35.295 32.3218 35.4034 32.0531 35.6202 31.8363C35.8373 31.6197 36.1061 31.5115 36.4268 31.5115H45.4804C45.8011 31.5115 46.0698 31.6199 46.2866 31.8367C46.5036 32.0537 46.6121 32.3227 46.6121 32.6436C46.6121 32.9642 46.5036 33.2329 46.2866 33.4497C46.0698 33.6663 45.8011 33.7745 45.4804 33.7745H36.4268ZM25.8675 32.527C24.7723 32.527 23.8401 32.1436 23.0711 31.3768C22.302 30.61 21.9175 29.679 21.9175 28.5837C21.9175 27.4885 22.3009 26.5565 23.0677 25.7877C23.8345 25.0186 24.7655 24.6341 25.8607 24.6341C26.956 24.6341 27.8881 25.0173 28.6572 25.7839C29.426 26.5507 29.8104 27.4817 29.8104 28.577C29.8104 29.6722 29.4271 30.6044 28.6606 31.3734C27.8938 32.1425 26.9628 32.527 25.8675 32.527ZM17.3906 39.6364V38.7137C17.3906 38.2854 17.4946 37.8775 17.7026 37.4899C17.9106 37.1024 18.1974 36.7946 18.5631 36.5665C19.6561 35.9259 20.8095 35.4408 22.0235 35.1111C23.2377 34.7811 24.5179 34.6161 25.8641 34.6161C27.2104 34.6161 28.4904 34.7811 29.7044 35.1111C30.9183 35.4408 32.0719 35.9259 33.1652 36.5665C33.5306 36.7946 33.8173 37.1024 34.0253 37.4899C34.2332 37.8775 34.3372 38.2854 34.3372 38.7137V39.6364C34.3372 40.0227 34.2066 40.3466 33.9453 40.6082C33.6837 40.8695 33.3598 41.0001 32.9735 41.0001H18.7547C18.3682 41.0001 18.0443 40.8695 17.783 40.6082C17.5214 40.3466 17.3906 40.0227 17.3906 39.6364Z" fill="white"/>
<path d="M29.1898 25.2495L29.19 25.2497C30.1021 26.1594 30.5649 27.2832 30.5649 28.577C30.5649 29.8699 30.1038 30.9942 29.1949 31.906L29.1949 31.9061C28.2852 32.8185 27.1613 33.2815 25.8675 33.2815C24.5745 33.2815 23.4502 32.8202 22.5384 31.9111C21.626 31.0014 21.163 29.8776 21.163 28.5837C21.163 27.2907 21.6242 26.1666 22.5334 25.255L29.1898 25.2495ZM29.1898 25.2495C28.278 24.3407 27.1537 23.8796 25.8607 23.8796C24.567 23.8796 23.4432 24.3425 22.5335 25.2549L29.1898 25.2495ZM18.1726 35.9208L18.1816 35.9155C19.3317 35.2415 20.5469 34.7303 21.8257 34.383C23.1087 34.0343 24.4557 33.8617 25.8641 33.8617C27.2725 33.8617 28.6194 34.0343 29.9021 34.383L18.1726 35.9208ZM18.1726 35.9208L18.1638 35.9263M18.1726 35.9208L18.1638 35.9263M18.1638 35.9263C17.684 36.2256 17.3067 36.6321 17.0378 37.1332C16.7726 37.6273 16.6362 38.1575 16.6362 38.7137V39.6364C16.6362 40.2129 16.8396 40.7318 17.2495 41.1417C17.6593 41.5516 18.1783 41.7546 18.7547 41.7546H32.9735C33.5498 41.7546 34.0686 41.5515 34.4785 41.1419L34.479 41.1414C34.8886 40.7315 35.0917 40.2127 35.0917 39.6364V38.7137C35.0917 38.1575 34.9553 37.6273 34.6901 37.1332C34.4212 36.6322 34.0441 36.2257 33.5647 35.9264L33.5557 35.9208M18.1638 35.9263L33.5557 35.9208M33.5557 35.9208L33.5466 35.9155M33.5557 35.9208L33.5466 35.9155M33.5466 35.9155C32.3963 35.2415 31.181 34.7303 29.9023 34.383L33.5466 35.9155ZM35.0864 22.2591L35.087 22.2598C35.4525 22.6248 35.9162 22.8056 36.4268 22.8056H45.4804C45.9907 22.8056 46.4544 22.6251 46.8198 22.2601C47.1855 21.8948 47.3666 21.431 47.3666 20.9202C47.3666 20.4093 47.1856 19.9453 46.8198 19.5798C46.4546 19.2145 45.9909 19.0336 45.4804 19.0336H36.4268C35.9165 19.0336 35.4529 19.2141 35.0873 19.5788L35.0867 19.5794C34.7214 19.9447 34.5406 20.4085 34.5406 20.919C34.5406 21.4296 34.7212 21.8935 35.0864 22.2591ZM35.0864 28.1206L35.0867 28.121C35.4522 28.4864 35.916 28.6675 36.4268 28.6675H45.4804C45.991 28.6675 46.4547 28.4867 46.8201 28.1213C47.1858 27.7561 47.3666 27.2923 47.3666 26.7817C47.3666 26.271 47.1856 25.8073 46.8204 25.442C46.4551 25.0763 45.9912 24.8951 45.4804 24.8951H36.4268C35.9162 24.8951 35.4525 25.0759 35.087 25.441C34.7213 25.8063 34.5406 26.2703 34.5406 26.7809C34.5406 27.2914 34.7214 27.7552 35.0864 28.1206ZM35.0873 31.3022L35.0867 31.3028C34.7214 31.6681 34.5406 32.1319 34.5406 32.6424C34.5406 33.153 34.7213 33.617 35.0867 33.9825C35.4521 34.3479 35.916 34.529 36.4268 34.529H45.4804C45.9907 34.529 46.4544 34.3485 46.8198 33.9835C47.1855 33.6182 47.3666 33.1544 47.3666 32.6436C47.3666 32.1327 47.1856 31.6687 46.8201 31.3032C46.4547 30.9378 45.991 30.757 45.4804 30.757H36.4268C35.9165 30.757 35.4529 30.9375 35.0873 31.3022Z" stroke="url(#paint1_linear_1224_4767)" stroke-width="1.50895"/>
</g>
</g>
<rect x="2.36111" y="0.361111" width="59.2778" height="59.2778" rx="3.97222" stroke="black" stroke-opacity="0.15" stroke-width="0.722222"/>
</g>
<defs>
<filter id="filter0_di_1224_4767" x="0.338889" y="0" width="63.3222" height="63.8278" filterUnits="userSpaceOnUse" color-interpolation-filters="sRGB">
<feFlood flood-opacity="0" result="BackgroundImageFix"/>
<feColorMatrix in="SourceAlpha" type="matrix" values="0 0 0 0 0 0 0 0 0 0 0 0 0 0 0 0 0 0 127 0" result="hardAlpha"/>
<feOffset dy="2.16667"/>
<feGaussianBlur stdDeviation="0.830555"/>
<feComposite in2="hardAlpha" operator="out"/>
<feColorMatrix type="matrix" values="0 0 0 0 0.598333 0 0 0 0 0.598333 0 0 0 0 0.598333 0 0 0 0.25 0"/>
<feBlend mode="normal" in2="BackgroundImageFix" result="effect1_dropShadow_1224_4767"/>
<feBlend mode="normal" in="SourceGraphic" in2="effect1_dropShadow_1224_4767" result="shape"/>
<feColorMatrix in="SourceAlpha" type="matrix" values="0 0 0 0 0 0 0 0 0 0 0 0 0 0 0 0 0 0 127 0" result="hardAlpha"/>
<feOffset dy="2.16667"/>
<feGaussianBlur stdDeviation="0.65"/>
<feComposite in2="hardAlpha" operator="arithmetic" k2="-1" k3="1"/>
<feColorMatrix type="matrix" values="0 0 0 0 1 0 0 0 0 1 0 0 0 0 1 0 0 0 0.35 0"/>
<feBlend mode="normal" in2="shape" result="effect2_innerShadow_1224_4767"/>
</filter>
<filter id="filter1_f_1224_4767" x="-11.2" y="33.8" width="87.4" height="51.4" filterUnits="userSpaceOnUse" color-interpolation-filters="sRGB">
<feFlood flood-opacity="0" result="BackgroundImageFix"/>
<feBlend mode="normal" in="SourceGraphic" in2="BackgroundImageFix" result="shape"/>
<feGaussianBlur stdDeviation="7.1" result="effect1_foregroundBlur_1224_4767"/>
</filter>
<filter id="filter2_d_1224_4767" x="9.84702" y="18.2793" width="44.3138" height="36.3011" filterUnits="userSpaceOnUse" color-interpolation-filters="sRGB">
<feFlood flood-opacity="0" result="BackgroundImageFix"/>
<feColorMatrix in="SourceAlpha" type="matrix" values="0 0 0 0 0 0 0 0 0 0 0 0 0 0 0 0 0 0 127 0" result="hardAlpha"/>
<feOffset dy="6.03579"/>
<feGaussianBlur stdDeviation="3.0179"/>
<feComposite in2="hardAlpha" operator="out"/>
<feColorMatrix type="matrix" values="0 0 0 0 0 0 0 0 0 0 0 0 0 0 0 0 0 0 0.25 0"/>
<feBlend mode="normal" in2="BackgroundImageFix" result="effect1_dropShadow_1224_4767"/>
<feBlend mode="normal" in="SourceGraphic" in2="effect1_dropShadow_1224_4767" result="shape"/>
</filter>
<linearGradient id="paint0_linear_1224_4767" x1="32" y1="0" x2="32" y2="60" gradientUnits="userSpaceOnUse">
<stop stop-color="#556FF9"/>
<stop offset="1" stop-color="#5770F2"/>
</linearGradient>
<linearGradient id="paint1_linear_1224_4767" x1="32.0014" y1="19.7881" x2="32.0014" y2="41.0001" gradientUnits="userSpaceOnUse">
<stop stop-color="white"/>
<stop offset="1" stop-color="#007AFF"/>
</linearGradient>
<clipPath id="clip0_1224_4767">
<rect x="2" width="60" height="60" rx="4.33333" fill="white"/>
</clipPath>
</defs>
</svg>
